<svg xmlns="http://www.w3.org/2000/svg" width="340" height="200" viewBox="0 0 340 200" font-family="'Segoe UI', Ubuntu, Sans-Serif">
  <rect x="0.5" y="0.5" width="339" height="199" rx="6" fill="#282a36" stroke="#282a36" stroke-opacity="1.00"/>
  <text x="20" y="30" font-size="15" font-weight="600" fill="#ff79c6">Most Commit Language (last year)</text>
  <rect x="20" y="47" width="10" height="10" fill="#f1e05a" stroke="#282a36" stroke-width="1"/>
  <text x="36" y="55" font-size="11" fill="#ffb86c">JavaScript 40.38%</text>
  <rect x="20" y="67" width="10" height="10" fill="#00ADD8" stroke="#282a36" stroke-width="1"/>
  <text x="36" y="75" font-size="11" fill="#ffb86c">Go 20.92%</text>
  <rect x="20" y="87" width="10" height="10" fill="#b07219" stroke="#282a36" stroke-width="1"/>
  <text x="36" y="95" font-size="11" fill="#ffb86c">Java 5.99%</text>
  <rect x="20" y="107" width="10" height="10" fill="#e34c26" stroke="#282a36" stroke-width="1"/>
  <text x="36" y="115" font-size="11" fill="#ffb86c">HTML 5.24%</text>
  <rect x="20" y="127" width="10" height="10" fill="#3178c6" stroke="#282a36" stroke-width="1"/>
  <text x="36" y="135" font-size="11" fill="#ffb86c">TypeScript 5.19%</text>
  <rect x="20" y="147" width="10" height="10" fill="#ff3e00" stroke="#282a36" stroke-width="1"/>
  <text x="36" y="155" font-size="11" fill="#ffb86c">Svelte 4.57%</text>
  <rect x="20" y="167" width="10" height="10" fill="#bd93f9" stroke="#282a36" stroke-width="1"/>
  <text x="36" y="175" font-size="11" fill="#ffb86c">Other 17.71%</text>
  <path d="M250.00,55.00 A55.00,55.00 0 0 1 281.25,155.26 L267.04,134.69 A30.00,30.00 0 0 0 250.00,80.00 Z" fill="#f1e05a" stroke="#282a36" stroke-width="1.5"/>
  <path d="M281.25,155.26 A55.00,55.00 0 0 1 214.15,151.71 L230.45,132.75 A30.00,30.00 0 0 0 267.04,134.69 Z" fill="#00ADD8" stroke="#282a36" stroke-width="1.5"/>
  <path d="M214.15,151.71 A55.00,55.00 0 0 1 201.33,135.61 L223.45,123.97 A30.00,30.00 0 0 0 230.45,132.75 Z" fill="#b07219" stroke="#282a36" stroke-width="1.5"/>
  <path d="M201.33,135.61 A55.00,55.00 0 0 1 195.66,118.49 L220.36,114.63 A30.00,30.00 0 0 0 223.45,123.97 Z" fill="#e34c26" stroke="#282a36" stroke-width="1.5"/>
  <path d="M195.66,118.49 A55.00,55.00 0 0 1 195.80,100.64 L220.44,104.89 A30.00,30.00 0 0 0 220.36,114.63 Z" fill="#3178c6" stroke="#282a36" stroke-width="1.5"/>
  <path d="M195.80,100.64 A55.00,55.00 0 0 1 200.67,85.69 L223.09,96.74 A30.00,30.00 0 0 0 220.44,104.89 Z" fill="#ff3e00" stroke="#282a36" stroke-width="1.5"/>
  <path d="M200.67,85.69 A55.00,55.00 0 0 1 250.00,55.00 L250.00,80.00 A30.00,30.00 0 0 0 223.09,96.74 Z" fill="#bd93f9" stroke="#282a36" stroke-width="1.5"/>
</svg>