<svg xmlns="http://www.w3.org/2000/svg" width="340" height="200" viewBox="0 0 340 200" font-family="'Segoe UI', Ubuntu, Sans-Serif">
  <rect x="0.5" y="0.5" width="339" height="199" rx="6" fill="#282a36" stroke="#282a36" stroke-opacity="1.00"/>
  <text x="20" y="30" font-size="15" font-weight="600" fill="#ff79c6">Most Commit Language (all time)</text>
  <rect x="20" y="47" width="10" height="10" fill="#f1e05a" stroke="#282a36" stroke-width="1"/>
  <text x="36" y="55" font-size="11" fill="#ffb86c">JavaScript 35.61%</text>
  <rect x="20" y="67" width="10" height="10" fill="#b07219" stroke="#282a36" stroke-width="1"/>
  <text x="36" y="75" font-size="11" fill="#ffb86c">Java 12.76%</text>
  <rect x="20" y="87" width="10" height="10" fill="#00ADD8" stroke="#282a36" stroke-width="1"/>
  <text x="36" y="95" font-size="11" fill="#ffb86c">Go 12.12%</text>
  <rect x="20" y="107" width="10" height="10" fill="#e34c26" stroke="#282a36" stroke-width="1"/>
  <text x="36" y="115" font-size="11" fill="#ffb86c">HTML 11.50%</text>
  <rect x="20" y="127" width="10" height="10" fill="#3572A5" stroke="#282a36" stroke-width="1"/>
  <text x="36" y="135" font-size="11" fill="#ffb86c">Python 4.02%</text>
  <rect x="20" y="147" width="10" height="10" fill="#3178c6" stroke="#282a36" stroke-width="1"/>
  <text x="36" y="155" font-size="11" fill="#ffb86c">TypeScript 3.92%</text>
  <rect x="20" y="167" width="10" height="10" fill="#bd93f9" stroke="#282a36" stroke-width="1"/>
  <text x="36" y="175" font-size="11" fill="#ffb86c">Other 20.06%</text>
  <path d="M250.00,55.00 A55.00,55.00 0 0 1 293.22,144.02 L273.57,128.56 A30.00,30.00 0 0 0 250.00,80.00 Z" fill="#f1e05a" stroke="#282a36" stroke-width="1.5"/>
  <path d="M293.22,144.02 A55.00,55.00 0 0 1 255.60,164.71 L253.05,139.84 A30.00,30.00 0 0 0 273.57,128.56 Z" fill="#b07219" stroke="#282a36" stroke-width="1.5"/>
  <path d="M255.60,164.71 A55.00,55.00 0 0 1 216.29,153.46 L231.61,133.70 A30.00,30.00 0 0 0 253.05,139.84 Z" fill="#00ADD8" stroke="#282a36" stroke-width="1.5"/>
  <path d="M216.29,153.46 A55.00,55.00 0 0 1 195.98,120.32 L220.53,115.63 A30.00,30.00 0 0 0 231.61,133.70 Z" fill="#e34c26" stroke="#282a36" stroke-width="1.5"/>
  <path d="M195.98,120.32 A55.00,55.00 0 0 1 195.11,106.48 L220.06,108.08 A30.00,30.00 0 0 0 220.53,115.63 Z" fill="#3572A5" stroke="#282a36" stroke-width="1.5"/>
  <path d="M195.11,106.48 A55.00,55.00 0 0 1 197.63,93.20 L221.43,100.84 A30.00,30.00 0 0 0 220.06,108.08 Z" fill="#3178c6" stroke="#282a36" stroke-width="1.5"/>
  <path d="M197.63,93.20 A55.00,55.00 0 0 1 250.00,55.00 L250.00,80.00 A30.00,30.00 0 0 0 221.43,100.84 Z" fill="#bd93f9" stroke="#282a36" stroke-width="1.5"/>
</svg>