<svg xmlns="http://www.w3.org/2000/svg" width="340" height="200" viewBox="0 0 340 200" font-family="'Segoe UI', Ubuntu, Sans-Serif">
  <rect x="0.5" y="0.5" width="339" height="199" rx="6" fill="#282a36" stroke="#282a36" stroke-opacity="1.00"/>
  <text x="20" y="30" font-size="15" font-weight="600" fill="#ff79c6">Most Commit Language (last year)</text>
  <rect x="20" y="47" width="10" height="10" fill="#f1e05a" stroke="#282a36" stroke-width="1"/>
  <text x="36" y="55" font-size="11" fill="#ffb86c">JavaScript 42.58%</text>
  <rect x="20" y="67" width="10" height="10" fill="#00ADD8" stroke="#282a36" stroke-width="1"/>
  <text x="36" y="75" font-size="11" fill="#ffb86c">Go 17.10%</text>
  <rect x="20" y="87" width="10" height="10" fill="#b07219" stroke="#282a36" stroke-width="1"/>
  <text x="36" y="95" font-size="11" fill="#ffb86c">Java 7.02%</text>
  <rect x="20" y="107" width="10" height="10" fill="#e34c26" stroke="#282a36" stroke-width="1"/>
  <text x="36" y="115" font-size="11" fill="#ffb86c">HTML 6.11%</text>
  <rect x="20" y="127" width="10" height="10" fill="#3178c6" stroke="#282a36" stroke-width="1"/>
  <text x="36" y="135" font-size="11" fill="#ffb86c">TypeScript 5.38%</text>
  <rect x="20" y="147" width="10" height="10" fill="#ff3e00" stroke="#282a36" stroke-width="1"/>
  <text x="36" y="155" font-size="11" fill="#ffb86c">Svelte 4.74%</text>
  <rect x="20" y="167" width="10" height="10" fill="#bd93f9" stroke="#282a36" stroke-width="1"/>
  <text x="36" y="175" font-size="11" fill="#ffb86c">Other 17.09%</text>
  <path d="M250.00,55.00 A55.00,55.00 0 0 1 274.73,159.12 L263.49,136.80 A30.00,30.00 0 0 0 250.00,80.00 Z" fill="#f1e05a" stroke="#282a36" stroke-width="1.5"/>
  <path d="M274.73,159.12 A55.00,55.00 0 0 1 218.59,155.15 L232.87,134.63 A30.00,30.00 0 0 0 263.49,136.80 Z" fill="#00ADD8" stroke="#282a36" stroke-width="1.5"/>
  <path d="M218.59,155.15 A55.00,55.00 0 0 1 202.33,137.43 L224.00,124.96 A30.00,30.00 0 0 0 232.87,134.63 Z" fill="#b07219" stroke="#282a36" stroke-width="1.5"/>
  <path d="M202.33,137.43 A55.00,55.00 0 0 1 195.53,117.59 L220.29,114.14 A30.00,30.00 0 0 0 224.00,124.96 Z" fill="#e34c26" stroke="#282a36" stroke-width="1.5"/>
  <path d="M195.53,117.59 A55.00,55.00 0 0 1 196.09,99.11 L220.59,104.06 A30.00,30.00 0 0 0 220.29,114.14 Z" fill="#3178c6" stroke="#282a36" stroke-width="1.5"/>
  <path d="M196.09,99.11 A55.00,55.00 0 0 1 201.66,83.77 L223.63,95.69 A30.00,30.00 0 0 0 220.59,104.06 Z" fill="#ff3e00" stroke="#282a36" stroke-width="1.5"/>
  <path d="M201.66,83.77 A55.00,55.00 0 0 1 250.00,55.00 L250.00,80.00 A30.00,30.00 0 0 0 223.63,95.69 Z" fill="#bd93f9" stroke="#282a36" stroke-width="1.5"/>
</svg>