<svg xmlns="http://www.w3.org/2000/svg" width="340" height="200" viewBox="0 0 340 200" font-family="'Segoe UI', Ubuntu, Sans-Serif">
  <rect x="0.5" y="0.5" width="339" height="199" rx="6" fill="#282a36" stroke="#282a36" stroke-opacity="1.00"/>
  <text x="20" y="30" font-size="15" font-weight="600" fill="#ff79c6">Most Commit Language (all time)</text>
  <rect x="20" y="47" width="10" height="10" fill="#f1e05a" stroke="#282a36" stroke-width="1"/>
  <text x="36" y="55" font-size="11" fill="#ffb86c">JavaScript 35.93%</text>
  <rect x="20" y="67" width="10" height="10" fill="#b07219" stroke="#282a36" stroke-width="1"/>
  <text x="36" y="75" font-size="11" fill="#ffb86c">Java 15.52%</text>
  <rect x="20" y="87" width="10" height="10" fill="#e34c26" stroke="#282a36" stroke-width="1"/>
  <text x="36" y="95" font-size="11" fill="#ffb86c">HTML 14.33%</text>
  <rect x="20" y="107" width="10" height="10" fill="#00ADD8" stroke="#282a36" stroke-width="1"/>
  <text x="36" y="115" font-size="11" fill="#ffb86c">Go 9.69%</text>
  <rect x="20" y="127" width="10" height="10" fill="#3572A5" stroke="#282a36" stroke-width="1"/>
  <text x="36" y="135" font-size="11" fill="#ffb86c">Python 4.19%</text>
  <rect x="20" y="147" width="10" height="10" fill="#f34b7d" stroke="#282a36" stroke-width="1"/>
  <text x="36" y="155" font-size="11" fill="#ffb86c">C++ 3.90%</text>
  <rect x="20" y="167" width="10" height="10" fill="#bd93f9" stroke="#282a36" stroke-width="1"/>
  <text x="36" y="175" font-size="11" fill="#ffb86c">Other 16.45%</text>
  <path d="M250.00,55.00 A55.00,55.00 0 0 1 292.54,144.86 L273.20,129.02 A30.00,30.00 0 0 0 250.00,80.00 Z" fill="#f1e05a" stroke="#282a36" stroke-width="1.5"/>
  <path d="M292.54,144.86 A55.00,55.00 0 0 1 245.01,164.77 L247.28,139.88 A30.00,30.00 0 0 0 273.20,129.02 Z" fill="#b07219" stroke="#282a36" stroke-width="1.5"/>
  <path d="M245.01,164.77 A55.00,55.00 0 0 1 203.99,140.13 L224.90,126.43 A30.00,30.00 0 0 0 247.28,139.88 Z" fill="#e34c26" stroke="#282a36" stroke-width="1.5"/>
  <path d="M203.99,140.13 A55.00,55.00 0 0 1 195.02,108.40 L220.01,109.13 A30.00,30.00 0 0 0 224.90,126.43 Z" fill="#00ADD8" stroke="#282a36" stroke-width="1.5"/>
  <path d="M195.02,108.40 A55.00,55.00 0 0 1 197.33,94.17 L221.27,101.36 A30.00,30.00 0 0 0 220.01,109.13 Z" fill="#3572A5" stroke="#282a36" stroke-width="1.5"/>
  <path d="M197.33,94.17 A55.00,55.00 0 0 1 202.75,81.85 L224.23,94.65 A30.00,30.00 0 0 0 221.27,101.36 Z" fill="#f34b7d" stroke="#282a36" stroke-width="1.5"/>
  <path d="M202.75,81.85 A55.00,55.00 0 0 1 250.00,55.00 L250.00,80.00 A30.00,30.00 0 0 0 224.23,94.65 Z" fill="#bd93f9" stroke="#282a36" stroke-width="1.5"/>
</svg>