<svg xmlns="http://www.w3.org/2000/svg" width="340" height="200" viewBox="0 0 340 200" font-family="'Segoe UI', Ubuntu, Sans-Serif">
  <rect x="0.5" y="0.5" width="339" height="199" rx="6" fill="#282a36" stroke="#282a36" stroke-opacity="1.00"/>
  <text x="20" y="30" font-size="15" font-weight="600" fill="#ff79c6">Most Commit Language (all time)</text>
  <rect x="20" y="47" width="10" height="10" fill="#f1e05a" stroke="#282a36" stroke-width="1"/>
  <text x="36" y="55" font-size="11" fill="#ffb86c">JavaScript 34.98%</text>
  <rect x="20" y="67" width="10" height="10" fill="#00ADD8" stroke="#282a36" stroke-width="1"/>
  <text x="36" y="75" font-size="11" fill="#ffb86c">Go 15.10%</text>
  <rect x="20" y="87" width="10" height="10" fill="#b07219" stroke="#282a36" stroke-width="1"/>
  <text x="36" y="95" font-size="11" fill="#ffb86c">Java 12.06%</text>
  <rect x="20" y="107" width="10" height="10" fill="#e34c26" stroke="#282a36" stroke-width="1"/>
  <text x="36" y="115" font-size="11" fill="#ffb86c">HTML 10.86%</text>
  <rect x="20" y="127" width="10" height="10" fill="#3572A5" stroke="#282a36" stroke-width="1"/>
  <text x="36" y="135" font-size="11" fill="#ffb86c">Python 4.90%</text>
  <rect x="20" y="147" width="10" height="10" fill="#3178c6" stroke="#282a36" stroke-width="1"/>
  <text x="36" y="155" font-size="11" fill="#ffb86c">TypeScript 3.76%</text>
  <rect x="20" y="167" width="10" height="10" fill="#bd93f9" stroke="#282a36" stroke-width="1"/>
  <text x="36" y="175" font-size="11" fill="#ffb86c">Other 18.35%</text>
  <path d="M250.00,55.00 A55.00,55.00 0 0 1 294.54,142.26 L274.30,127.60 A30.00,30.00 0 0 0 250.00,80.00 Z" fill="#f1e05a" stroke="#282a36" stroke-width="1.5"/>
  <path d="M294.54,142.26 A55.00,55.00 0 0 1 249.74,165.00 L249.86,140.00 A30.00,30.00 0 0 0 274.30,127.60 Z" fill="#00ADD8" stroke="#282a36" stroke-width="1.5"/>
  <path d="M249.74,165.00 A55.00,55.00 0 0 1 212.01,149.77 L229.28,131.69 A30.00,30.00 0 0 0 249.86,140.00 Z" fill="#b07219" stroke="#282a36" stroke-width="1.5"/>
  <path d="M212.01,149.77 A55.00,55.00 0 0 1 195.44,116.92 L220.24,113.78 A30.00,30.00 0 0 0 229.28,131.69 Z" fill="#e34c26" stroke="#282a36" stroke-width="1.5"/>
  <path d="M195.44,116.92 A55.00,55.00 0 0 1 195.91,100.06 L220.49,104.58 A30.00,30.00 0 0 0 220.24,113.78 Z" fill="#3572A5" stroke="#282a36" stroke-width="1.5"/>
  <path d="M195.91,100.06 A55.00,55.00 0 0 1 199.74,87.67 L222.58,97.82 A30.00,30.00 0 0 0 220.49,104.58 Z" fill="#3178c6" stroke="#282a36" stroke-width="1.5"/>
  <path d="M199.74,87.67 A55.00,55.00 0 0 1 250.00,55.00 L250.00,80.00 A30.00,30.00 0 0 0 222.58,97.82 Z" fill="#bd93f9" stroke="#282a36" stroke-width="1.5"/>
</svg>