<svg xmlns="http://www.w3.org/2000/svg" width="340" height="200" viewBox="0 0 340 200" font-family="'Segoe UI', Ubuntu, Sans-Serif">
  <rect x="0.5" y="0.5" width="339" height="199" rx="6" fill="#282a36" stroke="#282a36" stroke-opacity="1.00"/>
  <text x="20" y="30" font-size="15" font-weight="600" fill="#ff79c6">Most Commit Language (last year)</text>
  <rect x="20" y="47" width="10" height="10" fill="#f1e05a" stroke="#282a36" stroke-width="1"/>
  <text x="36" y="55" font-size="11" fill="#ffb86c">JavaScript 43.15%</text>
  <rect x="20" y="67" width="10" height="10" fill="#00ADD8" stroke="#282a36" stroke-width="1"/>
  <text x="36" y="75" font-size="11" fill="#ffb86c">Go 16.10%</text>
  <rect x="20" y="87" width="10" height="10" fill="#b07219" stroke="#282a36" stroke-width="1"/>
  <text x="36" y="95" font-size="11" fill="#ffb86c">Java 6.57%</text>
  <rect x="20" y="107" width="10" height="10" fill="#e34c26" stroke="#282a36" stroke-width="1"/>
  <text x="36" y="115" font-size="11" fill="#ffb86c">HTML 5.72%</text>
  <rect x="20" y="127" width="10" height="10" fill="#3178c6" stroke="#282a36" stroke-width="1"/>
  <text x="36" y="135" font-size="11" fill="#ffb86c">TypeScript 5.40%</text>
  <rect x="20" y="147" width="10" height="10" fill="#ff3e00" stroke="#282a36" stroke-width="1"/>
  <text x="36" y="155" font-size="11" fill="#ffb86c">Svelte 4.78%</text>
  <rect x="20" y="167" width="10" height="10" fill="#bd93f9" stroke="#282a36" stroke-width="1"/>
  <text x="36" y="175" font-size="11" fill="#ffb86c">Other 18.28%</text>
  <path d="M250.00,55.00 A55.00,55.00 0 0 1 272.94,159.99 L262.51,137.27 A30.00,30.00 0 0 0 250.00,80.00 Z" fill="#f1e05a" stroke="#282a36" stroke-width="1.5"/>
  <path d="M272.94,159.99 A55.00,55.00 0 0 1 219.78,155.96 L233.52,135.07 A30.00,30.00 0 0 0 262.51,137.27 Z" fill="#00ADD8" stroke="#282a36" stroke-width="1.5"/>
  <path d="M219.78,155.96 A55.00,55.00 0 0 1 203.89,139.98 L224.85,126.35 A30.00,30.00 0 0 0 233.52,135.07 Z" fill="#b07219" stroke="#282a36" stroke-width="1.5"/>
  <path d="M203.89,139.98 A55.00,55.00 0 0 1 196.29,121.84 L220.70,116.46 A30.00,30.00 0 0 0 224.85,126.35 Z" fill="#e34c26" stroke="#282a36" stroke-width="1.5"/>
  <path d="M196.29,121.84 A55.00,55.00 0 0 1 195.41,103.29 L220.22,106.34 A30.00,30.00 0 0 0 220.70,116.46 Z" fill="#3178c6" stroke="#282a36" stroke-width="1.5"/>
  <path d="M195.41,103.29 A55.00,55.00 0 0 1 199.83,87.45 L222.64,97.70 A30.00,30.00 0 0 0 220.22,106.34 Z" fill="#ff3e00" stroke="#282a36" stroke-width="1.5"/>
  <path d="M199.83,87.45 A55.00,55.00 0 0 1 250.00,55.00 L250.00,80.00 A30.00,30.00 0 0 0 222.64,97.70 Z" fill="#bd93f9" stroke="#282a36" stroke-width="1.5"/>
</svg>