<svg xmlns="http://www.w3.org/2000/svg" width="340" height="200" viewBox="0 0 340 200" font-family="'Segoe UI', Ubuntu, Sans-Serif">
  <rect x="0.5" y="0.5" width="339" height="199" rx="6" fill="#282a36" stroke="#282a36" stroke-opacity="1.00"/>
  <text x="20" y="30" font-size="15" font-weight="600" fill="#ff79c6">Most Commit Language (all time)</text>
  <rect x="20" y="47" width="10" height="10" fill="#f1e05a" stroke="#282a36" stroke-width="1"/>
  <text x="36" y="55" font-size="11" fill="#ffb86c">JavaScript 35.74%</text>
  <rect x="20" y="67" width="10" height="10" fill="#b07219" stroke="#282a36" stroke-width="1"/>
  <text x="36" y="75" font-size="11" fill="#ffb86c">Java 12.83%</text>
  <rect x="20" y="87" width="10" height="10" fill="#00ADD8" stroke="#282a36" stroke-width="1"/>
  <text x="36" y="95" font-size="11" fill="#ffb86c">Go 11.97%</text>
  <rect x="20" y="107" width="10" height="10" fill="#e34c26" stroke="#282a36" stroke-width="1"/>
  <text x="36" y="115" font-size="11" fill="#ffb86c">HTML 11.55%</text>
  <rect x="20" y="127" width="10" height="10" fill="#3572A5" stroke="#282a36" stroke-width="1"/>
  <text x="36" y="135" font-size="11" fill="#ffb86c">Python 4.04%</text>
  <rect x="20" y="147" width="10" height="10" fill="#3178c6" stroke="#282a36" stroke-width="1"/>
  <text x="36" y="155" font-size="11" fill="#ffb86c">TypeScript 3.83%</text>
  <rect x="20" y="167" width="10" height="10" fill="#bd93f9" stroke="#282a36" stroke-width="1"/>
  <text x="36" y="175" font-size="11" fill="#ffb86c">Other 20.04%</text>
  <path d="M250.00,55.00 A55.00,55.00 0 0 1 292.95,144.36 L273.43,128.74 A30.00,30.00 0 0 0 250.00,80.00 Z" fill="#f1e05a" stroke="#282a36" stroke-width="1.5"/>
  <path d="M292.95,144.36 A55.00,55.00 0 0 1 254.95,164.78 L252.70,139.88 A30.00,30.00 0 0 0 273.43,128.74 Z" fill="#b07219" stroke="#282a36" stroke-width="1.5"/>
  <path d="M254.95,164.78 A55.00,55.00 0 0 1 216.19,153.38 L231.56,133.66 A30.00,30.00 0 0 0 252.70,139.88 Z" fill="#00ADD8" stroke="#282a36" stroke-width="1.5"/>
  <path d="M216.19,153.38 A55.00,55.00 0 0 1 195.92,120.01 L220.50,115.46 A30.00,30.00 0 0 0 231.56,133.66 Z" fill="#e34c26" stroke="#282a36" stroke-width="1.5"/>
  <path d="M195.92,120.01 A55.00,55.00 0 0 1 195.14,106.10 L220.08,107.87 A30.00,30.00 0 0 0 220.50,115.46 Z" fill="#3572A5" stroke="#282a36" stroke-width="1.5"/>
  <path d="M195.14,106.10 A55.00,55.00 0 0 1 197.65,93.14 L221.44,100.80 A30.00,30.00 0 0 0 220.08,107.87 Z" fill="#3178c6" stroke="#282a36" stroke-width="1.5"/>
  <path d="M197.65,93.14 A55.00,55.00 0 0 1 250.00,55.00 L250.00,80.00 A30.00,30.00 0 0 0 221.44,100.80 Z" fill="#bd93f9" stroke="#282a36" stroke-width="1.5"/>
</svg>