<svg xmlns="http://www.w3.org/2000/svg" width="340" height="200" viewBox="0 0 340 200" font-family="'Segoe UI', Ubuntu, Sans-Serif">
  <rect x="0.5" y="0.5" width="339" height="199" rx="6" fill="#282a36" stroke="#282a36" stroke-opacity="1.00"/>
  <text x="20" y="30" font-size="15" font-weight="600" fill="#ff79c6">Most Commit Language (all time)</text>
  <rect x="20" y="47" width="10" height="10" fill="#f1e05a" stroke="#282a36" stroke-width="1"/>
  <text x="36" y="55" font-size="11" fill="#ffb86c">JavaScript 34.64%</text>
  <rect x="20" y="67" width="10" height="10" fill="#00ADD8" stroke="#282a36" stroke-width="1"/>
  <text x="36" y="75" font-size="11" fill="#ffb86c">Go 16.33%</text>
  <rect x="20" y="87" width="10" height="10" fill="#b07219" stroke="#282a36" stroke-width="1"/>
  <text x="36" y="95" font-size="11" fill="#ffb86c">Java 11.75%</text>
  <rect x="20" y="107" width="10" height="10" fill="#e34c26" stroke="#282a36" stroke-width="1"/>
  <text x="36" y="115" font-size="11" fill="#ffb86c">HTML 10.53%</text>
  <rect x="20" y="127" width="10" height="10" fill="#3572A5" stroke="#282a36" stroke-width="1"/>
  <text x="36" y="135" font-size="11" fill="#ffb86c">Python 4.85%</text>
  <rect x="20" y="147" width="10" height="10" fill="#3178c6" stroke="#282a36" stroke-width="1"/>
  <text x="36" y="155" font-size="11" fill="#ffb86c">TypeScript 3.92%</text>
  <rect x="20" y="167" width="10" height="10" fill="#bd93f9" stroke="#282a36" stroke-width="1"/>
  <text x="36" y="175" font-size="11" fill="#ffb86c">Other 17.97%</text>
  <path d="M250.00,55.00 A55.00,55.00 0 0 1 295.21,141.32 L274.66,127.08 A30.00,30.00 0 0 0 250.00,80.00 Z" fill="#f1e05a" stroke="#282a36" stroke-width="1.5"/>
  <path d="M295.21,141.32 A55.00,55.00 0 0 1 246.64,164.90 L248.16,139.94 A30.00,30.00 0 0 0 274.66,127.08 Z" fill="#00ADD8" stroke="#282a36" stroke-width="1.5"/>
  <path d="M246.64,164.90 A55.00,55.00 0 0 1 210.56,148.33 L228.48,130.91 A30.00,30.00 0 0 0 248.16,139.94 Z" fill="#b07219" stroke="#282a36" stroke-width="1.5"/>
  <path d="M210.56,148.33 A55.00,55.00 0 0 1 195.33,116.01 L220.18,113.28 A30.00,30.00 0 0 0 228.48,130.91 Z" fill="#e34c26" stroke="#282a36" stroke-width="1.5"/>
  <path d="M195.33,116.01 A55.00,55.00 0 0 1 196.04,99.35 L220.57,104.19 A30.00,30.00 0 0 0 220.18,113.28 Z" fill="#3572A5" stroke="#282a36" stroke-width="1.5"/>
  <path d="M196.04,99.35 A55.00,55.00 0 0 1 200.27,86.50 L222.88,97.18 A30.00,30.00 0 0 0 220.57,104.19 Z" fill="#3178c6" stroke="#282a36" stroke-width="1.5"/>
  <path d="M200.27,86.50 A55.00,55.00 0 0 1 250.00,55.00 L250.00,80.00 A30.00,30.00 0 0 0 222.88,97.18 Z" fill="#bd93f9" stroke="#282a36" stroke-width="1.5"/>
</svg>