<svg xmlns="http://www.w3.org/2000/svg" width="340" height="200" viewBox="0 0 340 200" font-family="'Segoe UI', Ubuntu, Sans-Serif">
  <rect x="0.5" y="0.5" width="339" height="199" rx="6" fill="#282a36" stroke="#282a36" stroke-opacity="1.00"/>
  <text x="20" y="30" font-size="15" font-weight="600" fill="#ff79c6">Most Commit Language (last year)</text>
  <rect x="20" y="47" width="10" height="10" fill="#f1e05a" stroke="#282a36" stroke-width="1"/>
  <text x="36" y="55" font-size="11" fill="#ffb86c">JavaScript 48.92%</text>
  <rect x="20" y="67" width="10" height="10" fill="#00ADD8" stroke="#282a36" stroke-width="1"/>
  <text x="36" y="75" font-size="11" fill="#ffb86c">Go 14.15%</text>
  <rect x="20" y="87" width="10" height="10" fill="#b07219" stroke="#282a36" stroke-width="1"/>
  <text x="36" y="95" font-size="11" fill="#ffb86c">Java 9.19%</text>
  <rect x="20" y="107" width="10" height="10" fill="#e34c26" stroke="#282a36" stroke-width="1"/>
  <text x="36" y="115" font-size="11" fill="#ffb86c">HTML 6.36%</text>
  <rect x="20" y="127" width="10" height="10" fill="#ff3e00" stroke="#282a36" stroke-width="1"/>
  <text x="36" y="135" font-size="11" fill="#ffb86c">Svelte 3.95%</text>
  <rect x="20" y="147" width="10" height="10" fill="#3572A5" stroke="#282a36" stroke-width="1"/>
  <text x="36" y="155" font-size="11" fill="#ffb86c">Python 3.46%</text>
  <rect x="20" y="167" width="10" height="10" fill="#bd93f9" stroke="#282a36" stroke-width="1"/>
  <text x="36" y="175" font-size="11" fill="#ffb86c">Other 13.97%</text>
  <path d="M250.00,55.00 A55.00,55.00 0 0 1 253.71,164.87 L252.03,139.93 A30.00,30.00 0 0 0 250.00,80.00 Z" fill="#f1e05a" stroke="#282a36" stroke-width="1.5"/>
  <path d="M253.71,164.87 A55.00,55.00 0 0 1 209.74,147.47 L228.04,130.44 A30.00,30.00 0 0 0 252.03,139.93 Z" fill="#00ADD8" stroke="#282a36" stroke-width="1.5"/>
  <path d="M209.74,147.47 A55.00,55.00 0 0 1 195.81,119.42 L220.44,115.14 A30.00,30.00 0 0 0 228.04,130.44 Z" fill="#b07219" stroke="#282a36" stroke-width="1.5"/>
  <path d="M195.81,119.42 A55.00,55.00 0 0 1 196.42,97.59 L220.77,103.23 A30.00,30.00 0 0 0 220.44,115.14 Z" fill="#e34c26" stroke="#282a36" stroke-width="1.5"/>
  <path d="M196.42,97.59 A55.00,55.00 0 0 1 201.10,84.82 L223.33,96.26 A30.00,30.00 0 0 0 220.77,103.23 Z" fill="#ff3e00" stroke="#282a36" stroke-width="1.5"/>
  <path d="M201.10,84.82 A55.00,55.00 0 0 1 207.69,74.85 L226.92,90.83 A30.00,30.00 0 0 0 223.33,96.26 Z" fill="#3572A5" stroke="#282a36" stroke-width="1.5"/>
  <path d="M207.69,74.85 A55.00,55.00 0 0 1 250.00,55.00 L250.00,80.00 A30.00,30.00 0 0 0 226.92,90.83 Z" fill="#bd93f9" stroke="#282a36" stroke-width="1.5"/>
</svg>