<svg xmlns="http://www.w3.org/2000/svg" width="340" height="200" viewBox="0 0 340 200" font-family="'Segoe UI', Ubuntu, Sans-Serif">
  <rect x="0.5" y="0.5" width="339" height="199" rx="6" fill="#282a36" stroke="#282a36" stroke-opacity="1.00"/>
  <text x="20" y="30" font-size="15" font-weight="600" fill="#ff79c6">Most Commit Language (last year)</text>
  <rect x="20" y="47" width="10" height="10" fill="#f1e05a" stroke="#282a36" stroke-width="1"/>
  <text x="36" y="55" font-size="11" fill="#ffb86c">JavaScript 43.34%</text>
  <rect x="20" y="67" width="10" height="10" fill="#00ADD8" stroke="#282a36" stroke-width="1"/>
  <text x="36" y="75" font-size="11" fill="#ffb86c">Go 16.39%</text>
  <rect x="20" y="87" width="10" height="10" fill="#b07219" stroke="#282a36" stroke-width="1"/>
  <text x="36" y="95" font-size="11" fill="#ffb86c">Java 7.76%</text>
  <rect x="20" y="107" width="10" height="10" fill="#e34c26" stroke="#282a36" stroke-width="1"/>
  <text x="36" y="115" font-size="11" fill="#ffb86c">HTML 6.70%</text>
  <rect x="20" y="127" width="10" height="10" fill="#ff3e00" stroke="#282a36" stroke-width="1"/>
  <text x="36" y="135" font-size="11" fill="#ffb86c">Svelte 4.68%</text>
  <rect x="20" y="147" width="10" height="10" fill="#3178c6" stroke="#282a36" stroke-width="1"/>
  <text x="36" y="155" font-size="11" fill="#ffb86c">TypeScript 3.95%</text>
  <rect x="20" y="167" width="10" height="10" fill="#bd93f9" stroke="#282a36" stroke-width="1"/>
  <text x="36" y="175" font-size="11" fill="#ffb86c">Other 17.17%</text>
  <path d="M250.00,55.00 A55.00,55.00 0 0 1 272.34,160.26 L262.18,137.41 A30.00,30.00 0 0 0 250.00,80.00 Z" fill="#f1e05a" stroke="#282a36" stroke-width="1.5"/>
  <path d="M272.34,160.26 A55.00,55.00 0 0 1 218.41,155.02 L232.77,134.56 A30.00,30.00 0 0 0 262.18,137.41 Z" fill="#00ADD8" stroke="#282a36" stroke-width="1.5"/>
  <path d="M218.41,155.02 A55.00,55.00 0 0 1 201.00,134.98 L223.27,123.62 A30.00,30.00 0 0 0 232.77,134.56 Z" fill="#b07219" stroke="#282a36" stroke-width="1.5"/>
  <path d="M201.00,134.98 A55.00,55.00 0 0 1 195.07,112.77 L220.04,111.51 A30.00,30.00 0 0 0 223.27,123.62 Z" fill="#e34c26" stroke="#282a36" stroke-width="1.5"/>
  <path d="M195.07,112.77 A55.00,55.00 0 0 1 196.63,96.72 L220.89,102.76 A30.00,30.00 0 0 0 220.04,111.51 Z" fill="#ff3e00" stroke="#282a36" stroke-width="1.5"/>
  <path d="M196.63,96.72 A55.00,55.00 0 0 1 201.53,84.01 L223.56,95.82 A30.00,30.00 0 0 0 220.89,102.76 Z" fill="#3178c6" stroke="#282a36" stroke-width="1.5"/>
  <path d="M201.53,84.01 A55.00,55.00 0 0 1 250.00,55.00 L250.00,80.00 A30.00,30.00 0 0 0 223.56,95.82 Z" fill="#bd93f9" stroke="#282a36" stroke-width="1.5"/>
</svg>