<svg xmlns="http://www.w3.org/2000/svg" width="340" height="200" viewBox="0 0 340 200" font-family="'Segoe UI', Ubuntu, Sans-Serif">
  <rect x="0.5" y="0.5" width="339" height="199" rx="6" fill="#282a36" stroke="#282a36" stroke-opacity="1.00"/>
  <text x="20" y="30" font-size="15" font-weight="600" fill="#ff79c6">Most Commit Language (all time)</text>
  <rect x="20" y="47" width="10" height="10" fill="#f1e05a" stroke="#282a36" stroke-width="1"/>
  <text x="36" y="55" font-size="11" fill="#ffb86c">JavaScript 35.17%</text>
  <rect x="20" y="67" width="10" height="10" fill="#00ADD8" stroke="#282a36" stroke-width="1"/>
  <text x="36" y="75" font-size="11" fill="#ffb86c">Go 16.36%</text>
  <rect x="20" y="87" width="10" height="10" fill="#b07219" stroke="#282a36" stroke-width="1"/>
  <text x="36" y="95" font-size="11" fill="#ffb86c">Java 11.70%</text>
  <rect x="20" y="107" width="10" height="10" fill="#e34c26" stroke="#282a36" stroke-width="1"/>
  <text x="36" y="115" font-size="11" fill="#ffb86c">HTML 10.39%</text>
  <rect x="20" y="127" width="10" height="10" fill="#3572A5" stroke="#282a36" stroke-width="1"/>
  <text x="36" y="135" font-size="11" fill="#ffb86c">Python 4.65%</text>
  <rect x="20" y="147" width="10" height="10" fill="#3178c6" stroke="#282a36" stroke-width="1"/>
  <text x="36" y="155" font-size="11" fill="#ffb86c">TypeScript 3.79%</text>
  <rect x="20" y="167" width="10" height="10" fill="#bd93f9" stroke="#282a36" stroke-width="1"/>
  <text x="36" y="175" font-size="11" fill="#ffb86c">Other 17.93%</text>
  <path d="M250.00,55.00 A55.00,55.00 0 0 1 294.14,142.81 L274.08,127.90 A30.00,30.00 0 0 0 250.00,80.00 Z" fill="#f1e05a" stroke="#282a36" stroke-width="1.5"/>
  <path d="M294.14,142.81 A55.00,55.00 0 0 1 244.70,164.74 L247.11,139.86 A30.00,30.00 0 0 0 274.08,127.90 Z" fill="#00ADD8" stroke="#282a36" stroke-width="1.5"/>
  <path d="M244.70,164.74 A55.00,55.00 0 0 1 209.35,147.05 L227.83,130.21 A30.00,30.00 0 0 0 247.11,139.86 Z" fill="#b07219" stroke="#282a36" stroke-width="1.5"/>
  <path d="M209.35,147.05 A55.00,55.00 0 0 1 195.21,114.76 L220.11,112.60 A30.00,30.00 0 0 0 227.83,130.21 Z" fill="#e34c26" stroke="#282a36" stroke-width="1.5"/>
  <path d="M195.21,114.76 A55.00,55.00 0 0 1 196.16,98.76 L220.63,103.87 A30.00,30.00 0 0 0 220.11,112.60 Z" fill="#3572A5" stroke="#282a36" stroke-width="1.5"/>
  <path d="M196.16,98.76 A55.00,55.00 0 0 1 200.33,86.37 L222.91,97.11 A30.00,30.00 0 0 0 220.63,103.87 Z" fill="#3178c6" stroke="#282a36" stroke-width="1.5"/>
  <path d="M200.33,86.37 A55.00,55.00 0 0 1 250.00,55.00 L250.00,80.00 A30.00,30.00 0 0 0 222.91,97.11 Z" fill="#bd93f9" stroke="#282a36" stroke-width="1.5"/>
</svg>