<svg xmlns="http://www.w3.org/2000/svg" width="340" height="200" viewBox="0 0 340 200" font-family="'Segoe UI', Ubuntu, Sans-Serif">
  <rect x="0.5" y="0.5" width="339" height="199" rx="6" fill="#282a36" stroke="#282a36" stroke-opacity="1.00"/>
  <text x="20" y="30" font-size="15" font-weight="600" fill="#ff79c6">Most Commit Language (all time)</text>
  <rect x="20" y="47" width="10" height="10" fill="#f1e05a" stroke="#282a36" stroke-width="1"/>
  <text x="36" y="55" font-size="11" fill="#ffb86c">JavaScript 36.57%</text>
  <rect x="20" y="67" width="10" height="10" fill="#b07219" stroke="#282a36" stroke-width="1"/>
  <text x="36" y="75" font-size="11" fill="#ffb86c">Java 13.56%</text>
  <rect x="20" y="87" width="10" height="10" fill="#e34c26" stroke="#282a36" stroke-width="1"/>
  <text x="36" y="95" font-size="11" fill="#ffb86c">HTML 12.79%</text>
  <rect x="20" y="107" width="10" height="10" fill="#00ADD8" stroke="#282a36" stroke-width="1"/>
  <text x="36" y="115" font-size="11" fill="#ffb86c">Go 10.63%</text>
  <rect x="20" y="127" width="10" height="10" fill="#3178c6" stroke="#282a36" stroke-width="1"/>
  <text x="36" y="135" font-size="11" fill="#ffb86c">TypeScript 3.94%</text>
  <rect x="20" y="147" width="10" height="10" fill="#3572A5" stroke="#282a36" stroke-width="1"/>
  <text x="36" y="155" font-size="11" fill="#ffb86c">Python 3.78%</text>
  <rect x="20" y="167" width="10" height="10" fill="#bd93f9" stroke="#282a36" stroke-width="1"/>
  <text x="36" y="175" font-size="11" fill="#ffb86c">Other 18.73%</text>
  <path d="M250.00,55.00 A55.00,55.00 0 0 1 291.10,146.55 L272.42,129.94 A30.00,30.00 0 0 0 250.00,80.00 Z" fill="#f1e05a" stroke="#282a36" stroke-width="1.5"/>
  <path d="M291.10,146.55 A55.00,55.00 0 0 1 249.54,165.00 L249.75,140.00 A30.00,30.00 0 0 0 272.42,129.94 Z" fill="#b07219" stroke="#282a36" stroke-width="1.5"/>
  <path d="M249.54,165.00 A55.00,55.00 0 0 1 210.09,147.84 L228.23,130.64 A30.00,30.00 0 0 0 249.75,140.00 Z" fill="#e34c26" stroke="#282a36" stroke-width="1.5"/>
  <path d="M210.09,147.84 A55.00,55.00 0 0 1 195.23,114.99 L220.12,112.72 A30.00,30.00 0 0 0 228.23,130.64 Z" fill="#00ADD8" stroke="#282a36" stroke-width="1.5"/>
  <path d="M195.23,114.99 A55.00,55.00 0 0 1 195.67,101.43 L220.37,105.32 A30.00,30.00 0 0 0 220.12,112.72 Z" fill="#3178c6" stroke="#282a36" stroke-width="1.5"/>
  <path d="M195.67,101.43 A55.00,55.00 0 0 1 199.22,88.88 L222.30,98.48 A30.00,30.00 0 0 0 220.37,105.32 Z" fill="#3572A5" stroke="#282a36" stroke-width="1.5"/>
  <path d="M199.22,88.88 A55.00,55.00 0 0 1 250.00,55.00 L250.00,80.00 A30.00,30.00 0 0 0 222.30,98.48 Z" fill="#bd93f9" stroke="#282a36" stroke-width="1.5"/>
</svg>