<svg xmlns="http://www.w3.org/2000/svg" width="340" height="200" viewBox="0 0 340 200" font-family="'Segoe UI', Ubuntu, Sans-Serif">
  <rect x="0.5" y="0.5" width="339" height="199" rx="6" fill="#282a36" stroke="#282a36" stroke-opacity="1.00"/>
  <text x="20" y="30" font-size="15" font-weight="600" fill="#ff79c6">Most Commit Language (all time)</text>
  <rect x="20" y="47" width="10" height="10" fill="#f1e05a" stroke="#282a36" stroke-width="1"/>
  <text x="36" y="55" font-size="11" fill="#ffb86c">JavaScript 36.63%</text>
  <rect x="20" y="67" width="10" height="10" fill="#b07219" stroke="#282a36" stroke-width="1"/>
  <text x="36" y="75" font-size="11" fill="#ffb86c">Java 13.59%</text>
  <rect x="20" y="87" width="10" height="10" fill="#e34c26" stroke="#282a36" stroke-width="1"/>
  <text x="36" y="95" font-size="11" fill="#ffb86c">HTML 12.81%</text>
  <rect x="20" y="107" width="10" height="10" fill="#00ADD8" stroke="#282a36" stroke-width="1"/>
  <text x="36" y="115" font-size="11" fill="#ffb86c">Go 10.65%</text>
  <rect x="20" y="127" width="10" height="10" fill="#3178c6" stroke="#282a36" stroke-width="1"/>
  <text x="36" y="135" font-size="11" fill="#ffb86c">TypeScript 3.94%</text>
  <rect x="20" y="147" width="10" height="10" fill="#3572A5" stroke="#282a36" stroke-width="1"/>
  <text x="36" y="155" font-size="11" fill="#ffb86c">Python 3.79%</text>
  <rect x="20" y="167" width="10" height="10" fill="#bd93f9" stroke="#282a36" stroke-width="1"/>
  <text x="36" y="175" font-size="11" fill="#ffb86c">Other 18.59%</text>
  <path d="M250.00,55.00 A55.00,55.00 0 0 1 290.95,146.71 L272.34,130.03 A30.00,30.00 0 0 0 250.00,80.00 Z" fill="#f1e05a" stroke="#282a36" stroke-width="1.5"/>
  <path d="M290.95,146.71 A55.00,55.00 0 0 1 249.24,164.99 L249.59,140.00 A30.00,30.00 0 0 0 272.34,130.03 Z" fill="#b07219" stroke="#282a36" stroke-width="1.5"/>
  <path d="M249.24,164.99 A55.00,55.00 0 0 1 209.83,147.57 L228.09,130.49 A30.00,30.00 0 0 0 249.59,140.00 Z" fill="#e34c26" stroke="#282a36" stroke-width="1.5"/>
  <path d="M209.83,147.57 A55.00,55.00 0 0 1 195.19,114.55 L220.10,112.48 A30.00,30.00 0 0 0 228.09,130.49 Z" fill="#00ADD8" stroke="#282a36" stroke-width="1.5"/>
  <path d="M195.19,114.55 A55.00,55.00 0 0 1 195.75,100.97 L220.41,105.07 A30.00,30.00 0 0 0 220.10,112.48 Z" fill="#3178c6" stroke="#282a36" stroke-width="1.5"/>
  <path d="M195.75,100.97 A55.00,55.00 0 0 1 199.41,88.43 L222.40,98.24 A30.00,30.00 0 0 0 220.41,105.07 Z" fill="#3572A5" stroke="#282a36" stroke-width="1.5"/>
  <path d="M199.41,88.43 A55.00,55.00 0 0 1 250.00,55.00 L250.00,80.00 A30.00,30.00 0 0 0 222.40,98.24 Z" fill="#bd93f9" stroke="#282a36" stroke-width="1.5"/>
</svg>