<svg xmlns="http://www.w3.org/2000/svg" width="340" height="200" viewBox="0 0 340 200" font-family="'Segoe UI', Ubuntu, Sans-Serif">
  <rect x="0.5" y="0.5" width="339" height="199" rx="6" fill="#282a36" stroke="#282a36" stroke-opacity="1.00"/>
  <text x="20" y="30" font-size="15" font-weight="600" fill="#ff79c6">Most Commit Language (all time)</text>
  <rect x="20" y="47" width="10" height="10" fill="#f1e05a" stroke="#282a36" stroke-width="1"/>
  <text x="36" y="55" font-size="11" fill="#ffb86c">JavaScript 35.88%</text>
  <rect x="20" y="67" width="10" height="10" fill="#b07219" stroke="#282a36" stroke-width="1"/>
  <text x="36" y="75" font-size="11" fill="#ffb86c">Java 16.16%</text>
  <rect x="20" y="87" width="10" height="10" fill="#e34c26" stroke="#282a36" stroke-width="1"/>
  <text x="36" y="95" font-size="11" fill="#ffb86c">HTML 14.99%</text>
  <rect x="20" y="107" width="10" height="10" fill="#00ADD8" stroke="#282a36" stroke-width="1"/>
  <text x="36" y="115" font-size="11" fill="#ffb86c">Go 8.45%</text>
  <rect x="20" y="127" width="10" height="10" fill="#3572A5" stroke="#282a36" stroke-width="1"/>
  <text x="36" y="135" font-size="11" fill="#ffb86c">Python 4.16%</text>
  <rect x="20" y="147" width="10" height="10" fill="#f34b7d" stroke="#282a36" stroke-width="1"/>
  <text x="36" y="155" font-size="11" fill="#ffb86c">C++ 4.05%</text>
  <rect x="20" y="167" width="10" height="10" fill="#bd93f9" stroke="#282a36" stroke-width="1"/>
  <text x="36" y="175" font-size="11" fill="#ffb86c">Other 16.31%</text>
  <path d="M250.00,55.00 A55.00,55.00 0 0 1 292.65,144.73 L273.26,128.94 A30.00,30.00 0 0 0 250.00,80.00 Z" fill="#f1e05a" stroke="#282a36" stroke-width="1.5"/>
  <path d="M292.65,144.73 A55.00,55.00 0 0 1 242.99,164.55 L246.18,139.76 A30.00,30.00 0 0 0 273.26,128.94 Z" fill="#b07219" stroke="#282a36" stroke-width="1.5"/>
  <path d="M242.99,164.55 A55.00,55.00 0 0 1 201.77,136.43 L223.69,124.42 A30.00,30.00 0 0 0 246.18,139.76 Z" fill="#e34c26" stroke="#282a36" stroke-width="1.5"/>
  <path d="M201.77,136.43 A55.00,55.00 0 0 1 195.02,108.36 L220.01,109.11 A30.00,30.00 0 0 0 223.69,124.42 Z" fill="#00ADD8" stroke="#282a36" stroke-width="1.5"/>
  <path d="M195.02,108.36 A55.00,55.00 0 0 1 197.32,94.20 L221.26,101.38 A30.00,30.00 0 0 0 220.01,109.11 Z" fill="#3572A5" stroke="#282a36" stroke-width="1.5"/>
  <path d="M197.32,94.20 A55.00,55.00 0 0 1 203.00,81.44 L224.36,94.42 A30.00,30.00 0 0 0 221.26,101.38 Z" fill="#f34b7d" stroke="#282a36" stroke-width="1.5"/>
  <path d="M203.00,81.44 A55.00,55.00 0 0 1 250.00,55.00 L250.00,80.00 A30.00,30.00 0 0 0 224.36,94.42 Z" fill="#bd93f9" stroke="#282a36" stroke-width="1.5"/>
</svg>