<svg xmlns="http://www.w3.org/2000/svg" width="340" height="200" viewBox="0 0 340 200" font-family="'Segoe UI', Ubuntu, Sans-Serif">
  <rect x="0.5" y="0.5" width="339" height="199" rx="6" fill="#282a36" stroke="#282a36" stroke-opacity="1.00"/>
  <text x="20" y="30" font-size="15" font-weight="600" fill="#ff79c6">Most Commit Language (all time)</text>
  <rect x="20" y="47" width="10" height="10" fill="#f1e05a" stroke="#282a36" stroke-width="1"/>
  <text x="36" y="55" font-size="11" fill="#ffb86c">JavaScript 35.52%</text>
  <rect x="20" y="67" width="10" height="10" fill="#b07219" stroke="#282a36" stroke-width="1"/>
  <text x="36" y="75" font-size="11" fill="#ffb86c">Java 12.71%</text>
  <rect x="20" y="87" width="10" height="10" fill="#00ADD8" stroke="#282a36" stroke-width="1"/>
  <text x="36" y="95" font-size="11" fill="#ffb86c">Go 12.40%</text>
  <rect x="20" y="107" width="10" height="10" fill="#e34c26" stroke="#282a36" stroke-width="1"/>
  <text x="36" y="115" font-size="11" fill="#ffb86c">HTML 11.45%</text>
  <rect x="20" y="127" width="10" height="10" fill="#3572A5" stroke="#282a36" stroke-width="1"/>
  <text x="36" y="135" font-size="11" fill="#ffb86c">Python 4.01%</text>
  <rect x="20" y="147" width="10" height="10" fill="#3178c6" stroke="#282a36" stroke-width="1"/>
  <text x="36" y="155" font-size="11" fill="#ffb86c">TypeScript 3.91%</text>
  <rect x="20" y="167" width="10" height="10" fill="#bd93f9" stroke="#282a36" stroke-width="1"/>
  <text x="36" y="175" font-size="11" fill="#ffb86c">Other 20.01%</text>
  <path d="M250.00,55.00 A55.00,55.00 0 0 1 293.41,143.77 L273.68,128.42 A30.00,30.00 0 0 0 250.00,80.00 Z" fill="#f1e05a" stroke="#282a36" stroke-width="1.5"/>
  <path d="M293.41,143.77 A55.00,55.00 0 0 1 256.10,164.66 L253.33,139.81 A30.00,30.00 0 0 0 273.68,128.42 Z" fill="#b07219" stroke="#282a36" stroke-width="1.5"/>
  <path d="M256.10,164.66 A55.00,55.00 0 0 1 215.93,153.17 L231.41,133.55 A30.00,30.00 0 0 0 253.33,139.81 Z" fill="#00ADD8" stroke="#282a36" stroke-width="1.5"/>
  <path d="M215.93,153.17 A55.00,55.00 0 0 1 195.92,120.03 L220.50,115.47 A30.00,30.00 0 0 0 231.41,133.55 Z" fill="#e34c26" stroke="#282a36" stroke-width="1.5"/>
  <path d="M195.92,120.03 A55.00,55.00 0 0 1 195.13,106.25 L220.07,107.95 A30.00,30.00 0 0 0 220.50,115.47 Z" fill="#3572A5" stroke="#282a36" stroke-width="1.5"/>
  <path d="M195.13,106.25 A55.00,55.00 0 0 1 197.68,93.03 L221.46,100.74 A30.00,30.00 0 0 0 220.07,107.95 Z" fill="#3178c6" stroke="#282a36" stroke-width="1.5"/>
  <path d="M197.68,93.03 A55.00,55.00 0 0 1 250.00,55.00 L250.00,80.00 A30.00,30.00 0 0 0 221.46,100.74 Z" fill="#bd93f9" stroke="#282a36" stroke-width="1.5"/>
</svg>