<svg xmlns="http://www.w3.org/2000/svg" width="340" height="200" viewBox="0 0 340 200" font-family="'Segoe UI', Ubuntu, Sans-Serif">
  <rect x="0.5" y="0.5" width="339" height="199" rx="6" fill="#282a36" stroke="#282a36" stroke-opacity="1.00"/>
  <text x="20" y="30" font-size="15" font-weight="600" fill="#ff79c6">Most Commit Language (last year)</text>
  <rect x="20" y="47" width="10" height="10" fill="#f1e05a" stroke="#282a36" stroke-width="1"/>
  <text x="36" y="55" font-size="11" fill="#ffb86c">JavaScript 42.73%</text>
  <rect x="20" y="67" width="10" height="10" fill="#00ADD8" stroke="#282a36" stroke-width="1"/>
  <text x="36" y="75" font-size="11" fill="#ffb86c">Go 16.95%</text>
  <rect x="20" y="87" width="10" height="10" fill="#b07219" stroke="#282a36" stroke-width="1"/>
  <text x="36" y="95" font-size="11" fill="#ffb86c">Java 7.06%</text>
  <rect x="20" y="107" width="10" height="10" fill="#e34c26" stroke="#282a36" stroke-width="1"/>
  <text x="36" y="115" font-size="11" fill="#ffb86c">HTML 6.14%</text>
  <rect x="20" y="127" width="10" height="10" fill="#3178c6" stroke="#282a36" stroke-width="1"/>
  <text x="36" y="135" font-size="11" fill="#ffb86c">TypeScript 5.41%</text>
  <rect x="20" y="147" width="10" height="10" fill="#ff3e00" stroke="#282a36" stroke-width="1"/>
  <text x="36" y="155" font-size="11" fill="#ffb86c">Svelte 4.77%</text>
  <rect x="20" y="167" width="10" height="10" fill="#bd93f9" stroke="#282a36" stroke-width="1"/>
  <text x="36" y="175" font-size="11" fill="#ffb86c">Other 16.95%</text>
  <path d="M250.00,55.00 A55.00,55.00 0 0 1 274.27,159.36 L263.24,136.92 A30.00,30.00 0 0 0 250.00,80.00 Z" fill="#f1e05a" stroke="#282a36" stroke-width="1.5"/>
  <path d="M274.27,159.36 A55.00,55.00 0 0 1 218.59,155.15 L232.87,134.63 A30.00,30.00 0 0 0 263.24,136.92 Z" fill="#00ADD8" stroke="#282a36" stroke-width="1.5"/>
  <path d="M218.59,155.15 A55.00,55.00 0 0 1 202.25,137.30 L223.96,124.89 A30.00,30.00 0 0 0 232.87,134.63 Z" fill="#b07219" stroke="#282a36" stroke-width="1.5"/>
  <path d="M202.25,137.30 A55.00,55.00 0 0 1 195.49,117.32 L220.27,113.99 A30.00,30.00 0 0 0 223.96,124.89 Z" fill="#e34c26" stroke="#282a36" stroke-width="1.5"/>
  <path d="M195.49,117.32 A55.00,55.00 0 0 1 196.17,98.73 L220.64,103.85 A30.00,30.00 0 0 0 220.27,113.99 Z" fill="#3178c6" stroke="#282a36" stroke-width="1.5"/>
  <path d="M196.17,98.73 A55.00,55.00 0 0 1 201.89,83.34 L223.76,95.46 A30.00,30.00 0 0 0 220.64,103.85 Z" fill="#ff3e00" stroke="#282a36" stroke-width="1.5"/>
  <path d="M201.89,83.34 A55.00,55.00 0 0 1 250.00,55.00 L250.00,80.00 A30.00,30.00 0 0 0 223.76,95.46 Z" fill="#bd93f9" stroke="#282a36" stroke-width="1.5"/>
</svg>