<svg xmlns="http://www.w3.org/2000/svg" width="340" height="200" viewBox="0 0 340 200" font-family="'Segoe UI', Ubuntu, Sans-Serif">
  <rect x="0.5" y="0.5" width="339" height="199" rx="6" fill="#282a36" stroke="#282a36" stroke-opacity="1.00"/>
  <text x="20" y="30" font-size="15" font-weight="600" fill="#ff79c6">Most Commit Language (last year)</text>
  <rect x="20" y="47" width="10" height="10" fill="#f1e05a" stroke="#282a36" stroke-width="1"/>
  <text x="36" y="55" font-size="11" fill="#ffb86c">JavaScript 43.38%</text>
  <rect x="20" y="67" width="10" height="10" fill="#00ADD8" stroke="#282a36" stroke-width="1"/>
  <text x="36" y="75" font-size="11" fill="#ffb86c">Go 16.18%</text>
  <rect x="20" y="87" width="10" height="10" fill="#b07219" stroke="#282a36" stroke-width="1"/>
  <text x="36" y="95" font-size="11" fill="#ffb86c">Java 6.53%</text>
  <rect x="20" y="107" width="10" height="10" fill="#e34c26" stroke="#282a36" stroke-width="1"/>
  <text x="36" y="115" font-size="11" fill="#ffb86c">HTML 5.59%</text>
  <rect x="20" y="127" width="10" height="10" fill="#3178c6" stroke="#282a36" stroke-width="1"/>
  <text x="36" y="135" font-size="11" fill="#ffb86c">TypeScript 5.37%</text>
  <rect x="20" y="147" width="10" height="10" fill="#ff3e00" stroke="#282a36" stroke-width="1"/>
  <text x="36" y="155" font-size="11" fill="#ffb86c">Svelte 4.75%</text>
  <rect x="20" y="167" width="10" height="10" fill="#bd93f9" stroke="#282a36" stroke-width="1"/>
  <text x="36" y="175" font-size="11" fill="#ffb86c">Other 18.20%</text>
  <path d="M250.00,55.00 A55.00,55.00 0 0 1 272.23,160.31 L262.13,137.44 A30.00,30.00 0 0 0 250.00,80.00 Z" fill="#f1e05a" stroke="#282a36" stroke-width="1.5"/>
  <path d="M272.23,160.31 A55.00,55.00 0 0 1 218.91,155.37 L233.04,134.75 A30.00,30.00 0 0 0 262.13,137.44 Z" fill="#00ADD8" stroke="#282a36" stroke-width="1.5"/>
  <path d="M218.91,155.37 A55.00,55.00 0 0 1 203.39,139.20 L224.58,125.93 A30.00,30.00 0 0 0 233.04,134.75 Z" fill="#b07219" stroke="#282a36" stroke-width="1.5"/>
  <path d="M203.39,139.20 A55.00,55.00 0 0 1 196.19,121.39 L220.65,116.21 A30.00,30.00 0 0 0 224.58,125.93 Z" fill="#e34c26" stroke="#282a36" stroke-width="1.5"/>
  <path d="M196.19,121.39 A55.00,55.00 0 0 1 195.45,102.94 L220.25,106.15 A30.00,30.00 0 0 0 220.65,116.21 Z" fill="#3178c6" stroke="#282a36" stroke-width="1.5"/>
  <path d="M195.45,102.94 A55.00,55.00 0 0 1 199.94,87.22 L222.69,97.57 A30.00,30.00 0 0 0 220.25,106.15 Z" fill="#ff3e00" stroke="#282a36" stroke-width="1.5"/>
  <path d="M199.94,87.22 A55.00,55.00 0 0 1 250.00,55.00 L250.00,80.00 A30.00,30.00 0 0 0 222.69,97.57 Z" fill="#bd93f9" stroke="#282a36" stroke-width="1.5"/>
</svg>