<svg xmlns="http://www.w3.org/2000/svg" width="340" height="200" viewBox="0 0 340 200" font-family="'Segoe UI', Ubuntu, Sans-Serif">
  <rect x="0.5" y="0.5" width="339" height="199" rx="6" fill="#282a36" stroke="#282a36" stroke-opacity="1.00"/>
  <text x="20" y="30" font-size="15" font-weight="600" fill="#ff79c6">Most Commit Language (all time)</text>
  <rect x="20" y="47" width="10" height="10" fill="#f1e05a" stroke="#282a36" stroke-width="1"/>
  <text x="36" y="55" font-size="11" fill="#ffb86c">JavaScript 36.24%</text>
  <rect x="20" y="67" width="10" height="10" fill="#b07219" stroke="#282a36" stroke-width="1"/>
  <text x="36" y="75" font-size="11" fill="#ffb86c">Java 16.52%</text>
  <rect x="20" y="87" width="10" height="10" fill="#e34c26" stroke="#282a36" stroke-width="1"/>
  <text x="36" y="95" font-size="11" fill="#ffb86c">HTML 14.99%</text>
  <rect x="20" y="107" width="10" height="10" fill="#00ADD8" stroke="#282a36" stroke-width="1"/>
  <text x="36" y="115" font-size="11" fill="#ffb86c">Go 8.02%</text>
  <rect x="20" y="127" width="10" height="10" fill="#3572A5" stroke="#282a36" stroke-width="1"/>
  <text x="36" y="135" font-size="11" fill="#ffb86c">Python 4.26%</text>
  <rect x="20" y="147" width="10" height="10" fill="#f34b7d" stroke="#282a36" stroke-width="1"/>
  <text x="36" y="155" font-size="11" fill="#ffb86c">C++ 4.14%</text>
  <rect x="20" y="167" width="10" height="10" fill="#bd93f9" stroke="#282a36" stroke-width="1"/>
  <text x="36" y="175" font-size="11" fill="#ffb86c">Other 15.83%</text>
  <path d="M250.00,55.00 A55.00,55.00 0 0 1 291.84,145.70 L272.82,129.47 A30.00,30.00 0 0 0 250.00,80.00 Z" fill="#f1e05a" stroke="#282a36" stroke-width="1.5"/>
  <path d="M291.84,145.70 A55.00,55.00 0 0 1 240.50,164.17 L244.82,139.55 A30.00,30.00 0 0 0 272.82,129.47 Z" fill="#b07219" stroke="#282a36" stroke-width="1.5"/>
  <path d="M240.50,164.17 A55.00,55.00 0 0 1 200.61,134.20 L223.06,123.20 A30.00,30.00 0 0 0 244.82,139.55 Z" fill="#e34c26" stroke="#282a36" stroke-width="1.5"/>
  <path d="M200.61,134.20 A55.00,55.00 0 0 1 195.06,107.34 L220.04,108.55 A30.00,30.00 0 0 0 223.06,123.20 Z" fill="#00ADD8" stroke="#282a36" stroke-width="1.5"/>
  <path d="M195.06,107.34 A55.00,55.00 0 0 1 197.72,92.92 L221.48,100.68 A30.00,30.00 0 0 0 220.04,108.55 Z" fill="#3572A5" stroke="#282a36" stroke-width="1.5"/>
  <path d="M197.72,92.92 A55.00,55.00 0 0 1 203.88,80.04 L224.84,93.66 A30.00,30.00 0 0 0 221.48,100.68 Z" fill="#f34b7d" stroke="#282a36" stroke-width="1.5"/>
  <path d="M203.88,80.04 A55.00,55.00 0 0 1 250.00,55.00 L250.00,80.00 A30.00,30.00 0 0 0 224.84,93.66 Z" fill="#bd93f9" stroke="#282a36" stroke-width="1.5"/>
</svg>