<svg xmlns="http://www.w3.org/2000/svg" width="340" height="200" viewBox="0 0 340 200" font-family="'Segoe UI', Ubuntu, Sans-Serif">
  <rect x="0.5" y="0.5" width="339" height="199" rx="6" fill="#282a36" stroke="#282a36" stroke-opacity="1.00"/>
  <text x="20" y="30" font-size="15" font-weight="600" fill="#ff79c6">Most Commit Language (last year)</text>
  <rect x="20" y="47" width="10" height="10" fill="#f1e05a" stroke="#282a36" stroke-width="1"/>
  <text x="36" y="55" font-size="11" fill="#ffb86c">JavaScript 42.72%</text>
  <rect x="20" y="67" width="10" height="10" fill="#00ADD8" stroke="#282a36" stroke-width="1"/>
  <text x="36" y="75" font-size="11" fill="#ffb86c">Go 16.39%</text>
  <rect x="20" y="87" width="10" height="10" fill="#b07219" stroke="#282a36" stroke-width="1"/>
  <text x="36" y="95" font-size="11" fill="#ffb86c">Java 7.08%</text>
  <rect x="20" y="107" width="10" height="10" fill="#e34c26" stroke="#282a36" stroke-width="1"/>
  <text x="36" y="115" font-size="11" fill="#ffb86c">HTML 6.16%</text>
  <rect x="20" y="127" width="10" height="10" fill="#3178c6" stroke="#282a36" stroke-width="1"/>
  <text x="36" y="135" font-size="11" fill="#ffb86c">TypeScript 5.36%</text>
  <rect x="20" y="147" width="10" height="10" fill="#ff3e00" stroke="#282a36" stroke-width="1"/>
  <text x="36" y="155" font-size="11" fill="#ffb86c">Svelte 4.79%</text>
  <rect x="20" y="167" width="10" height="10" fill="#bd93f9" stroke="#282a36" stroke-width="1"/>
  <text x="36" y="175" font-size="11" fill="#ffb86c">Other 17.50%</text>
  <path d="M250.00,55.00 A55.00,55.00 0 0 1 274.29,159.35 L263.25,136.92 A30.00,30.00 0 0 0 250.00,80.00 Z" fill="#f1e05a" stroke="#282a36" stroke-width="1.5"/>
  <path d="M274.29,159.35 A55.00,55.00 0 0 1 220.22,156.24 L233.76,135.22 A30.00,30.00 0 0 0 263.25,136.92 Z" fill="#00ADD8" stroke="#282a36" stroke-width="1.5"/>
  <path d="M220.22,156.24 A55.00,55.00 0 0 1 203.21,138.91 L224.48,125.77 A30.00,30.00 0 0 0 233.76,135.22 Z" fill="#b07219" stroke="#282a36" stroke-width="1.5"/>
  <path d="M203.21,138.91 A55.00,55.00 0 0 1 195.76,119.12 L220.42,114.97 A30.00,30.00 0 0 0 224.48,125.77 Z" fill="#e34c26" stroke="#282a36" stroke-width="1.5"/>
  <path d="M195.76,119.12 A55.00,55.00 0 0 1 195.80,100.68 L220.43,104.92 A30.00,30.00 0 0 0 220.42,114.97 Z" fill="#3178c6" stroke="#282a36" stroke-width="1.5"/>
  <path d="M195.80,100.68 A55.00,55.00 0 0 1 200.99,85.04 L223.27,96.39 A30.00,30.00 0 0 0 220.43,104.92 Z" fill="#ff3e00" stroke="#282a36" stroke-width="1.5"/>
  <path d="M200.99,85.04 A55.00,55.00 0 0 1 250.00,55.00 L250.00,80.00 A30.00,30.00 0 0 0 223.27,96.39 Z" fill="#bd93f9" stroke="#282a36" stroke-width="1.5"/>
</svg>