<svg xmlns="http://www.w3.org/2000/svg" width="340" height="200" viewBox="0 0 340 200" font-family="'Segoe UI', Ubuntu, Sans-Serif">
  <rect x="0.5" y="0.5" width="339" height="199" rx="6" fill="#282a36" stroke="#282a36" stroke-opacity="1.00"/>
  <text x="20" y="30" font-size="15" font-weight="600" fill="#ff79c6">Most Commit Language (last year)</text>
  <rect x="20" y="47" width="10" height="10" fill="#f1e05a" stroke="#282a36" stroke-width="1"/>
  <text x="36" y="55" font-size="11" fill="#ffb86c">JavaScript 46.41%</text>
  <rect x="20" y="67" width="10" height="10" fill="#00ADD8" stroke="#282a36" stroke-width="1"/>
  <text x="36" y="75" font-size="11" fill="#ffb86c">Go 14.13%</text>
  <rect x="20" y="87" width="10" height="10" fill="#b07219" stroke="#282a36" stroke-width="1"/>
  <text x="36" y="95" font-size="11" fill="#ffb86c">Java 8.57%</text>
  <rect x="20" y="107" width="10" height="10" fill="#e34c26" stroke="#282a36" stroke-width="1"/>
  <text x="36" y="115" font-size="11" fill="#ffb86c">HTML 6.40%</text>
  <rect x="20" y="127" width="10" height="10" fill="#ff3e00" stroke="#282a36" stroke-width="1"/>
  <text x="36" y="135" font-size="11" fill="#ffb86c">Svelte 4.82%</text>
  <rect x="20" y="147" width="10" height="10" fill="#3178c6" stroke="#282a36" stroke-width="1"/>
  <text x="36" y="155" font-size="11" fill="#ffb86c">TypeScript 3.85%</text>
  <rect x="20" y="167" width="10" height="10" fill="#bd93f9" stroke="#282a36" stroke-width="1"/>
  <text x="36" y="175" font-size="11" fill="#ffb86c">Other 15.83%</text>
  <path d="M250.00,55.00 A55.00,55.00 0 0 1 262.32,163.60 L256.72,139.24 A30.00,30.00 0 0 0 250.00,80.00 Z" fill="#f1e05a" stroke="#282a36" stroke-width="1.5"/>
  <path d="M262.32,163.60 A55.00,55.00 0 0 1 216.18,153.38 L231.55,133.66 A30.00,30.00 0 0 0 256.72,139.24 Z" fill="#00ADD8" stroke="#282a36" stroke-width="1.5"/>
  <path d="M216.18,153.38 A55.00,55.00 0 0 1 198.73,129.91 L222.03,120.86 A30.00,30.00 0 0 0 231.55,133.66 Z" fill="#b07219" stroke="#282a36" stroke-width="1.5"/>
  <path d="M198.73,129.91 A55.00,55.00 0 0 1 195.03,108.26 L220.02,109.05 A30.00,30.00 0 0 0 222.03,120.86 Z" fill="#e34c26" stroke="#282a36" stroke-width="1.5"/>
  <path d="M195.03,108.26 A55.00,55.00 0 0 1 198.05,91.94 L221.66,100.15 A30.00,30.00 0 0 0 220.02,109.05 Z" fill="#ff3e00" stroke="#282a36" stroke-width="1.5"/>
  <path d="M198.05,91.94 A55.00,55.00 0 0 1 203.89,80.02 L224.85,93.65 A30.00,30.00 0 0 0 221.66,100.15 Z" fill="#3178c6" stroke="#282a36" stroke-width="1.5"/>
  <path d="M203.89,80.02 A55.00,55.00 0 0 1 250.00,55.00 L250.00,80.00 A30.00,30.00 0 0 0 224.85,93.65 Z" fill="#bd93f9" stroke="#282a36" stroke-width="1.5"/>
</svg>