<svg xmlns="http://www.w3.org/2000/svg" width="340" height="200" viewBox="0 0 340 200" font-family="'Segoe UI', Ubuntu, Sans-Serif">
  <rect x="0.5" y="0.5" width="339" height="199" rx="6" fill="#282a36" stroke="#282a36" stroke-opacity="1.00"/>
  <text x="20" y="30" font-size="15" font-weight="600" fill="#ff79c6">Most Commit Language (last year)</text>
  <rect x="20" y="47" width="10" height="10" fill="#f1e05a" stroke="#282a36" stroke-width="1"/>
  <text x="36" y="55" font-size="11" fill="#ffb86c">JavaScript 44.91%</text>
  <rect x="20" y="67" width="10" height="10" fill="#00ADD8" stroke="#282a36" stroke-width="1"/>
  <text x="36" y="75" font-size="11" fill="#ffb86c">Go 15.45%</text>
  <rect x="20" y="87" width="10" height="10" fill="#b07219" stroke="#282a36" stroke-width="1"/>
  <text x="36" y="95" font-size="11" fill="#ffb86c">Java 8.09%</text>
  <rect x="20" y="107" width="10" height="10" fill="#e34c26" stroke="#282a36" stroke-width="1"/>
  <text x="36" y="115" font-size="11" fill="#ffb86c">HTML 6.56%</text>
  <rect x="20" y="127" width="10" height="10" fill="#ff3e00" stroke="#282a36" stroke-width="1"/>
  <text x="36" y="135" font-size="11" fill="#ffb86c">Svelte 4.78%</text>
  <rect x="20" y="147" width="10" height="10" fill="#3178c6" stroke="#282a36" stroke-width="1"/>
  <text x="36" y="155" font-size="11" fill="#ffb86c">TypeScript 4.04%</text>
  <rect x="20" y="167" width="10" height="10" fill="#bd93f9" stroke="#282a36" stroke-width="1"/>
  <text x="36" y="175" font-size="11" fill="#ffb86c">Other 16.17%</text>
  <path d="M250.00,55.00 A55.00,55.00 0 0 1 267.30,162.21 L259.44,138.48 A30.00,30.00 0 0 0 250.00,80.00 Z" fill="#f1e05a" stroke="#282a36" stroke-width="1.5"/>
  <path d="M267.30,162.21 A55.00,55.00 0 0 1 216.67,153.75 L231.82,133.87 A30.00,30.00 0 0 0 259.44,138.48 Z" fill="#00ADD8" stroke="#282a36" stroke-width="1.5"/>
  <path d="M216.67,153.75 A55.00,55.00 0 0 1 199.60,132.02 L222.51,122.01 A30.00,30.00 0 0 0 231.82,133.87 Z" fill="#b07219" stroke="#282a36" stroke-width="1.5"/>
  <path d="M199.60,132.02 A55.00,55.00 0 0 1 195.00,109.99 L220.00,109.99 A30.00,30.00 0 0 0 222.51,122.01 Z" fill="#e34c26" stroke="#282a36" stroke-width="1.5"/>
  <path d="M195.00,109.99 A55.00,55.00 0 0 1 197.47,93.71 L221.35,101.11 A30.00,30.00 0 0 0 220.00,109.99 Z" fill="#ff3e00" stroke="#282a36" stroke-width="1.5"/>
  <path d="M197.47,93.71 A55.00,55.00 0 0 1 203.24,81.04 L224.50,94.20 A30.00,30.00 0 0 0 221.35,101.11 Z" fill="#3178c6" stroke="#282a36" stroke-width="1.5"/>
  <path d="M203.24,81.04 A55.00,55.00 0 0 1 250.00,55.00 L250.00,80.00 A30.00,30.00 0 0 0 224.50,94.20 Z" fill="#bd93f9" stroke="#282a36" stroke-width="1.5"/>
</svg>