<svg xmlns="http://www.w3.org/2000/svg" width="340" height="200" viewBox="0 0 340 200" font-family="'Segoe UI', Ubuntu, Sans-Serif">
  <rect x="0.5" y="0.5" width="339" height="199" rx="6" fill="#282a36" stroke="#282a36" stroke-opacity="1.00"/>
  <text x="20" y="30" font-size="15" font-weight="600" fill="#ff79c6">Most Commit Language (last year)</text>
  <rect x="20" y="47" width="10" height="10" fill="#f1e05a" stroke="#282a36" stroke-width="1"/>
  <text x="36" y="55" font-size="11" fill="#ffb86c">JavaScript 48.96%</text>
  <rect x="20" y="67" width="10" height="10" fill="#00ADD8" stroke="#282a36" stroke-width="1"/>
  <text x="36" y="75" font-size="11" fill="#ffb86c">Go 13.88%</text>
  <rect x="20" y="87" width="10" height="10" fill="#b07219" stroke="#282a36" stroke-width="1"/>
  <text x="36" y="95" font-size="11" fill="#ffb86c">Java 9.02%</text>
  <rect x="20" y="107" width="10" height="10" fill="#e34c26" stroke="#282a36" stroke-width="1"/>
  <text x="36" y="115" font-size="11" fill="#ffb86c">HTML 6.31%</text>
  <rect x="20" y="127" width="10" height="10" fill="#ff3e00" stroke="#282a36" stroke-width="1"/>
  <text x="36" y="135" font-size="11" fill="#ffb86c">Svelte 4.54%</text>
  <rect x="20" y="147" width="10" height="10" fill="#3572A5" stroke="#282a36" stroke-width="1"/>
  <text x="36" y="155" font-size="11" fill="#ffb86c">Python 3.40%</text>
  <rect x="20" y="167" width="10" height="10" fill="#bd93f9" stroke="#282a36" stroke-width="1"/>
  <text x="36" y="175" font-size="11" fill="#ffb86c">Other 13.89%</text>
  <path d="M250.00,55.00 A55.00,55.00 0 0 1 253.59,164.88 L251.96,139.94 A30.00,30.00 0 0 0 250.00,80.00 Z" fill="#f1e05a" stroke="#282a36" stroke-width="1.5"/>
  <path d="M253.59,164.88 A55.00,55.00 0 0 1 210.28,148.04 L228.33,130.75 A30.00,30.00 0 0 0 251.96,139.94 Z" fill="#00ADD8" stroke="#282a36" stroke-width="1.5"/>
  <path d="M210.28,148.04 A55.00,55.00 0 0 1 196.07,120.78 L220.58,115.88 A30.00,30.00 0 0 0 228.33,130.75 Z" fill="#b07219" stroke="#282a36" stroke-width="1.5"/>
  <path d="M196.07,120.78 A55.00,55.00 0 0 1 196.09,99.12 L220.59,104.07 A30.00,30.00 0 0 0 220.58,115.88 Z" fill="#e34c26" stroke="#282a36" stroke-width="1.5"/>
  <path d="M196.09,99.12 A55.00,55.00 0 0 1 201.33,84.39 L223.45,96.03 A30.00,30.00 0 0 0 220.59,104.07 Z" fill="#ff3e00" stroke="#282a36" stroke-width="1.5"/>
  <path d="M201.33,84.39 A55.00,55.00 0 0 1 207.87,74.65 L227.02,90.72 A30.00,30.00 0 0 0 223.45,96.03 Z" fill="#3572A5" stroke="#282a36" stroke-width="1.5"/>
  <path d="M207.87,74.65 A55.00,55.00 0 0 1 250.00,55.00 L250.00,80.00 A30.00,30.00 0 0 0 227.02,90.72 Z" fill="#bd93f9" stroke="#282a36" stroke-width="1.5"/>
</svg>