<svg xmlns="http://www.w3.org/2000/svg" width="340" height="200" viewBox="0 0 340 200" font-family="'Segoe UI', Ubuntu, Sans-Serif">
  <rect x="0.5" y="0.5" width="339" height="199" rx="6" fill="#282a36" stroke="#282a36" stroke-opacity="1.00"/>
  <text x="20" y="30" font-size="15" font-weight="600" fill="#ff79c6">Most Commit Language (last year)</text>
  <rect x="20" y="47" width="10" height="10" fill="#f1e05a" stroke="#282a36" stroke-width="1"/>
  <text x="36" y="55" font-size="11" fill="#ffb86c">JavaScript 43.34%</text>
  <rect x="20" y="67" width="10" height="10" fill="#00ADD8" stroke="#282a36" stroke-width="1"/>
  <text x="36" y="75" font-size="11" fill="#ffb86c">Go 16.05%</text>
  <rect x="20" y="87" width="10" height="10" fill="#b07219" stroke="#282a36" stroke-width="1"/>
  <text x="36" y="95" font-size="11" fill="#ffb86c">Java 6.54%</text>
  <rect x="20" y="107" width="10" height="10" fill="#e34c26" stroke="#282a36" stroke-width="1"/>
  <text x="36" y="115" font-size="11" fill="#ffb86c">HTML 5.71%</text>
  <rect x="20" y="127" width="10" height="10" fill="#3178c6" stroke="#282a36" stroke-width="1"/>
  <text x="36" y="135" font-size="11" fill="#ffb86c">TypeScript 5.38%</text>
  <rect x="20" y="147" width="10" height="10" fill="#ff3e00" stroke="#282a36" stroke-width="1"/>
  <text x="36" y="155" font-size="11" fill="#ffb86c">Svelte 4.76%</text>
  <rect x="20" y="167" width="10" height="10" fill="#bd93f9" stroke="#282a36" stroke-width="1"/>
  <text x="36" y="175" font-size="11" fill="#ffb86c">Other 18.22%</text>
  <path d="M250.00,55.00 A55.00,55.00 0 0 1 272.35,160.25 L262.19,137.41 A30.00,30.00 0 0 0 250.00,80.00 Z" fill="#f1e05a" stroke="#282a36" stroke-width="1.5"/>
  <path d="M272.35,160.25 A55.00,55.00 0 0 1 219.39,155.69 L233.30,134.92 A30.00,30.00 0 0 0 262.19,137.41 Z" fill="#00ADD8" stroke="#282a36" stroke-width="1.5"/>
  <path d="M219.39,155.69 A55.00,55.00 0 0 1 203.68,139.66 L224.74,126.18 A30.00,30.00 0 0 0 233.30,134.92 Z" fill="#b07219" stroke="#282a36" stroke-width="1.5"/>
  <path d="M203.68,139.66 A55.00,55.00 0 0 1 196.22,121.51 L220.66,116.28 A30.00,30.00 0 0 0 224.74,126.18 Z" fill="#e34c26" stroke="#282a36" stroke-width="1.5"/>
  <path d="M196.22,121.51 A55.00,55.00 0 0 1 195.44,103.04 L220.24,106.20 A30.00,30.00 0 0 0 220.66,116.28 Z" fill="#3178c6" stroke="#282a36" stroke-width="1.5"/>
  <path d="M195.44,103.04 A55.00,55.00 0 0 1 199.91,87.28 L222.68,97.61 A30.00,30.00 0 0 0 220.24,106.20 Z" fill="#ff3e00" stroke="#282a36" stroke-width="1.5"/>
  <path d="M199.91,87.28 A55.00,55.00 0 0 1 250.00,55.00 L250.00,80.00 A30.00,30.00 0 0 0 222.68,97.61 Z" fill="#bd93f9" stroke="#282a36" stroke-width="1.5"/>
</svg>