<svg xmlns="http://www.w3.org/2000/svg" width="340" height="200" viewBox="0 0 340 200" font-family="'Segoe UI', Ubuntu, Sans-Serif">
  <rect x="0.5" y="0.5" width="339" height="199" rx="6" fill="#282a36" stroke="#282a36" stroke-opacity="1.00"/>
  <text x="20" y="30" font-size="15" font-weight="600" fill="#ff79c6">Most Commit Language (all time)</text>
  <rect x="20" y="47" width="10" height="10" fill="#f1e05a" stroke="#282a36" stroke-width="1"/>
  <text x="36" y="55" font-size="11" fill="#ffb86c">JavaScript 34.57%</text>
  <rect x="20" y="67" width="10" height="10" fill="#00ADD8" stroke="#282a36" stroke-width="1"/>
  <text x="36" y="75" font-size="11" fill="#ffb86c">Go 16.39%</text>
  <rect x="20" y="87" width="10" height="10" fill="#b07219" stroke="#282a36" stroke-width="1"/>
  <text x="36" y="95" font-size="11" fill="#ffb86c">Java 11.72%</text>
  <rect x="20" y="107" width="10" height="10" fill="#e34c26" stroke="#282a36" stroke-width="1"/>
  <text x="36" y="115" font-size="11" fill="#ffb86c">HTML 10.71%</text>
  <rect x="20" y="127" width="10" height="10" fill="#3572A5" stroke="#282a36" stroke-width="1"/>
  <text x="36" y="135" font-size="11" fill="#ffb86c">Python 4.83%</text>
  <rect x="20" y="147" width="10" height="10" fill="#3178c6" stroke="#282a36" stroke-width="1"/>
  <text x="36" y="155" font-size="11" fill="#ffb86c">TypeScript 3.80%</text>
  <rect x="20" y="167" width="10" height="10" fill="#bd93f9" stroke="#282a36" stroke-width="1"/>
  <text x="36" y="175" font-size="11" fill="#ffb86c">Other 17.97%</text>
  <path d="M250.00,55.00 A55.00,55.00 0 0 1 295.34,141.13 L274.73,126.98 A30.00,30.00 0 0 0 250.00,80.00 Z" fill="#f1e05a" stroke="#282a36" stroke-width="1.5"/>
  <path d="M295.34,141.13 A55.00,55.00 0 0 1 246.65,164.90 L248.17,139.94 A30.00,30.00 0 0 0 274.73,126.98 Z" fill="#00ADD8" stroke="#282a36" stroke-width="1.5"/>
  <path d="M246.65,164.90 A55.00,55.00 0 0 1 210.65,148.42 L228.53,130.96 A30.00,30.00 0 0 0 248.17,139.94 Z" fill="#b07219" stroke="#282a36" stroke-width="1.5"/>
  <path d="M210.65,148.42 A55.00,55.00 0 0 1 195.28,115.52 L220.15,113.01 A30.00,30.00 0 0 0 228.53,130.96 Z" fill="#e34c26" stroke="#282a36" stroke-width="1.5"/>
  <path d="M195.28,115.52 A55.00,55.00 0 0 1 196.13,98.90 L220.62,103.95 A30.00,30.00 0 0 0 220.15,113.01 Z" fill="#3572A5" stroke="#282a36" stroke-width="1.5"/>
  <path d="M196.13,98.90 A55.00,55.00 0 0 1 200.28,86.48 L222.88,97.17 A30.00,30.00 0 0 0 220.62,103.95 Z" fill="#3178c6" stroke="#282a36" stroke-width="1.5"/>
  <path d="M200.28,86.48 A55.00,55.00 0 0 1 250.00,55.00 L250.00,80.00 A30.00,30.00 0 0 0 222.88,97.17 Z" fill="#bd93f9" stroke="#282a36" stroke-width="1.5"/>
</svg>