<svg xmlns="http://www.w3.org/2000/svg" width="340" height="200" viewBox="0 0 340 200" font-family="'Segoe UI', Ubuntu, Sans-Serif">
  <rect x="0.5" y="0.5" width="339" height="199" rx="6" fill="#282a36" stroke="#282a36" stroke-opacity="1.00"/>
  <text x="20" y="30" font-size="15" font-weight="600" fill="#ff79c6">Most Commit Language (last year)</text>
  <rect x="20" y="47" width="10" height="10" fill="#f1e05a" stroke="#282a36" stroke-width="1"/>
  <text x="36" y="55" font-size="11" fill="#ffb86c">JavaScript 44.09%</text>
  <rect x="20" y="67" width="10" height="10" fill="#00ADD8" stroke="#282a36" stroke-width="1"/>
  <text x="36" y="75" font-size="11" fill="#ffb86c">Go 16.02%</text>
  <rect x="20" y="87" width="10" height="10" fill="#b07219" stroke="#282a36" stroke-width="1"/>
  <text x="36" y="95" font-size="11" fill="#ffb86c">Java 7.58%</text>
  <rect x="20" y="107" width="10" height="10" fill="#e34c26" stroke="#282a36" stroke-width="1"/>
  <text x="36" y="115" font-size="11" fill="#ffb86c">HTML 6.54%</text>
  <rect x="20" y="127" width="10" height="10" fill="#ff3e00" stroke="#282a36" stroke-width="1"/>
  <text x="36" y="135" font-size="11" fill="#ffb86c">Svelte 4.58%</text>
  <rect x="20" y="147" width="10" height="10" fill="#3178c6" stroke="#282a36" stroke-width="1"/>
  <text x="36" y="155" font-size="11" fill="#ffb86c">TypeScript 3.86%</text>
  <rect x="20" y="167" width="10" height="10" fill="#bd93f9" stroke="#282a36" stroke-width="1"/>
  <text x="36" y="175" font-size="11" fill="#ffb86c">Other 17.32%</text>
  <path d="M250.00,55.00 A55.00,55.00 0 0 1 269.95,161.25 L260.88,137.96 A30.00,30.00 0 0 0 250.00,80.00 Z" fill="#f1e05a" stroke="#282a36" stroke-width="1.5"/>
  <path d="M269.95,161.25 A55.00,55.00 0 0 1 217.35,154.26 L232.19,134.14 A30.00,30.00 0 0 0 260.88,137.96 Z" fill="#00ADD8" stroke="#282a36" stroke-width="1.5"/>
  <path d="M217.35,154.26 A55.00,55.00 0 0 1 200.69,134.35 L223.10,123.28 A30.00,30.00 0 0 0 232.19,134.14 Z" fill="#b07219" stroke="#282a36" stroke-width="1.5"/>
  <path d="M200.69,134.35 A55.00,55.00 0 0 1 195.06,112.63 L220.03,111.44 A30.00,30.00 0 0 0 223.10,123.28 Z" fill="#e34c26" stroke="#282a36" stroke-width="1.5"/>
  <path d="M195.06,112.63 A55.00,55.00 0 0 1 196.57,96.94 L220.86,102.88 A30.00,30.00 0 0 0 220.03,111.44 Z" fill="#ff3e00" stroke="#282a36" stroke-width="1.5"/>
  <path d="M196.57,96.94 A55.00,55.00 0 0 1 201.28,84.48 L223.42,96.08 A30.00,30.00 0 0 0 220.86,102.88 Z" fill="#3178c6" stroke="#282a36" stroke-width="1.5"/>
  <path d="M201.28,84.48 A55.00,55.00 0 0 1 250.00,55.00 L250.00,80.00 A30.00,30.00 0 0 0 223.42,96.08 Z" fill="#bd93f9" stroke="#282a36" stroke-width="1.5"/>
</svg>