<svg xmlns="http://www.w3.org/2000/svg" width="340" height="200" viewBox="0 0 340 200" font-family="'Segoe UI', Ubuntu, Sans-Serif">
  <rect x="0.5" y="0.5" width="339" height="199" rx="6" fill="#282a36" stroke="#282a36" stroke-opacity="1.00"/>
  <text x="20" y="30" font-size="15" font-weight="600" fill="#ff79c6">Most Commit Language (all time)</text>
  <rect x="20" y="47" width="10" height="10" fill="#f1e05a" stroke="#282a36" stroke-width="1"/>
  <text x="36" y="55" font-size="11" fill="#ffb86c">JavaScript 36.12%</text>
  <rect x="20" y="67" width="10" height="10" fill="#b07219" stroke="#282a36" stroke-width="1"/>
  <text x="36" y="75" font-size="11" fill="#ffb86c">Java 13.49%</text>
  <rect x="20" y="87" width="10" height="10" fill="#e34c26" stroke="#282a36" stroke-width="1"/>
  <text x="36" y="95" font-size="11" fill="#ffb86c">HTML 12.71%</text>
  <rect x="20" y="107" width="10" height="10" fill="#00ADD8" stroke="#282a36" stroke-width="1"/>
  <text x="36" y="115" font-size="11" fill="#ffb86c">Go 10.68%</text>
  <rect x="20" y="127" width="10" height="10" fill="#3178c6" stroke="#282a36" stroke-width="1"/>
  <text x="36" y="135" font-size="11" fill="#ffb86c">TypeScript 3.92%</text>
  <rect x="20" y="147" width="10" height="10" fill="#3572A5" stroke="#282a36" stroke-width="1"/>
  <text x="36" y="155" font-size="11" fill="#ffb86c">Python 3.76%</text>
  <rect x="20" y="167" width="10" height="10" fill="#bd93f9" stroke="#282a36" stroke-width="1"/>
  <text x="36" y="175" font-size="11" fill="#ffb86c">Other 19.32%</text>
  <path d="M250.00,55.00 A55.00,55.00 0 0 1 292.12,145.37 L272.97,129.29 A30.00,30.00 0 0 0 250.00,80.00 Z" fill="#f1e05a" stroke="#282a36" stroke-width="1.5"/>
  <path d="M292.12,145.37 A55.00,55.00 0 0 1 251.36,164.98 L250.74,139.99 A30.00,30.00 0 0 0 272.97,129.29 Z" fill="#b07219" stroke="#282a36" stroke-width="1.5"/>
  <path d="M251.36,164.98 A55.00,55.00 0 0 1 211.55,149.32 L229.03,131.45 A30.00,30.00 0 0 0 250.74,139.99 Z" fill="#e34c26" stroke="#282a36" stroke-width="1.5"/>
  <path d="M211.55,149.32 A55.00,55.00 0 0 1 195.43,116.89 L220.24,113.76 A30.00,30.00 0 0 0 229.03,131.45 Z" fill="#00ADD8" stroke="#282a36" stroke-width="1.5"/>
  <path d="M195.43,116.89 A55.00,55.00 0 0 1 195.40,103.38 L220.22,106.39 A30.00,30.00 0 0 0 220.24,113.76 Z" fill="#3178c6" stroke="#282a36" stroke-width="1.5"/>
  <path d="M195.40,103.38 A55.00,55.00 0 0 1 198.47,90.78 L221.89,99.52 A30.00,30.00 0 0 0 220.22,106.39 Z" fill="#3572A5" stroke="#282a36" stroke-width="1.5"/>
  <path d="M198.47,90.78 A55.00,55.00 0 0 1 250.00,55.00 L250.00,80.00 A30.00,30.00 0 0 0 221.89,99.52 Z" fill="#bd93f9" stroke="#282a36" stroke-width="1.5"/>
</svg>