<svg xmlns="http://www.w3.org/2000/svg" width="340" height="200" viewBox="0 0 340 200" font-family="'Segoe UI', Ubuntu, Sans-Serif">
  <rect x="0.5" y="0.5" width="339" height="199" rx="6" fill="#282a36" stroke="#282a36" stroke-opacity="1.00"/>
  <text x="20" y="30" font-size="15" font-weight="600" fill="#ff79c6">Most Commit Language (all time)</text>
  <rect x="20" y="47" width="10" height="10" fill="#f1e05a" stroke="#282a36" stroke-width="1"/>
  <text x="36" y="55" font-size="11" fill="#ffb86c">JavaScript 36.29%</text>
  <rect x="20" y="67" width="10" height="10" fill="#b07219" stroke="#282a36" stroke-width="1"/>
  <text x="36" y="75" font-size="11" fill="#ffb86c">Java 16.75%</text>
  <rect x="20" y="87" width="10" height="10" fill="#e34c26" stroke="#282a36" stroke-width="1"/>
  <text x="36" y="95" font-size="11" fill="#ffb86c">HTML 15.02%</text>
  <rect x="20" y="107" width="10" height="10" fill="#00ADD8" stroke="#282a36" stroke-width="1"/>
  <text x="36" y="115" font-size="11" fill="#ffb86c">Go 8.11%</text>
  <rect x="20" y="127" width="10" height="10" fill="#3572A5" stroke="#282a36" stroke-width="1"/>
  <text x="36" y="135" font-size="11" fill="#ffb86c">Python 4.32%</text>
  <rect x="20" y="147" width="10" height="10" fill="#f34b7d" stroke="#282a36" stroke-width="1"/>
  <text x="36" y="155" font-size="11" fill="#ffb86c">C++ 4.10%</text>
  <rect x="20" y="167" width="10" height="10" fill="#bd93f9" stroke="#282a36" stroke-width="1"/>
  <text x="36" y="175" font-size="11" fill="#ffb86c">Other 15.42%</text>
  <path d="M250.00,55.00 A55.00,55.00 0 0 1 291.74,145.82 L272.77,129.54 A30.00,30.00 0 0 0 250.00,80.00 Z" fill="#f1e05a" stroke="#282a36" stroke-width="1.5"/>
  <path d="M291.74,145.82 A55.00,55.00 0 0 1 239.56,164.00 L244.31,139.45 A30.00,30.00 0 0 0 272.77,129.54 Z" fill="#b07219" stroke="#282a36" stroke-width="1.5"/>
  <path d="M239.56,164.00 A55.00,55.00 0 0 1 200.15,133.24 L222.81,122.68 A30.00,30.00 0 0 0 244.31,139.45 Z" fill="#e34c26" stroke="#282a36" stroke-width="1.5"/>
  <path d="M200.15,133.24 A55.00,55.00 0 0 1 195.15,105.98 L220.08,107.81 A30.00,30.00 0 0 0 222.81,122.68 Z" fill="#00ADD8" stroke="#282a36" stroke-width="1.5"/>
  <path d="M195.15,105.98 A55.00,55.00 0 0 1 198.23,91.43 L221.76,99.87 A30.00,30.00 0 0 0 220.08,107.81 Z" fill="#3572A5" stroke="#282a36" stroke-width="1.5"/>
  <path d="M198.23,91.43 A55.00,55.00 0 0 1 204.67,78.86 L225.27,93.01 A30.00,30.00 0 0 0 221.76,99.87 Z" fill="#f34b7d" stroke="#282a36" stroke-width="1.5"/>
  <path d="M204.67,78.86 A55.00,55.00 0 0 1 250.00,55.00 L250.00,80.00 A30.00,30.00 0 0 0 225.27,93.01 Z" fill="#bd93f9" stroke="#282a36" stroke-width="1.5"/>
</svg>