<svg xmlns="http://www.w3.org/2000/svg" width="340" height="200" viewBox="0 0 340 200" font-family="'Segoe UI', Ubuntu, Sans-Serif">
  <rect x="0.5" y="0.5" width="339" height="199" rx="6" fill="#282a36" stroke="#282a36" stroke-opacity="1.00"/>
  <text x="20" y="30" font-size="15" font-weight="600" fill="#ff79c6">Most Commit Language (all time)</text>
  <rect x="20" y="47" width="10" height="10" fill="#f1e05a" stroke="#282a36" stroke-width="1"/>
  <text x="36" y="55" font-size="11" fill="#ffb86c">JavaScript 36.37%</text>
  <rect x="20" y="67" width="10" height="10" fill="#b07219" stroke="#282a36" stroke-width="1"/>
  <text x="36" y="75" font-size="11" fill="#ffb86c">Java 17.10%</text>
  <rect x="20" y="87" width="10" height="10" fill="#e34c26" stroke="#282a36" stroke-width="1"/>
  <text x="36" y="95" font-size="11" fill="#ffb86c">HTML 15.23%</text>
  <rect x="20" y="107" width="10" height="10" fill="#00ADD8" stroke="#282a36" stroke-width="1"/>
  <text x="36" y="115" font-size="11" fill="#ffb86c">Go 8.30%</text>
  <rect x="20" y="127" width="10" height="10" fill="#3572A5" stroke="#282a36" stroke-width="1"/>
  <text x="36" y="135" font-size="11" fill="#ffb86c">Python 4.31%</text>
  <rect x="20" y="147" width="10" height="10" fill="#f34b7d" stroke="#282a36" stroke-width="1"/>
  <text x="36" y="155" font-size="11" fill="#ffb86c">C++ 4.14%</text>
  <rect x="20" y="167" width="10" height="10" fill="#bd93f9" stroke="#282a36" stroke-width="1"/>
  <text x="36" y="175" font-size="11" fill="#ffb86c">Other 14.55%</text>
  <path d="M250.00,55.00 A55.00,55.00 0 0 1 291.54,146.04 L272.66,129.66 A30.00,30.00 0 0 0 250.00,80.00 Z" fill="#f1e05a" stroke="#282a36" stroke-width="1.5"/>
  <path d="M291.54,146.04 A55.00,55.00 0 0 1 238.09,163.69 L243.50,139.29 A30.00,30.00 0 0 0 272.66,129.66 Z" fill="#b07219" stroke="#282a36" stroke-width="1.5"/>
  <path d="M238.09,163.69 A55.00,55.00 0 0 1 199.25,131.21 L222.32,121.57 A30.00,30.00 0 0 0 243.50,139.29 Z" fill="#e34c26" stroke="#282a36" stroke-width="1.5"/>
  <path d="M199.25,131.21 A55.00,55.00 0 0 1 195.44,103.09 L220.24,106.23 A30.00,30.00 0 0 0 222.32,121.57 Z" fill="#00ADD8" stroke="#282a36" stroke-width="1.5"/>
  <path d="M195.44,103.09 A55.00,55.00 0 0 1 199.27,88.76 L222.33,98.42 A30.00,30.00 0 0 0 220.24,106.23 Z" fill="#3572A5" stroke="#282a36" stroke-width="1.5"/>
  <path d="M199.27,88.76 A55.00,55.00 0 0 1 206.44,76.42 L226.24,91.68 A30.00,30.00 0 0 0 222.33,98.42 Z" fill="#f34b7d" stroke="#282a36" stroke-width="1.5"/>
  <path d="M206.44,76.42 A55.00,55.00 0 0 1 250.00,55.00 L250.00,80.00 A30.00,30.00 0 0 0 226.24,91.68 Z" fill="#bd93f9" stroke="#282a36" stroke-width="1.5"/>
</svg>