<svg xmlns="http://www.w3.org/2000/svg" width="340" height="200" viewBox="0 0 340 200" font-family="'Segoe UI', Ubuntu, Sans-Serif">
  <rect x="0.5" y="0.5" width="339" height="199" rx="6" fill="#282a36" stroke="#282a36" stroke-opacity="1.00"/>
  <text x="20" y="30" font-size="15" font-weight="600" fill="#ff79c6">Most Commit Language (all time)</text>
  <rect x="20" y="47" width="10" height="10" fill="#f1e05a" stroke="#282a36" stroke-width="1"/>
  <text x="36" y="55" font-size="11" fill="#ffb86c">JavaScript 35.90%</text>
  <rect x="20" y="67" width="10" height="10" fill="#b07219" stroke="#282a36" stroke-width="1"/>
  <text x="36" y="75" font-size="11" fill="#ffb86c">Java 16.20%</text>
  <rect x="20" y="87" width="10" height="10" fill="#e34c26" stroke="#282a36" stroke-width="1"/>
  <text x="36" y="95" font-size="11" fill="#ffb86c">HTML 15.02%</text>
  <rect x="20" y="107" width="10" height="10" fill="#00ADD8" stroke="#282a36" stroke-width="1"/>
  <text x="36" y="115" font-size="11" fill="#ffb86c">Go 8.30%</text>
  <rect x="20" y="127" width="10" height="10" fill="#3572A5" stroke="#282a36" stroke-width="1"/>
  <text x="36" y="135" font-size="11" fill="#ffb86c">Python 4.17%</text>
  <rect x="20" y="147" width="10" height="10" fill="#f34b7d" stroke="#282a36" stroke-width="1"/>
  <text x="36" y="155" font-size="11" fill="#ffb86c">C++ 4.06%</text>
  <rect x="20" y="167" width="10" height="10" fill="#bd93f9" stroke="#282a36" stroke-width="1"/>
  <text x="36" y="175" font-size="11" fill="#ffb86c">Other 16.35%</text>
  <path d="M250.00,55.00 A55.00,55.00 0 0 1 292.59,144.80 L273.23,128.98 A30.00,30.00 0 0 0 250.00,80.00 Z" fill="#f1e05a" stroke="#282a36" stroke-width="1.5"/>
  <path d="M292.59,144.80 A55.00,55.00 0 0 1 242.77,164.52 L246.05,139.74 A30.00,30.00 0 0 0 273.23,128.98 Z" fill="#b07219" stroke="#282a36" stroke-width="1.5"/>
  <path d="M242.77,164.52 A55.00,55.00 0 0 1 201.60,136.12 L223.60,124.25 A30.00,30.00 0 0 0 246.05,139.74 Z" fill="#e34c26" stroke="#282a36" stroke-width="1.5"/>
  <path d="M201.60,136.12 A55.00,55.00 0 0 1 195.02,108.55 L220.01,109.21 A30.00,30.00 0 0 0 223.60,124.25 Z" fill="#00ADD8" stroke="#282a36" stroke-width="1.5"/>
  <path d="M195.02,108.55 A55.00,55.00 0 0 1 197.27,94.35 L221.24,101.46 A30.00,30.00 0 0 0 220.01,109.21 Z" fill="#3572A5" stroke="#282a36" stroke-width="1.5"/>
  <path d="M197.27,94.35 A55.00,55.00 0 0 1 202.93,81.55 L224.33,94.48 A30.00,30.00 0 0 0 221.24,101.46 Z" fill="#f34b7d" stroke="#282a36" stroke-width="1.5"/>
  <path d="M202.93,81.55 A55.00,55.00 0 0 1 250.00,55.00 L250.00,80.00 A30.00,30.00 0 0 0 224.33,94.48 Z" fill="#bd93f9" stroke="#282a36" stroke-width="1.5"/>
</svg>