<svg xmlns="http://www.w3.org/2000/svg" width="340" height="200" viewBox="0 0 340 200" font-family="'Segoe UI', Ubuntu, Sans-Serif">
  <rect x="0.5" y="0.5" width="339" height="199" rx="6" fill="#282a36" stroke="#282a36" stroke-opacity="1.00"/>
  <text x="20" y="30" font-size="15" font-weight="600" fill="#ff79c6">Most Commit Language (last year)</text>
  <rect x="20" y="47" width="10" height="10" fill="#f1e05a" stroke="#282a36" stroke-width="1"/>
  <text x="36" y="55" font-size="11" fill="#ffb86c">JavaScript 42.57%</text>
  <rect x="20" y="67" width="10" height="10" fill="#00ADD8" stroke="#282a36" stroke-width="1"/>
  <text x="36" y="75" font-size="11" fill="#ffb86c">Go 17.24%</text>
  <rect x="20" y="87" width="10" height="10" fill="#b07219" stroke="#282a36" stroke-width="1"/>
  <text x="36" y="95" font-size="11" fill="#ffb86c">Java 6.28%</text>
  <rect x="20" y="107" width="10" height="10" fill="#e34c26" stroke="#282a36" stroke-width="1"/>
  <text x="36" y="115" font-size="11" fill="#ffb86c">HTML 5.51%</text>
  <rect x="20" y="127" width="10" height="10" fill="#3178c6" stroke="#282a36" stroke-width="1"/>
  <text x="36" y="135" font-size="11" fill="#ffb86c">TypeScript 5.22%</text>
  <rect x="20" y="147" width="10" height="10" fill="#ff3e00" stroke="#282a36" stroke-width="1"/>
  <text x="36" y="155" font-size="11" fill="#ffb86c">Svelte 4.61%</text>
  <rect x="20" y="167" width="10" height="10" fill="#bd93f9" stroke="#282a36" stroke-width="1"/>
  <text x="36" y="175" font-size="11" fill="#ffb86c">Other 18.57%</text>
  <path d="M250.00,55.00 A55.00,55.00 0 0 1 274.75,159.12 L263.50,136.79 A30.00,30.00 0 0 0 250.00,80.00 Z" fill="#f1e05a" stroke="#282a36" stroke-width="1.5"/>
  <path d="M274.75,159.12 A55.00,55.00 0 0 1 218.20,154.88 L232.66,134.48 A30.00,30.00 0 0 0 263.50,136.79 Z" fill="#00ADD8" stroke="#282a36" stroke-width="1.5"/>
  <path d="M218.20,154.88 A55.00,55.00 0 0 1 203.39,139.20 L224.58,125.93 A30.00,30.00 0 0 0 232.66,134.48 Z" fill="#b07219" stroke="#282a36" stroke-width="1.5"/>
  <path d="M203.39,139.20 A55.00,55.00 0 0 1 196.25,121.66 L220.68,116.36 A30.00,30.00 0 0 0 224.58,125.93 Z" fill="#e34c26" stroke="#282a36" stroke-width="1.5"/>
  <path d="M196.25,121.66 A55.00,55.00 0 0 1 195.36,103.74 L220.20,106.58 A30.00,30.00 0 0 0 220.68,116.36 Z" fill="#3178c6" stroke="#282a36" stroke-width="1.5"/>
  <path d="M195.36,103.74 A55.00,55.00 0 0 1 199.43,88.38 L222.42,98.21 A30.00,30.00 0 0 0 220.20,106.58 Z" fill="#ff3e00" stroke="#282a36" stroke-width="1.5"/>
  <path d="M199.43,88.38 A55.00,55.00 0 0 1 250.00,55.00 L250.00,80.00 A30.00,30.00 0 0 0 222.42,98.21 Z" fill="#bd93f9" stroke="#282a36" stroke-width="1.5"/>
</svg>