<svg xmlns="http://www.w3.org/2000/svg" width="340" height="200" viewBox="0 0 340 200" font-family="'Segoe UI', Ubuntu, Sans-Serif">
  <rect x="0.5" y="0.5" width="339" height="199" rx="6" fill="#282a36" stroke="#282a36" stroke-opacity="1.00"/>
  <text x="20" y="30" font-size="15" font-weight="600" fill="#ff79c6">Most Commit Language (all time)</text>
  <rect x="20" y="47" width="10" height="10" fill="#f1e05a" stroke="#282a36" stroke-width="1"/>
  <text x="36" y="55" font-size="11" fill="#ffb86c">JavaScript 34.68%</text>
  <rect x="20" y="67" width="10" height="10" fill="#00ADD8" stroke="#282a36" stroke-width="1"/>
  <text x="36" y="75" font-size="11" fill="#ffb86c">Go 16.21%</text>
  <rect x="20" y="87" width="10" height="10" fill="#b07219" stroke="#282a36" stroke-width="1"/>
  <text x="36" y="95" font-size="11" fill="#ffb86c">Java 11.77%</text>
  <rect x="20" y="107" width="10" height="10" fill="#e34c26" stroke="#282a36" stroke-width="1"/>
  <text x="36" y="115" font-size="11" fill="#ffb86c">HTML 10.55%</text>
  <rect x="20" y="127" width="10" height="10" fill="#3572A5" stroke="#282a36" stroke-width="1"/>
  <text x="36" y="135" font-size="11" fill="#ffb86c">Python 4.85%</text>
  <rect x="20" y="147" width="10" height="10" fill="#3178c6" stroke="#282a36" stroke-width="1"/>
  <text x="36" y="155" font-size="11" fill="#ffb86c">TypeScript 3.93%</text>
  <rect x="20" y="167" width="10" height="10" fill="#bd93f9" stroke="#282a36" stroke-width="1"/>
  <text x="36" y="175" font-size="11" fill="#ffb86c">Other 18.01%</text>
  <path d="M250.00,55.00 A55.00,55.00 0 0 1 295.14,141.43 L274.62,127.14 A30.00,30.00 0 0 0 250.00,80.00 Z" fill="#f1e05a" stroke="#282a36" stroke-width="1.5"/>
  <path d="M295.14,141.43 A55.00,55.00 0 0 1 246.93,164.91 L248.32,139.95 A30.00,30.00 0 0 0 274.62,127.14 Z" fill="#00ADD8" stroke="#282a36" stroke-width="1.5"/>
  <path d="M246.93,164.91 A55.00,55.00 0 0 1 210.71,148.49 L228.57,130.99 A30.00,30.00 0 0 0 248.32,139.95 Z" fill="#b07219" stroke="#282a36" stroke-width="1.5"/>
  <path d="M210.71,148.49 A55.00,55.00 0 0 1 195.35,116.17 L220.19,113.37 A30.00,30.00 0 0 0 228.57,130.99 Z" fill="#e34c26" stroke="#282a36" stroke-width="1.5"/>
  <path d="M195.35,116.17 A55.00,55.00 0 0 1 196.02,99.47 L220.55,104.26 A30.00,30.00 0 0 0 220.19,113.37 Z" fill="#3572A5" stroke="#282a36" stroke-width="1.5"/>
  <path d="M196.02,99.47 A55.00,55.00 0 0 1 200.23,86.60 L222.85,97.24 A30.00,30.00 0 0 0 220.55,104.26 Z" fill="#3178c6" stroke="#282a36" stroke-width="1.5"/>
  <path d="M200.23,86.60 A55.00,55.00 0 0 1 250.00,55.00 L250.00,80.00 A30.00,30.00 0 0 0 222.85,97.24 Z" fill="#bd93f9" stroke="#282a36" stroke-width="1.5"/>
</svg>