<svg xmlns="http://www.w3.org/2000/svg" width="340" height="200" viewBox="0 0 340 200" font-family="'Segoe UI', Ubuntu, Sans-Serif">
  <rect x="0.5" y="0.5" width="339" height="199" rx="6" fill="#282a36" stroke="#282a36" stroke-opacity="1.00"/>
  <text x="20" y="30" font-size="15" font-weight="600" fill="#ff79c6">Most Commit Language (last year)</text>
  <rect x="20" y="47" width="10" height="10" fill="#f1e05a" stroke="#282a36" stroke-width="1"/>
  <text x="36" y="55" font-size="11" fill="#ffb86c">JavaScript 45.78%</text>
  <rect x="20" y="67" width="10" height="10" fill="#00ADD8" stroke="#282a36" stroke-width="1"/>
  <text x="36" y="75" font-size="11" fill="#ffb86c">Go 15.14%</text>
  <rect x="20" y="87" width="10" height="10" fill="#b07219" stroke="#282a36" stroke-width="1"/>
  <text x="36" y="95" font-size="11" fill="#ffb86c">Java 8.31%</text>
  <rect x="20" y="107" width="10" height="10" fill="#e34c26" stroke="#282a36" stroke-width="1"/>
  <text x="36" y="115" font-size="11" fill="#ffb86c">HTML 6.14%</text>
  <rect x="20" y="127" width="10" height="10" fill="#ff3e00" stroke="#282a36" stroke-width="1"/>
  <text x="36" y="135" font-size="11" fill="#ffb86c">Svelte 4.83%</text>
  <rect x="20" y="147" width="10" height="10" fill="#3178c6" stroke="#282a36" stroke-width="1"/>
  <text x="36" y="155" font-size="11" fill="#ffb86c">TypeScript 4.15%</text>
  <rect x="20" y="167" width="10" height="10" fill="#bd93f9" stroke="#282a36" stroke-width="1"/>
  <text x="36" y="175" font-size="11" fill="#ffb86c">Other 15.64%</text>
  <path d="M250.00,55.00 A55.00,55.00 0 0 1 264.41,163.08 L257.86,138.95 A30.00,30.00 0 0 0 250.00,80.00 Z" fill="#f1e05a" stroke="#282a36" stroke-width="1.5"/>
  <path d="M264.41,163.08 A55.00,55.00 0 0 1 215.15,152.55 L230.99,133.21 A30.00,30.00 0 0 0 257.86,138.95 Z" fill="#00ADD8" stroke="#282a36" stroke-width="1.5"/>
  <path d="M215.15,152.55 A55.00,55.00 0 0 1 198.57,129.50 L221.95,120.64 A30.00,30.00 0 0 0 230.99,133.21 Z" fill="#b07219" stroke="#282a36" stroke-width="1.5"/>
  <path d="M198.57,129.50 A55.00,55.00 0 0 1 195.02,108.71 L220.01,109.29 A30.00,30.00 0 0 0 221.95,120.64 Z" fill="#e34c26" stroke="#282a36" stroke-width="1.5"/>
  <path d="M195.02,108.71 A55.00,55.00 0 0 1 197.92,92.33 L221.59,100.36 A30.00,30.00 0 0 0 220.01,109.29 Z" fill="#ff3e00" stroke="#282a36" stroke-width="1.5"/>
  <path d="M197.92,92.33 A55.00,55.00 0 0 1 204.23,79.50 L225.04,93.36 A30.00,30.00 0 0 0 221.59,100.36 Z" fill="#3178c6" stroke="#282a36" stroke-width="1.5"/>
  <path d="M204.23,79.50 A55.00,55.00 0 0 1 250.00,55.00 L250.00,80.00 A30.00,30.00 0 0 0 225.04,93.36 Z" fill="#bd93f9" stroke="#282a36" stroke-width="1.5"/>
</svg>