<svg xmlns="http://www.w3.org/2000/svg" width="340" height="200" viewBox="0 0 340 200" font-family="'Segoe UI', Ubuntu, Sans-Serif">
  <rect x="0.5" y="0.5" width="339" height="199" rx="6" fill="#282a36" stroke="#282a36" stroke-opacity="1.00"/>
  <text x="20" y="30" font-size="15" font-weight="600" fill="#ff79c6">Most Commit Language (all time)</text>
  <rect x="20" y="47" width="10" height="10" fill="#f1e05a" stroke="#282a36" stroke-width="1"/>
  <text x="36" y="55" font-size="11" fill="#ffb86c">JavaScript 36.89%</text>
  <rect x="20" y="67" width="10" height="10" fill="#b07219" stroke="#282a36" stroke-width="1"/>
  <text x="36" y="75" font-size="11" fill="#ffb86c">Java 15.17%</text>
  <rect x="20" y="87" width="10" height="10" fill="#e34c26" stroke="#282a36" stroke-width="1"/>
  <text x="36" y="95" font-size="11" fill="#ffb86c">HTML 14.01%</text>
  <rect x="20" y="107" width="10" height="10" fill="#00ADD8" stroke="#282a36" stroke-width="1"/>
  <text x="36" y="115" font-size="11" fill="#ffb86c">Go 9.57%</text>
  <rect x="20" y="127" width="10" height="10" fill="#3572A5" stroke="#282a36" stroke-width="1"/>
  <text x="36" y="135" font-size="11" fill="#ffb86c">Python 4.10%</text>
  <rect x="20" y="147" width="10" height="10" fill="#f34b7d" stroke="#282a36" stroke-width="1"/>
  <text x="36" y="155" font-size="11" fill="#ffb86c">C++ 3.81%</text>
  <rect x="20" y="167" width="10" height="10" fill="#bd93f9" stroke="#282a36" stroke-width="1"/>
  <text x="36" y="175" font-size="11" fill="#ffb86c">Other 16.46%</text>
  <path d="M250.00,55.00 A55.00,55.00 0 0 1 290.36,147.36 L272.02,130.38 A30.00,30.00 0 0 0 250.00,80.00 Z" fill="#f1e05a" stroke="#282a36" stroke-width="1.5"/>
  <path d="M290.36,147.36 A55.00,55.00 0 0 1 242.92,164.54 L246.14,139.75 A30.00,30.00 0 0 0 272.02,130.38 Z" fill="#b07219" stroke="#282a36" stroke-width="1.5"/>
  <path d="M242.92,164.54 A55.00,55.00 0 0 1 203.45,139.29 L224.61,125.97 A30.00,30.00 0 0 0 246.14,139.75 Z" fill="#e34c26" stroke="#282a36" stroke-width="1.5"/>
  <path d="M203.45,139.29 A55.00,55.00 0 0 1 195.04,107.80 L220.02,108.80 A30.00,30.00 0 0 0 224.61,125.97 Z" fill="#00ADD8" stroke="#282a36" stroke-width="1.5"/>
  <path d="M195.04,107.80 A55.00,55.00 0 0 1 197.41,93.89 L221.32,101.21 A30.00,30.00 0 0 0 220.02,108.80 Z" fill="#3572A5" stroke="#282a36" stroke-width="1.5"/>
  <path d="M197.41,93.89 A55.00,55.00 0 0 1 202.74,81.87 L224.22,94.66 A30.00,30.00 0 0 0 221.32,101.21 Z" fill="#f34b7d" stroke="#282a36" stroke-width="1.5"/>
  <path d="M202.74,81.87 A55.00,55.00 0 0 1 250.00,55.00 L250.00,80.00 A30.00,30.00 0 0 0 224.22,94.66 Z" fill="#bd93f9" stroke="#282a36" stroke-width="1.5"/>
</svg>