<svg xmlns="http://www.w3.org/2000/svg" width="340" height="200" viewBox="0 0 340 200" font-family="'Segoe UI', Ubuntu, Sans-Serif">
  <rect x="0.5" y="0.5" width="339" height="199" rx="6" fill="#282a36" stroke="#282a36" stroke-opacity="1.00"/>
  <text x="20" y="30" font-size="15" font-weight="600" fill="#ff79c6">Most Commit Language (last year)</text>
  <rect x="20" y="47" width="10" height="10" fill="#f1e05a" stroke="#282a36" stroke-width="1"/>
  <text x="36" y="55" font-size="11" fill="#ffb86c">JavaScript 49.14%</text>
  <rect x="20" y="67" width="10" height="10" fill="#00ADD8" stroke="#282a36" stroke-width="1"/>
  <text x="36" y="75" font-size="11" fill="#ffb86c">Go 14.19%</text>
  <rect x="20" y="87" width="10" height="10" fill="#b07219" stroke="#282a36" stroke-width="1"/>
  <text x="36" y="95" font-size="11" fill="#ffb86c">Java 9.95%</text>
  <rect x="20" y="107" width="10" height="10" fill="#e34c26" stroke="#282a36" stroke-width="1"/>
  <text x="36" y="115" font-size="11" fill="#ffb86c">HTML 6.64%</text>
  <rect x="20" y="127" width="10" height="10" fill="#3178c6" stroke="#282a36" stroke-width="1"/>
  <text x="36" y="135" font-size="11" fill="#ffb86c">TypeScript 3.60%</text>
  <rect x="20" y="147" width="10" height="10" fill="#384d54" stroke="#282a36" stroke-width="1"/>
  <text x="36" y="155" font-size="11" fill="#ffb86c">Dockerfile 3.35%</text>
  <rect x="20" y="167" width="10" height="10" fill="#bd93f9" stroke="#282a36" stroke-width="1"/>
  <text x="36" y="175" font-size="11" fill="#ffb86c">Other 13.14%</text>
  <path d="M250.00,55.00 A55.00,55.00 0 0 1 252.97,164.92 L251.62,139.96 A30.00,30.00 0 0 0 250.00,80.00 Z" fill="#f1e05a" stroke="#282a36" stroke-width="1.5"/>
  <path d="M252.97,164.92 A55.00,55.00 0 0 1 209.14,146.82 L227.72,130.08 A30.00,30.00 0 0 0 251.62,139.96 Z" fill="#00ADD8" stroke="#282a36" stroke-width="1.5"/>
  <path d="M209.14,146.82 A55.00,55.00 0 0 1 195.32,115.96 L220.18,113.25 A30.00,30.00 0 0 0 227.72,130.08 Z" fill="#b07219" stroke="#282a36" stroke-width="1.5"/>
  <path d="M195.32,115.96 A55.00,55.00 0 0 1 197.59,93.31 L221.41,100.90 A30.00,30.00 0 0 0 220.18,113.25 Z" fill="#e34c26" stroke="#282a36" stroke-width="1.5"/>
  <path d="M197.59,93.31 A55.00,55.00 0 0 1 202.67,81.98 L224.19,94.72 A30.00,30.00 0 0 0 221.41,100.90 Z" fill="#3178c6" stroke="#282a36" stroke-width="1.5"/>
  <path d="M202.67,81.98 A55.00,55.00 0 0 1 209.57,72.72 L227.95,89.66 A30.00,30.00 0 0 0 224.19,94.72 Z" fill="#384d54" stroke="#282a36" stroke-width="1.5"/>
  <path d="M209.57,72.72 A55.00,55.00 0 0 1 250.00,55.00 L250.00,80.00 A30.00,30.00 0 0 0 227.95,89.66 Z" fill="#bd93f9" stroke="#282a36" stroke-width="1.5"/>
</svg>