<svg xmlns="http://www.w3.org/2000/svg" width="340" height="200" viewBox="0 0 340 200" font-family="'Segoe UI', Ubuntu, Sans-Serif">
  <rect x="0.5" y="0.5" width="339" height="199" rx="6" fill="#282a36" stroke="#282a36" stroke-opacity="1.00"/>
  <text x="20" y="30" font-size="15" font-weight="600" fill="#ff79c6">Most Commit Language (all time)</text>
  <rect x="20" y="47" width="10" height="10" fill="#f1e05a" stroke="#282a36" stroke-width="1"/>
  <text x="36" y="55" font-size="11" fill="#ffb86c">JavaScript 36.09%</text>
  <rect x="20" y="67" width="10" height="10" fill="#b07219" stroke="#282a36" stroke-width="1"/>
  <text x="36" y="75" font-size="11" fill="#ffb86c">Java 17.45%</text>
  <rect x="20" y="87" width="10" height="10" fill="#e34c26" stroke="#282a36" stroke-width="1"/>
  <text x="36" y="95" font-size="11" fill="#ffb86c">HTML 15.41%</text>
  <rect x="20" y="107" width="10" height="10" fill="#00ADD8" stroke="#282a36" stroke-width="1"/>
  <text x="36" y="115" font-size="11" fill="#ffb86c">Go 8.47%</text>
  <rect x="20" y="127" width="10" height="10" fill="#3572A5" stroke="#282a36" stroke-width="1"/>
  <text x="36" y="135" font-size="11" fill="#ffb86c">Python 4.31%</text>
  <rect x="20" y="147" width="10" height="10" fill="#f34b7d" stroke="#282a36" stroke-width="1"/>
  <text x="36" y="155" font-size="11" fill="#ffb86c">C++ 4.23%</text>
  <rect x="20" y="167" width="10" height="10" fill="#bd93f9" stroke="#282a36" stroke-width="1"/>
  <text x="36" y="175" font-size="11" fill="#ffb86c">Other 14.03%</text>
  <path d="M250.00,55.00 A55.00,55.00 0 0 1 292.18,145.29 L273.01,129.25 A30.00,30.00 0 0 0 250.00,80.00 Z" fill="#f1e05a" stroke="#282a36" stroke-width="1.5"/>
  <path d="M292.18,145.29 A55.00,55.00 0 0 1 237.87,163.65 L243.38,139.26 A30.00,30.00 0 0 0 273.01,129.25 Z" fill="#b07219" stroke="#282a36" stroke-width="1.5"/>
  <path d="M237.87,163.65 A55.00,55.00 0 0 1 198.92,130.40 L222.14,121.13 A30.00,30.00 0 0 0 243.38,139.26 Z" fill="#e34c26" stroke="#282a36" stroke-width="1.5"/>
  <path d="M198.92,130.40 A55.00,55.00 0 0 1 195.64,101.65 L220.35,105.44 A30.00,30.00 0 0 0 222.14,121.13 Z" fill="#00ADD8" stroke="#282a36" stroke-width="1.5"/>
  <path d="M195.64,101.65 A55.00,55.00 0 0 1 199.86,87.40 L222.65,97.67 A30.00,30.00 0 0 0 220.35,105.44 Z" fill="#3572A5" stroke="#282a36" stroke-width="1.5"/>
  <path d="M199.86,87.40 A55.00,55.00 0 0 1 207.56,75.02 L226.85,90.92 A30.00,30.00 0 0 0 222.65,97.67 Z" fill="#f34b7d" stroke="#282a36" stroke-width="1.5"/>
  <path d="M207.56,75.02 A55.00,55.00 0 0 1 250.00,55.00 L250.00,80.00 A30.00,30.00 0 0 0 226.85,90.92 Z" fill="#bd93f9" stroke="#282a36" stroke-width="1.5"/>
</svg>