<svg xmlns="http://www.w3.org/2000/svg" width="340" height="200" viewBox="0 0 340 200" font-family="'Segoe UI', Ubuntu, Sans-Serif">
  <rect x="0.5" y="0.5" width="339" height="199" rx="6" fill="#282a36" stroke="#282a36" stroke-opacity="1.00"/>
  <text x="20" y="30" font-size="15" font-weight="600" fill="#ff79c6">Most Commit Language (last year)</text>
  <rect x="20" y="47" width="10" height="10" fill="#f1e05a" stroke="#282a36" stroke-width="1"/>
  <text x="36" y="55" font-size="11" fill="#ffb86c">JavaScript 43.15%</text>
  <rect x="20" y="67" width="10" height="10" fill="#00ADD8" stroke="#282a36" stroke-width="1"/>
  <text x="36" y="75" font-size="11" fill="#ffb86c">Go 16.25%</text>
  <rect x="20" y="87" width="10" height="10" fill="#b07219" stroke="#282a36" stroke-width="1"/>
  <text x="36" y="95" font-size="11" fill="#ffb86c">Java 7.15%</text>
  <rect x="20" y="107" width="10" height="10" fill="#e34c26" stroke="#282a36" stroke-width="1"/>
  <text x="36" y="115" font-size="11" fill="#ffb86c">HTML 6.22%</text>
  <rect x="20" y="127" width="10" height="10" fill="#3178c6" stroke="#282a36" stroke-width="1"/>
  <text x="36" y="135" font-size="11" fill="#ffb86c">TypeScript 4.87%</text>
  <rect x="20" y="147" width="10" height="10" fill="#ff3e00" stroke="#282a36" stroke-width="1"/>
  <text x="36" y="155" font-size="11" fill="#ffb86c">Svelte 4.78%</text>
  <rect x="20" y="167" width="10" height="10" fill="#bd93f9" stroke="#282a36" stroke-width="1"/>
  <text x="36" y="175" font-size="11" fill="#ffb86c">Other 17.59%</text>
  <path d="M250.00,55.00 A55.00,55.00 0 0 1 272.95,159.98 L262.52,137.26 A30.00,30.00 0 0 0 250.00,80.00 Z" fill="#f1e05a" stroke="#282a36" stroke-width="1.5"/>
  <path d="M272.95,159.98 A55.00,55.00 0 0 1 219.38,155.69 L233.30,134.92 A30.00,30.00 0 0 0 262.52,137.26 Z" fill="#00ADD8" stroke="#282a36" stroke-width="1.5"/>
  <path d="M219.38,155.69 A55.00,55.00 0 0 1 202.57,137.85 L224.13,125.19 A30.00,30.00 0 0 0 233.30,134.92 Z" fill="#b07219" stroke="#282a36" stroke-width="1.5"/>
  <path d="M202.57,137.85 A55.00,55.00 0 0 1 195.54,117.69 L220.30,114.20 A30.00,30.00 0 0 0 224.13,125.19 Z" fill="#e34c26" stroke="#282a36" stroke-width="1.5"/>
  <path d="M195.54,117.69 A55.00,55.00 0 0 1 195.75,100.94 L220.41,105.06 A30.00,30.00 0 0 0 220.30,114.20 Z" fill="#3178c6" stroke="#282a36" stroke-width="1.5"/>
  <path d="M195.75,100.94 A55.00,55.00 0 0 1 200.86,85.30 L223.20,96.53 A30.00,30.00 0 0 0 220.41,105.06 Z" fill="#ff3e00" stroke="#282a36" stroke-width="1.5"/>
  <path d="M200.86,85.30 A55.00,55.00 0 0 1 250.00,55.00 L250.00,80.00 A30.00,30.00 0 0 0 223.20,96.53 Z" fill="#bd93f9" stroke="#282a36" stroke-width="1.5"/>
</svg>