<svg xmlns="http://www.w3.org/2000/svg" width="340" height="200" viewBox="0 0 340 200" font-family="'Segoe UI', Ubuntu, Sans-Serif">
  <rect x="0.5" y="0.5" width="339" height="199" rx="6" fill="#282a36" stroke="#282a36" stroke-opacity="1.00"/>
  <text x="20" y="30" font-size="15" font-weight="600" fill="#ff79c6">Most Commit Language (all time)</text>
  <rect x="20" y="47" width="10" height="10" fill="#f1e05a" stroke="#282a36" stroke-width="1"/>
  <text x="36" y="55" font-size="11" fill="#ffb86c">JavaScript 35.88%</text>
  <rect x="20" y="67" width="10" height="10" fill="#b07219" stroke="#282a36" stroke-width="1"/>
  <text x="36" y="75" font-size="11" fill="#ffb86c">Java 14.00%</text>
  <rect x="20" y="87" width="10" height="10" fill="#e34c26" stroke="#282a36" stroke-width="1"/>
  <text x="36" y="95" font-size="11" fill="#ffb86c">HTML 13.43%</text>
  <rect x="20" y="107" width="10" height="10" fill="#00ADD8" stroke="#282a36" stroke-width="1"/>
  <text x="36" y="115" font-size="11" fill="#ffb86c">Go 10.69%</text>
  <rect x="20" y="127" width="10" height="10" fill="#3572A5" stroke="#282a36" stroke-width="1"/>
  <text x="36" y="135" font-size="11" fill="#ffb86c">Python 3.82%</text>
  <rect x="20" y="147" width="10" height="10" fill="#3178c6" stroke="#282a36" stroke-width="1"/>
  <text x="36" y="155" font-size="11" fill="#ffb86c">TypeScript 3.59%</text>
  <rect x="20" y="167" width="10" height="10" fill="#bd93f9" stroke="#282a36" stroke-width="1"/>
  <text x="36" y="175" font-size="11" fill="#ffb86c">Other 18.61%</text>
  <path d="M250.00,55.00 A55.00,55.00 0 0 1 292.65,144.73 L273.26,128.94 A30.00,30.00 0 0 0 250.00,80.00 Z" fill="#f1e05a" stroke="#282a36" stroke-width="1.5"/>
  <path d="M292.65,144.73 A55.00,55.00 0 0 1 250.44,165.00 L250.24,140.00 A30.00,30.00 0 0 0 273.26,128.94 Z" fill="#b07219" stroke="#282a36" stroke-width="1.5"/>
  <path d="M250.44,165.00 A55.00,55.00 0 0 1 209.20,146.88 L227.74,130.12 A30.00,30.00 0 0 0 250.24,140.00 Z" fill="#e34c26" stroke="#282a36" stroke-width="1.5"/>
  <path d="M209.20,146.88 A55.00,55.00 0 0 1 195.11,113.48 L220.06,111.90 A30.00,30.00 0 0 0 227.74,130.12 Z" fill="#00ADD8" stroke="#282a36" stroke-width="1.5"/>
  <path d="M195.11,113.48 A55.00,55.00 0 0 1 195.85,100.34 L220.47,104.73 A30.00,30.00 0 0 0 220.06,111.90 Z" fill="#3572A5" stroke="#282a36" stroke-width="1.5"/>
  <path d="M195.85,100.34 A55.00,55.00 0 0 1 199.38,88.49 L222.39,98.27 A30.00,30.00 0 0 0 220.47,104.73 Z" fill="#3178c6" stroke="#282a36" stroke-width="1.5"/>
  <path d="M199.38,88.49 A55.00,55.00 0 0 1 250.00,55.00 L250.00,80.00 A30.00,30.00 0 0 0 222.39,98.27 Z" fill="#bd93f9" stroke="#282a36" stroke-width="1.5"/>
</svg>