<svg xmlns="http://www.w3.org/2000/svg" width="340" height="200" viewBox="0 0 340 200" font-family="'Segoe UI', Ubuntu, Sans-Serif">
  <rect x="0.5" y="0.5" width="339" height="199" rx="6" fill="#282a36" stroke="#282a36" stroke-opacity="1.00"/>
  <text x="20" y="30" font-size="15" font-weight="600" fill="#ff79c6">Most Commit Language (last year)</text>
  <rect x="20" y="47" width="10" height="10" fill="#f1e05a" stroke="#282a36" stroke-width="1"/>
  <text x="36" y="55" font-size="11" fill="#ffb86c">JavaScript 48.00%</text>
  <rect x="20" y="67" width="10" height="10" fill="#00ADD8" stroke="#282a36" stroke-width="1"/>
  <text x="36" y="75" font-size="11" fill="#ffb86c">Go 13.38%</text>
  <rect x="20" y="87" width="10" height="10" fill="#b07219" stroke="#282a36" stroke-width="1"/>
  <text x="36" y="95" font-size="11" fill="#ffb86c">Java 8.80%</text>
  <rect x="20" y="107" width="10" height="10" fill="#e34c26" stroke="#282a36" stroke-width="1"/>
  <text x="36" y="115" font-size="11" fill="#ffb86c">HTML 6.38%</text>
  <rect x="20" y="127" width="10" height="10" fill="#ff3e00" stroke="#282a36" stroke-width="1"/>
  <text x="36" y="135" font-size="11" fill="#ffb86c">Svelte 4.83%</text>
  <rect x="20" y="147" width="10" height="10" fill="#3572A5" stroke="#282a36" stroke-width="1"/>
  <text x="36" y="155" font-size="11" fill="#ffb86c">Python 3.47%</text>
  <rect x="20" y="167" width="10" height="10" fill="#bd93f9" stroke="#282a36" stroke-width="1"/>
  <text x="36" y="175" font-size="11" fill="#ffb86c">Other 15.15%</text>
  <path d="M250.00,55.00 A55.00,55.00 0 0 1 256.90,164.57 L253.77,139.76 A30.00,30.00 0 0 0 250.00,80.00 Z" fill="#f1e05a" stroke="#282a36" stroke-width="1.5"/>
  <path d="M256.90,164.57 A55.00,55.00 0 0 1 213.96,151.55 L230.34,132.66 A30.00,30.00 0 0 0 253.77,139.76 Z" fill="#00ADD8" stroke="#282a36" stroke-width="1.5"/>
  <path d="M213.96,151.55 A55.00,55.00 0 0 1 197.51,126.43 L221.37,118.96 A30.00,30.00 0 0 0 230.34,132.66 Z" fill="#b07219" stroke="#282a36" stroke-width="1.5"/>
  <path d="M197.51,126.43 A55.00,55.00 0 0 1 195.26,104.66 L220.14,107.09 A30.00,30.00 0 0 0 221.37,118.96 Z" fill="#e34c26" stroke="#282a36" stroke-width="1.5"/>
  <path d="M195.26,104.66 A55.00,55.00 0 0 1 199.36,88.54 L222.38,98.30 A30.00,30.00 0 0 0 220.14,107.09 Z" fill="#ff3e00" stroke="#282a36" stroke-width="1.5"/>
  <path d="M199.36,88.54 A55.00,55.00 0 0 1 205.20,78.09 L225.56,92.60 A30.00,30.00 0 0 0 222.38,98.30 Z" fill="#3572A5" stroke="#282a36" stroke-width="1.5"/>
  <path d="M205.20,78.09 A55.00,55.00 0 0 1 250.00,55.00 L250.00,80.00 A30.00,30.00 0 0 0 225.56,92.60 Z" fill="#bd93f9" stroke="#282a36" stroke-width="1.5"/>
</svg>