<svg xmlns="http://www.w3.org/2000/svg" width="340" height="200" viewBox="0 0 340 200" font-family="'Segoe UI', Ubuntu, Sans-Serif">
  <rect x="0.5" y="0.5" width="339" height="199" rx="6" fill="#282a36" stroke="#282a36" stroke-opacity="1.00"/>
  <text x="20" y="30" font-size="15" font-weight="600" fill="#ff79c6">Most Commit Language (all time)</text>
  <rect x="20" y="47" width="10" height="10" fill="#f1e05a" stroke="#282a36" stroke-width="1"/>
  <text x="36" y="55" font-size="11" fill="#ffb86c">JavaScript 36.05%</text>
  <rect x="20" y="67" width="10" height="10" fill="#b07219" stroke="#282a36" stroke-width="1"/>
  <text x="36" y="75" font-size="11" fill="#ffb86c">Java 14.70%</text>
  <rect x="20" y="87" width="10" height="10" fill="#e34c26" stroke="#282a36" stroke-width="1"/>
  <text x="36" y="95" font-size="11" fill="#ffb86c">HTML 14.11%</text>
  <rect x="20" y="107" width="10" height="10" fill="#00ADD8" stroke="#282a36" stroke-width="1"/>
  <text x="36" y="115" font-size="11" fill="#ffb86c">Go 10.54%</text>
  <rect x="20" y="127" width="10" height="10" fill="#3572A5" stroke="#282a36" stroke-width="1"/>
  <text x="36" y="135" font-size="11" fill="#ffb86c">Python 3.97%</text>
  <rect x="20" y="147" width="10" height="10" fill="#f34b7d" stroke="#282a36" stroke-width="1"/>
  <text x="36" y="155" font-size="11" fill="#ffb86c">C++ 3.69%</text>
  <rect x="20" y="167" width="10" height="10" fill="#bd93f9" stroke="#282a36" stroke-width="1"/>
  <text x="36" y="175" font-size="11" fill="#ffb86c">Other 16.95%</text>
  <path d="M250.00,55.00 A55.00,55.00 0 0 1 292.28,145.18 L273.06,129.19 A30.00,30.00 0 0 0 250.00,80.00 Z" fill="#f1e05a" stroke="#282a36" stroke-width="1.5"/>
  <path d="M292.28,145.18 A55.00,55.00 0 0 1 247.41,164.94 L248.59,139.97 A30.00,30.00 0 0 0 273.06,129.19 Z" fill="#b07219" stroke="#282a36" stroke-width="1.5"/>
  <path d="M247.41,164.94 A55.00,55.00 0 0 1 205.80,142.73 L225.89,127.85 A30.00,30.00 0 0 0 248.59,139.97 Z" fill="#e34c26" stroke="#282a36" stroke-width="1.5"/>
  <path d="M205.80,142.73 A55.00,55.00 0 0 1 195.02,108.64 L220.01,109.26 A30.00,30.00 0 0 0 225.89,127.85 Z" fill="#00ADD8" stroke="#282a36" stroke-width="1.5"/>
  <path d="M195.02,108.64 A55.00,55.00 0 0 1 197.05,95.11 L221.12,101.88 A30.00,30.00 0 0 0 220.01,109.26 Z" fill="#3572A5" stroke="#282a36" stroke-width="1.5"/>
  <path d="M197.05,95.11 A55.00,55.00 0 0 1 201.89,83.35 L223.76,95.47 A30.00,30.00 0 0 0 221.12,101.88 Z" fill="#f34b7d" stroke="#282a36" stroke-width="1.5"/>
  <path d="M201.89,83.35 A55.00,55.00 0 0 1 250.00,55.00 L250.00,80.00 A30.00,30.00 0 0 0 223.76,95.47 Z" fill="#bd93f9" stroke="#282a36" stroke-width="1.5"/>
</svg>