<svg xmlns="http://www.w3.org/2000/svg" width="340" height="200" viewBox="0 0 340 200" font-family="'Segoe UI', Ubuntu, Sans-Serif">
  <rect x="0.5" y="0.5" width="339" height="199" rx="6" fill="#282a36" stroke="#282a36" stroke-opacity="1.00"/>
  <text x="20" y="30" font-size="15" font-weight="600" fill="#ff79c6">Most Commit Language (all time)</text>
  <rect x="20" y="47" width="10" height="10" fill="#f1e05a" stroke="#282a36" stroke-width="1"/>
  <text x="36" y="55" font-size="11" fill="#ffb86c">JavaScript 34.79%</text>
  <rect x="20" y="67" width="10" height="10" fill="#00ADD8" stroke="#282a36" stroke-width="1"/>
  <text x="36" y="75" font-size="11" fill="#ffb86c">Go 14.26%</text>
  <rect x="20" y="87" width="10" height="10" fill="#b07219" stroke="#282a36" stroke-width="1"/>
  <text x="36" y="95" font-size="11" fill="#ffb86c">Java 12.43%</text>
  <rect x="20" y="107" width="10" height="10" fill="#e34c26" stroke="#282a36" stroke-width="1"/>
  <text x="36" y="115" font-size="11" fill="#ffb86c">HTML 11.20%</text>
  <rect x="20" y="127" width="10" height="10" fill="#3572A5" stroke="#282a36" stroke-width="1"/>
  <text x="36" y="135" font-size="11" fill="#ffb86c">Python 3.92%</text>
  <rect x="20" y="147" width="10" height="10" fill="#3178c6" stroke="#282a36" stroke-width="1"/>
  <text x="36" y="155" font-size="11" fill="#ffb86c">TypeScript 3.82%</text>
  <rect x="20" y="167" width="10" height="10" fill="#bd93f9" stroke="#282a36" stroke-width="1"/>
  <text x="36" y="175" font-size="11" fill="#ffb86c">Other 19.57%</text>
  <path d="M250.00,55.00 A55.00,55.00 0 0 1 294.91,141.75 L274.50,127.32 A30.00,30.00 0 0 0 250.00,80.00 Z" fill="#f1e05a" stroke="#282a36" stroke-width="1.5"/>
  <path d="M294.91,141.75 A55.00,55.00 0 0 1 253.26,164.90 L251.78,139.95 A30.00,30.00 0 0 0 274.50,127.32 Z" fill="#00ADD8" stroke="#282a36" stroke-width="1.5"/>
  <path d="M253.26,164.90 A55.00,55.00 0 0 1 213.65,151.28 L230.17,132.51 A30.00,30.00 0 0 0 251.78,139.95 Z" fill="#b07219" stroke="#282a36" stroke-width="1.5"/>
  <path d="M213.65,151.28 A55.00,55.00 0 0 1 195.58,117.95 L220.31,114.33 A30.00,30.00 0 0 0 230.17,132.51 Z" fill="#e34c26" stroke="#282a36" stroke-width="1.5"/>
  <path d="M195.58,117.95 A55.00,55.00 0 0 1 195.28,104.44 L220.15,106.97 A30.00,30.00 0 0 0 220.31,114.33 Z" fill="#3572A5" stroke="#282a36" stroke-width="1.5"/>
  <path d="M195.28,104.44 A55.00,55.00 0 0 1 198.17,91.59 L221.73,99.96 A30.00,30.00 0 0 0 220.15,106.97 Z" fill="#3178c6" stroke="#282a36" stroke-width="1.5"/>
  <path d="M198.17,91.59 A55.00,55.00 0 0 1 250.00,55.00 L250.00,80.00 A30.00,30.00 0 0 0 221.73,99.96 Z" fill="#bd93f9" stroke="#282a36" stroke-width="1.5"/>
</svg>