<svg xmlns="http://www.w3.org/2000/svg" width="340" height="200" viewBox="0 0 340 200" font-family="'Segoe UI', Ubuntu, Sans-Serif">
  <rect x="0.5" y="0.5" width="339" height="199" rx="6" fill="#282a36" stroke="#282a36" stroke-opacity="1.00"/>
  <text x="20" y="30" font-size="15" font-weight="600" fill="#ff79c6">Most Commit Language (last year)</text>
  <rect x="20" y="47" width="10" height="10" fill="#f1e05a" stroke="#282a36" stroke-width="1"/>
  <text x="36" y="55" font-size="11" fill="#ffb86c">JavaScript 44.52%</text>
  <rect x="20" y="67" width="10" height="10" fill="#00ADD8" stroke="#282a36" stroke-width="1"/>
  <text x="36" y="75" font-size="11" fill="#ffb86c">Go 15.65%</text>
  <rect x="20" y="87" width="10" height="10" fill="#b07219" stroke="#282a36" stroke-width="1"/>
  <text x="36" y="95" font-size="11" fill="#ffb86c">Java 8.60%</text>
  <rect x="20" y="107" width="10" height="10" fill="#e34c26" stroke="#282a36" stroke-width="1"/>
  <text x="36" y="115" font-size="11" fill="#ffb86c">HTML 6.36%</text>
  <rect x="20" y="127" width="10" height="10" fill="#ff3e00" stroke="#282a36" stroke-width="1"/>
  <text x="36" y="135" font-size="11" fill="#ffb86c">Svelte 4.65%</text>
  <rect x="20" y="147" width="10" height="10" fill="#3178c6" stroke="#282a36" stroke-width="1"/>
  <text x="36" y="155" font-size="11" fill="#ffb86c">TypeScript 4.26%</text>
  <rect x="20" y="167" width="10" height="10" fill="#bd93f9" stroke="#282a36" stroke-width="1"/>
  <text x="36" y="175" font-size="11" fill="#ffb86c">Other 15.95%</text>
  <path d="M250.00,55.00 A55.00,55.00 0 0 1 268.57,161.77 L260.13,138.24 A30.00,30.00 0 0 0 250.00,80.00 Z" fill="#f1e05a" stroke="#282a36" stroke-width="1.5"/>
  <path d="M268.57,161.77 A55.00,55.00 0 0 1 217.19,154.14 L232.10,134.08 A30.00,30.00 0 0 0 260.13,138.24 Z" fill="#00ADD8" stroke="#282a36" stroke-width="1.5"/>
  <path d="M217.19,154.14 A55.00,55.00 0 0 1 199.16,130.98 L222.27,121.44 A30.00,30.00 0 0 0 232.10,134.08 Z" fill="#b07219" stroke="#282a36" stroke-width="1.5"/>
  <path d="M199.16,130.98 A55.00,55.00 0 0 1 195.00,109.54 L220.00,109.75 A30.00,30.00 0 0 0 222.27,121.44 Z" fill="#e34c26" stroke="#282a36" stroke-width="1.5"/>
  <path d="M195.00,109.54 A55.00,55.00 0 0 1 197.47,93.70 L221.35,101.11 A30.00,30.00 0 0 0 220.00,109.75 Z" fill="#ff3e00" stroke="#282a36" stroke-width="1.5"/>
  <path d="M197.47,93.70 A55.00,55.00 0 0 1 203.66,80.38 L224.72,93.84 A30.00,30.00 0 0 0 221.35,101.11 Z" fill="#3178c6" stroke="#282a36" stroke-width="1.5"/>
  <path d="M203.66,80.38 A55.00,55.00 0 0 1 250.00,55.00 L250.00,80.00 A30.00,30.00 0 0 0 224.72,93.84 Z" fill="#bd93f9" stroke="#282a36" stroke-width="1.5"/>
</svg>