<svg xmlns="http://www.w3.org/2000/svg" width="340" height="200" viewBox="0 0 340 200" font-family="'Segoe UI', Ubuntu, Sans-Serif">
  <rect x="0.5" y="0.5" width="339" height="199" rx="6" fill="#282a36" stroke="#282a36" stroke-opacity="1.00"/>
  <text x="20" y="30" font-size="15" font-weight="600" fill="#ff79c6">Most Commit Language (all time)</text>
  <rect x="20" y="47" width="10" height="10" fill="#f1e05a" stroke="#282a36" stroke-width="1"/>
  <text x="36" y="55" font-size="11" fill="#ffb86c">JavaScript 36.33%</text>
  <rect x="20" y="67" width="10" height="10" fill="#b07219" stroke="#282a36" stroke-width="1"/>
  <text x="36" y="75" font-size="11" fill="#ffb86c">Java 13.80%</text>
  <rect x="20" y="87" width="10" height="10" fill="#e34c26" stroke="#282a36" stroke-width="1"/>
  <text x="36" y="95" font-size="11" fill="#ffb86c">HTML 12.72%</text>
  <rect x="20" y="107" width="10" height="10" fill="#00ADD8" stroke="#282a36" stroke-width="1"/>
  <text x="36" y="115" font-size="11" fill="#ffb86c">Go 11.20%</text>
  <rect x="20" y="127" width="10" height="10" fill="#3178c6" stroke="#282a36" stroke-width="1"/>
  <text x="36" y="135" font-size="11" fill="#ffb86c">TypeScript 3.92%</text>
  <rect x="20" y="147" width="10" height="10" fill="#3572A5" stroke="#282a36" stroke-width="1"/>
  <text x="36" y="155" font-size="11" fill="#ffb86c">Python 3.76%</text>
  <rect x="20" y="167" width="10" height="10" fill="#bd93f9" stroke="#282a36" stroke-width="1"/>
  <text x="36" y="175" font-size="11" fill="#ffb86c">Other 18.26%</text>
  <path d="M250.00,55.00 A55.00,55.00 0 0 1 291.64,145.94 L272.71,129.60 A30.00,30.00 0 0 0 250.00,80.00 Z" fill="#f1e05a" stroke="#282a36" stroke-width="1.5"/>
  <path d="M291.64,145.94 A55.00,55.00 0 0 1 249.55,165.00 L249.76,140.00 A30.00,30.00 0 0 0 272.71,129.60 Z" fill="#b07219" stroke="#282a36" stroke-width="1.5"/>
  <path d="M249.55,165.00 A55.00,55.00 0 0 1 210.25,148.02 L228.32,130.74 A30.00,30.00 0 0 0 249.76,140.00 Z" fill="#e34c26" stroke="#282a36" stroke-width="1.5"/>
  <path d="M210.25,148.02 A55.00,55.00 0 0 1 195.10,113.25 L220.05,111.77 A30.00,30.00 0 0 0 228.32,130.74 Z" fill="#00ADD8" stroke="#282a36" stroke-width="1.5"/>
  <path d="M195.10,113.25 A55.00,55.00 0 0 1 195.96,99.78 L220.52,104.42 A30.00,30.00 0 0 0 220.05,111.77 Z" fill="#3178c6" stroke="#282a36" stroke-width="1.5"/>
  <path d="M195.96,99.78 A55.00,55.00 0 0 1 199.86,87.41 L222.65,97.68 A30.00,30.00 0 0 0 220.52,104.42 Z" fill="#3572A5" stroke="#282a36" stroke-width="1.5"/>
  <path d="M199.86,87.41 A55.00,55.00 0 0 1 250.00,55.00 L250.00,80.00 A30.00,30.00 0 0 0 222.65,97.68 Z" fill="#bd93f9" stroke="#282a36" stroke-width="1.5"/>
</svg>