<svg xmlns="http://www.w3.org/2000/svg" width="340" height="200" viewBox="0 0 340 200" font-family="'Segoe UI', Ubuntu, Sans-Serif">
  <rect x="0.5" y="0.5" width="339" height="199" rx="6" fill="#282a36" stroke="#282a36" stroke-opacity="1.00"/>
  <text x="20" y="30" font-size="15" font-weight="600" fill="#ff79c6">Most Commit Language (all time)</text>
  <rect x="20" y="47" width="10" height="10" fill="#f1e05a" stroke="#282a36" stroke-width="1"/>
  <text x="36" y="55" font-size="11" fill="#ffb86c">JavaScript 35.63%</text>
  <rect x="20" y="67" width="10" height="10" fill="#b07219" stroke="#282a36" stroke-width="1"/>
  <text x="36" y="75" font-size="11" fill="#ffb86c">Java 13.30%</text>
  <rect x="20" y="87" width="10" height="10" fill="#e34c26" stroke="#282a36" stroke-width="1"/>
  <text x="36" y="95" font-size="11" fill="#ffb86c">HTML 11.64%</text>
  <rect x="20" y="107" width="10" height="10" fill="#00ADD8" stroke="#282a36" stroke-width="1"/>
  <text x="36" y="115" font-size="11" fill="#ffb86c">Go 11.33%</text>
  <rect x="20" y="127" width="10" height="10" fill="#3572A5" stroke="#282a36" stroke-width="1"/>
  <text x="36" y="135" font-size="11" fill="#ffb86c">Python 4.05%</text>
  <rect x="20" y="147" width="10" height="10" fill="#3178c6" stroke="#282a36" stroke-width="1"/>
  <text x="36" y="155" font-size="11" fill="#ffb86c">TypeScript 3.86%</text>
  <rect x="20" y="167" width="10" height="10" fill="#bd93f9" stroke="#282a36" stroke-width="1"/>
  <text x="36" y="175" font-size="11" fill="#ffb86c">Other 20.19%</text>
  <path d="M250.00,55.00 A55.00,55.00 0 0 1 293.18,144.07 L273.55,128.58 A30.00,30.00 0 0 0 250.00,80.00 Z" fill="#f1e05a" stroke="#282a36" stroke-width="1.5"/>
  <path d="M293.18,144.07 A55.00,55.00 0 0 1 253.69,164.88 L252.01,139.93 A30.00,30.00 0 0 0 273.55,128.58 Z" fill="#b07219" stroke="#282a36" stroke-width="1.5"/>
  <path d="M253.69,164.88 A55.00,55.00 0 0 1 216.09,153.30 L231.50,133.62 A30.00,30.00 0 0 0 252.01,139.93 Z" fill="#e34c26" stroke="#282a36" stroke-width="1.5"/>
  <path d="M216.09,153.30 A55.00,55.00 0 0 1 196.04,120.63 L220.57,115.80 A30.00,30.00 0 0 0 231.50,133.62 Z" fill="#00ADD8" stroke="#282a36" stroke-width="1.5"/>
  <path d="M196.04,120.63 A55.00,55.00 0 0 1 195.10,106.71 L220.05,108.20 A30.00,30.00 0 0 0 220.57,115.80 Z" fill="#3572A5" stroke="#282a36" stroke-width="1.5"/>
  <path d="M195.10,106.71 A55.00,55.00 0 0 1 197.50,93.61 L221.36,101.06 A30.00,30.00 0 0 0 220.05,108.20 Z" fill="#3178c6" stroke="#282a36" stroke-width="1.5"/>
  <path d="M197.50,93.61 A55.00,55.00 0 0 1 250.00,55.00 L250.00,80.00 A30.00,30.00 0 0 0 221.36,101.06 Z" fill="#bd93f9" stroke="#282a36" stroke-width="1.5"/>
</svg>