<svg xmlns="http://www.w3.org/2000/svg" width="340" height="200" viewBox="0 0 340 200" font-family="'Segoe UI', Ubuntu, Sans-Serif">
  <rect x="0.5" y="0.5" width="339" height="199" rx="6" fill="#282a36" stroke="#282a36" stroke-opacity="1.00"/>
  <text x="20" y="30" font-size="15" font-weight="600" fill="#ff79c6">Most Commit Language (last year)</text>
  <rect x="20" y="47" width="10" height="10" fill="#f1e05a" stroke="#282a36" stroke-width="1"/>
  <text x="36" y="55" font-size="11" fill="#ffb86c">JavaScript 46.01%</text>
  <rect x="20" y="67" width="10" height="10" fill="#00ADD8" stroke="#282a36" stroke-width="1"/>
  <text x="36" y="75" font-size="11" fill="#ffb86c">Go 14.34%</text>
  <rect x="20" y="87" width="10" height="10" fill="#b07219" stroke="#282a36" stroke-width="1"/>
  <text x="36" y="95" font-size="11" fill="#ffb86c">Java 10.16%</text>
  <rect x="20" y="107" width="10" height="10" fill="#e34c26" stroke="#282a36" stroke-width="1"/>
  <text x="36" y="115" font-size="11" fill="#ffb86c">HTML 9.20%</text>
  <rect x="20" y="127" width="10" height="10" fill="#3178c6" stroke="#282a36" stroke-width="1"/>
  <text x="36" y="135" font-size="11" fill="#ffb86c">TypeScript 3.66%</text>
  <rect x="20" y="147" width="10" height="10" fill="#384d54" stroke="#282a36" stroke-width="1"/>
  <text x="36" y="155" font-size="11" fill="#ffb86c">Dockerfile 3.39%</text>
  <rect x="20" y="167" width="10" height="10" fill="#bd93f9" stroke="#282a36" stroke-width="1"/>
  <text x="36" y="175" font-size="11" fill="#ffb86c">Other 13.24%</text>
  <path d="M250.00,55.00 A55.00,55.00 0 0 1 263.64,163.28 L257.44,139.06 A30.00,30.00 0 0 0 250.00,80.00 Z" fill="#f1e05a" stroke="#282a36" stroke-width="1.5"/>
  <path d="M263.64,163.28 A55.00,55.00 0 0 1 216.69,153.76 L231.83,133.87 A30.00,30.00 0 0 0 257.44,139.06 Z" fill="#00ADD8" stroke="#282a36" stroke-width="1.5"/>
  <path d="M216.69,153.76 A55.00,55.00 0 0 1 197.17,125.30 L221.18,118.35 A30.00,30.00 0 0 0 231.83,133.87 Z" fill="#b07219" stroke="#282a36" stroke-width="1.5"/>
  <path d="M197.17,125.30 A55.00,55.00 0 0 1 197.40,93.94 L221.31,101.24 A30.00,30.00 0 0 0 221.18,118.35 Z" fill="#e34c26" stroke="#282a36" stroke-width="1.5"/>
  <path d="M197.40,93.94 A55.00,55.00 0 0 1 202.44,82.38 L224.06,94.93 A30.00,30.00 0 0 0 221.31,101.24 Z" fill="#3178c6" stroke="#282a36" stroke-width="1.5"/>
  <path d="M202.44,82.38 A55.00,55.00 0 0 1 209.35,72.95 L227.83,89.79 A30.00,30.00 0 0 0 224.06,94.93 Z" fill="#384d54" stroke="#282a36" stroke-width="1.5"/>
  <path d="M209.35,72.95 A55.00,55.00 0 0 1 250.00,55.00 L250.00,80.00 A30.00,30.00 0 0 0 227.83,89.79 Z" fill="#bd93f9" stroke="#282a36" stroke-width="1.5"/>
</svg>