<svg xmlns="http://www.w3.org/2000/svg" width="340" height="200" viewBox="0 0 340 200" font-family="'Segoe UI', Ubuntu, Sans-Serif">
  <rect x="0.5" y="0.5" width="339" height="199" rx="6" fill="#282a36" stroke="#282a36" stroke-opacity="1.00"/>
  <text x="20" y="30" font-size="15" font-weight="600" fill="#ff79c6">Most Commit Language (all time)</text>
  <rect x="20" y="47" width="10" height="10" fill="#f1e05a" stroke="#282a36" stroke-width="1"/>
  <text x="36" y="55" font-size="11" fill="#ffb86c">JavaScript 35.68%</text>
  <rect x="20" y="67" width="10" height="10" fill="#b07219" stroke="#282a36" stroke-width="1"/>
  <text x="36" y="75" font-size="11" fill="#ffb86c">Java 13.88%</text>
  <rect x="20" y="87" width="10" height="10" fill="#e34c26" stroke="#282a36" stroke-width="1"/>
  <text x="36" y="95" font-size="11" fill="#ffb86c">HTML 13.32%</text>
  <rect x="20" y="107" width="10" height="10" fill="#00ADD8" stroke="#282a36" stroke-width="1"/>
  <text x="36" y="115" font-size="11" fill="#ffb86c">Go 11.18%</text>
  <rect x="20" y="127" width="10" height="10" fill="#3178c6" stroke="#282a36" stroke-width="1"/>
  <text x="36" y="135" font-size="11" fill="#ffb86c">TypeScript 3.94%</text>
  <rect x="20" y="147" width="10" height="10" fill="#3572A5" stroke="#282a36" stroke-width="1"/>
  <text x="36" y="155" font-size="11" fill="#ffb86c">Python 3.78%</text>
  <rect x="20" y="167" width="10" height="10" fill="#bd93f9" stroke="#282a36" stroke-width="1"/>
  <text x="36" y="175" font-size="11" fill="#ffb86c">Other 18.22%</text>
  <path d="M250.00,55.00 A55.00,55.00 0 0 1 293.08,144.19 L273.50,128.65 A30.00,30.00 0 0 0 250.00,80.00 Z" fill="#f1e05a" stroke="#282a36" stroke-width="1.5"/>
  <path d="M293.08,144.19 A55.00,55.00 0 0 1 251.53,164.98 L250.84,139.99 A30.00,30.00 0 0 0 273.50,128.65 Z" fill="#b07219" stroke="#282a36" stroke-width="1.5"/>
  <path d="M251.53,164.98 A55.00,55.00 0 0 1 210.20,147.95 L228.29,130.70 A30.00,30.00 0 0 0 250.84,139.99 Z" fill="#e34c26" stroke="#282a36" stroke-width="1.5"/>
  <path d="M210.20,147.95 A55.00,55.00 0 0 1 195.10,113.25 L220.05,111.77 A30.00,30.00 0 0 0 228.29,130.70 Z" fill="#00ADD8" stroke="#282a36" stroke-width="1.5"/>
  <path d="M195.10,113.25 A55.00,55.00 0 0 1 195.97,99.69 L220.53,104.38 A30.00,30.00 0 0 0 220.05,111.77 Z" fill="#3178c6" stroke="#282a36" stroke-width="1.5"/>
  <path d="M195.97,99.69 A55.00,55.00 0 0 1 199.92,87.26 L222.68,97.60 A30.00,30.00 0 0 0 220.53,104.38 Z" fill="#3572A5" stroke="#282a36" stroke-width="1.5"/>
  <path d="M199.92,87.26 A55.00,55.00 0 0 1 250.00,55.00 L250.00,80.00 A30.00,30.00 0 0 0 222.68,97.60 Z" fill="#bd93f9" stroke="#282a36" stroke-width="1.5"/>
</svg>