<svg xmlns="http://www.w3.org/2000/svg" width="340" height="200" viewBox="0 0 340 200" font-family="'Segoe UI', Ubuntu, Sans-Serif">
  <rect x="0.5" y="0.5" width="339" height="199" rx="6" fill="#282a36" stroke="#282a36" stroke-opacity="1.00"/>
  <text x="20" y="30" font-size="15" font-weight="600" fill="#ff79c6">Most Commit Language (last year)</text>
  <rect x="20" y="47" width="10" height="10" fill="#f1e05a" stroke="#282a36" stroke-width="1"/>
  <text x="36" y="55" font-size="11" fill="#ffb86c">JavaScript 43.24%</text>
  <rect x="20" y="67" width="10" height="10" fill="#00ADD8" stroke="#282a36" stroke-width="1"/>
  <text x="36" y="75" font-size="11" fill="#ffb86c">Go 16.29%</text>
  <rect x="20" y="87" width="10" height="10" fill="#b07219" stroke="#282a36" stroke-width="1"/>
  <text x="36" y="95" font-size="11" fill="#ffb86c">Java 7.25%</text>
  <rect x="20" y="107" width="10" height="10" fill="#e34c26" stroke="#282a36" stroke-width="1"/>
  <text x="36" y="115" font-size="11" fill="#ffb86c">HTML 6.24%</text>
  <rect x="20" y="127" width="10" height="10" fill="#3178c6" stroke="#282a36" stroke-width="1"/>
  <text x="36" y="135" font-size="11" fill="#ffb86c">TypeScript 4.88%</text>
  <rect x="20" y="147" width="10" height="10" fill="#ff3e00" stroke="#282a36" stroke-width="1"/>
  <text x="36" y="155" font-size="11" fill="#ffb86c">Svelte 4.49%</text>
  <rect x="20" y="167" width="10" height="10" fill="#bd93f9" stroke="#282a36" stroke-width="1"/>
  <text x="36" y="175" font-size="11" fill="#ffb86c">Other 17.61%</text>
  <path d="M250.00,55.00 A55.00,55.00 0 0 1 272.67,160.11 L262.36,137.33 A30.00,30.00 0 0 0 250.00,80.00 Z" fill="#f1e05a" stroke="#282a36" stroke-width="1.5"/>
  <path d="M272.67,160.11 A55.00,55.00 0 0 1 219.01,155.44 L233.10,134.78 A30.00,30.00 0 0 0 262.36,137.33 Z" fill="#00ADD8" stroke="#282a36" stroke-width="1.5"/>
  <path d="M219.01,155.44 A55.00,55.00 0 0 1 202.19,137.18 L223.92,124.83 A30.00,30.00 0 0 0 233.10,134.78 Z" fill="#b07219" stroke="#282a36" stroke-width="1.5"/>
  <path d="M202.19,137.18 A55.00,55.00 0 0 1 195.43,116.84 L220.23,113.73 A30.00,30.00 0 0 0 223.92,124.83 Z" fill="#e34c26" stroke="#282a36" stroke-width="1.5"/>
  <path d="M195.43,116.84 A55.00,55.00 0 0 1 195.91,100.05 L220.50,104.57 A30.00,30.00 0 0 0 220.23,113.73 Z" fill="#3178c6" stroke="#282a36" stroke-width="1.5"/>
  <path d="M195.91,100.05 A55.00,55.00 0 0 1 200.82,85.37 L223.18,96.57 A30.00,30.00 0 0 0 220.50,104.57 Z" fill="#ff3e00" stroke="#282a36" stroke-width="1.5"/>
  <path d="M200.82,85.37 A55.00,55.00 0 0 1 250.00,55.00 L250.00,80.00 A30.00,30.00 0 0 0 223.18,96.57 Z" fill="#bd93f9" stroke="#282a36" stroke-width="1.5"/>
</svg>