<svg xmlns="http://www.w3.org/2000/svg" width="340" height="200" viewBox="0 0 340 200" font-family="'Segoe UI', Ubuntu, Sans-Serif">
  <rect x="0.5" y="0.5" width="339" height="199" rx="6" fill="#282a36" stroke="#282a36" stroke-opacity="1.00"/>
  <text x="20" y="30" font-size="15" font-weight="600" fill="#ff79c6">Most Commit Language (all time)</text>
  <rect x="20" y="47" width="10" height="10" fill="#f1e05a" stroke="#282a36" stroke-width="1"/>
  <text x="36" y="55" font-size="11" fill="#ffb86c">JavaScript 35.49%</text>
  <rect x="20" y="67" width="10" height="10" fill="#b07219" stroke="#282a36" stroke-width="1"/>
  <text x="36" y="75" font-size="11" fill="#ffb86c">Java 12.70%</text>
  <rect x="20" y="87" width="10" height="10" fill="#00ADD8" stroke="#282a36" stroke-width="1"/>
  <text x="36" y="95" font-size="11" fill="#ffb86c">Go 12.49%</text>
  <rect x="20" y="107" width="10" height="10" fill="#e34c26" stroke="#282a36" stroke-width="1"/>
  <text x="36" y="115" font-size="11" fill="#ffb86c">HTML 11.44%</text>
  <rect x="20" y="127" width="10" height="10" fill="#3572A5" stroke="#282a36" stroke-width="1"/>
  <text x="36" y="135" font-size="11" fill="#ffb86c">Python 4.00%</text>
  <rect x="20" y="147" width="10" height="10" fill="#3178c6" stroke="#282a36" stroke-width="1"/>
  <text x="36" y="155" font-size="11" fill="#ffb86c">TypeScript 3.90%</text>
  <rect x="20" y="167" width="10" height="10" fill="#bd93f9" stroke="#282a36" stroke-width="1"/>
  <text x="36" y="175" font-size="11" fill="#ffb86c">Other 19.99%</text>
  <path d="M250.00,55.00 A55.00,55.00 0 0 1 293.48,143.68 L273.72,128.37 A30.00,30.00 0 0 0 250.00,80.00 Z" fill="#f1e05a" stroke="#282a36" stroke-width="1.5"/>
  <path d="M293.48,143.68 A55.00,55.00 0 0 1 256.26,164.64 L253.41,139.81 A30.00,30.00 0 0 0 273.72,128.37 Z" fill="#b07219" stroke="#282a36" stroke-width="1.5"/>
  <path d="M256.26,164.64 A55.00,55.00 0 0 1 215.83,153.09 L231.36,133.51 A30.00,30.00 0 0 0 253.41,139.81 Z" fill="#00ADD8" stroke="#282a36" stroke-width="1.5"/>
  <path d="M215.83,153.09 A55.00,55.00 0 0 1 195.91,119.94 L220.49,115.42 A30.00,30.00 0 0 0 231.36,133.51 Z" fill="#e34c26" stroke="#282a36" stroke-width="1.5"/>
  <path d="M195.91,119.94 A55.00,55.00 0 0 1 195.13,106.17 L220.07,107.91 A30.00,30.00 0 0 0 220.49,115.42 Z" fill="#3572A5" stroke="#282a36" stroke-width="1.5"/>
  <path d="M195.13,106.17 A55.00,55.00 0 0 1 197.70,92.97 L221.47,100.71 A30.00,30.00 0 0 0 220.07,107.91 Z" fill="#3178c6" stroke="#282a36" stroke-width="1.5"/>
  <path d="M197.70,92.97 A55.00,55.00 0 0 1 250.00,55.00 L250.00,80.00 A30.00,30.00 0 0 0 221.47,100.71 Z" fill="#bd93f9" stroke="#282a36" stroke-width="1.5"/>
</svg>