<svg xmlns="http://www.w3.org/2000/svg" width="340" height="200" viewBox="0 0 340 200" font-family="'Segoe UI', Ubuntu, Sans-Serif">
  <rect x="0.5" y="0.5" width="339" height="199" rx="6" fill="#282a36" stroke="#282a36" stroke-opacity="1.00"/>
  <text x="20" y="30" font-size="15" font-weight="600" fill="#ff79c6">Most Commit Language (all time)</text>
  <rect x="20" y="47" width="10" height="10" fill="#f1e05a" stroke="#282a36" stroke-width="1"/>
  <text x="36" y="55" font-size="11" fill="#ffb86c">JavaScript 36.50%</text>
  <rect x="20" y="67" width="10" height="10" fill="#b07219" stroke="#282a36" stroke-width="1"/>
  <text x="36" y="75" font-size="11" fill="#ffb86c">Java 14.93%</text>
  <rect x="20" y="87" width="10" height="10" fill="#e34c26" stroke="#282a36" stroke-width="1"/>
  <text x="36" y="95" font-size="11" fill="#ffb86c">HTML 14.14%</text>
  <rect x="20" y="107" width="10" height="10" fill="#00ADD8" stroke="#282a36" stroke-width="1"/>
  <text x="36" y="115" font-size="11" fill="#ffb86c">Go 9.78%</text>
  <rect x="20" y="127" width="10" height="10" fill="#3572A5" stroke="#282a36" stroke-width="1"/>
  <text x="36" y="135" font-size="11" fill="#ffb86c">Python 4.03%</text>
  <rect x="20" y="147" width="10" height="10" fill="#f34b7d" stroke="#282a36" stroke-width="1"/>
  <text x="36" y="155" font-size="11" fill="#ffb86c">C++ 3.75%</text>
  <rect x="20" y="167" width="10" height="10" fill="#bd93f9" stroke="#282a36" stroke-width="1"/>
  <text x="36" y="175" font-size="11" fill="#ffb86c">Other 16.85%</text>
  <path d="M250.00,55.00 A55.00,55.00 0 0 1 291.25,146.38 L272.50,129.85 A30.00,30.00 0 0 0 250.00,80.00 Z" fill="#f1e05a" stroke="#282a36" stroke-width="1.5"/>
  <path d="M291.25,146.38 A55.00,55.00 0 0 1 245.05,164.78 L247.30,139.88 A30.00,30.00 0 0 0 272.50,129.85 Z" fill="#b07219" stroke="#282a36" stroke-width="1.5"/>
  <path d="M245.05,164.78 A55.00,55.00 0 0 1 204.36,140.69 L225.10,126.74 A30.00,30.00 0 0 0 247.30,139.88 Z" fill="#e34c26" stroke="#282a36" stroke-width="1.5"/>
  <path d="M204.36,140.69 A55.00,55.00 0 0 1 195.01,108.74 L220.01,109.31 A30.00,30.00 0 0 0 225.10,126.74 Z" fill="#00ADD8" stroke="#282a36" stroke-width="1.5"/>
  <path d="M195.01,108.74 A55.00,55.00 0 0 1 197.08,95.00 L221.14,101.82 A30.00,30.00 0 0 0 220.01,109.31 Z" fill="#3572A5" stroke="#282a36" stroke-width="1.5"/>
  <path d="M197.08,95.00 A55.00,55.00 0 0 1 202.05,83.05 L223.85,95.30 A30.00,30.00 0 0 0 221.14,101.82 Z" fill="#f34b7d" stroke="#282a36" stroke-width="1.5"/>
  <path d="M202.05,83.05 A55.00,55.00 0 0 1 250.00,55.00 L250.00,80.00 A30.00,30.00 0 0 0 223.85,95.30 Z" fill="#bd93f9" stroke="#282a36" stroke-width="1.5"/>
</svg>