<svg xmlns="http://www.w3.org/2000/svg" width="340" height="200" viewBox="0 0 340 200" font-family="'Segoe UI', Ubuntu, Sans-Serif">
  <rect x="0.5" y="0.5" width="339" height="199" rx="6" fill="#282a36" stroke="#282a36" stroke-opacity="1.00"/>
  <text x="20" y="30" font-size="15" font-weight="600" fill="#ff79c6">Most Commit Language (all time)</text>
  <rect x="20" y="47" width="10" height="10" fill="#f1e05a" stroke="#282a36" stroke-width="1"/>
  <text x="36" y="55" font-size="11" fill="#ffb86c">JavaScript 35.61%</text>
  <rect x="20" y="67" width="10" height="10" fill="#b07219" stroke="#282a36" stroke-width="1"/>
  <text x="36" y="75" font-size="11" fill="#ffb86c">Java 13.82%</text>
  <rect x="20" y="87" width="10" height="10" fill="#e34c26" stroke="#282a36" stroke-width="1"/>
  <text x="36" y="95" font-size="11" fill="#ffb86c">HTML 13.27%</text>
  <rect x="20" y="107" width="10" height="10" fill="#00ADD8" stroke="#282a36" stroke-width="1"/>
  <text x="36" y="115" font-size="11" fill="#ffb86c">Go 11.30%</text>
  <rect x="20" y="127" width="10" height="10" fill="#3178c6" stroke="#282a36" stroke-width="1"/>
  <text x="36" y="135" font-size="11" fill="#ffb86c">TypeScript 3.93%</text>
  <rect x="20" y="147" width="10" height="10" fill="#3572A5" stroke="#282a36" stroke-width="1"/>
  <text x="36" y="155" font-size="11" fill="#ffb86c">Python 3.77%</text>
  <rect x="20" y="167" width="10" height="10" fill="#bd93f9" stroke="#282a36" stroke-width="1"/>
  <text x="36" y="175" font-size="11" fill="#ffb86c">Other 18.30%</text>
  <path d="M250.00,55.00 A55.00,55.00 0 0 1 293.23,144.01 L273.58,128.55 A30.00,30.00 0 0 0 250.00,80.00 Z" fill="#f1e05a" stroke="#282a36" stroke-width="1.5"/>
  <path d="M293.23,144.01 A55.00,55.00 0 0 1 251.96,164.97 L251.07,139.98 A30.00,30.00 0 0 0 273.58,128.55 Z" fill="#b07219" stroke="#282a36" stroke-width="1.5"/>
  <path d="M251.96,164.97 A55.00,55.00 0 0 1 210.61,148.39 L228.52,130.94 A30.00,30.00 0 0 0 251.07,139.98 Z" fill="#e34c26" stroke="#282a36" stroke-width="1.5"/>
  <path d="M210.61,148.39 A55.00,55.00 0 0 1 195.11,113.44 L220.06,111.88 A30.00,30.00 0 0 0 228.52,130.94 Z" fill="#00ADD8" stroke="#282a36" stroke-width="1.5"/>
  <path d="M195.11,113.44 A55.00,55.00 0 0 1 195.93,99.93 L220.51,104.51 A30.00,30.00 0 0 0 220.06,111.88 Z" fill="#3178c6" stroke="#282a36" stroke-width="1.5"/>
  <path d="M195.93,99.93 A55.00,55.00 0 0 1 199.80,87.53 L222.62,97.74 A30.00,30.00 0 0 0 220.51,104.51 Z" fill="#3572A5" stroke="#282a36" stroke-width="1.5"/>
  <path d="M199.80,87.53 A55.00,55.00 0 0 1 250.00,55.00 L250.00,80.00 A30.00,30.00 0 0 0 222.62,97.74 Z" fill="#bd93f9" stroke="#282a36" stroke-width="1.5"/>
</svg>