<svg xmlns="http://www.w3.org/2000/svg" width="340" height="200" viewBox="0 0 340 200" font-family="'Segoe UI', Ubuntu, Sans-Serif">
  <rect x="0.5" y="0.5" width="339" height="199" rx="6" fill="#282a36" stroke="#282a36" stroke-opacity="1.00"/>
  <text x="20" y="30" font-size="15" font-weight="600" fill="#ff79c6">Most Commit Language (last year)</text>
  <rect x="20" y="47" width="10" height="10" fill="#f1e05a" stroke="#282a36" stroke-width="1"/>
  <text x="36" y="55" font-size="11" fill="#ffb86c">JavaScript 42.47%</text>
  <rect x="20" y="67" width="10" height="10" fill="#00ADD8" stroke="#282a36" stroke-width="1"/>
  <text x="36" y="75" font-size="11" fill="#ffb86c">Go 17.07%</text>
  <rect x="20" y="87" width="10" height="10" fill="#b07219" stroke="#282a36" stroke-width="1"/>
  <text x="36" y="95" font-size="11" fill="#ffb86c">Java 6.39%</text>
  <rect x="20" y="107" width="10" height="10" fill="#e34c26" stroke="#282a36" stroke-width="1"/>
  <text x="36" y="115" font-size="11" fill="#ffb86c">HTML 5.54%</text>
  <rect x="20" y="127" width="10" height="10" fill="#3178c6" stroke="#282a36" stroke-width="1"/>
  <text x="36" y="135" font-size="11" fill="#ffb86c">TypeScript 5.25%</text>
  <rect x="20" y="147" width="10" height="10" fill="#ff3e00" stroke="#282a36" stroke-width="1"/>
  <text x="36" y="155" font-size="11" fill="#ffb86c">Svelte 4.65%</text>
  <rect x="20" y="167" width="10" height="10" fill="#bd93f9" stroke="#282a36" stroke-width="1"/>
  <text x="36" y="175" font-size="11" fill="#ffb86c">Other 18.63%</text>
  <path d="M250.00,55.00 A55.00,55.00 0 0 1 275.07,158.95 L263.67,136.70 A30.00,30.00 0 0 0 250.00,80.00 Z" fill="#f1e05a" stroke="#282a36" stroke-width="1.5"/>
  <path d="M275.07,158.95 A55.00,55.00 0 0 1 218.98,155.42 L233.08,134.77 A30.00,30.00 0 0 0 263.67,136.70 Z" fill="#00ADD8" stroke="#282a36" stroke-width="1.5"/>
  <path d="M218.98,155.42 A55.00,55.00 0 0 1 203.70,139.69 L224.75,126.19 A30.00,30.00 0 0 0 233.08,134.77 Z" fill="#b07219" stroke="#282a36" stroke-width="1.5"/>
  <path d="M203.70,139.69 A55.00,55.00 0 0 1 196.35,122.10 L220.73,116.60 A30.00,30.00 0 0 0 224.75,126.19 Z" fill="#e34c26" stroke="#282a36" stroke-width="1.5"/>
  <path d="M196.35,122.10 A55.00,55.00 0 0 1 195.32,104.06 L220.18,106.76 A30.00,30.00 0 0 0 220.73,116.60 Z" fill="#3178c6" stroke="#282a36" stroke-width="1.5"/>
  <path d="M195.32,104.06 A55.00,55.00 0 0 1 199.34,88.58 L222.37,98.32 A30.00,30.00 0 0 0 220.18,106.76 Z" fill="#ff3e00" stroke="#282a36" stroke-width="1.5"/>
  <path d="M199.34,88.58 A55.00,55.00 0 0 1 250.00,55.00 L250.00,80.00 A30.00,30.00 0 0 0 222.37,98.32 Z" fill="#bd93f9" stroke="#282a36" stroke-width="1.5"/>
</svg>