<svg xmlns="http://www.w3.org/2000/svg" width="340" height="200" viewBox="0 0 340 200" font-family="'Segoe UI', Ubuntu, Sans-Serif">
  <rect x="0.5" y="0.5" width="339" height="199" rx="6" fill="#282a36" stroke="#282a36" stroke-opacity="1.00"/>
  <text x="20" y="30" font-size="15" font-weight="600" fill="#ff79c6">Most Commit Language (all time)</text>
  <rect x="20" y="47" width="10" height="10" fill="#f1e05a" stroke="#282a36" stroke-width="1"/>
  <text x="36" y="55" font-size="11" fill="#ffb86c">JavaScript 35.35%</text>
  <rect x="20" y="67" width="10" height="10" fill="#00ADD8" stroke="#282a36" stroke-width="1"/>
  <text x="36" y="75" font-size="11" fill="#ffb86c">Go 12.81%</text>
  <rect x="20" y="87" width="10" height="10" fill="#b07219" stroke="#282a36" stroke-width="1"/>
  <text x="36" y="95" font-size="11" fill="#ffb86c">Java 12.65%</text>
  <rect x="20" y="107" width="10" height="10" fill="#e34c26" stroke="#282a36" stroke-width="1"/>
  <text x="36" y="115" font-size="11" fill="#ffb86c">HTML 11.39%</text>
  <rect x="20" y="127" width="10" height="10" fill="#3572A5" stroke="#282a36" stroke-width="1"/>
  <text x="36" y="135" font-size="11" fill="#ffb86c">Python 3.99%</text>
  <rect x="20" y="147" width="10" height="10" fill="#3178c6" stroke="#282a36" stroke-width="1"/>
  <text x="36" y="155" font-size="11" fill="#ffb86c">TypeScript 3.89%</text>
  <rect x="20" y="167" width="10" height="10" fill="#bd93f9" stroke="#282a36" stroke-width="1"/>
  <text x="36" y="175" font-size="11" fill="#ffb86c">Other 19.91%</text>
  <path d="M250.00,55.00 A55.00,55.00 0 0 1 293.77,143.31 L273.87,128.17 A30.00,30.00 0 0 0 250.00,80.00 Z" fill="#f1e05a" stroke="#282a36" stroke-width="1.5"/>
  <path d="M293.77,143.31 A55.00,55.00 0 0 1 256.32,164.64 L253.44,139.80 A30.00,30.00 0 0 0 273.87,128.17 Z" fill="#00ADD8" stroke="#282a36" stroke-width="1.5"/>
  <path d="M256.32,164.64 A55.00,55.00 0 0 1 215.43,152.78 L231.14,133.33 A30.00,30.00 0 0 0 253.44,139.80 Z" fill="#b07219" stroke="#282a36" stroke-width="1.5"/>
  <path d="M215.43,152.78 A55.00,55.00 0 0 1 195.84,119.58 L220.46,115.23 A30.00,30.00 0 0 0 231.14,133.33 Z" fill="#e34c26" stroke="#282a36" stroke-width="1.5"/>
  <path d="M195.84,119.58 A55.00,55.00 0 0 1 195.16,105.86 L220.08,107.74 A30.00,30.00 0 0 0 220.46,115.23 Z" fill="#3572A5" stroke="#282a36" stroke-width="1.5"/>
  <path d="M195.16,105.86 A55.00,55.00 0 0 1 197.78,92.72 L221.52,100.58 A30.00,30.00 0 0 0 220.08,107.74 Z" fill="#3178c6" stroke="#282a36" stroke-width="1.5"/>
  <path d="M197.78,92.72 A55.00,55.00 0 0 1 250.00,55.00 L250.00,80.00 A30.00,30.00 0 0 0 221.52,100.58 Z" fill="#bd93f9" stroke="#282a36" stroke-width="1.5"/>
</svg>