<svg xmlns="http://www.w3.org/2000/svg" width="340" height="200" viewBox="0 0 340 200" font-family="'Segoe UI', Ubuntu, Sans-Serif">
  <rect x="0.5" y="0.5" width="339" height="199" rx="6" fill="#282a36" stroke="#282a36" stroke-opacity="1.00"/>
  <text x="20" y="30" font-size="15" font-weight="600" fill="#ff79c6">Most Commit Language (all time)</text>
  <rect x="20" y="47" width="10" height="10" fill="#f1e05a" stroke="#282a36" stroke-width="1"/>
  <text x="36" y="55" font-size="11" fill="#ffb86c">JavaScript 35.70%</text>
  <rect x="20" y="67" width="10" height="10" fill="#b07219" stroke="#282a36" stroke-width="1"/>
  <text x="36" y="75" font-size="11" fill="#ffb86c">Java 13.82%</text>
  <rect x="20" y="87" width="10" height="10" fill="#e34c26" stroke="#282a36" stroke-width="1"/>
  <text x="36" y="95" font-size="11" fill="#ffb86c">HTML 13.27%</text>
  <rect x="20" y="107" width="10" height="10" fill="#00ADD8" stroke="#282a36" stroke-width="1"/>
  <text x="36" y="115" font-size="11" fill="#ffb86c">Go 11.22%</text>
  <rect x="20" y="127" width="10" height="10" fill="#3178c6" stroke="#282a36" stroke-width="1"/>
  <text x="36" y="135" font-size="11" fill="#ffb86c">TypeScript 3.92%</text>
  <rect x="20" y="147" width="10" height="10" fill="#3572A5" stroke="#282a36" stroke-width="1"/>
  <text x="36" y="155" font-size="11" fill="#ffb86c">Python 3.77%</text>
  <rect x="20" y="167" width="10" height="10" fill="#bd93f9" stroke="#282a36" stroke-width="1"/>
  <text x="36" y="175" font-size="11" fill="#ffb86c">Other 18.29%</text>
  <path d="M250.00,55.00 A55.00,55.00 0 0 1 293.02,144.26 L273.47,128.69 A30.00,30.00 0 0 0 250.00,80.00 Z" fill="#f1e05a" stroke="#282a36" stroke-width="1.5"/>
  <path d="M293.02,144.26 A55.00,55.00 0 0 1 251.64,164.98 L250.90,139.99 A30.00,30.00 0 0 0 273.47,128.69 Z" fill="#b07219" stroke="#282a36" stroke-width="1.5"/>
  <path d="M251.64,164.98 A55.00,55.00 0 0 1 210.41,148.17 L228.40,130.82 A30.00,30.00 0 0 0 250.90,139.99 Z" fill="#e34c26" stroke="#282a36" stroke-width="1.5"/>
  <path d="M210.41,148.17 A55.00,55.00 0 0 1 195.11,113.41 L220.06,111.86 A30.00,30.00 0 0 0 228.40,130.82 Z" fill="#00ADD8" stroke="#282a36" stroke-width="1.5"/>
  <path d="M195.11,113.41 A55.00,55.00 0 0 1 195.93,99.91 L220.51,104.49 A30.00,30.00 0 0 0 220.06,111.86 Z" fill="#3178c6" stroke="#282a36" stroke-width="1.5"/>
  <path d="M195.93,99.91 A55.00,55.00 0 0 1 199.81,87.50 L222.62,97.73 A30.00,30.00 0 0 0 220.51,104.49 Z" fill="#3572A5" stroke="#282a36" stroke-width="1.5"/>
  <path d="M199.81,87.50 A55.00,55.00 0 0 1 250.00,55.00 L250.00,80.00 A30.00,30.00 0 0 0 222.62,97.73 Z" fill="#bd93f9" stroke="#282a36" stroke-width="1.5"/>
</svg>