<svg xmlns="http://www.w3.org/2000/svg" width="340" height="200" viewBox="0 0 340 200" font-family="'Segoe UI', Ubuntu, Sans-Serif">
  <rect x="0.5" y="0.5" width="339" height="199" rx="6" fill="#282a36" stroke="#282a36" stroke-opacity="1.00"/>
  <text x="20" y="30" font-size="15" font-weight="600" fill="#ff79c6">Most Commit Language (last year)</text>
  <rect x="20" y="47" width="10" height="10" fill="#f1e05a" stroke="#282a36" stroke-width="1"/>
  <text x="36" y="55" font-size="11" fill="#ffb86c">JavaScript 48.28%</text>
  <rect x="20" y="67" width="10" height="10" fill="#00ADD8" stroke="#282a36" stroke-width="1"/>
  <text x="36" y="75" font-size="11" fill="#ffb86c">Go 13.57%</text>
  <rect x="20" y="87" width="10" height="10" fill="#b07219" stroke="#282a36" stroke-width="1"/>
  <text x="36" y="95" font-size="11" fill="#ffb86c">Java 8.91%</text>
  <rect x="20" y="107" width="10" height="10" fill="#e34c26" stroke="#282a36" stroke-width="1"/>
  <text x="36" y="115" font-size="11" fill="#ffb86c">HTML 6.37%</text>
  <rect x="20" y="127" width="10" height="10" fill="#ff3e00" stroke="#282a36" stroke-width="1"/>
  <text x="36" y="135" font-size="11" fill="#ffb86c">Svelte 4.50%</text>
  <rect x="20" y="147" width="10" height="10" fill="#3572A5" stroke="#282a36" stroke-width="1"/>
  <text x="36" y="155" font-size="11" fill="#ffb86c">Python 3.52%</text>
  <rect x="20" y="167" width="10" height="10" fill="#bd93f9" stroke="#282a36" stroke-width="1"/>
  <text x="36" y="175" font-size="11" fill="#ffb86c">Other 14.85%</text>
  <path d="M250.00,55.00 A55.00,55.00 0 0 1 255.94,164.68 L253.24,139.82 A30.00,30.00 0 0 0 250.00,80.00 Z" fill="#f1e05a" stroke="#282a36" stroke-width="1.5"/>
  <path d="M255.94,164.68 A55.00,55.00 0 0 1 212.74,150.45 L229.68,132.07 A30.00,30.00 0 0 0 253.24,139.82 Z" fill="#00ADD8" stroke="#282a36" stroke-width="1.5"/>
  <path d="M212.74,150.45 A55.00,55.00 0 0 1 196.94,124.50 L221.06,117.91 A30.00,30.00 0 0 0 229.68,132.07 Z" fill="#b07219" stroke="#282a36" stroke-width="1.5"/>
  <path d="M196.94,124.50 A55.00,55.00 0 0 1 195.49,102.69 L220.27,106.01 A30.00,30.00 0 0 0 221.06,117.91 Z" fill="#e34c26" stroke="#282a36" stroke-width="1.5"/>
  <path d="M195.49,102.69 A55.00,55.00 0 0 1 199.70,87.75 L222.56,97.87 A30.00,30.00 0 0 0 220.27,106.01 Z" fill="#ff3e00" stroke="#282a36" stroke-width="1.5"/>
  <path d="M199.70,87.75 A55.00,55.00 0 0 1 205.80,77.27 L225.89,92.14 A30.00,30.00 0 0 0 222.56,97.87 Z" fill="#3572A5" stroke="#282a36" stroke-width="1.5"/>
  <path d="M205.80,77.27 A55.00,55.00 0 0 1 250.00,55.00 L250.00,80.00 A30.00,30.00 0 0 0 225.89,92.14 Z" fill="#bd93f9" stroke="#282a36" stroke-width="1.5"/>
</svg>