<svg xmlns="http://www.w3.org/2000/svg" width="340" height="200" viewBox="0 0 340 200" font-family="'Segoe UI', Ubuntu, Sans-Serif">
  <rect x="0.5" y="0.5" width="339" height="199" rx="6" fill="#282a36" stroke="#282a36" stroke-opacity="1.00"/>
  <text x="20" y="30" font-size="15" font-weight="600" fill="#ff79c6">Most Commit Language (all time)</text>
  <rect x="20" y="47" width="10" height="10" fill="#f1e05a" stroke="#282a36" stroke-width="1"/>
  <text x="36" y="55" font-size="11" fill="#ffb86c">JavaScript 35.71%</text>
  <rect x="20" y="67" width="10" height="10" fill="#b07219" stroke="#282a36" stroke-width="1"/>
  <text x="36" y="75" font-size="11" fill="#ffb86c">Java 17.69%</text>
  <rect x="20" y="87" width="10" height="10" fill="#e34c26" stroke="#282a36" stroke-width="1"/>
  <text x="36" y="95" font-size="11" fill="#ffb86c">HTML 15.62%</text>
  <rect x="20" y="107" width="10" height="10" fill="#00ADD8" stroke="#282a36" stroke-width="1"/>
  <text x="36" y="115" font-size="11" fill="#ffb86c">Go 8.59%</text>
  <rect x="20" y="127" width="10" height="10" fill="#3572A5" stroke="#282a36" stroke-width="1"/>
  <text x="36" y="135" font-size="11" fill="#ffb86c">Python 4.37%</text>
  <rect x="20" y="147" width="10" height="10" fill="#f34b7d" stroke="#282a36" stroke-width="1"/>
  <text x="36" y="155" font-size="11" fill="#ffb86c">C++ 4.29%</text>
  <rect x="20" y="167" width="10" height="10" fill="#bd93f9" stroke="#282a36" stroke-width="1"/>
  <text x="36" y="175" font-size="11" fill="#ffb86c">Other 13.72%</text>
  <path d="M250.00,55.00 A55.00,55.00 0 0 1 293.00,144.29 L273.46,128.70 A30.00,30.00 0 0 0 250.00,80.00 Z" fill="#f1e05a" stroke="#282a36" stroke-width="1.5"/>
  <path d="M293.00,144.29 A55.00,55.00 0 0 1 238.31,163.74 L243.63,139.31 A30.00,30.00 0 0 0 273.46,128.70 Z" fill="#b07219" stroke="#282a36" stroke-width="1.5"/>
  <path d="M238.31,163.74 A55.00,55.00 0 0 1 198.83,130.16 L222.09,121.00 A30.00,30.00 0 0 0 243.63,139.31 Z" fill="#e34c26" stroke="#282a36" stroke-width="1.5"/>
  <path d="M198.83,130.16 A55.00,55.00 0 0 1 195.74,101.00 L220.40,105.09 A30.00,30.00 0 0 0 222.09,121.00 Z" fill="#00ADD8" stroke="#282a36" stroke-width="1.5"/>
  <path d="M195.74,101.00 A55.00,55.00 0 0 1 200.22,86.61 L222.85,97.24 A30.00,30.00 0 0 0 220.40,105.09 Z" fill="#3572A5" stroke="#282a36" stroke-width="1.5"/>
  <path d="M200.22,86.61 A55.00,55.00 0 0 1 208.24,74.20 L227.22,90.47 A30.00,30.00 0 0 0 222.85,97.24 Z" fill="#f34b7d" stroke="#282a36" stroke-width="1.5"/>
  <path d="M208.24,74.20 A55.00,55.00 0 0 1 250.00,55.00 L250.00,80.00 A30.00,30.00 0 0 0 227.22,90.47 Z" fill="#bd93f9" stroke="#282a36" stroke-width="1.5"/>
</svg>