<svg xmlns="http://www.w3.org/2000/svg" width="340" height="200" viewBox="0 0 340 200" font-family="'Segoe UI', Ubuntu, Sans-Serif">
  <rect x="0.5" y="0.5" width="339" height="199" rx="6" fill="#282a36" stroke="#282a36" stroke-opacity="1.00"/>
  <text x="20" y="30" font-size="15" font-weight="600" fill="#ff79c6">Most Commit Language (last year)</text>
  <rect x="20" y="47" width="10" height="10" fill="#f1e05a" stroke="#282a36" stroke-width="1"/>
  <text x="36" y="55" font-size="11" fill="#ffb86c">JavaScript 43.11%</text>
  <rect x="20" y="67" width="10" height="10" fill="#00ADD8" stroke="#282a36" stroke-width="1"/>
  <text x="36" y="75" font-size="11" fill="#ffb86c">Go 16.62%</text>
  <rect x="20" y="87" width="10" height="10" fill="#b07219" stroke="#282a36" stroke-width="1"/>
  <text x="36" y="95" font-size="11" fill="#ffb86c">Java 6.49%</text>
  <rect x="20" y="107" width="10" height="10" fill="#e34c26" stroke="#282a36" stroke-width="1"/>
  <text x="36" y="115" font-size="11" fill="#ffb86c">HTML 5.55%</text>
  <rect x="20" y="127" width="10" height="10" fill="#3178c6" stroke="#282a36" stroke-width="1"/>
  <text x="36" y="135" font-size="11" fill="#ffb86c">TypeScript 5.34%</text>
  <rect x="20" y="147" width="10" height="10" fill="#ff3e00" stroke="#282a36" stroke-width="1"/>
  <text x="36" y="155" font-size="11" fill="#ffb86c">Svelte 4.72%</text>
  <rect x="20" y="167" width="10" height="10" fill="#bd93f9" stroke="#282a36" stroke-width="1"/>
  <text x="36" y="175" font-size="11" fill="#ffb86c">Other 18.17%</text>
  <path d="M250.00,55.00 A55.00,55.00 0 0 1 273.06,159.93 L262.58,137.23 A30.00,30.00 0 0 0 250.00,80.00 Z" fill="#f1e05a" stroke="#282a36" stroke-width="1.5"/>
  <path d="M273.06,159.93 A55.00,55.00 0 0 1 218.43,155.04 L232.78,134.57 A30.00,30.00 0 0 0 262.58,137.23 Z" fill="#00ADD8" stroke="#282a36" stroke-width="1.5"/>
  <path d="M218.43,155.04 A55.00,55.00 0 0 1 203.16,138.82 L224.45,125.72 A30.00,30.00 0 0 0 232.78,134.57 Z" fill="#b07219" stroke="#282a36" stroke-width="1.5"/>
  <path d="M203.16,138.82 A55.00,55.00 0 0 1 196.12,121.06 L220.61,116.04 A30.00,30.00 0 0 0 224.45,125.72 Z" fill="#e34c26" stroke="#282a36" stroke-width="1.5"/>
  <path d="M196.12,121.06 A55.00,55.00 0 0 1 195.48,102.72 L220.26,106.03 A30.00,30.00 0 0 0 220.61,116.04 Z" fill="#3178c6" stroke="#282a36" stroke-width="1.5"/>
  <path d="M195.48,102.72 A55.00,55.00 0 0 1 199.99,87.11 L222.72,97.52 A30.00,30.00 0 0 0 220.26,106.03 Z" fill="#ff3e00" stroke="#282a36" stroke-width="1.5"/>
  <path d="M199.99,87.11 A55.00,55.00 0 0 1 250.00,55.00 L250.00,80.00 A30.00,30.00 0 0 0 222.72,97.52 Z" fill="#bd93f9" stroke="#282a36" stroke-width="1.5"/>
</svg>