<svg xmlns="http://www.w3.org/2000/svg" width="340" height="200" viewBox="0 0 340 200" font-family="'Segoe UI', Ubuntu, Sans-Serif">
  <rect x="0.5" y="0.5" width="339" height="199" rx="6" fill="#282a36" stroke="#282a36" stroke-opacity="1.00"/>
  <text x="20" y="30" font-size="15" font-weight="600" fill="#ff79c6">Most Commit Language (last year)</text>
  <rect x="20" y="47" width="10" height="10" fill="#f1e05a" stroke="#282a36" stroke-width="1"/>
  <text x="36" y="55" font-size="11" fill="#ffb86c">JavaScript 43.90%</text>
  <rect x="20" y="67" width="10" height="10" fill="#00ADD8" stroke="#282a36" stroke-width="1"/>
  <text x="36" y="75" font-size="11" fill="#ffb86c">Go 16.55%</text>
  <rect x="20" y="87" width="10" height="10" fill="#b07219" stroke="#282a36" stroke-width="1"/>
  <text x="36" y="95" font-size="11" fill="#ffb86c">Java 7.52%</text>
  <rect x="20" y="107" width="10" height="10" fill="#e34c26" stroke="#282a36" stroke-width="1"/>
  <text x="36" y="115" font-size="11" fill="#ffb86c">HTML 6.48%</text>
  <rect x="20" y="127" width="10" height="10" fill="#ff3e00" stroke="#282a36" stroke-width="1"/>
  <text x="36" y="135" font-size="11" fill="#ffb86c">Svelte 4.54%</text>
  <rect x="20" y="147" width="10" height="10" fill="#3178c6" stroke="#282a36" stroke-width="1"/>
  <text x="36" y="155" font-size="11" fill="#ffb86c">TypeScript 3.83%</text>
  <rect x="20" y="167" width="10" height="10" fill="#bd93f9" stroke="#282a36" stroke-width="1"/>
  <text x="36" y="175" font-size="11" fill="#ffb86c">Other 17.18%</text>
  <path d="M250.00,55.00 A55.00,55.00 0 0 1 270.57,161.01 L261.22,137.82 A30.00,30.00 0 0 0 250.00,80.00 Z" fill="#f1e05a" stroke="#282a36" stroke-width="1.5"/>
  <path d="M270.57,161.01 A55.00,55.00 0 0 1 216.44,153.57 L231.69,133.77 A30.00,30.00 0 0 0 261.22,137.82 Z" fill="#00ADD8" stroke="#282a36" stroke-width="1.5"/>
  <path d="M216.44,153.57 A55.00,55.00 0 0 1 200.29,133.53 L222.88,122.83 A30.00,30.00 0 0 0 231.69,133.77 Z" fill="#b07219" stroke="#282a36" stroke-width="1.5"/>
  <path d="M200.29,133.53 A55.00,55.00 0 0 1 195.03,111.90 L220.02,111.04 A30.00,30.00 0 0 0 222.88,122.83 Z" fill="#e34c26" stroke="#282a36" stroke-width="1.5"/>
  <path d="M195.03,111.90 A55.00,55.00 0 0 1 196.72,96.37 L220.94,102.56 A30.00,30.00 0 0 0 220.02,111.04 Z" fill="#ff3e00" stroke="#282a36" stroke-width="1.5"/>
  <path d="M196.72,96.37 A55.00,55.00 0 0 1 201.50,84.06 L223.55,95.85 A30.00,30.00 0 0 0 220.94,102.56 Z" fill="#3178c6" stroke="#282a36" stroke-width="1.5"/>
  <path d="M201.50,84.06 A55.00,55.00 0 0 1 250.00,55.00 L250.00,80.00 A30.00,30.00 0 0 0 223.55,95.85 Z" fill="#bd93f9" stroke="#282a36" stroke-width="1.5"/>
</svg>