<svg xmlns="http://www.w3.org/2000/svg" width="340" height="200" viewBox="0 0 340 200" font-family="'Segoe UI', Ubuntu, Sans-Serif">
  <rect x="0.5" y="0.5" width="339" height="199" rx="6" fill="#282a36" stroke="#282a36" stroke-opacity="1.00"/>
  <text x="20" y="30" font-size="15" font-weight="600" fill="#ff79c6">Most Commit Language (all time)</text>
  <rect x="20" y="47" width="10" height="10" fill="#f1e05a" stroke="#282a36" stroke-width="1"/>
  <text x="36" y="55" font-size="11" fill="#ffb86c">JavaScript 34.67%</text>
  <rect x="20" y="67" width="10" height="10" fill="#00ADD8" stroke="#282a36" stroke-width="1"/>
  <text x="36" y="75" font-size="11" fill="#ffb86c">Go 15.13%</text>
  <rect x="20" y="87" width="10" height="10" fill="#b07219" stroke="#282a36" stroke-width="1"/>
  <text x="36" y="95" font-size="11" fill="#ffb86c">Java 12.25%</text>
  <rect x="20" y="107" width="10" height="10" fill="#e34c26" stroke="#282a36" stroke-width="1"/>
  <text x="36" y="115" font-size="11" fill="#ffb86c">HTML 11.01%</text>
  <rect x="20" y="127" width="10" height="10" fill="#3572A5" stroke="#282a36" stroke-width="1"/>
  <text x="36" y="135" font-size="11" fill="#ffb86c">Python 3.85%</text>
  <rect x="20" y="147" width="10" height="10" fill="#3178c6" stroke="#282a36" stroke-width="1"/>
  <text x="36" y="155" font-size="11" fill="#ffb86c">TypeScript 3.80%</text>
  <rect x="20" y="167" width="10" height="10" fill="#bd93f9" stroke="#282a36" stroke-width="1"/>
  <text x="36" y="175" font-size="11" fill="#ffb86c">Other 19.28%</text>
  <path d="M250.00,55.00 A55.00,55.00 0 0 1 295.16,141.40 L274.63,127.13 A30.00,30.00 0 0 0 250.00,80.00 Z" fill="#f1e05a" stroke="#282a36" stroke-width="1.5"/>
  <path d="M295.16,141.40 A55.00,55.00 0 0 1 250.68,165.00 L250.37,140.00 A30.00,30.00 0 0 0 274.63,127.13 Z" fill="#00ADD8" stroke="#282a36" stroke-width="1.5"/>
  <path d="M250.68,165.00 A55.00,55.00 0 0 1 212.21,149.96 L229.38,131.79 A30.00,30.00 0 0 0 250.37,140.00 Z" fill="#b07219" stroke="#282a36" stroke-width="1.5"/>
  <path d="M212.21,149.96 A55.00,55.00 0 0 1 195.41,116.67 L220.22,113.64 A30.00,30.00 0 0 0 229.38,131.79 Z" fill="#e34c26" stroke="#282a36" stroke-width="1.5"/>
  <path d="M195.41,116.67 A55.00,55.00 0 0 1 195.40,103.39 L220.22,106.40 A30.00,30.00 0 0 0 220.22,113.64 Z" fill="#3572A5" stroke="#282a36" stroke-width="1.5"/>
  <path d="M195.40,103.39 A55.00,55.00 0 0 1 198.51,90.66 L221.91,99.45 A30.00,30.00 0 0 0 220.22,106.40 Z" fill="#3178c6" stroke="#282a36" stroke-width="1.5"/>
  <path d="M198.51,90.66 A55.00,55.00 0 0 1 250.00,55.00 L250.00,80.00 A30.00,30.00 0 0 0 221.91,99.45 Z" fill="#bd93f9" stroke="#282a36" stroke-width="1.5"/>
</svg>