<svg xmlns="http://www.w3.org/2000/svg" width="340" height="200" viewBox="0 0 340 200" font-family="'Segoe UI', Ubuntu, Sans-Serif">
  <rect x="0.5" y="0.5" width="339" height="199" rx="6" fill="#282a36" stroke="#282a36" stroke-opacity="1.00"/>
  <text x="20" y="30" font-size="15" font-weight="600" fill="#ff79c6">Most Commit Language (all time)</text>
  <rect x="20" y="47" width="10" height="10" fill="#f1e05a" stroke="#282a36" stroke-width="1"/>
  <text x="36" y="55" font-size="11" fill="#ffb86c">JavaScript 32.25%</text>
  <rect x="20" y="67" width="10" height="10" fill="#b07219" stroke="#282a36" stroke-width="1"/>
  <text x="36" y="75" font-size="11" fill="#ffb86c">Java 18.47%</text>
  <rect x="20" y="87" width="10" height="10" fill="#e34c26" stroke="#282a36" stroke-width="1"/>
  <text x="36" y="95" font-size="11" fill="#ffb86c">HTML 18.45%</text>
  <rect x="20" y="107" width="10" height="10" fill="#00ADD8" stroke="#282a36" stroke-width="1"/>
  <text x="36" y="115" font-size="11" fill="#ffb86c">Go 8.09%</text>
  <rect x="20" y="127" width="10" height="10" fill="#f34b7d" stroke="#282a36" stroke-width="1"/>
  <text x="36" y="135" font-size="11" fill="#ffb86c">C++ 4.48%</text>
  <rect x="20" y="147" width="10" height="10" fill="#3572A5" stroke="#282a36" stroke-width="1"/>
  <text x="36" y="155" font-size="11" fill="#ffb86c">Python 4.24%</text>
  <rect x="20" y="167" width="10" height="10" fill="#bd93f9" stroke="#282a36" stroke-width="1"/>
  <text x="36" y="175" font-size="11" fill="#ffb86c">Other 14.04%</text>
  <path d="M250.00,55.00 A55.00,55.00 0 0 1 299.40,134.19 L276.94,123.19 A30.00,30.00 0 0 0 250.00,80.00 Z" fill="#f1e05a" stroke="#282a36" stroke-width="1.5"/>
  <path d="M299.40,134.19 A55.00,55.00 0 0 1 247.53,164.94 L248.65,139.97 A30.00,30.00 0 0 0 276.94,123.19 Z" fill="#b07219" stroke="#282a36" stroke-width="1.5"/>
  <path d="M247.53,164.94 A55.00,55.00 0 0 1 198.66,129.72 L222.00,120.76 A30.00,30.00 0 0 0 248.65,139.97 Z" fill="#e34c26" stroke="#282a36" stroke-width="1.5"/>
  <path d="M198.66,129.72 A55.00,55.00 0 0 1 195.55,102.25 L220.30,105.77 A30.00,30.00 0 0 0 222.00,120.76 Z" fill="#00ADD8" stroke="#282a36" stroke-width="1.5"/>
  <path d="M195.55,102.25 A55.00,55.00 0 0 1 199.84,87.44 L222.64,97.70 A30.00,30.00 0 0 0 220.30,105.77 Z" fill="#f34b7d" stroke="#282a36" stroke-width="1.5"/>
  <path d="M199.84,87.44 A55.00,55.00 0 0 1 207.54,75.04 L226.84,90.93 A30.00,30.00 0 0 0 222.64,97.70 Z" fill="#3572A5" stroke="#282a36" stroke-width="1.5"/>
  <path d="M207.54,75.04 A55.00,55.00 0 0 1 250.00,55.00 L250.00,80.00 A30.00,30.00 0 0 0 226.84,90.93 Z" fill="#bd93f9" stroke="#282a36" stroke-width="1.5"/>
</svg>