<svg xmlns="http://www.w3.org/2000/svg" width="340" height="200" viewBox="0 0 340 200" font-family="'Segoe UI', Ubuntu, Sans-Serif">
  <rect x="0.5" y="0.5" width="339" height="199" rx="6" fill="#282a36" stroke="#282a36" stroke-opacity="1.00"/>
  <text x="20" y="30" font-size="15" font-weight="600" fill="#ff79c6">Most Commit Language (all time)</text>
  <rect x="20" y="47" width="10" height="10" fill="#f1e05a" stroke="#282a36" stroke-width="1"/>
  <text x="36" y="55" font-size="11" fill="#ffb86c">JavaScript 35.46%</text>
  <rect x="20" y="67" width="10" height="10" fill="#b07219" stroke="#282a36" stroke-width="1"/>
  <text x="36" y="75" font-size="11" fill="#ffb86c">Java 14.67%</text>
  <rect x="20" y="87" width="10" height="10" fill="#e34c26" stroke="#282a36" stroke-width="1"/>
  <text x="36" y="95" font-size="11" fill="#ffb86c">HTML 14.07%</text>
  <rect x="20" y="107" width="10" height="10" fill="#00ADD8" stroke="#282a36" stroke-width="1"/>
  <text x="36" y="115" font-size="11" fill="#ffb86c">Go 10.51%</text>
  <rect x="20" y="127" width="10" height="10" fill="#3572A5" stroke="#282a36" stroke-width="1"/>
  <text x="36" y="135" font-size="11" fill="#ffb86c">Python 3.96%</text>
  <rect x="20" y="147" width="10" height="10" fill="#f34b7d" stroke="#282a36" stroke-width="1"/>
  <text x="36" y="155" font-size="11" fill="#ffb86c">C++ 3.68%</text>
  <rect x="20" y="167" width="10" height="10" fill="#bd93f9" stroke="#282a36" stroke-width="1"/>
  <text x="36" y="175" font-size="11" fill="#ffb86c">Other 17.65%</text>
  <path d="M250.00,55.00 A55.00,55.00 0 0 1 293.54,143.61 L273.75,128.33 A30.00,30.00 0 0 0 250.00,80.00 Z" fill="#f1e05a" stroke="#282a36" stroke-width="1.5"/>
  <path d="M293.54,143.61 A55.00,55.00 0 0 1 249.55,165.00 L249.75,140.00 A30.00,30.00 0 0 0 273.75,128.33 Z" fill="#b07219" stroke="#282a36" stroke-width="1.5"/>
  <path d="M249.55,165.00 A55.00,55.00 0 0 1 207.18,144.52 L226.65,128.83 A30.00,30.00 0 0 0 249.75,140.00 Z" fill="#e34c26" stroke="#282a36" stroke-width="1.5"/>
  <path d="M207.18,144.52 A55.00,55.00 0 0 1 195.01,110.99 L220.00,110.54 A30.00,30.00 0 0 0 226.65,128.83 Z" fill="#00ADD8" stroke="#282a36" stroke-width="1.5"/>
  <path d="M195.01,110.99 A55.00,55.00 0 0 1 196.46,97.41 L220.80,103.13 A30.00,30.00 0 0 0 220.00,110.54 Z" fill="#3572A5" stroke="#282a36" stroke-width="1.5"/>
  <path d="M196.46,97.41 A55.00,55.00 0 0 1 200.76,85.49 L223.14,96.63 A30.00,30.00 0 0 0 220.80,103.13 Z" fill="#f34b7d" stroke="#282a36" stroke-width="1.5"/>
  <path d="M200.76,85.49 A55.00,55.00 0 0 1 250.00,55.00 L250.00,80.00 A30.00,30.00 0 0 0 223.14,96.63 Z" fill="#bd93f9" stroke="#282a36" stroke-width="1.5"/>
</svg>