<svg xmlns="http://www.w3.org/2000/svg" width="340" height="200" viewBox="0 0 340 200" font-family="'Segoe UI', Ubuntu, Sans-Serif">
  <rect x="0.5" y="0.5" width="339" height="199" rx="6" fill="#282a36" stroke="#282a36" stroke-opacity="1.00"/>
  <text x="20" y="30" font-size="15" font-weight="600" fill="#ff79c6">Most Commit Language (last year)</text>
  <rect x="20" y="47" width="10" height="10" fill="#f1e05a" stroke="#282a36" stroke-width="1"/>
  <text x="36" y="55" font-size="11" fill="#ffb86c">JavaScript 46.54%</text>
  <rect x="20" y="67" width="10" height="10" fill="#00ADD8" stroke="#282a36" stroke-width="1"/>
  <text x="36" y="75" font-size="11" fill="#ffb86c">Go 13.87%</text>
  <rect x="20" y="87" width="10" height="10" fill="#b07219" stroke="#282a36" stroke-width="1"/>
  <text x="36" y="95" font-size="11" fill="#ffb86c">Java 8.59%</text>
  <rect x="20" y="107" width="10" height="10" fill="#e34c26" stroke="#282a36" stroke-width="1"/>
  <text x="36" y="115" font-size="11" fill="#ffb86c">HTML 6.43%</text>
  <rect x="20" y="127" width="10" height="10" fill="#ff3e00" stroke="#282a36" stroke-width="1"/>
  <text x="36" y="135" font-size="11" fill="#ffb86c">Svelte 4.84%</text>
  <rect x="20" y="147" width="10" height="10" fill="#3178c6" stroke="#282a36" stroke-width="1"/>
  <text x="36" y="155" font-size="11" fill="#ffb86c">TypeScript 3.86%</text>
  <rect x="20" y="167" width="10" height="10" fill="#bd93f9" stroke="#282a36" stroke-width="1"/>
  <text x="36" y="175" font-size="11" fill="#ffb86c">Other 15.87%</text>
  <path d="M250.00,55.00 A55.00,55.00 0 0 1 261.86,163.71 L256.47,139.29 A30.00,30.00 0 0 0 250.00,80.00 Z" fill="#f1e05a" stroke="#282a36" stroke-width="1.5"/>
  <path d="M261.86,163.71 A55.00,55.00 0 0 1 216.53,153.64 L231.74,133.80 A30.00,30.00 0 0 0 256.47,139.29 Z" fill="#00ADD8" stroke="#282a36" stroke-width="1.5"/>
  <path d="M216.53,153.64 A55.00,55.00 0 0 1 198.85,130.23 L222.10,121.03 A30.00,30.00 0 0 0 231.74,133.80 Z" fill="#b07219" stroke="#282a36" stroke-width="1.5"/>
  <path d="M198.85,130.23 A55.00,55.00 0 0 1 195.02,108.50 L220.01,109.18 A30.00,30.00 0 0 0 222.10,121.03 Z" fill="#e34c26" stroke="#282a36" stroke-width="1.5"/>
  <path d="M195.02,108.50 A55.00,55.00 0 0 1 197.99,92.12 L221.63,100.25 A30.00,30.00 0 0 0 220.01,109.18 Z" fill="#ff3e00" stroke="#282a36" stroke-width="1.5"/>
  <path d="M197.99,92.12 A55.00,55.00 0 0 1 203.81,80.15 L224.80,93.72 A30.00,30.00 0 0 0 221.63,100.25 Z" fill="#3178c6" stroke="#282a36" stroke-width="1.5"/>
  <path d="M203.81,80.15 A55.00,55.00 0 0 1 250.00,55.00 L250.00,80.00 A30.00,30.00 0 0 0 224.80,93.72 Z" fill="#bd93f9" stroke="#282a36" stroke-width="1.5"/>
</svg>