<svg xmlns="http://www.w3.org/2000/svg" width="340" height="200" viewBox="0 0 340 200" font-family="'Segoe UI', Ubuntu, Sans-Serif">
  <rect x="0.5" y="0.5" width="339" height="199" rx="6" fill="#282a36" stroke="#282a36" stroke-opacity="1.00"/>
  <text x="20" y="30" font-size="15" font-weight="600" fill="#ff79c6">Most Commit Language (last year)</text>
  <rect x="20" y="47" width="10" height="10" fill="#f1e05a" stroke="#282a36" stroke-width="1"/>
  <text x="36" y="55" font-size="11" fill="#ffb86c">JavaScript 42.20%</text>
  <rect x="20" y="67" width="10" height="10" fill="#00ADD8" stroke="#282a36" stroke-width="1"/>
  <text x="36" y="75" font-size="11" fill="#ffb86c">Go 17.84%</text>
  <rect x="20" y="87" width="10" height="10" fill="#b07219" stroke="#282a36" stroke-width="1"/>
  <text x="36" y="95" font-size="11" fill="#ffb86c">Java 6.14%</text>
  <rect x="20" y="107" width="10" height="10" fill="#e34c26" stroke="#282a36" stroke-width="1"/>
  <text x="36" y="115" font-size="11" fill="#ffb86c">HTML 5.43%</text>
  <rect x="20" y="127" width="10" height="10" fill="#3178c6" stroke="#282a36" stroke-width="1"/>
  <text x="36" y="135" font-size="11" fill="#ffb86c">TypeScript 5.30%</text>
  <rect x="20" y="147" width="10" height="10" fill="#ff3e00" stroke="#282a36" stroke-width="1"/>
  <text x="36" y="155" font-size="11" fill="#ffb86c">Svelte 4.66%</text>
  <rect x="20" y="167" width="10" height="10" fill="#bd93f9" stroke="#282a36" stroke-width="1"/>
  <text x="36" y="175" font-size="11" fill="#ffb86c">Other 18.41%</text>
  <path d="M250.00,55.00 A55.00,55.00 0 0 1 275.89,158.53 L264.12,136.47 A30.00,30.00 0 0 0 250.00,80.00 Z" fill="#f1e05a" stroke="#282a36" stroke-width="1.5"/>
  <path d="M275.89,158.53 A55.00,55.00 0 0 1 217.55,154.40 L232.30,134.22 A30.00,30.00 0 0 0 264.12,136.47 Z" fill="#00ADD8" stroke="#282a36" stroke-width="1.5"/>
  <path d="M217.55,154.40 A55.00,55.00 0 0 1 203.22,138.92 L224.48,125.77 A30.00,30.00 0 0 0 232.30,134.22 Z" fill="#b07219" stroke="#282a36" stroke-width="1.5"/>
  <path d="M203.22,138.92 A55.00,55.00 0 0 1 196.23,121.59 L220.67,116.32 A30.00,30.00 0 0 0 224.48,125.77 Z" fill="#e34c26" stroke="#282a36" stroke-width="1.5"/>
  <path d="M196.23,121.59 A55.00,55.00 0 0 1 195.40,103.36 L220.22,106.38 A30.00,30.00 0 0 0 220.67,116.32 Z" fill="#3178c6" stroke="#282a36" stroke-width="1.5"/>
  <path d="M195.40,103.36 A55.00,55.00 0 0 1 199.65,87.87 L222.54,97.93 A30.00,30.00 0 0 0 220.22,106.38 Z" fill="#ff3e00" stroke="#282a36" stroke-width="1.5"/>
  <path d="M199.65,87.87 A55.00,55.00 0 0 1 250.00,55.00 L250.00,80.00 A30.00,30.00 0 0 0 222.54,97.93 Z" fill="#bd93f9" stroke="#282a36" stroke-width="1.5"/>
</svg>