<svg xmlns="http://www.w3.org/2000/svg" width="340" height="200" viewBox="0 0 340 200" font-family="'Segoe UI', Ubuntu, Sans-Serif">
  <rect x="0.5" y="0.5" width="339" height="199" rx="6" fill="#282a36" stroke="#282a36" stroke-opacity="1.00"/>
  <text x="20" y="30" font-size="15" font-weight="600" fill="#ff79c6">Most Commit Language (all time)</text>
  <rect x="20" y="47" width="10" height="10" fill="#f1e05a" stroke="#282a36" stroke-width="1"/>
  <text x="36" y="55" font-size="11" fill="#ffb86c">JavaScript 35.56%</text>
  <rect x="20" y="67" width="10" height="10" fill="#b07219" stroke="#282a36" stroke-width="1"/>
  <text x="36" y="75" font-size="11" fill="#ffb86c">Java 13.28%</text>
  <rect x="20" y="87" width="10" height="10" fill="#e34c26" stroke="#282a36" stroke-width="1"/>
  <text x="36" y="95" font-size="11" fill="#ffb86c">HTML 11.62%</text>
  <rect x="20" y="107" width="10" height="10" fill="#00ADD8" stroke="#282a36" stroke-width="1"/>
  <text x="36" y="115" font-size="11" fill="#ffb86c">Go 11.48%</text>
  <rect x="20" y="127" width="10" height="10" fill="#3572A5" stroke="#282a36" stroke-width="1"/>
  <text x="36" y="135" font-size="11" fill="#ffb86c">Python 4.04%</text>
  <rect x="20" y="147" width="10" height="10" fill="#3178c6" stroke="#282a36" stroke-width="1"/>
  <text x="36" y="155" font-size="11" fill="#ffb86c">TypeScript 3.85%</text>
  <rect x="20" y="167" width="10" height="10" fill="#bd93f9" stroke="#282a36" stroke-width="1"/>
  <text x="36" y="175" font-size="11" fill="#ffb86c">Other 20.17%</text>
  <path d="M250.00,55.00 A55.00,55.00 0 0 1 293.32,143.88 L273.63,128.48 A30.00,30.00 0 0 0 250.00,80.00 Z" fill="#f1e05a" stroke="#282a36" stroke-width="1.5"/>
  <path d="M293.32,143.88 A55.00,55.00 0 0 1 254.01,164.85 L252.19,139.92 A30.00,30.00 0 0 0 273.63,128.48 Z" fill="#b07219" stroke="#282a36" stroke-width="1.5"/>
  <path d="M254.01,164.85 A55.00,55.00 0 0 1 216.40,153.55 L231.67,133.75 A30.00,30.00 0 0 0 252.19,139.92 Z" fill="#e34c26" stroke="#282a36" stroke-width="1.5"/>
  <path d="M216.40,153.55 A55.00,55.00 0 0 1 196.02,120.52 L220.55,115.74 A30.00,30.00 0 0 0 231.67,133.75 Z" fill="#00ADD8" stroke="#282a36" stroke-width="1.5"/>
  <path d="M196.02,120.52 A55.00,55.00 0 0 1 195.10,106.63 L220.06,108.16 A30.00,30.00 0 0 0 220.55,115.74 Z" fill="#3572A5" stroke="#282a36" stroke-width="1.5"/>
  <path d="M195.10,106.63 A55.00,55.00 0 0 1 197.51,93.56 L221.37,101.03 A30.00,30.00 0 0 0 220.06,108.16 Z" fill="#3178c6" stroke="#282a36" stroke-width="1.5"/>
  <path d="M197.51,93.56 A55.00,55.00 0 0 1 250.00,55.00 L250.00,80.00 A30.00,30.00 0 0 0 221.37,101.03 Z" fill="#bd93f9" stroke="#282a36" stroke-width="1.5"/>
</svg>