<svg xmlns="http://www.w3.org/2000/svg" width="340" height="200" viewBox="0 0 340 200" font-family="'Segoe UI', Ubuntu, Sans-Serif">
  <rect x="0.5" y="0.5" width="339" height="199" rx="6" fill="#282a36" stroke="#282a36" stroke-opacity="1.00"/>
  <text x="20" y="30" font-size="15" font-weight="600" fill="#ff79c6">Most Commit Language (all time)</text>
  <rect x="20" y="47" width="10" height="10" fill="#f1e05a" stroke="#282a36" stroke-width="1"/>
  <text x="36" y="55" font-size="11" fill="#ffb86c">JavaScript 36.05%</text>
  <rect x="20" y="67" width="10" height="10" fill="#b07219" stroke="#282a36" stroke-width="1"/>
  <text x="36" y="75" font-size="11" fill="#ffb86c">Java 14.40%</text>
  <rect x="20" y="87" width="10" height="10" fill="#e34c26" stroke="#282a36" stroke-width="1"/>
  <text x="36" y="95" font-size="11" fill="#ffb86c">HTML 13.81%</text>
  <rect x="20" y="107" width="10" height="10" fill="#00ADD8" stroke="#282a36" stroke-width="1"/>
  <text x="36" y="115" font-size="11" fill="#ffb86c">Go 10.75%</text>
  <rect x="20" y="127" width="10" height="10" fill="#3572A5" stroke="#282a36" stroke-width="1"/>
  <text x="36" y="135" font-size="11" fill="#ffb86c">Python 3.89%</text>
  <rect x="20" y="147" width="10" height="10" fill="#f34b7d" stroke="#282a36" stroke-width="1"/>
  <text x="36" y="155" font-size="11" fill="#ffb86c">C++ 3.61%</text>
  <rect x="20" y="167" width="10" height="10" fill="#bd93f9" stroke="#282a36" stroke-width="1"/>
  <text x="36" y="175" font-size="11" fill="#ffb86c">Other 17.49%</text>
  <path d="M250.00,55.00 A55.00,55.00 0 0 1 292.26,145.20 L273.05,129.20 A30.00,30.00 0 0 0 250.00,80.00 Z" fill="#f1e05a" stroke="#282a36" stroke-width="1.5"/>
  <path d="M292.26,145.20 A55.00,55.00 0 0 1 248.44,164.98 L249.15,139.99 A30.00,30.00 0 0 0 273.05,129.20 Z" fill="#b07219" stroke="#282a36" stroke-width="1.5"/>
  <path d="M248.44,164.98 A55.00,55.00 0 0 1 207.05,144.35 L226.57,128.74 A30.00,30.00 0 0 0 249.15,139.99 Z" fill="#e34c26" stroke="#282a36" stroke-width="1.5"/>
  <path d="M207.05,144.35 A55.00,55.00 0 0 1 195.00,109.94 L220.00,109.97 A30.00,30.00 0 0 0 226.57,128.74 Z" fill="#00ADD8" stroke="#282a36" stroke-width="1.5"/>
  <path d="M195.00,109.94 A55.00,55.00 0 0 1 196.65,96.64 L220.90,102.71 A30.00,30.00 0 0 0 220.00,109.97 Z" fill="#3572A5" stroke="#282a36" stroke-width="1.5"/>
  <path d="M196.65,96.64 A55.00,55.00 0 0 1 201.02,84.99 L223.28,96.36 A30.00,30.00 0 0 0 220.90,102.71 Z" fill="#f34b7d" stroke="#282a36" stroke-width="1.5"/>
  <path d="M201.02,84.99 A55.00,55.00 0 0 1 250.00,55.00 L250.00,80.00 A30.00,30.00 0 0 0 223.28,96.36 Z" fill="#bd93f9" stroke="#282a36" stroke-width="1.5"/>
</svg>