<svg xmlns="http://www.w3.org/2000/svg" width="340" height="200" viewBox="0 0 340 200" font-family="'Segoe UI', Ubuntu, Sans-Serif">
  <rect x="0.5" y="0.5" width="339" height="199" rx="6" fill="#282a36" stroke="#282a36" stroke-opacity="1.00"/>
  <text x="20" y="30" font-size="15" font-weight="600" fill="#ff79c6">Most Commit Language (all time)</text>
  <rect x="20" y="47" width="10" height="10" fill="#f1e05a" stroke="#282a36" stroke-width="1"/>
  <text x="36" y="55" font-size="11" fill="#ffb86c">JavaScript 35.72%</text>
  <rect x="20" y="67" width="10" height="10" fill="#b07219" stroke="#282a36" stroke-width="1"/>
  <text x="36" y="75" font-size="11" fill="#ffb86c">Java 13.91%</text>
  <rect x="20" y="87" width="10" height="10" fill="#e34c26" stroke="#282a36" stroke-width="1"/>
  <text x="36" y="95" font-size="11" fill="#ffb86c">HTML 13.35%</text>
  <rect x="20" y="107" width="10" height="10" fill="#00ADD8" stroke="#282a36" stroke-width="1"/>
  <text x="36" y="115" font-size="11" fill="#ffb86c">Go 10.67%</text>
  <rect x="20" y="127" width="10" height="10" fill="#3178c6" stroke="#282a36" stroke-width="1"/>
  <text x="36" y="135" font-size="11" fill="#ffb86c">TypeScript 3.91%</text>
  <rect x="20" y="147" width="10" height="10" fill="#3572A5" stroke="#282a36" stroke-width="1"/>
  <text x="36" y="155" font-size="11" fill="#ffb86c">Python 3.79%</text>
  <rect x="20" y="167" width="10" height="10" fill="#bd93f9" stroke="#282a36" stroke-width="1"/>
  <text x="36" y="175" font-size="11" fill="#ffb86c">Other 18.66%</text>
  <path d="M250.00,55.00 A55.00,55.00 0 0 1 292.98,144.32 L273.44,128.72 A30.00,30.00 0 0 0 250.00,80.00 Z" fill="#f1e05a" stroke="#282a36" stroke-width="1.5"/>
  <path d="M292.98,144.32 A55.00,55.00 0 0 1 251.28,164.99 L250.70,139.99 A30.00,30.00 0 0 0 273.44,128.72 Z" fill="#b07219" stroke="#282a36" stroke-width="1.5"/>
  <path d="M251.28,164.99 A55.00,55.00 0 0 1 209.96,147.71 L228.16,130.57 A30.00,30.00 0 0 0 250.70,139.99 Z" fill="#e34c26" stroke="#282a36" stroke-width="1.5"/>
  <path d="M209.96,147.71 A55.00,55.00 0 0 1 195.20,114.68 L220.11,112.55 A30.00,30.00 0 0 0 228.16,130.57 Z" fill="#00ADD8" stroke="#282a36" stroke-width="1.5"/>
  <path d="M195.20,114.68 A55.00,55.00 0 0 1 195.70,101.23 L220.38,105.21 A30.00,30.00 0 0 0 220.11,112.55 Z" fill="#3178c6" stroke="#282a36" stroke-width="1.5"/>
  <path d="M195.70,101.23 A55.00,55.00 0 0 1 199.31,88.66 L222.35,98.36 A30.00,30.00 0 0 0 220.38,105.21 Z" fill="#3572A5" stroke="#282a36" stroke-width="1.5"/>
  <path d="M199.31,88.66 A55.00,55.00 0 0 1 250.00,55.00 L250.00,80.00 A30.00,30.00 0 0 0 222.35,98.36 Z" fill="#bd93f9" stroke="#282a36" stroke-width="1.5"/>
</svg>