<svg xmlns="http://www.w3.org/2000/svg" width="340" height="200" viewBox="0 0 340 200" font-family="'Segoe UI', Ubuntu, Sans-Serif">
  <rect x="0.5" y="0.5" width="339" height="199" rx="6" fill="#282a36" stroke="#282a36" stroke-opacity="1.00"/>
  <text x="20" y="30" font-size="15" font-weight="600" fill="#ff79c6">Most Commit Language (last year)</text>
  <rect x="20" y="47" width="10" height="10" fill="#f1e05a" stroke="#282a36" stroke-width="1"/>
  <text x="36" y="55" font-size="11" fill="#ffb86c">JavaScript 43.61%</text>
  <rect x="20" y="67" width="10" height="10" fill="#00ADD8" stroke="#282a36" stroke-width="1"/>
  <text x="36" y="75" font-size="11" fill="#ffb86c">Go 16.13%</text>
  <rect x="20" y="87" width="10" height="10" fill="#b07219" stroke="#282a36" stroke-width="1"/>
  <text x="36" y="95" font-size="11" fill="#ffb86c">Java 6.58%</text>
  <rect x="20" y="107" width="10" height="10" fill="#e34c26" stroke="#282a36" stroke-width="1"/>
  <text x="36" y="115" font-size="11" fill="#ffb86c">HTML 5.74%</text>
  <rect x="20" y="127" width="10" height="10" fill="#3178c6" stroke="#282a36" stroke-width="1"/>
  <text x="36" y="135" font-size="11" fill="#ffb86c">TypeScript 5.41%</text>
  <rect x="20" y="147" width="10" height="10" fill="#ff3e00" stroke="#282a36" stroke-width="1"/>
  <text x="36" y="155" font-size="11" fill="#ffb86c">Svelte 4.77%</text>
  <rect x="20" y="167" width="10" height="10" fill="#bd93f9" stroke="#282a36" stroke-width="1"/>
  <text x="36" y="175" font-size="11" fill="#ffb86c">Other 17.76%</text>
  <path d="M250.00,55.00 A55.00,55.00 0 0 1 271.49,160.63 L261.72,137.62 A30.00,30.00 0 0 0 250.00,80.00 Z" fill="#f1e05a" stroke="#282a36" stroke-width="1.5"/>
  <path d="M271.49,160.63 A55.00,55.00 0 0 1 218.40,155.02 L232.77,134.56 A30.00,30.00 0 0 0 261.72,137.62 Z" fill="#00ADD8" stroke="#282a36" stroke-width="1.5"/>
  <path d="M218.40,155.02 A55.00,55.00 0 0 1 202.98,138.53 L224.35,125.56 A30.00,30.00 0 0 0 232.77,134.56 Z" fill="#b07219" stroke="#282a36" stroke-width="1.5"/>
  <path d="M202.98,138.53 A55.00,55.00 0 0 1 195.93,120.09 L220.51,115.51 A30.00,30.00 0 0 0 224.35,125.56 Z" fill="#e34c26" stroke="#282a36" stroke-width="1.5"/>
  <path d="M195.93,120.09 A55.00,55.00 0 0 1 195.66,101.50 L220.36,105.36 A30.00,30.00 0 0 0 220.51,115.51 Z" fill="#3178c6" stroke="#282a36" stroke-width="1.5"/>
  <path d="M195.66,101.50 A55.00,55.00 0 0 1 200.59,85.84 L223.05,96.82 A30.00,30.00 0 0 0 220.36,105.36 Z" fill="#ff3e00" stroke="#282a36" stroke-width="1.5"/>
  <path d="M200.59,85.84 A55.00,55.00 0 0 1 250.00,55.00 L250.00,80.00 A30.00,30.00 0 0 0 223.05,96.82 Z" fill="#bd93f9" stroke="#282a36" stroke-width="1.5"/>
</svg>