<svg xmlns="http://www.w3.org/2000/svg" width="340" height="200" viewBox="0 0 340 200" font-family="'Segoe UI', Ubuntu, Sans-Serif">
  <rect x="0.5" y="0.5" width="339" height="199" rx="6" fill="#282a36" stroke="#282a36" stroke-opacity="1.00"/>
  <text x="20" y="30" font-size="15" font-weight="600" fill="#ff79c6">Most Commit Language (last year)</text>
  <rect x="20" y="47" width="10" height="10" fill="#f1e05a" stroke="#282a36" stroke-width="1"/>
  <text x="36" y="55" font-size="11" fill="#ffb86c">JavaScript 42.68%</text>
  <rect x="20" y="67" width="10" height="10" fill="#00ADD8" stroke="#282a36" stroke-width="1"/>
  <text x="36" y="75" font-size="11" fill="#ffb86c">Go 17.01%</text>
  <rect x="20" y="87" width="10" height="10" fill="#b07219" stroke="#282a36" stroke-width="1"/>
  <text x="36" y="95" font-size="11" fill="#ffb86c">Java 7.01%</text>
  <rect x="20" y="107" width="10" height="10" fill="#e34c26" stroke="#282a36" stroke-width="1"/>
  <text x="36" y="115" font-size="11" fill="#ffb86c">HTML 6.10%</text>
  <rect x="20" y="127" width="10" height="10" fill="#3178c6" stroke="#282a36" stroke-width="1"/>
  <text x="36" y="135" font-size="11" fill="#ffb86c">TypeScript 5.37%</text>
  <rect x="20" y="147" width="10" height="10" fill="#ff3e00" stroke="#282a36" stroke-width="1"/>
  <text x="36" y="155" font-size="11" fill="#ffb86c">Svelte 4.74%</text>
  <rect x="20" y="167" width="10" height="10" fill="#bd93f9" stroke="#282a36" stroke-width="1"/>
  <text x="36" y="175" font-size="11" fill="#ffb86c">Other 17.08%</text>
  <path d="M250.00,55.00 A55.00,55.00 0 0 1 274.41,159.29 L263.31,136.88 A30.00,30.00 0 0 0 250.00,80.00 Z" fill="#f1e05a" stroke="#282a36" stroke-width="1.5"/>
  <path d="M274.41,159.29 A55.00,55.00 0 0 1 218.53,155.11 L232.83,134.60 A30.00,30.00 0 0 0 263.31,136.88 Z" fill="#00ADD8" stroke="#282a36" stroke-width="1.5"/>
  <path d="M218.53,155.11 A55.00,55.00 0 0 1 202.30,137.38 L223.98,124.93 A30.00,30.00 0 0 0 232.83,134.60 Z" fill="#b07219" stroke="#282a36" stroke-width="1.5"/>
  <path d="M202.30,137.38 A55.00,55.00 0 0 1 195.52,117.54 L220.28,114.12 A30.00,30.00 0 0 0 223.98,124.93 Z" fill="#e34c26" stroke="#282a36" stroke-width="1.5"/>
  <path d="M195.52,117.54 A55.00,55.00 0 0 1 196.10,99.07 L220.60,104.04 A30.00,30.00 0 0 0 220.28,114.12 Z" fill="#3178c6" stroke="#282a36" stroke-width="1.5"/>
  <path d="M196.10,99.07 A55.00,55.00 0 0 1 201.67,83.74 L223.64,95.68 A30.00,30.00 0 0 0 220.60,104.04 Z" fill="#ff3e00" stroke="#282a36" stroke-width="1.5"/>
  <path d="M201.67,83.74 A55.00,55.00 0 0 1 250.00,55.00 L250.00,80.00 A30.00,30.00 0 0 0 223.64,95.68 Z" fill="#bd93f9" stroke="#282a36" stroke-width="1.5"/>
</svg>