<svg xmlns="http://www.w3.org/2000/svg" width="340" height="200" viewBox="0 0 340 200" font-family="'Segoe UI', Ubuntu, Sans-Serif">
  <rect x="0.5" y="0.5" width="339" height="199" rx="6" fill="#282a36" stroke="#282a36" stroke-opacity="1.00"/>
  <text x="20" y="30" font-size="15" font-weight="600" fill="#ff79c6">Most Commit Language (last year)</text>
  <rect x="20" y="47" width="10" height="10" fill="#f1e05a" stroke="#282a36" stroke-width="1"/>
  <text x="36" y="55" font-size="11" fill="#ffb86c">JavaScript 40.82%</text>
  <rect x="20" y="67" width="10" height="10" fill="#00ADD8" stroke="#282a36" stroke-width="1"/>
  <text x="36" y="75" font-size="11" fill="#ffb86c">Go 20.14%</text>
  <rect x="20" y="87" width="10" height="10" fill="#b07219" stroke="#282a36" stroke-width="1"/>
  <text x="36" y="95" font-size="11" fill="#ffb86c">Java 6.01%</text>
  <rect x="20" y="107" width="10" height="10" fill="#e34c26" stroke="#282a36" stroke-width="1"/>
  <text x="36" y="115" font-size="11" fill="#ffb86c">HTML 5.32%</text>
  <rect x="20" y="127" width="10" height="10" fill="#3178c6" stroke="#282a36" stroke-width="1"/>
  <text x="36" y="135" font-size="11" fill="#ffb86c">TypeScript 5.19%</text>
  <rect x="20" y="147" width="10" height="10" fill="#ff3e00" stroke="#282a36" stroke-width="1"/>
  <text x="36" y="155" font-size="11" fill="#ffb86c">Svelte 4.56%</text>
  <rect x="20" y="167" width="10" height="10" fill="#bd93f9" stroke="#282a36" stroke-width="1"/>
  <text x="36" y="175" font-size="11" fill="#ffb86c">Other 17.96%</text>
  <path d="M250.00,55.00 A55.00,55.00 0 0 1 280.00,156.10 L266.36,135.15 A30.00,30.00 0 0 0 250.00,80.00 Z" fill="#f1e05a" stroke="#282a36" stroke-width="1.5"/>
  <path d="M280.00,156.10 A55.00,55.00 0 0 1 215.06,152.48 L230.94,133.17 A30.00,30.00 0 0 0 266.36,135.15 Z" fill="#00ADD8" stroke="#282a36" stroke-width="1.5"/>
  <path d="M215.06,152.48 A55.00,55.00 0 0 1 201.86,136.60 L223.74,124.51 A30.00,30.00 0 0 0 230.94,133.17 Z" fill="#b07219" stroke="#282a36" stroke-width="1.5"/>
  <path d="M201.86,136.60 A55.00,55.00 0 0 1 195.80,119.34 L220.44,115.10 A30.00,30.00 0 0 0 223.74,124.51 Z" fill="#e34c26" stroke="#282a36" stroke-width="1.5"/>
  <path d="M195.80,119.34 A55.00,55.00 0 0 1 195.66,101.49 L220.36,105.36 A30.00,30.00 0 0 0 220.44,115.10 Z" fill="#3178c6" stroke="#282a36" stroke-width="1.5"/>
  <path d="M195.66,101.49 A55.00,55.00 0 0 1 200.29,86.46 L222.89,97.16 A30.00,30.00 0 0 0 220.36,105.36 Z" fill="#ff3e00" stroke="#282a36" stroke-width="1.5"/>
  <path d="M200.29,86.46 A55.00,55.00 0 0 1 250.00,55.00 L250.00,80.00 A30.00,30.00 0 0 0 222.89,97.16 Z" fill="#bd93f9" stroke="#282a36" stroke-width="1.5"/>
</svg>