<svg xmlns="http://www.w3.org/2000/svg" width="340" height="200" viewBox="0 0 340 200" font-family="'Segoe UI', Ubuntu, Sans-Serif">
  <rect x="0.5" y="0.5" width="339" height="199" rx="6" fill="#282a36" stroke="#282a36" stroke-opacity="1.00"/>
  <text x="20" y="30" font-size="15" font-weight="600" fill="#ff79c6">Most Commit Language (all time)</text>
  <rect x="20" y="47" width="10" height="10" fill="#f1e05a" stroke="#282a36" stroke-width="1"/>
  <text x="36" y="55" font-size="11" fill="#ffb86c">JavaScript 36.15%</text>
  <rect x="20" y="67" width="10" height="10" fill="#b07219" stroke="#282a36" stroke-width="1"/>
  <text x="36" y="75" font-size="11" fill="#ffb86c">Java 14.48%</text>
  <rect x="20" y="87" width="10" height="10" fill="#e34c26" stroke="#282a36" stroke-width="1"/>
  <text x="36" y="95" font-size="11" fill="#ffb86c">HTML 13.88%</text>
  <rect x="20" y="107" width="10" height="10" fill="#00ADD8" stroke="#282a36" stroke-width="1"/>
  <text x="36" y="115" font-size="11" fill="#ffb86c">Go 10.38%</text>
  <rect x="20" y="127" width="10" height="10" fill="#3572A5" stroke="#282a36" stroke-width="1"/>
  <text x="36" y="135" font-size="11" fill="#ffb86c">Python 3.91%</text>
  <rect x="20" y="147" width="10" height="10" fill="#f34b7d" stroke="#282a36" stroke-width="1"/>
  <text x="36" y="155" font-size="11" fill="#ffb86c">C++ 3.63%</text>
  <rect x="20" y="167" width="10" height="10" fill="#bd93f9" stroke="#282a36" stroke-width="1"/>
  <text x="36" y="175" font-size="11" fill="#ffb86c">Other 17.58%</text>
  <path d="M250.00,55.00 A55.00,55.00 0 0 1 292.05,145.46 L272.93,129.34 A30.00,30.00 0 0 0 250.00,80.00 Z" fill="#f1e05a" stroke="#282a36" stroke-width="1.5"/>
  <path d="M292.05,145.46 A55.00,55.00 0 0 1 247.84,164.96 L248.82,139.98 A30.00,30.00 0 0 0 272.93,129.34 Z" fill="#b07219" stroke="#282a36" stroke-width="1.5"/>
  <path d="M247.84,164.96 A55.00,55.00 0 0 1 206.52,143.68 L226.28,128.37 A30.00,30.00 0 0 0 248.82,139.98 Z" fill="#e34c26" stroke="#282a36" stroke-width="1.5"/>
  <path d="M206.52,143.68 A55.00,55.00 0 0 1 195.00,110.39 L220.00,110.21 A30.00,30.00 0 0 0 226.28,128.37 Z" fill="#00ADD8" stroke="#282a36" stroke-width="1.5"/>
  <path d="M195.00,110.39 A55.00,55.00 0 0 1 196.56,97.01 L220.85,102.91 A30.00,30.00 0 0 0 220.00,110.21 Z" fill="#3572A5" stroke="#282a36" stroke-width="1.5"/>
  <path d="M196.56,97.01 A55.00,55.00 0 0 1 200.88,85.26 L223.21,96.51 A30.00,30.00 0 0 0 220.85,102.91 Z" fill="#f34b7d" stroke="#282a36" stroke-width="1.5"/>
  <path d="M200.88,85.26 A55.00,55.00 0 0 1 250.00,55.00 L250.00,80.00 A30.00,30.00 0 0 0 223.21,96.51 Z" fill="#bd93f9" stroke="#282a36" stroke-width="1.5"/>
</svg>