<svg xmlns="http://www.w3.org/2000/svg" width="340" height="200" viewBox="0 0 340 200" font-family="'Segoe UI', Ubuntu, Sans-Serif">
  <rect x="0.5" y="0.5" width="339" height="199" rx="6" fill="#282a36" stroke="#282a36" stroke-opacity="1.00"/>
  <text x="20" y="30" font-size="15" font-weight="600" fill="#ff79c6">Most Commit Language (last year)</text>
  <rect x="20" y="47" width="10" height="10" fill="#f1e05a" stroke="#282a36" stroke-width="1"/>
  <text x="36" y="55" font-size="11" fill="#ffb86c">JavaScript 49.12%</text>
  <rect x="20" y="67" width="10" height="10" fill="#00ADD8" stroke="#282a36" stroke-width="1"/>
  <text x="36" y="75" font-size="11" fill="#ffb86c">Go 14.06%</text>
  <rect x="20" y="87" width="10" height="10" fill="#b07219" stroke="#282a36" stroke-width="1"/>
  <text x="36" y="95" font-size="11" fill="#ffb86c">Java 9.86%</text>
  <rect x="20" y="107" width="10" height="10" fill="#e34c26" stroke="#282a36" stroke-width="1"/>
  <text x="36" y="115" font-size="11" fill="#ffb86c">HTML 6.58%</text>
  <rect x="20" y="127" width="10" height="10" fill="#3178c6" stroke="#282a36" stroke-width="1"/>
  <text x="36" y="135" font-size="11" fill="#ffb86c">TypeScript 3.57%</text>
  <rect x="20" y="147" width="10" height="10" fill="#3572A5" stroke="#282a36" stroke-width="1"/>
  <text x="36" y="155" font-size="11" fill="#ffb86c">Python 3.56%</text>
  <rect x="20" y="167" width="10" height="10" fill="#bd93f9" stroke="#282a36" stroke-width="1"/>
  <text x="36" y="175" font-size="11" fill="#ffb86c">Other 13.26%</text>
  <path d="M250.00,55.00 A55.00,55.00 0 0 1 253.05,164.92 L251.66,139.95 A30.00,30.00 0 0 0 250.00,80.00 Z" fill="#f1e05a" stroke="#282a36" stroke-width="1.5"/>
  <path d="M253.05,164.92 A55.00,55.00 0 0 1 209.49,147.21 L227.91,130.29 A30.00,30.00 0 0 0 251.66,139.95 Z" fill="#00ADD8" stroke="#282a36" stroke-width="1.5"/>
  <path d="M209.49,147.21 A55.00,55.00 0 0 1 195.42,116.79 L220.23,113.70 A30.00,30.00 0 0 0 227.91,130.29 Z" fill="#b07219" stroke="#282a36" stroke-width="1.5"/>
  <path d="M195.42,116.79 A55.00,55.00 0 0 1 197.29,94.30 L221.25,101.44 A30.00,30.00 0 0 0 220.23,113.70 Z" fill="#e34c26" stroke="#282a36" stroke-width="1.5"/>
  <path d="M197.29,94.30 A55.00,55.00 0 0 1 202.10,82.97 L223.87,95.26 A30.00,30.00 0 0 0 221.25,101.44 Z" fill="#3178c6" stroke="#282a36" stroke-width="1.5"/>
  <path d="M202.10,82.97 A55.00,55.00 0 0 1 209.29,73.02 L227.80,89.83 A30.00,30.00 0 0 0 223.87,95.26 Z" fill="#3572A5" stroke="#282a36" stroke-width="1.5"/>
  <path d="M209.29,73.02 A55.00,55.00 0 0 1 250.00,55.00 L250.00,80.00 A30.00,30.00 0 0 0 227.80,89.83 Z" fill="#bd93f9" stroke="#282a36" stroke-width="1.5"/>
</svg>