<svg xmlns="http://www.w3.org/2000/svg" width="340" height="200" viewBox="0 0 340 200" font-family="'Segoe UI', Ubuntu, Sans-Serif">
  <rect x="0.5" y="0.5" width="339" height="199" rx="6" fill="#282a36" stroke="#282a36" stroke-opacity="1.00"/>
  <text x="20" y="30" font-size="15" font-weight="600" fill="#ff79c6">Most Commit Language (all time)</text>
  <rect x="20" y="47" width="10" height="10" fill="#f1e05a" stroke="#282a36" stroke-width="1"/>
  <text x="36" y="55" font-size="11" fill="#ffb86c">JavaScript 36.08%</text>
  <rect x="20" y="67" width="10" height="10" fill="#b07219" stroke="#282a36" stroke-width="1"/>
  <text x="36" y="75" font-size="11" fill="#ffb86c">Java 16.45%</text>
  <rect x="20" y="87" width="10" height="10" fill="#e34c26" stroke="#282a36" stroke-width="1"/>
  <text x="36" y="95" font-size="11" fill="#ffb86c">HTML 15.10%</text>
  <rect x="20" y="107" width="10" height="10" fill="#00ADD8" stroke="#282a36" stroke-width="1"/>
  <text x="36" y="115" font-size="11" fill="#ffb86c">Go 7.99%</text>
  <rect x="20" y="127" width="10" height="10" fill="#3572A5" stroke="#282a36" stroke-width="1"/>
  <text x="36" y="135" font-size="11" fill="#ffb86c">Python 4.24%</text>
  <rect x="20" y="147" width="10" height="10" fill="#f34b7d" stroke="#282a36" stroke-width="1"/>
  <text x="36" y="155" font-size="11" fill="#ffb86c">C++ 4.12%</text>
  <rect x="20" y="167" width="10" height="10" fill="#bd93f9" stroke="#282a36" stroke-width="1"/>
  <text x="36" y="175" font-size="11" fill="#ffb86c">Other 16.03%</text>
  <path d="M250.00,55.00 A55.00,55.00 0 0 1 292.21,145.26 L273.02,129.24 A30.00,30.00 0 0 0 250.00,80.00 Z" fill="#f1e05a" stroke="#282a36" stroke-width="1.5"/>
  <path d="M292.21,145.26 A55.00,55.00 0 0 1 241.31,164.31 L245.26,139.62 A30.00,30.00 0 0 0 273.02,129.24 Z" fill="#b07219" stroke="#282a36" stroke-width="1.5"/>
  <path d="M241.31,164.31 A55.00,55.00 0 0 1 200.80,134.58 L223.16,123.41 A30.00,30.00 0 0 0 245.26,139.62 Z" fill="#e34c26" stroke="#282a36" stroke-width="1.5"/>
  <path d="M200.80,134.58 A55.00,55.00 0 0 1 195.04,107.89 L220.02,108.85 A30.00,30.00 0 0 0 223.16,123.41 Z" fill="#00ADD8" stroke="#282a36" stroke-width="1.5"/>
  <path d="M195.04,107.89 A55.00,55.00 0 0 1 197.53,93.50 L221.38,101.00 A30.00,30.00 0 0 0 220.02,108.85 Z" fill="#3572A5" stroke="#282a36" stroke-width="1.5"/>
  <path d="M197.53,93.50 A55.00,55.00 0 0 1 203.52,80.60 L224.64,93.97 A30.00,30.00 0 0 0 221.38,101.00 Z" fill="#f34b7d" stroke="#282a36" stroke-width="1.5"/>
  <path d="M203.52,80.60 A55.00,55.00 0 0 1 250.00,55.00 L250.00,80.00 A30.00,30.00 0 0 0 224.64,93.97 Z" fill="#bd93f9" stroke="#282a36" stroke-width="1.5"/>
</svg>