<svg xmlns="http://www.w3.org/2000/svg" width="340" height="200" viewBox="0 0 340 200" font-family="'Segoe UI', Ubuntu, Sans-Serif">
  <rect x="0.5" y="0.5" width="339" height="199" rx="6" fill="#282a36" stroke="#282a36" stroke-opacity="1.00"/>
  <text x="20" y="30" font-size="15" font-weight="600" fill="#ff79c6">Most Commit Language (all time)</text>
  <rect x="20" y="47" width="10" height="10" fill="#f1e05a" stroke="#282a36" stroke-width="1"/>
  <text x="36" y="55" font-size="11" fill="#ffb86c">JavaScript 35.59%</text>
  <rect x="20" y="67" width="10" height="10" fill="#b07219" stroke="#282a36" stroke-width="1"/>
  <text x="36" y="75" font-size="11" fill="#ffb86c">Java 12.73%</text>
  <rect x="20" y="87" width="10" height="10" fill="#00ADD8" stroke="#282a36" stroke-width="1"/>
  <text x="36" y="95" font-size="11" fill="#ffb86c">Go 12.24%</text>
  <rect x="20" y="107" width="10" height="10" fill="#e34c26" stroke="#282a36" stroke-width="1"/>
  <text x="36" y="115" font-size="11" fill="#ffb86c">HTML 11.47%</text>
  <rect x="20" y="127" width="10" height="10" fill="#3572A5" stroke="#282a36" stroke-width="1"/>
  <text x="36" y="135" font-size="11" fill="#ffb86c">Python 4.01%</text>
  <rect x="20" y="147" width="10" height="10" fill="#3178c6" stroke="#282a36" stroke-width="1"/>
  <text x="36" y="155" font-size="11" fill="#ffb86c">TypeScript 3.91%</text>
  <rect x="20" y="167" width="10" height="10" fill="#bd93f9" stroke="#282a36" stroke-width="1"/>
  <text x="36" y="175" font-size="11" fill="#ffb86c">Other 20.04%</text>
  <path d="M250.00,55.00 A55.00,55.00 0 0 1 293.27,143.95 L273.60,128.52 A30.00,30.00 0 0 0 250.00,80.00 Z" fill="#f1e05a" stroke="#282a36" stroke-width="1.5"/>
  <path d="M293.27,143.95 A55.00,55.00 0 0 1 255.78,164.70 L253.15,139.83 A30.00,30.00 0 0 0 273.60,128.52 Z" fill="#b07219" stroke="#282a36" stroke-width="1.5"/>
  <path d="M255.78,164.70 A55.00,55.00 0 0 1 216.13,153.33 L231.52,133.63 A30.00,30.00 0 0 0 253.15,139.83 Z" fill="#00ADD8" stroke="#282a36" stroke-width="1.5"/>
  <path d="M216.13,153.33 A55.00,55.00 0 0 1 195.95,120.20 L220.52,115.57 A30.00,30.00 0 0 0 231.52,133.63 Z" fill="#e34c26" stroke="#282a36" stroke-width="1.5"/>
  <path d="M195.95,120.20 A55.00,55.00 0 0 1 195.12,106.40 L220.06,108.04 A30.00,30.00 0 0 0 220.52,115.57 Z" fill="#3572A5" stroke="#282a36" stroke-width="1.5"/>
  <path d="M195.12,106.40 A55.00,55.00 0 0 1 197.65,93.15 L221.44,100.81 A30.00,30.00 0 0 0 220.06,108.04 Z" fill="#3178c6" stroke="#282a36" stroke-width="1.5"/>
  <path d="M197.65,93.15 A55.00,55.00 0 0 1 250.00,55.00 L250.00,80.00 A30.00,30.00 0 0 0 221.44,100.81 Z" fill="#bd93f9" stroke="#282a36" stroke-width="1.5"/>
</svg>