<svg xmlns="http://www.w3.org/2000/svg" width="340" height="200" viewBox="0 0 340 200" font-family="'Segoe UI', Ubuntu, Sans-Serif">
  <rect x="0.5" y="0.5" width="339" height="199" rx="6" fill="#282a36" stroke="#282a36" stroke-opacity="1.00"/>
  <text x="20" y="30" font-size="15" font-weight="600" fill="#ff79c6">Most Commit Language (all time)</text>
  <rect x="20" y="47" width="10" height="10" fill="#f1e05a" stroke="#282a36" stroke-width="1"/>
  <text x="36" y="55" font-size="11" fill="#ffb86c">JavaScript 35.00%</text>
  <rect x="20" y="67" width="10" height="10" fill="#00ADD8" stroke="#282a36" stroke-width="1"/>
  <text x="36" y="75" font-size="11" fill="#ffb86c">Go 15.84%</text>
  <rect x="20" y="87" width="10" height="10" fill="#b07219" stroke="#282a36" stroke-width="1"/>
  <text x="36" y="95" font-size="11" fill="#ffb86c">Java 11.75%</text>
  <rect x="20" y="107" width="10" height="10" fill="#e34c26" stroke="#282a36" stroke-width="1"/>
  <text x="36" y="115" font-size="11" fill="#ffb86c">HTML 10.58%</text>
  <rect x="20" y="127" width="10" height="10" fill="#3572A5" stroke="#282a36" stroke-width="1"/>
  <text x="36" y="135" font-size="11" fill="#ffb86c">Python 4.84%</text>
  <rect x="20" y="147" width="10" height="10" fill="#3178c6" stroke="#282a36" stroke-width="1"/>
  <text x="36" y="155" font-size="11" fill="#ffb86c">TypeScript 3.96%</text>
  <rect x="20" y="167" width="10" height="10" fill="#bd93f9" stroke="#282a36" stroke-width="1"/>
  <text x="36" y="175" font-size="11" fill="#ffb86c">Other 18.02%</text>
  <path d="M250.00,55.00 A55.00,55.00 0 0 1 294.50,142.33 L274.27,127.63 A30.00,30.00 0 0 0 250.00,80.00 Z" fill="#f1e05a" stroke="#282a36" stroke-width="1.5"/>
  <path d="M294.50,142.33 A55.00,55.00 0 0 1 247.09,164.92 L248.41,139.96 A30.00,30.00 0 0 0 274.27,127.63 Z" fill="#00ADD8" stroke="#282a36" stroke-width="1.5"/>
  <path d="M247.09,164.92 A55.00,55.00 0 0 1 210.88,148.66 L228.66,131.09 A30.00,30.00 0 0 0 248.41,139.96 Z" fill="#b07219" stroke="#282a36" stroke-width="1.5"/>
  <path d="M210.88,148.66 A55.00,55.00 0 0 1 195.36,116.29 L220.20,113.43 A30.00,30.00 0 0 0 228.66,131.09 Z" fill="#e34c26" stroke="#282a36" stroke-width="1.5"/>
  <path d="M195.36,116.29 A55.00,55.00 0 0 1 195.98,99.64 L220.54,104.35 A30.00,30.00 0 0 0 220.20,113.43 Z" fill="#3572A5" stroke="#282a36" stroke-width="1.5"/>
  <path d="M195.98,99.64 A55.00,55.00 0 0 1 200.20,86.65 L222.84,97.27 A30.00,30.00 0 0 0 220.54,104.35 Z" fill="#3178c6" stroke="#282a36" stroke-width="1.5"/>
  <path d="M200.20,86.65 A55.00,55.00 0 0 1 250.00,55.00 L250.00,80.00 A30.00,30.00 0 0 0 222.84,97.27 Z" fill="#bd93f9" stroke="#282a36" stroke-width="1.5"/>
</svg>