<svg xmlns="http://www.w3.org/2000/svg" width="340" height="200" viewBox="0 0 340 200" font-family="'Segoe UI', Ubuntu, Sans-Serif">
  <rect x="0.5" y="0.5" width="339" height="199" rx="6" fill="#282a36" stroke="#282a36" stroke-opacity="1.00"/>
  <text x="20" y="30" font-size="15" font-weight="600" fill="#ff79c6">Most Commit Language (last year)</text>
  <rect x="20" y="47" width="10" height="10" fill="#f1e05a" stroke="#282a36" stroke-width="1"/>
  <text x="36" y="55" font-size="11" fill="#ffb86c">JavaScript 45.47%</text>
  <rect x="20" y="67" width="10" height="10" fill="#00ADD8" stroke="#282a36" stroke-width="1"/>
  <text x="36" y="75" font-size="11" fill="#ffb86c">Go 14.53%</text>
  <rect x="20" y="87" width="10" height="10" fill="#b07219" stroke="#282a36" stroke-width="1"/>
  <text x="36" y="95" font-size="11" fill="#ffb86c">Java 10.29%</text>
  <rect x="20" y="107" width="10" height="10" fill="#e34c26" stroke="#282a36" stroke-width="1"/>
  <text x="36" y="115" font-size="11" fill="#ffb86c">HTML 9.32%</text>
  <rect x="20" y="127" width="10" height="10" fill="#3178c6" stroke="#282a36" stroke-width="1"/>
  <text x="36" y="135" font-size="11" fill="#ffb86c">TypeScript 3.71%</text>
  <rect x="20" y="147" width="10" height="10" fill="#384d54" stroke="#282a36" stroke-width="1"/>
  <text x="36" y="155" font-size="11" fill="#ffb86c">Dockerfile 3.43%</text>
  <rect x="20" y="167" width="10" height="10" fill="#bd93f9" stroke="#282a36" stroke-width="1"/>
  <text x="36" y="175" font-size="11" fill="#ffb86c">Other 13.24%</text>
  <path d="M250.00,55.00 A55.00,55.00 0 0 1 265.43,162.79 L258.42,138.79 A30.00,30.00 0 0 0 250.00,80.00 Z" fill="#f1e05a" stroke="#282a36" stroke-width="1.5"/>
  <path d="M265.43,162.79 A55.00,55.00 0 0 1 217.66,154.49 L232.36,134.26 A30.00,30.00 0 0 0 258.42,138.79 Z" fill="#00ADD8" stroke="#282a36" stroke-width="1.5"/>
  <path d="M217.66,154.49 A55.00,55.00 0 0 1 197.38,126.02 L221.30,118.74 A30.00,30.00 0 0 0 232.36,134.26 Z" fill="#b07219" stroke="#282a36" stroke-width="1.5"/>
  <path d="M197.38,126.02 A55.00,55.00 0 0 1 197.30,94.27 L221.25,101.42 A30.00,30.00 0 0 0 221.30,118.74 Z" fill="#e34c26" stroke="#282a36" stroke-width="1.5"/>
  <path d="M197.30,94.27 A55.00,55.00 0 0 1 202.35,82.53 L224.01,95.02 A30.00,30.00 0 0 0 221.25,101.42 Z" fill="#3178c6" stroke="#282a36" stroke-width="1.5"/>
  <path d="M202.35,82.53 A55.00,55.00 0 0 1 209.33,72.97 L227.82,89.80 A30.00,30.00 0 0 0 224.01,95.02 Z" fill="#384d54" stroke="#282a36" stroke-width="1.5"/>
  <path d="M209.33,72.97 A55.00,55.00 0 0 1 250.00,55.00 L250.00,80.00 A30.00,30.00 0 0 0 227.82,89.80 Z" fill="#bd93f9" stroke="#282a36" stroke-width="1.5"/>
</svg>