<svg xmlns="http://www.w3.org/2000/svg" width="340" height="200" viewBox="0 0 340 200" font-family="'Segoe UI', Ubuntu, Sans-Serif">
  <rect x="0.5" y="0.5" width="339" height="199" rx="6" fill="#282a36" stroke="#282a36" stroke-opacity="1.00"/>
  <text x="20" y="30" font-size="15" font-weight="600" fill="#ff79c6">Most Commit Language (last year)</text>
  <rect x="20" y="47" width="10" height="10" fill="#f1e05a" stroke="#282a36" stroke-width="1"/>
  <text x="36" y="55" font-size="11" fill="#ffb86c">JavaScript 39.71%</text>
  <rect x="20" y="67" width="10" height="10" fill="#00ADD8" stroke="#282a36" stroke-width="1"/>
  <text x="36" y="75" font-size="11" fill="#ffb86c">Go 21.89%</text>
  <rect x="20" y="87" width="10" height="10" fill="#b07219" stroke="#282a36" stroke-width="1"/>
  <text x="36" y="95" font-size="11" fill="#ffb86c">Java 5.76%</text>
  <rect x="20" y="107" width="10" height="10" fill="#e34c26" stroke="#282a36" stroke-width="1"/>
  <text x="36" y="115" font-size="11" fill="#ffb86c">HTML 5.07%</text>
  <rect x="20" y="127" width="10" height="10" fill="#3178c6" stroke="#282a36" stroke-width="1"/>
  <text x="36" y="135" font-size="11" fill="#ffb86c">TypeScript 5.02%</text>
  <rect x="20" y="147" width="10" height="10" fill="#3572A5" stroke="#282a36" stroke-width="1"/>
  <text x="36" y="155" font-size="11" fill="#ffb86c">Python 4.86%</text>
  <rect x="20" y="167" width="10" height="10" fill="#bd93f9" stroke="#282a36" stroke-width="1"/>
  <text x="36" y="175" font-size="11" fill="#ffb86c">Other 17.70%</text>
  <path d="M250.00,55.00 A55.00,55.00 0 0 1 283.14,153.90 L268.07,133.94 A30.00,30.00 0 0 0 250.00,80.00 Z" fill="#f1e05a" stroke="#282a36" stroke-width="1.5"/>
  <path d="M283.14,153.90 A55.00,55.00 0 0 1 213.38,151.03 L230.02,132.38 A30.00,30.00 0 0 0 268.07,133.94 Z" fill="#00ADD8" stroke="#282a36" stroke-width="1.5"/>
  <path d="M213.38,151.03 A55.00,55.00 0 0 1 201.23,135.42 L223.40,123.86 A30.00,30.00 0 0 0 230.02,132.38 Z" fill="#b07219" stroke="#282a36" stroke-width="1.5"/>
  <path d="M201.23,135.42 A55.00,55.00 0 0 1 195.72,118.87 L220.39,114.84 A30.00,30.00 0 0 0 223.40,123.86 Z" fill="#e34c26" stroke="#282a36" stroke-width="1.5"/>
  <path d="M195.72,118.87 A55.00,55.00 0 0 1 195.64,101.61 L220.35,105.42 A30.00,30.00 0 0 0 220.39,114.84 Z" fill="#3178c6" stroke="#282a36" stroke-width="1.5"/>
  <path d="M195.64,101.61 A55.00,55.00 0 0 1 200.68,85.66 L223.10,96.72 A30.00,30.00 0 0 0 220.35,105.42 Z" fill="#3572A5" stroke="#282a36" stroke-width="1.5"/>
  <path d="M200.68,85.66 A55.00,55.00 0 0 1 250.00,55.00 L250.00,80.00 A30.00,30.00 0 0 0 223.10,96.72 Z" fill="#bd93f9" stroke="#282a36" stroke-width="1.5"/>
</svg>