<svg xmlns="http://www.w3.org/2000/svg" width="340" height="200" viewBox="0 0 340 200" font-family="'Segoe UI', Ubuntu, Sans-Serif">
  <rect x="0.5" y="0.5" width="339" height="199" rx="6" fill="#282a36" stroke="#282a36" stroke-opacity="1.00"/>
  <text x="20" y="30" font-size="15" font-weight="600" fill="#ff79c6">Most Commit Language (all time)</text>
  <rect x="20" y="47" width="10" height="10" fill="#f1e05a" stroke="#282a36" stroke-width="1"/>
  <text x="36" y="55" font-size="11" fill="#ffb86c">JavaScript 34.96%</text>
  <rect x="20" y="67" width="10" height="10" fill="#00ADD8" stroke="#282a36" stroke-width="1"/>
  <text x="36" y="75" font-size="11" fill="#ffb86c">Go 15.93%</text>
  <rect x="20" y="87" width="10" height="10" fill="#b07219" stroke="#282a36" stroke-width="1"/>
  <text x="36" y="95" font-size="11" fill="#ffb86c">Java 11.74%</text>
  <rect x="20" y="107" width="10" height="10" fill="#e34c26" stroke="#282a36" stroke-width="1"/>
  <text x="36" y="115" font-size="11" fill="#ffb86c">HTML 10.49%</text>
  <rect x="20" y="127" width="10" height="10" fill="#3572A5" stroke="#282a36" stroke-width="1"/>
  <text x="36" y="135" font-size="11" fill="#ffb86c">Python 4.90%</text>
  <rect x="20" y="147" width="10" height="10" fill="#3178c6" stroke="#282a36" stroke-width="1"/>
  <text x="36" y="155" font-size="11" fill="#ffb86c">TypeScript 3.96%</text>
  <rect x="20" y="167" width="10" height="10" fill="#bd93f9" stroke="#282a36" stroke-width="1"/>
  <text x="36" y="175" font-size="11" fill="#ffb86c">Other 18.02%</text>
  <path d="M250.00,55.00 A55.00,55.00 0 0 1 294.57,142.22 L274.31,127.58 A30.00,30.00 0 0 0 250.00,80.00 Z" fill="#f1e05a" stroke="#282a36" stroke-width="1.5"/>
  <path d="M294.57,142.22 A55.00,55.00 0 0 1 246.92,164.91 L248.32,139.95 A30.00,30.00 0 0 0 274.31,127.58 Z" fill="#00ADD8" stroke="#282a36" stroke-width="1.5"/>
  <path d="M246.92,164.91 A55.00,55.00 0 0 1 210.80,148.57 L228.62,131.04 A30.00,30.00 0 0 0 248.32,139.95 Z" fill="#b07219" stroke="#282a36" stroke-width="1.5"/>
  <path d="M210.80,148.57 A55.00,55.00 0 0 1 195.38,116.47 L220.21,113.53 A30.00,30.00 0 0 0 228.62,131.04 Z" fill="#e34c26" stroke="#282a36" stroke-width="1.5"/>
  <path d="M195.38,116.47 A55.00,55.00 0 0 1 195.99,99.62 L220.54,104.34 A30.00,30.00 0 0 0 220.21,113.53 Z" fill="#3572A5" stroke="#282a36" stroke-width="1.5"/>
  <path d="M195.99,99.62 A55.00,55.00 0 0 1 200.20,86.65 L222.84,97.26 A30.00,30.00 0 0 0 220.54,104.34 Z" fill="#3178c6" stroke="#282a36" stroke-width="1.5"/>
  <path d="M200.20,86.65 A55.00,55.00 0 0 1 250.00,55.00 L250.00,80.00 A30.00,30.00 0 0 0 222.84,97.26 Z" fill="#bd93f9" stroke="#282a36" stroke-width="1.5"/>
</svg>