<svg xmlns="http://www.w3.org/2000/svg" width="340" height="200" viewBox="0 0 340 200" font-family="'Segoe UI', Ubuntu, Sans-Serif">
  <rect x="0.5" y="0.5" width="339" height="199" rx="6" fill="#282a36" stroke="#282a36" stroke-opacity="1.00"/>
  <text x="20" y="30" font-size="15" font-weight="600" fill="#ff79c6">Most Commit Language (all time)</text>
  <rect x="20" y="47" width="10" height="10" fill="#f1e05a" stroke="#282a36" stroke-width="1"/>
  <text x="36" y="55" font-size="11" fill="#ffb86c">JavaScript 35.66%</text>
  <rect x="20" y="67" width="10" height="10" fill="#b07219" stroke="#282a36" stroke-width="1"/>
  <text x="36" y="75" font-size="11" fill="#ffb86c">Java 12.85%</text>
  <rect x="20" y="87" width="10" height="10" fill="#00ADD8" stroke="#282a36" stroke-width="1"/>
  <text x="36" y="95" font-size="11" fill="#ffb86c">Go 11.97%</text>
  <rect x="20" y="107" width="10" height="10" fill="#e34c26" stroke="#282a36" stroke-width="1"/>
  <text x="36" y="115" font-size="11" fill="#ffb86c">HTML 11.57%</text>
  <rect x="20" y="127" width="10" height="10" fill="#3572A5" stroke="#282a36" stroke-width="1"/>
  <text x="36" y="135" font-size="11" fill="#ffb86c">Python 4.02%</text>
  <rect x="20" y="147" width="10" height="10" fill="#3178c6" stroke="#282a36" stroke-width="1"/>
  <text x="36" y="155" font-size="11" fill="#ffb86c">TypeScript 3.84%</text>
  <rect x="20" y="167" width="10" height="10" fill="#bd93f9" stroke="#282a36" stroke-width="1"/>
  <text x="36" y="175" font-size="11" fill="#ffb86c">Other 20.10%</text>
  <path d="M250.00,55.00 A55.00,55.00 0 0 1 293.11,144.15 L273.52,128.63 A30.00,30.00 0 0 0 250.00,80.00 Z" fill="#f1e05a" stroke="#282a36" stroke-width="1.5"/>
  <path d="M293.11,144.15 A55.00,55.00 0 0 1 255.15,164.76 L252.81,139.87 A30.00,30.00 0 0 0 273.52,128.63 Z" fill="#b07219" stroke="#282a36" stroke-width="1.5"/>
  <path d="M255.15,164.76 A55.00,55.00 0 0 1 216.34,153.50 L231.64,133.73 A30.00,30.00 0 0 0 252.81,139.87 Z" fill="#00ADD8" stroke="#282a36" stroke-width="1.5"/>
  <path d="M216.34,153.50 A55.00,55.00 0 0 1 195.94,120.15 L220.52,115.54 A30.00,30.00 0 0 0 231.64,133.73 Z" fill="#e34c26" stroke="#282a36" stroke-width="1.5"/>
  <path d="M195.94,120.15 A55.00,55.00 0 0 1 195.12,106.32 L220.07,107.99 A30.00,30.00 0 0 0 220.52,115.54 Z" fill="#3572A5" stroke="#282a36" stroke-width="1.5"/>
  <path d="M195.12,106.32 A55.00,55.00 0 0 1 197.59,93.32 L221.41,100.90 A30.00,30.00 0 0 0 220.07,107.99 Z" fill="#3178c6" stroke="#282a36" stroke-width="1.5"/>
  <path d="M197.59,93.32 A55.00,55.00 0 0 1 250.00,55.00 L250.00,80.00 A30.00,30.00 0 0 0 221.41,100.90 Z" fill="#bd93f9" stroke="#282a36" stroke-width="1.5"/>
</svg>