<svg xmlns="http://www.w3.org/2000/svg" width="340" height="200" viewBox="0 0 340 200" font-family="'Segoe UI', Ubuntu, Sans-Serif">
  <rect x="0.5" y="0.5" width="339" height="199" rx="6" fill="#282a36" stroke="#282a36" stroke-opacity="1.00"/>
  <text x="20" y="30" font-size="15" font-weight="600" fill="#ff79c6">Most Commit Language (all time)</text>
  <rect x="20" y="47" width="10" height="10" fill="#f1e05a" stroke="#282a36" stroke-width="1"/>
  <text x="36" y="55" font-size="11" fill="#ffb86c">JavaScript 36.48%</text>
  <rect x="20" y="67" width="10" height="10" fill="#b07219" stroke="#282a36" stroke-width="1"/>
  <text x="36" y="75" font-size="11" fill="#ffb86c">Java 14.66%</text>
  <rect x="20" y="87" width="10" height="10" fill="#e34c26" stroke="#282a36" stroke-width="1"/>
  <text x="36" y="95" font-size="11" fill="#ffb86c">HTML 14.10%</text>
  <rect x="20" y="107" width="10" height="10" fill="#00ADD8" stroke="#282a36" stroke-width="1"/>
  <text x="36" y="115" font-size="11" fill="#ffb86c">Go 10.21%</text>
  <rect x="20" y="127" width="10" height="10" fill="#3572A5" stroke="#282a36" stroke-width="1"/>
  <text x="36" y="135" font-size="11" fill="#ffb86c">Python 4.02%</text>
  <rect x="20" y="147" width="10" height="10" fill="#f34b7d" stroke="#282a36" stroke-width="1"/>
  <text x="36" y="155" font-size="11" fill="#ffb86c">C++ 3.74%</text>
  <rect x="20" y="167" width="10" height="10" fill="#bd93f9" stroke="#282a36" stroke-width="1"/>
  <text x="36" y="175" font-size="11" fill="#ffb86c">Other 16.80%</text>
  <path d="M250.00,55.00 A55.00,55.00 0 0 1 291.30,146.32 L272.53,129.81 A30.00,30.00 0 0 0 250.00,80.00 Z" fill="#f1e05a" stroke="#282a36" stroke-width="1.5"/>
  <path d="M291.30,146.32 A55.00,55.00 0 0 1 246.06,164.86 L247.85,139.92 A30.00,30.00 0 0 0 272.53,129.81 Z" fill="#b07219" stroke="#282a36" stroke-width="1.5"/>
  <path d="M246.06,164.86 A55.00,55.00 0 0 1 205.03,141.66 L225.47,127.27 A30.00,30.00 0 0 0 247.85,139.92 Z" fill="#e34c26" stroke="#282a36" stroke-width="1.5"/>
  <path d="M205.03,141.66 A55.00,55.00 0 0 1 195.02,108.47 L220.01,109.17 A30.00,30.00 0 0 0 225.47,127.27 Z" fill="#00ADD8" stroke="#282a36" stroke-width="1.5"/>
  <path d="M195.02,108.47 A55.00,55.00 0 0 1 197.14,94.79 L221.17,101.70 A30.00,30.00 0 0 0 220.01,109.17 Z" fill="#3572A5" stroke="#282a36" stroke-width="1.5"/>
  <path d="M197.14,94.79 A55.00,55.00 0 0 1 202.14,82.90 L223.89,95.22 A30.00,30.00 0 0 0 221.17,101.70 Z" fill="#f34b7d" stroke="#282a36" stroke-width="1.5"/>
  <path d="M202.14,82.90 A55.00,55.00 0 0 1 250.00,55.00 L250.00,80.00 A30.00,30.00 0 0 0 223.89,95.22 Z" fill="#bd93f9" stroke="#282a36" stroke-width="1.5"/>
</svg>