<svg xmlns="http://www.w3.org/2000/svg" width="340" height="200" viewBox="0 0 340 200" font-family="'Segoe UI', Ubuntu, Sans-Serif">
  <rect x="0.5" y="0.5" width="339" height="199" rx="6" fill="#282a36" stroke="#282a36" stroke-opacity="1.00"/>
  <text x="20" y="30" font-size="15" font-weight="600" fill="#ff79c6">Most Commit Language (last year)</text>
  <rect x="20" y="47" width="10" height="10" fill="#f1e05a" stroke="#282a36" stroke-width="1"/>
  <text x="36" y="55" font-size="11" fill="#ffb86c">JavaScript 46.95%</text>
  <rect x="20" y="67" width="10" height="10" fill="#00ADD8" stroke="#282a36" stroke-width="1"/>
  <text x="36" y="75" font-size="11" fill="#ffb86c">Go 13.92%</text>
  <rect x="20" y="87" width="10" height="10" fill="#b07219" stroke="#282a36" stroke-width="1"/>
  <text x="36" y="95" font-size="11" fill="#ffb86c">Java 8.70%</text>
  <rect x="20" y="107" width="10" height="10" fill="#e34c26" stroke="#282a36" stroke-width="1"/>
  <text x="36" y="115" font-size="11" fill="#ffb86c">HTML 6.26%</text>
  <rect x="20" y="127" width="10" height="10" fill="#ff3e00" stroke="#282a36" stroke-width="1"/>
  <text x="36" y="135" font-size="11" fill="#ffb86c">Svelte 4.88%</text>
  <rect x="20" y="147" width="10" height="10" fill="#3178c6" stroke="#282a36" stroke-width="1"/>
  <text x="36" y="155" font-size="11" fill="#ffb86c">TypeScript 3.52%</text>
  <rect x="20" y="167" width="10" height="10" fill="#bd93f9" stroke="#282a36" stroke-width="1"/>
  <text x="36" y="175" font-size="11" fill="#ffb86c">Other 15.77%</text>
  <path d="M250.00,55.00 A55.00,55.00 0 0 1 260.46,164.00 L255.71,139.45 A30.00,30.00 0 0 0 250.00,80.00 Z" fill="#f1e05a" stroke="#282a36" stroke-width="1.5"/>
  <path d="M260.46,164.00 A55.00,55.00 0 0 1 215.28,152.66 L231.06,133.27 A30.00,30.00 0 0 0 255.71,139.45 Z" fill="#00ADD8" stroke="#282a36" stroke-width="1.5"/>
  <path d="M215.28,152.66 A55.00,55.00 0 0 1 198.17,128.39 L221.73,120.03 A30.00,30.00 0 0 0 231.06,133.27 Z" fill="#b07219" stroke="#282a36" stroke-width="1.5"/>
  <path d="M198.17,128.39 A55.00,55.00 0 0 1 195.07,107.13 L220.04,108.44 A30.00,30.00 0 0 0 221.73,120.03 Z" fill="#e34c26" stroke="#282a36" stroke-width="1.5"/>
  <path d="M195.07,107.13 A55.00,55.00 0 0 1 198.50,90.68 L221.91,99.46 A30.00,30.00 0 0 0 220.04,108.44 Z" fill="#ff3e00" stroke="#282a36" stroke-width="1.5"/>
  <path d="M198.50,90.68 A55.00,55.00 0 0 1 203.99,79.86 L224.91,93.56 A30.00,30.00 0 0 0 221.91,99.46 Z" fill="#3178c6" stroke="#282a36" stroke-width="1.5"/>
  <path d="M203.99,79.86 A55.00,55.00 0 0 1 250.00,55.00 L250.00,80.00 A30.00,30.00 0 0 0 224.91,93.56 Z" fill="#bd93f9" stroke="#282a36" stroke-width="1.5"/>
</svg>