<svg xmlns="http://www.w3.org/2000/svg" width="340" height="200" viewBox="0 0 340 200" font-family="'Segoe UI', Ubuntu, Sans-Serif">
  <rect x="0.5" y="0.5" width="339" height="199" rx="6" fill="#282a36" stroke="#282a36" stroke-opacity="1.00"/>
  <text x="20" y="30" font-size="15" font-weight="600" fill="#ff79c6">Most Commit Language (last year)</text>
  <rect x="20" y="47" width="10" height="10" fill="#f1e05a" stroke="#282a36" stroke-width="1"/>
  <text x="36" y="55" font-size="11" fill="#ffb86c">JavaScript 43.84%</text>
  <rect x="20" y="67" width="10" height="10" fill="#00ADD8" stroke="#282a36" stroke-width="1"/>
  <text x="36" y="75" font-size="11" fill="#ffb86c">Go 16.23%</text>
  <rect x="20" y="87" width="10" height="10" fill="#b07219" stroke="#282a36" stroke-width="1"/>
  <text x="36" y="95" font-size="11" fill="#ffb86c">Java 6.62%</text>
  <rect x="20" y="107" width="10" height="10" fill="#e34c26" stroke="#282a36" stroke-width="1"/>
  <text x="36" y="115" font-size="11" fill="#ffb86c">HTML 5.78%</text>
  <rect x="20" y="127" width="10" height="10" fill="#3178c6" stroke="#282a36" stroke-width="1"/>
  <text x="36" y="135" font-size="11" fill="#ffb86c">TypeScript 5.44%</text>
  <rect x="20" y="147" width="10" height="10" fill="#ff3e00" stroke="#282a36" stroke-width="1"/>
  <text x="36" y="155" font-size="11" fill="#ffb86c">Svelte 4.80%</text>
  <rect x="20" y="167" width="10" height="10" fill="#bd93f9" stroke="#282a36" stroke-width="1"/>
  <text x="36" y="175" font-size="11" fill="#ffb86c">Other 17.29%</text>
  <path d="M250.00,55.00 A55.00,55.00 0 0 1 270.74,160.94 L261.32,137.78 A30.00,30.00 0 0 0 250.00,80.00 Z" fill="#f1e05a" stroke="#282a36" stroke-width="1.5"/>
  <path d="M270.74,160.94 A55.00,55.00 0 0 1 217.47,154.35 L232.25,134.19 A30.00,30.00 0 0 0 261.32,137.78 Z" fill="#00ADD8" stroke="#282a36" stroke-width="1.5"/>
  <path d="M217.47,154.35 A55.00,55.00 0 0 1 202.32,137.42 L223.99,124.96 A30.00,30.00 0 0 0 232.25,134.19 Z" fill="#b07219" stroke="#282a36" stroke-width="1.5"/>
  <path d="M202.32,137.42 A55.00,55.00 0 0 1 195.69,118.70 L220.38,114.75 A30.00,30.00 0 0 0 223.99,124.96 Z" fill="#e34c26" stroke="#282a36" stroke-width="1.5"/>
  <path d="M195.69,118.70 A55.00,55.00 0 0 1 195.92,99.99 L220.50,104.54 A30.00,30.00 0 0 0 220.38,114.75 Z" fill="#3178c6" stroke="#282a36" stroke-width="1.5"/>
  <path d="M195.92,99.99 A55.00,55.00 0 0 1 201.33,84.39 L223.45,96.03 A30.00,30.00 0 0 0 220.50,104.54 Z" fill="#ff3e00" stroke="#282a36" stroke-width="1.5"/>
  <path d="M201.33,84.39 A55.00,55.00 0 0 1 250.00,55.00 L250.00,80.00 A30.00,30.00 0 0 0 223.45,96.03 Z" fill="#bd93f9" stroke="#282a36" stroke-width="1.5"/>
</svg>