<svg xmlns="http://www.w3.org/2000/svg" width="340" height="200" viewBox="0 0 340 200" font-family="'Segoe UI', Ubuntu, Sans-Serif">
  <rect x="0.5" y="0.5" width="339" height="199" rx="6" fill="#282a36" stroke="#282a36" stroke-opacity="1.00"/>
  <text x="20" y="30" font-size="15" font-weight="600" fill="#ff79c6">Most Commit Language (all time)</text>
  <rect x="20" y="47" width="10" height="10" fill="#f1e05a" stroke="#282a36" stroke-width="1"/>
  <text x="36" y="55" font-size="11" fill="#ffb86c">JavaScript 36.73%</text>
  <rect x="20" y="67" width="10" height="10" fill="#b07219" stroke="#282a36" stroke-width="1"/>
  <text x="36" y="75" font-size="11" fill="#ffb86c">Java 15.09%</text>
  <rect x="20" y="87" width="10" height="10" fill="#e34c26" stroke="#282a36" stroke-width="1"/>
  <text x="36" y="95" font-size="11" fill="#ffb86c">HTML 14.27%</text>
  <rect x="20" y="107" width="10" height="10" fill="#00ADD8" stroke="#282a36" stroke-width="1"/>
  <text x="36" y="115" font-size="11" fill="#ffb86c">Go 9.62%</text>
  <rect x="20" y="127" width="10" height="10" fill="#3572A5" stroke="#282a36" stroke-width="1"/>
  <text x="36" y="135" font-size="11" fill="#ffb86c">Python 4.06%</text>
  <rect x="20" y="147" width="10" height="10" fill="#f34b7d" stroke="#282a36" stroke-width="1"/>
  <text x="36" y="155" font-size="11" fill="#ffb86c">C++ 3.78%</text>
  <rect x="20" y="167" width="10" height="10" fill="#bd93f9" stroke="#282a36" stroke-width="1"/>
  <text x="36" y="175" font-size="11" fill="#ffb86c">Other 16.44%</text>
  <path d="M250.00,55.00 A55.00,55.00 0 0 1 290.72,146.97 L272.21,130.16 A30.00,30.00 0 0 0 250.00,80.00 Z" fill="#f1e05a" stroke="#282a36" stroke-width="1.5"/>
  <path d="M290.72,146.97 A55.00,55.00 0 0 1 243.71,164.64 L246.57,139.80 A30.00,30.00 0 0 0 272.21,130.16 Z" fill="#b07219" stroke="#282a36" stroke-width="1.5"/>
  <path d="M243.71,164.64 A55.00,55.00 0 0 1 203.40,139.21 L224.58,125.93 A30.00,30.00 0 0 0 246.57,139.80 Z" fill="#e34c26" stroke="#282a36" stroke-width="1.5"/>
  <path d="M203.40,139.21 A55.00,55.00 0 0 1 195.06,107.54 L220.03,108.66 A30.00,30.00 0 0 0 224.58,125.93 Z" fill="#00ADD8" stroke="#282a36" stroke-width="1.5"/>
  <path d="M195.06,107.54 A55.00,55.00 0 0 1 197.46,93.74 L221.34,101.13 A30.00,30.00 0 0 0 220.03,108.66 Z" fill="#3572A5" stroke="#282a36" stroke-width="1.5"/>
  <path d="M197.46,93.74 A55.00,55.00 0 0 1 202.76,81.83 L224.23,94.63 A30.00,30.00 0 0 0 221.34,101.13 Z" fill="#f34b7d" stroke="#282a36" stroke-width="1.5"/>
  <path d="M202.76,81.83 A55.00,55.00 0 0 1 250.00,55.00 L250.00,80.00 A30.00,30.00 0 0 0 224.23,94.63 Z" fill="#bd93f9" stroke="#282a36" stroke-width="1.5"/>
</svg>