<svg xmlns="http://www.w3.org/2000/svg" width="340" height="200" viewBox="0 0 340 200" font-family="'Segoe UI', Ubuntu, Sans-Serif">
  <rect x="0.5" y="0.5" width="339" height="199" rx="6" fill="#282a36" stroke="#282a36" stroke-opacity="1.00"/>
  <text x="20" y="30" font-size="15" font-weight="600" fill="#ff79c6">Most Commit Language (all time)</text>
  <rect x="20" y="47" width="10" height="10" fill="#f1e05a" stroke="#282a36" stroke-width="1"/>
  <text x="36" y="55" font-size="11" fill="#ffb86c">JavaScript 35.75%</text>
  <rect x="20" y="67" width="10" height="10" fill="#b07219" stroke="#282a36" stroke-width="1"/>
  <text x="36" y="75" font-size="11" fill="#ffb86c">Java 17.91%</text>
  <rect x="20" y="87" width="10" height="10" fill="#e34c26" stroke="#282a36" stroke-width="1"/>
  <text x="36" y="95" font-size="11" fill="#ffb86c">HTML 15.80%</text>
  <rect x="20" y="107" width="10" height="10" fill="#00ADD8" stroke="#282a36" stroke-width="1"/>
  <text x="36" y="115" font-size="11" fill="#ffb86c">Go 8.07%</text>
  <rect x="20" y="127" width="10" height="10" fill="#3572A5" stroke="#282a36" stroke-width="1"/>
  <text x="36" y="135" font-size="11" fill="#ffb86c">Python 4.42%</text>
  <rect x="20" y="147" width="10" height="10" fill="#f34b7d" stroke="#282a36" stroke-width="1"/>
  <text x="36" y="155" font-size="11" fill="#ffb86c">C++ 4.34%</text>
  <rect x="20" y="167" width="10" height="10" fill="#bd93f9" stroke="#282a36" stroke-width="1"/>
  <text x="36" y="175" font-size="11" fill="#ffb86c">Other 13.71%</text>
  <path d="M250.00,55.00 A55.00,55.00 0 0 1 292.93,144.38 L273.42,128.75 A30.00,30.00 0 0 0 250.00,80.00 Z" fill="#f1e05a" stroke="#282a36" stroke-width="1.5"/>
  <path d="M292.93,144.38 A55.00,55.00 0 0 1 237.49,163.56 L243.18,139.21 A30.00,30.00 0 0 0 273.42,128.75 Z" fill="#b07219" stroke="#282a36" stroke-width="1.5"/>
  <path d="M237.49,163.56 A55.00,55.00 0 0 1 198.31,128.78 L221.80,120.25 A30.00,30.00 0 0 0 243.18,139.21 Z" fill="#e34c26" stroke="#282a36" stroke-width="1.5"/>
  <path d="M198.31,128.78 A55.00,55.00 0 0 1 195.69,101.31 L220.38,105.26 A30.00,30.00 0 0 0 221.80,120.25 Z" fill="#00ADD8" stroke="#282a36" stroke-width="1.5"/>
  <path d="M195.69,101.31 A55.00,55.00 0 0 1 200.15,86.75 L222.81,97.32 A30.00,30.00 0 0 0 220.38,105.26 Z" fill="#3572A5" stroke="#282a36" stroke-width="1.5"/>
  <path d="M200.15,86.75 A55.00,55.00 0 0 1 208.26,74.19 L227.23,90.47 A30.00,30.00 0 0 0 222.81,97.32 Z" fill="#f34b7d" stroke="#282a36" stroke-width="1.5"/>
  <path d="M208.26,74.19 A55.00,55.00 0 0 1 250.00,55.00 L250.00,80.00 A30.00,30.00 0 0 0 227.23,90.47 Z" fill="#bd93f9" stroke="#282a36" stroke-width="1.5"/>
</svg>