<svg xmlns="http://www.w3.org/2000/svg" width="340" height="200" viewBox="0 0 340 200" font-family="'Segoe UI', Ubuntu, Sans-Serif">
  <rect x="0.5" y="0.5" width="339" height="199" rx="6" fill="#282a36" stroke="#282a36" stroke-opacity="1.00"/>
  <text x="20" y="30" font-size="15" font-weight="600" fill="#ff79c6">Most Commit Language (all time)</text>
  <rect x="20" y="47" width="10" height="10" fill="#f1e05a" stroke="#282a36" stroke-width="1"/>
  <text x="36" y="55" font-size="11" fill="#ffb86c">JavaScript 35.96%</text>
  <rect x="20" y="67" width="10" height="10" fill="#b07219" stroke="#282a36" stroke-width="1"/>
  <text x="36" y="75" font-size="11" fill="#ffb86c">Java 17.85%</text>
  <rect x="20" y="87" width="10" height="10" fill="#e34c26" stroke="#282a36" stroke-width="1"/>
  <text x="36" y="95" font-size="11" fill="#ffb86c">HTML 15.75%</text>
  <rect x="20" y="107" width="10" height="10" fill="#00ADD8" stroke="#282a36" stroke-width="1"/>
  <text x="36" y="115" font-size="11" fill="#ffb86c">Go 8.05%</text>
  <rect x="20" y="127" width="10" height="10" fill="#3572A5" stroke="#282a36" stroke-width="1"/>
  <text x="36" y="135" font-size="11" fill="#ffb86c">Python 4.40%</text>
  <rect x="20" y="147" width="10" height="10" fill="#f34b7d" stroke="#282a36" stroke-width="1"/>
  <text x="36" y="155" font-size="11" fill="#ffb86c">C++ 4.33%</text>
  <rect x="20" y="167" width="10" height="10" fill="#bd93f9" stroke="#282a36" stroke-width="1"/>
  <text x="36" y="175" font-size="11" fill="#ffb86c">Other 13.67%</text>
  <path d="M250.00,55.00 A55.00,55.00 0 0 1 292.47,144.95 L273.16,129.06 A30.00,30.00 0 0 0 250.00,80.00 Z" fill="#f1e05a" stroke="#282a36" stroke-width="1.5"/>
  <path d="M292.47,144.95 A55.00,55.00 0 0 1 236.97,163.43 L242.89,139.15 A30.00,30.00 0 0 0 273.16,129.06 Z" fill="#b07219" stroke="#282a36" stroke-width="1.5"/>
  <path d="M236.97,163.43 A55.00,55.00 0 0 1 198.19,128.45 L221.74,120.07 A30.00,30.00 0 0 0 242.89,139.15 Z" fill="#e34c26" stroke="#282a36" stroke-width="1.5"/>
  <path d="M198.19,128.45 A55.00,55.00 0 0 1 195.73,101.05 L220.40,105.12 A30.00,30.00 0 0 0 221.74,120.07 Z" fill="#00ADD8" stroke="#282a36" stroke-width="1.5"/>
  <path d="M195.73,101.05 A55.00,55.00 0 0 1 200.24,86.57 L222.86,97.22 A30.00,30.00 0 0 0 220.40,105.12 Z" fill="#3572A5" stroke="#282a36" stroke-width="1.5"/>
  <path d="M200.24,86.57 A55.00,55.00 0 0 1 208.36,74.07 L227.29,90.40 A30.00,30.00 0 0 0 222.86,97.22 Z" fill="#f34b7d" stroke="#282a36" stroke-width="1.5"/>
  <path d="M208.36,74.07 A55.00,55.00 0 0 1 250.00,55.00 L250.00,80.00 A30.00,30.00 0 0 0 227.29,90.40 Z" fill="#bd93f9" stroke="#282a36" stroke-width="1.5"/>
</svg>