<svg xmlns="http://www.w3.org/2000/svg" width="340" height="200" viewBox="0 0 340 200" font-family="'Segoe UI', Ubuntu, Sans-Serif">
  <rect x="0.5" y="0.5" width="339" height="199" rx="6" fill="#282a36" stroke="#282a36" stroke-opacity="1.00"/>
  <text x="20" y="30" font-size="15" font-weight="600" fill="#ff79c6">Most Commit Language (all time)</text>
  <rect x="20" y="47" width="10" height="10" fill="#f1e05a" stroke="#282a36" stroke-width="1"/>
  <text x="36" y="55" font-size="11" fill="#ffb86c">JavaScript 34.70%</text>
  <rect x="20" y="67" width="10" height="10" fill="#00ADD8" stroke="#282a36" stroke-width="1"/>
  <text x="36" y="75" font-size="11" fill="#ffb86c">Go 15.13%</text>
  <rect x="20" y="87" width="10" height="10" fill="#b07219" stroke="#282a36" stroke-width="1"/>
  <text x="36" y="95" font-size="11" fill="#ffb86c">Java 12.25%</text>
  <rect x="20" y="107" width="10" height="10" fill="#e34c26" stroke="#282a36" stroke-width="1"/>
  <text x="36" y="115" font-size="11" fill="#ffb86c">HTML 11.01%</text>
  <rect x="20" y="127" width="10" height="10" fill="#3572A5" stroke="#282a36" stroke-width="1"/>
  <text x="36" y="135" font-size="11" fill="#ffb86c">Python 3.85%</text>
  <rect x="20" y="147" width="10" height="10" fill="#3178c6" stroke="#282a36" stroke-width="1"/>
  <text x="36" y="155" font-size="11" fill="#ffb86c">TypeScript 3.80%</text>
  <rect x="20" y="167" width="10" height="10" fill="#bd93f9" stroke="#282a36" stroke-width="1"/>
  <text x="36" y="175" font-size="11" fill="#ffb86c">Other 19.28%</text>
  <path d="M250.00,55.00 A55.00,55.00 0 0 1 295.11,141.47 L274.60,127.17 A30.00,30.00 0 0 0 250.00,80.00 Z" fill="#f1e05a" stroke="#282a36" stroke-width="1.5"/>
  <path d="M295.11,141.47 A55.00,55.00 0 0 1 250.61,165.00 L250.33,140.00 A30.00,30.00 0 0 0 274.60,127.17 Z" fill="#00ADD8" stroke="#282a36" stroke-width="1.5"/>
  <path d="M250.61,165.00 A55.00,55.00 0 0 1 212.17,149.93 L229.37,131.78 A30.00,30.00 0 0 0 250.33,140.00 Z" fill="#b07219" stroke="#282a36" stroke-width="1.5"/>
  <path d="M212.17,149.93 A55.00,55.00 0 0 1 195.40,116.63 L220.22,113.62 A30.00,30.00 0 0 0 229.37,131.78 Z" fill="#e34c26" stroke="#282a36" stroke-width="1.5"/>
  <path d="M195.40,116.63 A55.00,55.00 0 0 1 195.40,103.37 L220.22,106.38 A30.00,30.00 0 0 0 220.22,113.62 Z" fill="#3572A5" stroke="#282a36" stroke-width="1.5"/>
  <path d="M195.40,103.37 A55.00,55.00 0 0 1 198.52,90.65 L221.92,99.44 A30.00,30.00 0 0 0 220.22,106.38 Z" fill="#3178c6" stroke="#282a36" stroke-width="1.5"/>
  <path d="M198.52,90.65 A55.00,55.00 0 0 1 250.00,55.00 L250.00,80.00 A30.00,30.00 0 0 0 221.92,99.44 Z" fill="#bd93f9" stroke="#282a36" stroke-width="1.5"/>
</svg>