<svg xmlns="http://www.w3.org/2000/svg" width="340" height="200" viewBox="0 0 340 200" font-family="'Segoe UI', Ubuntu, Sans-Serif">
  <rect x="0.5" y="0.5" width="339" height="199" rx="6" fill="#282a36" stroke="#282a36" stroke-opacity="1.00"/>
  <text x="20" y="30" font-size="15" font-weight="600" fill="#ff79c6">Most Commit Language (last year)</text>
  <rect x="20" y="47" width="10" height="10" fill="#f1e05a" stroke="#282a36" stroke-width="1"/>
  <text x="36" y="55" font-size="11" fill="#ffb86c">JavaScript 45.72%</text>
  <rect x="20" y="67" width="10" height="10" fill="#00ADD8" stroke="#282a36" stroke-width="1"/>
  <text x="36" y="75" font-size="11" fill="#ffb86c">Go 15.26%</text>
  <rect x="20" y="87" width="10" height="10" fill="#b07219" stroke="#282a36" stroke-width="1"/>
  <text x="36" y="95" font-size="11" fill="#ffb86c">Java 8.30%</text>
  <rect x="20" y="107" width="10" height="10" fill="#e34c26" stroke="#282a36" stroke-width="1"/>
  <text x="36" y="115" font-size="11" fill="#ffb86c">HTML 6.14%</text>
  <rect x="20" y="127" width="10" height="10" fill="#ff3e00" stroke="#282a36" stroke-width="1"/>
  <text x="36" y="135" font-size="11" fill="#ffb86c">Svelte 4.83%</text>
  <rect x="20" y="147" width="10" height="10" fill="#3178c6" stroke="#282a36" stroke-width="1"/>
  <text x="36" y="155" font-size="11" fill="#ffb86c">TypeScript 4.14%</text>
  <rect x="20" y="167" width="10" height="10" fill="#bd93f9" stroke="#282a36" stroke-width="1"/>
  <text x="36" y="175" font-size="11" fill="#ffb86c">Other 15.62%</text>
  <path d="M250.00,55.00 A55.00,55.00 0 0 1 264.62,163.02 L257.97,138.92 A30.00,30.00 0 0 0 250.00,80.00 Z" fill="#f1e05a" stroke="#282a36" stroke-width="1.5"/>
  <path d="M264.62,163.02 A55.00,55.00 0 0 1 215.01,152.43 L230.91,133.14 A30.00,30.00 0 0 0 257.97,138.92 Z" fill="#00ADD8" stroke="#282a36" stroke-width="1.5"/>
  <path d="M215.01,152.43 A55.00,55.00 0 0 1 198.52,129.37 L221.92,120.57 A30.00,30.00 0 0 0 230.91,133.14 Z" fill="#b07219" stroke="#282a36" stroke-width="1.5"/>
  <path d="M198.52,129.37 A55.00,55.00 0 0 1 195.02,108.59 L220.01,109.23 A30.00,30.00 0 0 0 221.92,120.57 Z" fill="#e34c26" stroke="#282a36" stroke-width="1.5"/>
  <path d="M195.02,108.59 A55.00,55.00 0 0 1 197.95,92.24 L221.61,100.31 A30.00,30.00 0 0 0 220.01,109.23 Z" fill="#ff3e00" stroke="#282a36" stroke-width="1.5"/>
  <path d="M197.95,92.24 A55.00,55.00 0 0 1 204.27,79.44 L225.06,93.33 A30.00,30.00 0 0 0 221.61,100.31 Z" fill="#3178c6" stroke="#282a36" stroke-width="1.5"/>
  <path d="M204.27,79.44 A55.00,55.00 0 0 1 250.00,55.00 L250.00,80.00 A30.00,30.00 0 0 0 225.06,93.33 Z" fill="#bd93f9" stroke="#282a36" stroke-width="1.5"/>
</svg>