<svg xmlns="http://www.w3.org/2000/svg" width="340" height="200" viewBox="0 0 340 200" font-family="'Segoe UI', Ubuntu, Sans-Serif">
  <rect x="0.5" y="0.5" width="339" height="199" rx="6" fill="#282a36" stroke="#282a36" stroke-opacity="1.00"/>
  <text x="20" y="30" font-size="15" font-weight="600" fill="#ff79c6">Commits by Weekday (all time)</text>
  <line x1="35" y1="45" x2="35" y2="155" stroke="#6272a4"/>
  <line x1="31" y1="155" x2="35" y2="155" stroke="#6272a4"/>
  <text x="29" y="158" font-size="10" fill="#6272a4" text-anchor="end">0</text>
  <line x1="31" y1="133" x2="35" y2="133" stroke="#6272a4"/>
  <text x="29" y="136" font-size="10" fill="#6272a4" text-anchor="end">200</text>
  <line x1="31" y1="111" x2="35" y2="111" stroke="#6272a4"/>
  <text x="29" y="114" font-size="10" fill="#6272a4" text-anchor="end">400</text>
  <line x1="31" y1="89" x2="35" y2="89" stroke="#6272a4"/>
  <text x="29" y="92" font-size="10" fill="#6272a4" text-anchor="end">600</text>
  <line x1="31" y1="67" x2="35" y2="67" stroke="#6272a4"/>
  <text x="29" y="70" font-size="10" fill="#6272a4" text-anchor="end">800</text>
  <line x1="31" y1="45" x2="35" y2="45" stroke="#6272a4"/>
  <text x="29" y="48" font-size="10" fill="#6272a4" text-anchor="end">1k</text>
  <line x1="35" y1="155" x2="325" y2="155" stroke="#6272a4"/>
  <rect x="35.00" y="77.67" width="36.29" height="77.33" rx="2" fill="#7963a1"><title>Mon — 703 commits</title></rect>
  <text x="53.14" y="169" font-size="10" fill="#6272a4" text-anchor="middle">Mon</text>
  <rect x="77.29" y="96.15" width="36.29" height="58.85" rx="2" fill="#7963a1"><title>Tue — 535 commits</title></rect>
  <text x="95.43" y="169" font-size="10" fill="#6272a4" text-anchor="middle">Tue</text>
  <rect x="119.57" y="85.70" width="36.29" height="69.30" rx="2" fill="#7963a1"><title>Wed — 630 commits</title></rect>
  <text x="137.71" y="169" font-size="10" fill="#6272a4" text-anchor="middle">Wed</text>
  <rect x="161.86" y="94.50" width="36.29" height="60.50" rx="2" fill="#7963a1"><title>Thu — 550 commits</title></rect>
  <text x="180.00" y="169" font-size="10" fill="#6272a4" text-anchor="middle">Thu</text>
  <rect x="204.14" y="102.97" width="36.29" height="52.03" rx="2" fill="#7963a1"><title>Fri — 473 commits</title></rect>
  <text x="222.29" y="169" font-size="10" fill="#6272a4" text-anchor="middle">Fri</text>
  <rect x="246.43" y="53.58" width="36.29" height="101.42" rx="2" fill="#bd93f9"><title>Sat — 922 commits</title></rect>
  <text x="264.57" y="169" font-size="10" fill="#6272a4" text-anchor="middle">Sat</text>
  <rect x="288.71" y="63.48" width="36.29" height="91.52" rx="2" fill="#7963a1"><title>Sun — 832 commits</title></rect>
  <text x="306.86" y="169" font-size="10" fill="#6272a4" text-anchor="middle">Sun</text>
</svg>