<svg xmlns="http://www.w3.org/2000/svg" width="340" height="200" viewBox="0 0 340 200" font-family="'Segoe UI', Ubuntu, Sans-Serif">
  <rect x="0.5" y="0.5" width="339" height="199" rx="6" fill="#282a36" stroke="#282a36" stroke-opacity="1.00"/>
  <text x="20" y="30" font-size="15" font-weight="600" fill="#ff79c6">Commits by Hour (last year, UTC+7)</text>
  <line x1="35" y1="45" x2="35" y2="155" stroke="#6272a4"/>
  <line x1="31" y1="155" x2="35" y2="155" stroke="#6272a4"/>
  <text x="29" y="158" font-size="10" fill="#6272a4" text-anchor="end">0</text>
  <line x1="31" y1="137" x2="35" y2="137" stroke="#6272a4"/>
  <text x="29" y="140" font-size="10" fill="#6272a4" text-anchor="end">50</text>
  <line x1="31" y1="119" x2="35" y2="119" stroke="#6272a4"/>
  <text x="29" y="122" font-size="10" fill="#6272a4" text-anchor="end">100</text>
  <line x1="31" y1="100" x2="35" y2="100" stroke="#6272a4"/>
  <text x="29" y="103" font-size="10" fill="#6272a4" text-anchor="end">150</text>
  <line x1="31" y1="82" x2="35" y2="82" stroke="#6272a4"/>
  <text x="29" y="85" font-size="10" fill="#6272a4" text-anchor="end">200</text>
  <line x1="31" y1="64" x2="35" y2="64" stroke="#6272a4"/>
  <text x="29" y="67" font-size="10" fill="#6272a4" text-anchor="end">250</text>
  <line x1="31" y1="45" x2="35" y2="45" stroke="#6272a4"/>
  <text x="29" y="48" font-size="10" fill="#6272a4" text-anchor="end">300</text>
  <line x1="35" y1="155" x2="325" y2="155" stroke="#6272a4"/>
  <line x1="40" y1="155" x2="40" y2="159" stroke="#6272a4"/>
  <text x="40" y="171" font-size="10" fill="#6272a4" text-anchor="middle">0</text>
  <line x1="113" y1="155" x2="113" y2="159" stroke="#6272a4"/>
  <text x="113" y="171" font-size="10" fill="#6272a4" text-anchor="middle">6</text>
  <line x1="186" y1="155" x2="186" y2="159" stroke="#6272a4"/>
  <text x="186" y="171" font-size="10" fill="#6272a4" text-anchor="middle">12</text>
  <line x1="258" y1="155" x2="258" y2="159" stroke="#6272a4"/>
  <text x="258" y="171" font-size="10" fill="#6272a4" text-anchor="middle">18</text>
  <line x1="319" y1="155" x2="319" y2="159" stroke="#6272a4"/>
  <text x="319" y="171" font-size="10" fill="#6272a4" text-anchor="middle">23</text>
  <rect x="35.00" y="104.77" width="11.12" height="50.23" rx="2" fill="#bd93f9"><title>00:00 — 137 commits</title></rect>
  <rect x="47.12" y="143.63" width="11.12" height="11.37" rx="2" fill="#bd93f9"><title>01:00 — 31 commits</title></rect>
  <rect x="59.25" y="142.17" width="11.12" height="12.83" rx="2" fill="#bd93f9"><title>02:00 — 35 commits</title></rect>
  <rect x="71.38" y="148.03" width="11.12" height="6.97" rx="2" fill="#bd93f9"><title>03:00 — 19 commits</title></rect>
  <rect x="83.50" y="155.00" width="11.12" height="0.00" rx="2" fill="#bd93f9"><title>04:00 — 0 commits</title></rect>
  <rect x="95.62" y="155.00" width="11.12" height="0.00" rx="2" fill="#bd93f9"><title>05:00 — 0 commits</title></rect>
  <rect x="107.75" y="153.90" width="11.12" height="1.10" rx="2" fill="#bd93f9"><title>06:00 — 3 commits</title></rect>
  <rect x="119.88" y="153.53" width="11.12" height="1.47" rx="2" fill="#bd93f9"><title>07:00 — 4 commits</title></rect>
  <rect x="132.00" y="135.93" width="11.12" height="19.07" rx="2" fill="#bd93f9"><title>08:00 — 52 commits</title></rect>
  <rect x="144.12" y="95.60" width="11.12" height="59.40" rx="2" fill="#bd93f9"><title>09:00 — 162 commits</title></rect>
  <rect x="156.25" y="94.50" width="11.12" height="60.50" rx="2" fill="#bd93f9"><title>10:00 — 165 commits</title></rect>
  <rect x="168.38" y="105.87" width="11.12" height="49.13" rx="2" fill="#bd93f9"><title>11:00 — 134 commits</title></rect>
  <rect x="180.50" y="127.13" width="11.12" height="27.87" rx="2" fill="#bd93f9"><title>12:00 — 76 commits</title></rect>
  <rect x="192.62" y="123.83" width="11.12" height="31.17" rx="2" fill="#bd93f9"><title>13:00 — 85 commits</title></rect>
  <rect x="204.75" y="127.13" width="11.12" height="27.87" rx="2" fill="#bd93f9"><title>14:00 — 76 commits</title></rect>
  <rect x="216.88" y="127.87" width="11.12" height="27.13" rx="2" fill="#bd93f9"><title>15:00 — 74 commits</title></rect>
  <rect x="229.00" y="122.00" width="11.12" height="33.00" rx="2" fill="#bd93f9"><title>16:00 — 90 commits</title></rect>
  <rect x="241.12" y="125.30" width="11.12" height="29.70" rx="2" fill="#bd93f9"><title>17:00 — 81 commits</title></rect>
  <rect x="253.25" y="125.67" width="11.12" height="29.33" rx="2" fill="#bd93f9"><title>18:00 — 80 commits</title></rect>
  <rect x="265.38" y="131.53" width="11.12" height="23.47" rx="2" fill="#bd93f9"><title>19:00 — 64 commits</title></rect>
  <rect x="277.50" y="89.73" width="11.12" height="65.27" rx="2" fill="#bd93f9"><title>20:00 — 178 commits</title></rect>
  <rect x="289.62" y="64.07" width="11.12" height="90.93" rx="2" fill="#bd93f9"><title>21:00 — 248 commits</title></rect>
  <rect x="301.75" y="61.50" width="11.12" height="93.50" rx="2" fill="#bd93f9"><title>22:00 — 255 commits</title></rect>
  <rect x="313.88" y="78.00" width="11.12" height="77.00" rx="2" fill="#bd93f9"><title>23:00 — 210 commits</title></rect>
  <text x="180" y="189" font-size="11" fill="#6272a4" text-anchor="middle">hour of day</text>
</svg>