<svg xmlns="http://www.w3.org/2000/svg" width="340" height="200" viewBox="0 0 340 200" font-family="'Segoe UI', Ubuntu, Sans-Serif">
  <rect x="0.5" y="0.5" width="339" height="199" rx="6" fill="#282a36" stroke="#282a36" stroke-opacity="1.00"/>
  <text x="20" y="30" font-size="15" font-weight="600" fill="#ff79c6">Commits by Hour (all time, UTC+7)</text>
  <line x1="35" y1="45" x2="35" y2="155" stroke="#6272a4"/>
  <line x1="31" y1="155" x2="35" y2="155" stroke="#6272a4"/>
  <text x="29" y="158" font-size="10" fill="#6272a4" text-anchor="end">0</text>
  <line x1="31" y1="128" x2="35" y2="128" stroke="#6272a4"/>
  <text x="29" y="131" font-size="10" fill="#6272a4" text-anchor="end">100</text>
  <line x1="31" y1="100" x2="35" y2="100" stroke="#6272a4"/>
  <text x="29" y="103" font-size="10" fill="#6272a4" text-anchor="end">200</text>
  <line x1="31" y1="73" x2="35" y2="73" stroke="#6272a4"/>
  <text x="29" y="76" font-size="10" fill="#6272a4" text-anchor="end">300</text>
  <line x1="31" y1="45" x2="35" y2="45" stroke="#6272a4"/>
  <text x="29" y="48" font-size="10" fill="#6272a4" text-anchor="end">400</text>
  <line x1="35" y1="155" x2="325" y2="155" stroke="#6272a4"/>
  <line x1="40" y1="155" x2="40" y2="159" stroke="#6272a4"/>
  <text x="40" y="171" font-size="10" fill="#6272a4" text-anchor="middle">0</text>
  <line x1="113" y1="155" x2="113" y2="159" stroke="#6272a4"/>
  <text x="113" y="171" font-size="10" fill="#6272a4" text-anchor="middle">6</text>
  <line x1="186" y1="155" x2="186" y2="159" stroke="#6272a4"/>
  <text x="186" y="171" font-size="10" fill="#6272a4" text-anchor="middle">12</text>
  <line x1="258" y1="155" x2="258" y2="159" stroke="#6272a4"/>
  <text x="258" y="171" font-size="10" fill="#6272a4" text-anchor="middle">18</text>
  <line x1="319" y1="155" x2="319" y2="159" stroke="#6272a4"/>
  <text x="319" y="171" font-size="10" fill="#6272a4" text-anchor="middle">23</text>
  <rect x="35.00" y="108.53" width="11.12" height="46.48" rx="2" fill="#bd93f9"><title>00:00 — 169 commits</title></rect>
  <rect x="47.12" y="138.50" width="11.12" height="16.50" rx="2" fill="#bd93f9"><title>01:00 — 60 commits</title></rect>
  <rect x="59.25" y="150.88" width="11.12" height="4.12" rx="2" fill="#bd93f9"><title>02:00 — 15 commits</title></rect>
  <rect x="71.38" y="151.97" width="11.12" height="3.02" rx="2" fill="#bd93f9"><title>03:00 — 11 commits</title></rect>
  <rect x="83.50" y="152.53" width="11.12" height="2.48" rx="2" fill="#bd93f9"><title>04:00 — 9 commits</title></rect>
  <rect x="95.62" y="153.07" width="11.12" height="1.93" rx="2" fill="#bd93f9"><title>05:00 — 7 commits</title></rect>
  <rect x="107.75" y="151.97" width="11.12" height="3.02" rx="2" fill="#bd93f9"><title>06:00 — 11 commits</title></rect>
  <rect x="119.88" y="150.88" width="11.12" height="4.12" rx="2" fill="#bd93f9"><title>07:00 — 15 commits</title></rect>
  <rect x="132.00" y="140.70" width="11.12" height="14.30" rx="2" fill="#bd93f9"><title>08:00 — 52 commits</title></rect>
  <rect x="144.12" y="117.88" width="11.12" height="37.12" rx="2" fill="#bd93f9"><title>09:00 — 135 commits</title></rect>
  <rect x="156.25" y="99.17" width="11.12" height="55.83" rx="2" fill="#bd93f9"><title>10:00 — 203 commits</title></rect>
  <rect x="168.38" y="99.72" width="11.12" height="55.27" rx="2" fill="#bd93f9"><title>11:00 — 201 commits</title></rect>
  <rect x="180.50" y="117.33" width="11.12" height="37.67" rx="2" fill="#bd93f9"><title>12:00 — 137 commits</title></rect>
  <rect x="192.62" y="114.30" width="11.12" height="40.70" rx="2" fill="#bd93f9"><title>13:00 — 148 commits</title></rect>
  <rect x="204.75" y="114.03" width="11.12" height="40.98" rx="2" fill="#bd93f9"><title>14:00 — 149 commits</title></rect>
  <rect x="216.88" y="126.67" width="11.12" height="28.32" rx="2" fill="#bd93f9"><title>15:00 — 103 commits</title></rect>
  <rect x="229.00" y="126.12" width="11.12" height="28.88" rx="2" fill="#bd93f9"><title>16:00 — 105 commits</title></rect>
  <rect x="241.12" y="123.65" width="11.12" height="31.35" rx="2" fill="#bd93f9"><title>17:00 — 114 commits</title></rect>
  <rect x="253.25" y="118.42" width="11.12" height="36.58" rx="2" fill="#bd93f9"><title>18:00 — 133 commits</title></rect>
  <rect x="265.38" y="125.03" width="11.12" height="29.98" rx="2" fill="#bd93f9"><title>19:00 — 109 commits</title></rect>
  <rect x="277.50" y="79.92" width="11.12" height="75.08" rx="2" fill="#bd93f9"><title>20:00 — 273 commits</title></rect>
  <rect x="289.62" y="54.62" width="11.12" height="100.38" rx="2" fill="#bd93f9"><title>21:00 — 365 commits</title></rect>
  <rect x="301.75" y="63.15" width="11.12" height="91.85" rx="2" fill="#bd93f9"><title>22:00 — 334 commits</title></rect>
  <rect x="313.88" y="70.30" width="11.12" height="84.70" rx="2" fill="#bd93f9"><title>23:00 — 308 commits</title></rect>
  <text x="180" y="189" font-size="11" fill="#6272a4" text-anchor="middle">hour of day</text>
</svg>