<svg xmlns="http://www.w3.org/2000/svg" width="340" height="200" viewBox="0 0 340 200" font-family="'Segoe UI', Ubuntu, Sans-Serif">
  <rect x="0.5" y="0.5" width="339" height="199" rx="6" fill="#282a36" stroke="#282a36" stroke-opacity="1.00"/>
  <text x="20" y="30" font-size="15" font-weight="600" fill="#ff79c6">Commits by Hour (all time, UTC+7)</text>
  <line x1="35" y1="45" x2="35" y2="155" stroke="#6272a4"/>
  <line x1="31" y1="155" x2="35" y2="155" stroke="#6272a4"/>
  <text x="29" y="158" font-size="10" fill="#6272a4" text-anchor="end">0</text>
  <line x1="31" y1="133" x2="35" y2="133" stroke="#6272a4"/>
  <text x="29" y="136" font-size="10" fill="#6272a4" text-anchor="end">100</text>
  <line x1="31" y1="111" x2="35" y2="111" stroke="#6272a4"/>
  <text x="29" y="114" font-size="10" fill="#6272a4" text-anchor="end">200</text>
  <line x1="31" y1="89" x2="35" y2="89" stroke="#6272a4"/>
  <text x="29" y="92" font-size="10" fill="#6272a4" text-anchor="end">300</text>
  <line x1="31" y1="67" x2="35" y2="67" stroke="#6272a4"/>
  <text x="29" y="70" font-size="10" fill="#6272a4" text-anchor="end">400</text>
  <line x1="31" y1="45" x2="35" y2="45" stroke="#6272a4"/>
  <text x="29" y="48" font-size="10" fill="#6272a4" text-anchor="end">500</text>
  <line x1="35" y1="155" x2="325" y2="155" stroke="#6272a4"/>
  <line x1="40" y1="155" x2="40" y2="159" stroke="#6272a4"/>
  <text x="40" y="171" font-size="10" fill="#6272a4" text-anchor="middle">0</text>
  <line x1="113" y1="155" x2="113" y2="159" stroke="#6272a4"/>
  <text x="113" y="171" font-size="10" fill="#6272a4" text-anchor="middle">6</text>
  <line x1="186" y1="155" x2="186" y2="159" stroke="#6272a4"/>
  <text x="186" y="171" font-size="10" fill="#6272a4" text-anchor="middle">12</text>
  <line x1="258" y1="155" x2="258" y2="159" stroke="#6272a4"/>
  <text x="258" y="171" font-size="10" fill="#6272a4" text-anchor="middle">18</text>
  <line x1="319" y1="155" x2="319" y2="159" stroke="#6272a4"/>
  <text x="319" y="171" font-size="10" fill="#6272a4" text-anchor="middle">23</text>
  <rect x="35.00" y="107.48" width="11.12" height="47.52" rx="2" fill="#bd93f9"><title>00:00 — 216 commits</title></rect>
  <rect x="47.12" y="139.82" width="11.12" height="15.18" rx="2" fill="#bd93f9"><title>01:00 — 69 commits</title></rect>
  <rect x="59.25" y="144.88" width="11.12" height="10.12" rx="2" fill="#bd93f9"><title>02:00 — 46 commits</title></rect>
  <rect x="71.38" y="149.28" width="11.12" height="5.72" rx="2" fill="#bd93f9"><title>03:00 — 26 commits</title></rect>
  <rect x="83.50" y="153.02" width="11.12" height="1.98" rx="2" fill="#bd93f9"><title>04:00 — 9 commits</title></rect>
  <rect x="95.62" y="153.46" width="11.12" height="1.54" rx="2" fill="#bd93f9"><title>05:00 — 7 commits</title></rect>
  <rect x="107.75" y="152.58" width="11.12" height="2.42" rx="2" fill="#bd93f9"><title>06:00 — 11 commits</title></rect>
  <rect x="119.88" y="150.82" width="11.12" height="4.18" rx="2" fill="#bd93f9"><title>07:00 — 19 commits</title></rect>
  <rect x="132.00" y="139.38" width="11.12" height="15.62" rx="2" fill="#bd93f9"><title>08:00 — 71 commits</title></rect>
  <rect x="144.12" y="112.54" width="11.12" height="42.46" rx="2" fill="#bd93f9"><title>09:00 — 193 commits</title></rect>
  <rect x="156.25" y="89.88" width="11.12" height="65.12" rx="2" fill="#bd93f9"><title>10:00 — 296 commits</title></rect>
  <rect x="168.38" y="100.00" width="11.12" height="55.00" rx="2" fill="#bd93f9"><title>11:00 — 250 commits</title></rect>
  <rect x="180.50" y="118.70" width="11.12" height="36.30" rx="2" fill="#bd93f9"><title>12:00 — 165 commits</title></rect>
  <rect x="192.62" y="117.82" width="11.12" height="37.18" rx="2" fill="#bd93f9"><title>13:00 — 169 commits</title></rect>
  <rect x="204.75" y="117.82" width="11.12" height="37.18" rx="2" fill="#bd93f9"><title>14:00 — 169 commits</title></rect>
  <rect x="216.88" y="126.84" width="11.12" height="28.16" rx="2" fill="#bd93f9"><title>15:00 — 128 commits</title></rect>
  <rect x="229.00" y="122.88" width="11.12" height="32.12" rx="2" fill="#bd93f9"><title>16:00 — 146 commits</title></rect>
  <rect x="241.12" y="119.80" width="11.12" height="35.20" rx="2" fill="#bd93f9"><title>17:00 — 160 commits</title></rect>
  <rect x="253.25" y="119.80" width="11.12" height="35.20" rx="2" fill="#bd93f9"><title>18:00 — 160 commits</title></rect>
  <rect x="265.38" y="123.76" width="11.12" height="31.24" rx="2" fill="#bd93f9"><title>19:00 — 142 commits</title></rect>
  <rect x="277.50" y="76.24" width="11.12" height="78.76" rx="2" fill="#bd93f9"><title>20:00 — 358 commits</title></rect>
  <rect x="289.62" y="52.04" width="11.12" height="102.96" rx="2" fill="#bd93f9"><title>21:00 — 468 commits</title></rect>
  <rect x="301.75" y="70.96" width="11.12" height="84.04" rx="2" fill="#bd93f9"><title>22:00 — 382 commits</title></rect>
  <rect x="313.88" y="80.20" width="11.12" height="74.80" rx="2" fill="#bd93f9"><title>23:00 — 340 commits</title></rect>
  <text x="180" y="189" font-size="11" fill="#6272a4" text-anchor="middle">hour of day</text>
</svg>