<svg xmlns="http://www.w3.org/2000/svg" width="340" height="200" viewBox="0 0 340 200" font-family="'Segoe UI', Ubuntu, Sans-Serif">
  <rect x="0.5" y="0.5" width="339" height="199" rx="6" fill="#282a36" stroke="#282a36" stroke-opacity="1.00"/>
  <text x="20" y="30" font-size="15" font-weight="600" fill="#ff79c6">Commits by Weekday (all time)</text>
  <line x1="35" y1="45" x2="35" y2="155" stroke="#6272a4"/>
  <line x1="31" y1="155" x2="35" y2="155" stroke="#6272a4"/>
  <text x="29" y="158" font-size="10" fill="#6272a4" text-anchor="end">0</text>
  <line x1="31" y1="140" x2="35" y2="140" stroke="#6272a4"/>
  <text x="29" y="143" font-size="10" fill="#6272a4" text-anchor="end">100</text>
  <line x1="31" y1="124" x2="35" y2="124" stroke="#6272a4"/>
  <text x="29" y="127" font-size="10" fill="#6272a4" text-anchor="end">200</text>
  <line x1="31" y1="108" x2="35" y2="108" stroke="#6272a4"/>
  <text x="29" y="111" font-size="10" fill="#6272a4" text-anchor="end">300</text>
  <line x1="31" y1="93" x2="35" y2="93" stroke="#6272a4"/>
  <text x="29" y="96" font-size="10" fill="#6272a4" text-anchor="end">400</text>
  <line x1="31" y1="77" x2="35" y2="77" stroke="#6272a4"/>
  <text x="29" y="80" font-size="10" fill="#6272a4" text-anchor="end">500</text>
  <line x1="31" y1="61" x2="35" y2="61" stroke="#6272a4"/>
  <text x="29" y="64" font-size="10" fill="#6272a4" text-anchor="end">600</text>
  <line x1="31" y1="45" x2="35" y2="45" stroke="#6272a4"/>
  <text x="29" y="48" font-size="10" fill="#6272a4" text-anchor="end">700</text>
  <line x1="35" y1="155" x2="325" y2="155" stroke="#6272a4"/>
  <rect x="35.00" y="83.81" width="36.29" height="71.19" rx="2" fill="#7963a1"><title>Mon — 453 commits</title></rect>
  <text x="53.14" y="169" font-size="10" fill="#6272a4" text-anchor="middle">Mon</text>
  <rect x="77.29" y="77.84" width="36.29" height="77.16" rx="2" fill="#7963a1"><title>Tue — 491 commits</title></rect>
  <text x="95.43" y="169" font-size="10" fill="#6272a4" text-anchor="middle">Tue</text>
  <rect x="119.57" y="94.34" width="36.29" height="60.66" rx="2" fill="#7963a1"><title>Wed — 386 commits</title></rect>
  <text x="137.71" y="169" font-size="10" fill="#6272a4" text-anchor="middle">Wed</text>
  <rect x="161.86" y="91.36" width="36.29" height="63.64" rx="2" fill="#7963a1"><title>Thu — 405 commits</title></rect>
  <text x="180.00" y="169" font-size="10" fill="#6272a4" text-anchor="middle">Thu</text>
  <rect x="204.14" y="98.90" width="36.29" height="56.10" rx="2" fill="#7963a1"><title>Fri — 357 commits</title></rect>
  <text x="222.29" y="169" font-size="10" fill="#6272a4" text-anchor="middle">Fri</text>
  <rect x="246.43" y="50.97" width="36.29" height="104.03" rx="2" fill="#bd93f9"><title>Sat — 662 commits</title></rect>
  <text x="264.57" y="169" font-size="10" fill="#6272a4" text-anchor="middle">Sat</text>
  <rect x="288.71" y="55.37" width="36.29" height="99.63" rx="2" fill="#7963a1"><title>Sun — 634 commits</title></rect>
  <text x="306.86" y="169" font-size="10" fill="#6272a4" text-anchor="middle">Sun</text>
</svg>