<svg xmlns="http://www.w3.org/2000/svg" width="340" height="200" viewBox="0 0 340 200" font-family="'Segoe UI', Ubuntu, Sans-Serif">
  <rect x="0.5" y="0.5" width="339" height="199" rx="6" fill="#282a36" stroke="#282a36" stroke-opacity="1.00"/>
  <text x="20" y="30" font-size="15" font-weight="600" fill="#ff79c6">Commits by Weekday (last year)</text>
  <line x1="35" y1="45" x2="35" y2="155" stroke="#6272a4"/>
  <line x1="31" y1="155" x2="35" y2="155" stroke="#6272a4"/>
  <text x="29" y="158" font-size="10" fill="#6272a4" text-anchor="end">0</text>
  <line x1="31" y1="137" x2="35" y2="137" stroke="#6272a4"/>
  <text x="29" y="140" font-size="10" fill="#6272a4" text-anchor="end">100</text>
  <line x1="31" y1="119" x2="35" y2="119" stroke="#6272a4"/>
  <text x="29" y="122" font-size="10" fill="#6272a4" text-anchor="end">200</text>
  <line x1="31" y1="100" x2="35" y2="100" stroke="#6272a4"/>
  <text x="29" y="103" font-size="10" fill="#6272a4" text-anchor="end">300</text>
  <line x1="31" y1="82" x2="35" y2="82" stroke="#6272a4"/>
  <text x="29" y="85" font-size="10" fill="#6272a4" text-anchor="end">400</text>
  <line x1="31" y1="64" x2="35" y2="64" stroke="#6272a4"/>
  <text x="29" y="67" font-size="10" fill="#6272a4" text-anchor="end">500</text>
  <line x1="31" y1="45" x2="35" y2="45" stroke="#6272a4"/>
  <text x="29" y="48" font-size="10" fill="#6272a4" text-anchor="end">600</text>
  <line x1="35" y1="155" x2="325" y2="155" stroke="#6272a4"/>
  <rect x="35.00" y="72.50" width="36.29" height="82.50" rx="2" fill="#7963a1"><title>Mon — 450 commits</title></rect>
  <text x="53.14" y="169" font-size="10" fill="#6272a4" text-anchor="middle">Mon</text>
  <rect x="77.29" y="95.97" width="36.29" height="59.03" rx="2" fill="#7963a1"><title>Tue — 322 commits</title></rect>
  <text x="95.43" y="169" font-size="10" fill="#6272a4" text-anchor="middle">Tue</text>
  <rect x="119.57" y="71.77" width="36.29" height="83.23" rx="2" fill="#7963a1"><title>Wed — 454 commits</title></rect>
  <text x="137.71" y="169" font-size="10" fill="#6272a4" text-anchor="middle">Wed</text>
  <rect x="161.86" y="91.75" width="36.29" height="63.25" rx="2" fill="#7963a1"><title>Thu — 345 commits</title></rect>
  <text x="180.00" y="169" font-size="10" fill="#6272a4" text-anchor="middle">Thu</text>
  <rect x="204.14" y="97.43" width="36.29" height="57.57" rx="2" fill="#7963a1"><title>Fri — 314 commits</title></rect>
  <text x="222.29" y="169" font-size="10" fill="#6272a4" text-anchor="middle">Fri</text>
  <rect x="246.43" y="47.02" width="36.29" height="107.98" rx="2" fill="#bd93f9"><title>Sat — 589 commits</title></rect>
  <text x="264.57" y="169" font-size="10" fill="#6272a4" text-anchor="middle">Sat</text>
  <rect x="288.71" y="81.85" width="36.29" height="73.15" rx="2" fill="#7963a1"><title>Sun — 399 commits</title></rect>
  <text x="306.86" y="169" font-size="10" fill="#6272a4" text-anchor="middle">Sun</text>
</svg>