<svg xmlns="http://www.w3.org/2000/svg" width="340" height="200" viewBox="0 0 340 200" font-family="'Segoe UI', Ubuntu, Sans-Serif">
  <rect x="0.5" y="0.5" width="339" height="199" rx="6" fill="#282a36" stroke="#282a36" stroke-opacity="1.00"/>
  <text x="20" y="30" font-size="15" font-weight="600" fill="#ff79c6">Commits by Hour (all time, UTC+7)</text>
  <line x1="35" y1="45" x2="35" y2="155" stroke="#6272a4"/>
  <line x1="31" y1="155" x2="35" y2="155" stroke="#6272a4"/>
  <text x="29" y="158" font-size="10" fill="#6272a4" text-anchor="end">0</text>
  <line x1="31" y1="137" x2="35" y2="137" stroke="#6272a4"/>
  <text x="29" y="140" font-size="10" fill="#6272a4" text-anchor="end">100</text>
  <line x1="31" y1="119" x2="35" y2="119" stroke="#6272a4"/>
  <text x="29" y="122" font-size="10" fill="#6272a4" text-anchor="end">200</text>
  <line x1="31" y1="100" x2="35" y2="100" stroke="#6272a4"/>
  <text x="29" y="103" font-size="10" fill="#6272a4" text-anchor="end">300</text>
  <line x1="31" y1="82" x2="35" y2="82" stroke="#6272a4"/>
  <text x="29" y="85" font-size="10" fill="#6272a4" text-anchor="end">400</text>
  <line x1="31" y1="64" x2="35" y2="64" stroke="#6272a4"/>
  <text x="29" y="67" font-size="10" fill="#6272a4" text-anchor="end">500</text>
  <line x1="31" y1="45" x2="35" y2="45" stroke="#6272a4"/>
  <text x="29" y="48" font-size="10" fill="#6272a4" text-anchor="end">600</text>
  <line x1="35" y1="155" x2="325" y2="155" stroke="#6272a4"/>
  <line x1="40" y1="155" x2="40" y2="159" stroke="#6272a4"/>
  <text x="40" y="171" font-size="10" fill="#6272a4" text-anchor="middle">0</text>
  <line x1="113" y1="155" x2="113" y2="159" stroke="#6272a4"/>
  <text x="113" y="171" font-size="10" fill="#6272a4" text-anchor="middle">6</text>
  <line x1="186" y1="155" x2="186" y2="159" stroke="#6272a4"/>
  <text x="186" y="171" font-size="10" fill="#6272a4" text-anchor="middle">12</text>
  <line x1="258" y1="155" x2="258" y2="159" stroke="#6272a4"/>
  <text x="258" y="171" font-size="10" fill="#6272a4" text-anchor="middle">18</text>
  <line x1="319" y1="155" x2="319" y2="159" stroke="#6272a4"/>
  <text x="319" y="171" font-size="10" fill="#6272a4" text-anchor="middle">23</text>
  <rect x="35.00" y="111.37" width="11.12" height="43.63" rx="2" fill="#bd93f9"><title>00:00 — 238 commits</title></rect>
  <rect x="47.12" y="141.80" width="11.12" height="13.20" rx="2" fill="#bd93f9"><title>01:00 — 72 commits</title></rect>
  <rect x="59.25" y="146.57" width="11.12" height="8.43" rx="2" fill="#bd93f9"><title>02:00 — 46 commits</title></rect>
  <rect x="71.38" y="150.23" width="11.12" height="4.77" rx="2" fill="#bd93f9"><title>03:00 — 26 commits</title></rect>
  <rect x="83.50" y="153.35" width="11.12" height="1.65" rx="2" fill="#bd93f9"><title>04:00 — 9 commits</title></rect>
  <rect x="95.62" y="153.72" width="11.12" height="1.28" rx="2" fill="#bd93f9"><title>05:00 — 7 commits</title></rect>
  <rect x="107.75" y="152.80" width="11.12" height="2.20" rx="2" fill="#bd93f9"><title>06:00 — 12 commits</title></rect>
  <rect x="119.88" y="151.33" width="11.12" height="3.67" rx="2" fill="#bd93f9"><title>07:00 — 20 commits</title></rect>
  <rect x="132.00" y="141.43" width="11.12" height="13.57" rx="2" fill="#bd93f9"><title>08:00 — 74 commits</title></rect>
  <rect x="144.12" y="103.85" width="11.12" height="51.15" rx="2" fill="#bd93f9"><title>09:00 — 279 commits</title></rect>
  <rect x="156.25" y="90.65" width="11.12" height="64.35" rx="2" fill="#bd93f9"><title>10:00 — 351 commits</title></rect>
  <rect x="168.38" y="96.52" width="11.12" height="58.48" rx="2" fill="#bd93f9"><title>11:00 — 319 commits</title></rect>
  <rect x="180.50" y="119.62" width="11.12" height="35.38" rx="2" fill="#bd93f9"><title>12:00 — 193 commits</title></rect>
  <rect x="192.62" y="116.68" width="11.12" height="38.32" rx="2" fill="#bd93f9"><title>13:00 — 209 commits</title></rect>
  <rect x="204.75" y="114.48" width="11.12" height="40.52" rx="2" fill="#bd93f9"><title>14:00 — 221 commits</title></rect>
  <rect x="216.88" y="117.23" width="11.12" height="37.77" rx="2" fill="#bd93f9"><title>15:00 — 206 commits</title></rect>
  <rect x="229.00" y="115.58" width="11.12" height="39.42" rx="2" fill="#bd93f9"><title>16:00 — 215 commits</title></rect>
  <rect x="241.12" y="108.25" width="11.12" height="46.75" rx="2" fill="#bd93f9"><title>17:00 — 255 commits</title></rect>
  <rect x="253.25" y="116.32" width="11.12" height="38.68" rx="2" fill="#bd93f9"><title>18:00 — 211 commits</title></rect>
  <rect x="265.38" y="125.12" width="11.12" height="29.88" rx="2" fill="#bd93f9"><title>19:00 — 163 commits</title></rect>
  <rect x="277.50" y="82.22" width="11.12" height="72.78" rx="2" fill="#bd93f9"><title>20:00 — 397 commits</title></rect>
  <rect x="289.62" y="59.30" width="11.12" height="95.70" rx="2" fill="#bd93f9"><title>21:00 — 522 commits</title></rect>
  <rect x="301.75" y="76.72" width="11.12" height="78.28" rx="2" fill="#bd93f9"><title>22:00 — 427 commits</title></rect>
  <rect x="313.88" y="85.15" width="11.12" height="69.85" rx="2" fill="#bd93f9"><title>23:00 — 381 commits</title></rect>
  <text x="180" y="189" font-size="11" fill="#6272a4" text-anchor="middle">hour of day</text>
</svg>