<svg xmlns="http://www.w3.org/2000/svg" width="340" height="200" viewBox="0 0 340 200" font-family="'Segoe UI', Ubuntu, Sans-Serif">
  <rect x="0.5" y="0.5" width="339" height="199" rx="6" fill="#282a36" stroke="#282a36" stroke-opacity="1.00"/>
  <text x="20" y="30" font-size="15" font-weight="600" fill="#ff79c6">Commits by Hour (all time, UTC+7)</text>
  <line x1="35" y1="45" x2="35" y2="155" stroke="#6272a4"/>
  <line x1="31" y1="155" x2="35" y2="155" stroke="#6272a4"/>
  <text x="29" y="158" font-size="10" fill="#6272a4" text-anchor="end">0</text>
  <line x1="31" y1="137" x2="35" y2="137" stroke="#6272a4"/>
  <text x="29" y="140" font-size="10" fill="#6272a4" text-anchor="end">100</text>
  <line x1="31" y1="119" x2="35" y2="119" stroke="#6272a4"/>
  <text x="29" y="122" font-size="10" fill="#6272a4" text-anchor="end">200</text>
  <line x1="31" y1="100" x2="35" y2="100" stroke="#6272a4"/>
  <text x="29" y="103" font-size="10" fill="#6272a4" text-anchor="end">300</text>
  <line x1="31" y1="82" x2="35" y2="82" stroke="#6272a4"/>
  <text x="29" y="85" font-size="10" fill="#6272a4" text-anchor="end">400</text>
  <line x1="31" y1="64" x2="35" y2="64" stroke="#6272a4"/>
  <text x="29" y="67" font-size="10" fill="#6272a4" text-anchor="end">500</text>
  <line x1="31" y1="45" x2="35" y2="45" stroke="#6272a4"/>
  <text x="29" y="48" font-size="10" fill="#6272a4" text-anchor="end">600</text>
  <line x1="35" y1="155" x2="325" y2="155" stroke="#6272a4"/>
  <line x1="40" y1="155" x2="40" y2="159" stroke="#6272a4"/>
  <text x="40" y="171" font-size="10" fill="#6272a4" text-anchor="middle">0</text>
  <line x1="113" y1="155" x2="113" y2="159" stroke="#6272a4"/>
  <text x="113" y="171" font-size="10" fill="#6272a4" text-anchor="middle">6</text>
  <line x1="186" y1="155" x2="186" y2="159" stroke="#6272a4"/>
  <text x="186" y="171" font-size="10" fill="#6272a4" text-anchor="middle">12</text>
  <line x1="258" y1="155" x2="258" y2="159" stroke="#6272a4"/>
  <text x="258" y="171" font-size="10" fill="#6272a4" text-anchor="middle">18</text>
  <line x1="319" y1="155" x2="319" y2="159" stroke="#6272a4"/>
  <text x="319" y="171" font-size="10" fill="#6272a4" text-anchor="middle">23</text>
  <rect x="35.00" y="112.47" width="11.12" height="42.53" rx="2" fill="#bd93f9"><title>00:00 — 232 commits</title></rect>
  <rect x="47.12" y="142.17" width="11.12" height="12.83" rx="2" fill="#bd93f9"><title>01:00 — 70 commits</title></rect>
  <rect x="59.25" y="146.57" width="11.12" height="8.43" rx="2" fill="#bd93f9"><title>02:00 — 46 commits</title></rect>
  <rect x="71.38" y="150.23" width="11.12" height="4.77" rx="2" fill="#bd93f9"><title>03:00 — 26 commits</title></rect>
  <rect x="83.50" y="153.35" width="11.12" height="1.65" rx="2" fill="#bd93f9"><title>04:00 — 9 commits</title></rect>
  <rect x="95.62" y="153.72" width="11.12" height="1.28" rx="2" fill="#bd93f9"><title>05:00 — 7 commits</title></rect>
  <rect x="107.75" y="152.80" width="11.12" height="2.20" rx="2" fill="#bd93f9"><title>06:00 — 12 commits</title></rect>
  <rect x="119.88" y="151.33" width="11.12" height="3.67" rx="2" fill="#bd93f9"><title>07:00 — 20 commits</title></rect>
  <rect x="132.00" y="141.80" width="11.12" height="13.20" rx="2" fill="#bd93f9"><title>08:00 — 72 commits</title></rect>
  <rect x="144.12" y="106.23" width="11.12" height="48.77" rx="2" fill="#bd93f9"><title>09:00 — 266 commits</title></rect>
  <rect x="156.25" y="91.38" width="11.12" height="63.62" rx="2" fill="#bd93f9"><title>10:00 — 347 commits</title></rect>
  <rect x="168.38" y="97.07" width="11.12" height="57.93" rx="2" fill="#bd93f9"><title>11:00 — 316 commits</title></rect>
  <rect x="180.50" y="120.53" width="11.12" height="34.47" rx="2" fill="#bd93f9"><title>12:00 — 188 commits</title></rect>
  <rect x="192.62" y="117.05" width="11.12" height="37.95" rx="2" fill="#bd93f9"><title>13:00 — 207 commits</title></rect>
  <rect x="204.75" y="116.32" width="11.12" height="38.68" rx="2" fill="#bd93f9"><title>14:00 — 211 commits</title></rect>
  <rect x="216.88" y="119.43" width="11.12" height="35.57" rx="2" fill="#bd93f9"><title>15:00 — 194 commits</title></rect>
  <rect x="229.00" y="117.23" width="11.12" height="37.77" rx="2" fill="#bd93f9"><title>16:00 — 206 commits</title></rect>
  <rect x="241.12" y="116.87" width="11.12" height="38.13" rx="2" fill="#bd93f9"><title>17:00 — 208 commits</title></rect>
  <rect x="253.25" y="119.98" width="11.12" height="35.02" rx="2" fill="#bd93f9"><title>18:00 — 191 commits</title></rect>
  <rect x="265.38" y="126.77" width="11.12" height="28.23" rx="2" fill="#bd93f9"><title>19:00 — 154 commits</title></rect>
  <rect x="277.50" y="83.32" width="11.12" height="71.68" rx="2" fill="#bd93f9"><title>20:00 — 391 commits</title></rect>
  <rect x="289.62" y="59.48" width="11.12" height="95.52" rx="2" fill="#bd93f9"><title>21:00 — 521 commits</title></rect>
  <rect x="301.75" y="78.73" width="11.12" height="76.27" rx="2" fill="#bd93f9"><title>22:00 — 416 commits</title></rect>
  <rect x="313.88" y="87.53" width="11.12" height="67.47" rx="2" fill="#bd93f9"><title>23:00 — 368 commits</title></rect>
  <text x="180" y="189" font-size="11" fill="#6272a4" text-anchor="middle">hour of day</text>
</svg>