<svg xmlns="http://www.w3.org/2000/svg" width="340" height="200" viewBox="0 0 340 200" font-family="'Segoe UI', Ubuntu, Sans-Serif">
  <rect x="0.5" y="0.5" width="339" height="199" rx="6" fill="#282a36" stroke="#282a36" stroke-opacity="1.00"/>
  <text x="20" y="30" font-size="15" font-weight="600" fill="#ff79c6">Commits by Hour (last year, UTC+7)</text>
  <line x1="35" y1="45" x2="35" y2="155" stroke="#6272a4"/>
  <line x1="31" y1="155" x2="35" y2="155" stroke="#6272a4"/>
  <text x="29" y="158" font-size="10" fill="#6272a4" text-anchor="end">0</text>
  <line x1="31" y1="137" x2="35" y2="137" stroke="#6272a4"/>
  <text x="29" y="140" font-size="10" fill="#6272a4" text-anchor="end">50</text>
  <line x1="31" y1="119" x2="35" y2="119" stroke="#6272a4"/>
  <text x="29" y="122" font-size="10" fill="#6272a4" text-anchor="end">100</text>
  <line x1="31" y1="100" x2="35" y2="100" stroke="#6272a4"/>
  <text x="29" y="103" font-size="10" fill="#6272a4" text-anchor="end">150</text>
  <line x1="31" y1="82" x2="35" y2="82" stroke="#6272a4"/>
  <text x="29" y="85" font-size="10" fill="#6272a4" text-anchor="end">200</text>
  <line x1="31" y1="64" x2="35" y2="64" stroke="#6272a4"/>
  <text x="29" y="67" font-size="10" fill="#6272a4" text-anchor="end">250</text>
  <line x1="31" y1="45" x2="35" y2="45" stroke="#6272a4"/>
  <text x="29" y="48" font-size="10" fill="#6272a4" text-anchor="end">300</text>
  <line x1="35" y1="155" x2="325" y2="155" stroke="#6272a4"/>
  <line x1="40" y1="155" x2="40" y2="159" stroke="#6272a4"/>
  <text x="40" y="171" font-size="10" fill="#6272a4" text-anchor="middle">0</text>
  <line x1="113" y1="155" x2="113" y2="159" stroke="#6272a4"/>
  <text x="113" y="171" font-size="10" fill="#6272a4" text-anchor="middle">6</text>
  <line x1="186" y1="155" x2="186" y2="159" stroke="#6272a4"/>
  <text x="186" y="171" font-size="10" fill="#6272a4" text-anchor="middle">12</text>
  <line x1="258" y1="155" x2="258" y2="159" stroke="#6272a4"/>
  <text x="258" y="171" font-size="10" fill="#6272a4" text-anchor="middle">18</text>
  <line x1="319" y1="155" x2="319" y2="159" stroke="#6272a4"/>
  <text x="319" y="171" font-size="10" fill="#6272a4" text-anchor="middle">23</text>
  <rect x="35.00" y="104.40" width="11.12" height="50.60" rx="2" fill="#bd93f9"><title>00:00 — 138 commits</title></rect>
  <rect x="47.12" y="143.63" width="11.12" height="11.37" rx="2" fill="#bd93f9"><title>01:00 — 31 commits</title></rect>
  <rect x="59.25" y="142.17" width="11.12" height="12.83" rx="2" fill="#bd93f9"><title>02:00 — 35 commits</title></rect>
  <rect x="71.38" y="148.03" width="11.12" height="6.97" rx="2" fill="#bd93f9"><title>03:00 — 19 commits</title></rect>
  <rect x="83.50" y="155.00" width="11.12" height="0.00" rx="2" fill="#bd93f9"><title>04:00 — 0 commits</title></rect>
  <rect x="95.62" y="155.00" width="11.12" height="0.00" rx="2" fill="#bd93f9"><title>05:00 — 0 commits</title></rect>
  <rect x="107.75" y="153.53" width="11.12" height="1.47" rx="2" fill="#bd93f9"><title>06:00 — 4 commits</title></rect>
  <rect x="119.88" y="152.43" width="11.12" height="2.57" rx="2" fill="#bd93f9"><title>07:00 — 7 commits</title></rect>
  <rect x="132.00" y="134.83" width="11.12" height="20.17" rx="2" fill="#bd93f9"><title>08:00 — 55 commits</title></rect>
  <rect x="144.12" y="87.17" width="11.12" height="67.83" rx="2" fill="#bd93f9"><title>09:00 — 185 commits</title></rect>
  <rect x="156.25" y="63.33" width="11.12" height="91.67" rx="2" fill="#bd93f9"><title>10:00 — 250 commits</title></rect>
  <rect x="168.38" y="89.37" width="11.12" height="65.63" rx="2" fill="#bd93f9"><title>11:00 — 179 commits</title></rect>
  <rect x="180.50" y="120.90" width="11.12" height="34.10" rx="2" fill="#bd93f9"><title>12:00 — 93 commits</title></rect>
  <rect x="192.62" y="113.93" width="11.12" height="41.07" rx="2" fill="#bd93f9"><title>13:00 — 112 commits</title></rect>
  <rect x="204.75" y="120.53" width="11.12" height="34.47" rx="2" fill="#bd93f9"><title>14:00 — 94 commits</title></rect>
  <rect x="216.88" y="108.07" width="11.12" height="46.93" rx="2" fill="#bd93f9"><title>15:00 — 128 commits</title></rect>
  <rect x="229.00" y="101.47" width="11.12" height="53.53" rx="2" fill="#bd93f9"><title>16:00 — 146 commits</title></rect>
  <rect x="241.12" y="101.10" width="11.12" height="53.90" rx="2" fill="#bd93f9"><title>17:00 — 147 commits</title></rect>
  <rect x="253.25" y="118.33" width="11.12" height="36.67" rx="2" fill="#bd93f9"><title>18:00 — 100 commits</title></rect>
  <rect x="265.38" y="125.30" width="11.12" height="29.70" rx="2" fill="#bd93f9"><title>19:00 — 81 commits</title></rect>
  <rect x="277.50" y="65.53" width="11.12" height="89.47" rx="2" fill="#bd93f9"><title>20:00 — 244 commits</title></rect>
  <rect x="289.62" y="45.00" width="11.12" height="110.00" rx="2" fill="#bd93f9"><title>21:00 — 300 commits</title></rect>
  <rect x="301.75" y="61.13" width="11.12" height="93.87" rx="2" fill="#bd93f9"><title>22:00 — 256 commits</title></rect>
  <rect x="313.88" y="74.70" width="11.12" height="80.30" rx="2" fill="#bd93f9"><title>23:00 — 219 commits</title></rect>
  <text x="180" y="189" font-size="11" fill="#6272a4" text-anchor="middle">hour of day</text>
</svg>