<svg xmlns="http://www.w3.org/2000/svg" width="340" height="200" viewBox="0 0 340 200" font-family="'Segoe UI', Ubuntu, Sans-Serif">
  <rect x="0.5" y="0.5" width="339" height="199" rx="6" fill="#282a36" stroke="#282a36" stroke-opacity="1.00"/>
  <text x="20" y="30" font-size="15" font-weight="600" fill="#ff79c6">Commits by Hour (all time, UTC+7)</text>
  <line x1="35" y1="45" x2="35" y2="155" stroke="#6272a4"/>
  <line x1="31" y1="155" x2="35" y2="155" stroke="#6272a4"/>
  <text x="29" y="158" font-size="10" fill="#6272a4" text-anchor="end">0</text>
  <line x1="31" y1="128" x2="35" y2="128" stroke="#6272a4"/>
  <text x="29" y="131" font-size="10" fill="#6272a4" text-anchor="end">100</text>
  <line x1="31" y1="100" x2="35" y2="100" stroke="#6272a4"/>
  <text x="29" y="103" font-size="10" fill="#6272a4" text-anchor="end">200</text>
  <line x1="31" y1="73" x2="35" y2="73" stroke="#6272a4"/>
  <text x="29" y="76" font-size="10" fill="#6272a4" text-anchor="end">300</text>
  <line x1="31" y1="45" x2="35" y2="45" stroke="#6272a4"/>
  <text x="29" y="48" font-size="10" fill="#6272a4" text-anchor="end">400</text>
  <line x1="35" y1="155" x2="325" y2="155" stroke="#6272a4"/>
  <line x1="40" y1="155" x2="40" y2="159" stroke="#6272a4"/>
  <text x="40" y="171" font-size="10" fill="#6272a4" text-anchor="middle">0</text>
  <line x1="113" y1="155" x2="113" y2="159" stroke="#6272a4"/>
  <text x="113" y="171" font-size="10" fill="#6272a4" text-anchor="middle">6</text>
  <line x1="186" y1="155" x2="186" y2="159" stroke="#6272a4"/>
  <text x="186" y="171" font-size="10" fill="#6272a4" text-anchor="middle">12</text>
  <line x1="258" y1="155" x2="258" y2="159" stroke="#6272a4"/>
  <text x="258" y="171" font-size="10" fill="#6272a4" text-anchor="middle">18</text>
  <line x1="319" y1="155" x2="319" y2="159" stroke="#6272a4"/>
  <text x="319" y="171" font-size="10" fill="#6272a4" text-anchor="middle">23</text>
  <rect x="35.00" y="101.65" width="11.12" height="53.35" rx="2" fill="#bd93f9"><title>00:00 — 194 commits</title></rect>
  <rect x="47.12" y="137.68" width="11.12" height="17.32" rx="2" fill="#bd93f9"><title>01:00 — 63 commits</title></rect>
  <rect x="59.25" y="150.88" width="11.12" height="4.12" rx="2" fill="#bd93f9"><title>02:00 — 15 commits</title></rect>
  <rect x="71.38" y="151.97" width="11.12" height="3.02" rx="2" fill="#bd93f9"><title>03:00 — 11 commits</title></rect>
  <rect x="83.50" y="152.53" width="11.12" height="2.48" rx="2" fill="#bd93f9"><title>04:00 — 9 commits</title></rect>
  <rect x="95.62" y="153.07" width="11.12" height="1.93" rx="2" fill="#bd93f9"><title>05:00 — 7 commits</title></rect>
  <rect x="107.75" y="151.97" width="11.12" height="3.02" rx="2" fill="#bd93f9"><title>06:00 — 11 commits</title></rect>
  <rect x="119.88" y="150.05" width="11.12" height="4.95" rx="2" fill="#bd93f9"><title>07:00 — 18 commits</title></rect>
  <rect x="132.00" y="137.12" width="11.12" height="17.88" rx="2" fill="#bd93f9"><title>08:00 — 65 commits</title></rect>
  <rect x="144.12" y="109.90" width="11.12" height="45.10" rx="2" fill="#bd93f9"><title>09:00 — 164 commits</title></rect>
  <rect x="156.25" y="93.12" width="11.12" height="61.88" rx="2" fill="#bd93f9"><title>10:00 — 225 commits</title></rect>
  <rect x="168.38" y="95.05" width="11.12" height="59.95" rx="2" fill="#bd93f9"><title>11:00 — 218 commits</title></rect>
  <rect x="180.50" y="116.78" width="11.12" height="38.23" rx="2" fill="#bd93f9"><title>12:00 — 139 commits</title></rect>
  <rect x="192.62" y="113.75" width="11.12" height="41.25" rx="2" fill="#bd93f9"><title>13:00 — 150 commits</title></rect>
  <rect x="204.75" y="111.83" width="11.12" height="43.17" rx="2" fill="#bd93f9"><title>14:00 — 157 commits</title></rect>
  <rect x="216.88" y="123.65" width="11.12" height="31.35" rx="2" fill="#bd93f9"><title>15:00 — 114 commits</title></rect>
  <rect x="229.00" y="123.92" width="11.12" height="31.07" rx="2" fill="#bd93f9"><title>16:00 — 113 commits</title></rect>
  <rect x="241.12" y="123.38" width="11.12" height="31.62" rx="2" fill="#bd93f9"><title>17:00 — 115 commits</title></rect>
  <rect x="253.25" y="116.78" width="11.12" height="38.23" rx="2" fill="#bd93f9"><title>18:00 — 139 commits</title></rect>
  <rect x="265.38" y="120.35" width="11.12" height="34.65" rx="2" fill="#bd93f9"><title>19:00 — 126 commits</title></rect>
  <rect x="277.50" y="74.70" width="11.12" height="80.30" rx="2" fill="#bd93f9"><title>20:00 — 292 commits</title></rect>
  <rect x="289.62" y="50.22" width="11.12" height="104.78" rx="2" fill="#bd93f9"><title>21:00 — 381 commits</title></rect>
  <rect x="301.75" y="61.50" width="11.12" height="93.50" rx="2" fill="#bd93f9"><title>22:00 — 340 commits</title></rect>
  <rect x="313.88" y="66.45" width="11.12" height="88.55" rx="2" fill="#bd93f9"><title>23:00 — 322 commits</title></rect>
  <text x="180" y="189" font-size="11" fill="#6272a4" text-anchor="middle">hour of day</text>
</svg>