<svg xmlns="http://www.w3.org/2000/svg" width="340" height="200" viewBox="0 0 340 200" font-family="'Segoe UI', Ubuntu, Sans-Serif">
  <rect x="0.5" y="0.5" width="339" height="199" rx="6" fill="#282a36" stroke="#282a36" stroke-opacity="1.00"/>
  <text x="20" y="30" font-size="15" font-weight="600" fill="#ff79c6">Commits by Weekday (all time)</text>
  <line x1="35" y1="45" x2="35" y2="155" stroke="#6272a4"/>
  <line x1="31" y1="155" x2="35" y2="155" stroke="#6272a4"/>
  <text x="29" y="158" font-size="10" fill="#6272a4" text-anchor="end">0</text>
  <line x1="31" y1="133" x2="35" y2="133" stroke="#6272a4"/>
  <text x="29" y="136" font-size="10" fill="#6272a4" text-anchor="end">200</text>
  <line x1="31" y1="111" x2="35" y2="111" stroke="#6272a4"/>
  <text x="29" y="114" font-size="10" fill="#6272a4" text-anchor="end">400</text>
  <line x1="31" y1="89" x2="35" y2="89" stroke="#6272a4"/>
  <text x="29" y="92" font-size="10" fill="#6272a4" text-anchor="end">600</text>
  <line x1="31" y1="67" x2="35" y2="67" stroke="#6272a4"/>
  <text x="29" y="70" font-size="10" fill="#6272a4" text-anchor="end">800</text>
  <line x1="31" y1="45" x2="35" y2="45" stroke="#6272a4"/>
  <text x="29" y="48" font-size="10" fill="#6272a4" text-anchor="end">1k</text>
  <line x1="35" y1="155" x2="325" y2="155" stroke="#6272a4"/>
  <rect x="35.00" y="83.94" width="36.29" height="71.06" rx="2" fill="#7963a1"><title>Mon — 646 commits</title></rect>
  <text x="53.14" y="169" font-size="10" fill="#6272a4" text-anchor="middle">Mon</text>
  <rect x="77.29" y="98.57" width="36.29" height="56.43" rx="2" fill="#7963a1"><title>Tue — 513 commits</title></rect>
  <text x="95.43" y="169" font-size="10" fill="#6272a4" text-anchor="middle">Tue</text>
  <rect x="119.57" y="88.56" width="36.29" height="66.44" rx="2" fill="#7963a1"><title>Wed — 604 commits</title></rect>
  <text x="137.71" y="169" font-size="10" fill="#6272a4" text-anchor="middle">Wed</text>
  <rect x="161.86" y="97.69" width="36.29" height="57.31" rx="2" fill="#7963a1"><title>Thu — 521 commits</title></rect>
  <text x="180.00" y="169" font-size="10" fill="#6272a4" text-anchor="middle">Thu</text>
  <rect x="204.14" y="105.17" width="36.29" height="49.83" rx="2" fill="#7963a1"><title>Fri — 453 commits</title></rect>
  <text x="222.29" y="169" font-size="10" fill="#6272a4" text-anchor="middle">Fri</text>
  <rect x="246.43" y="55.78" width="36.29" height="99.22" rx="2" fill="#bd93f9"><title>Sat — 902 commits</title></rect>
  <text x="264.57" y="169" font-size="10" fill="#6272a4" text-anchor="middle">Sat</text>
  <rect x="288.71" y="70.08" width="36.29" height="84.92" rx="2" fill="#7963a1"><title>Sun — 772 commits</title></rect>
  <text x="306.86" y="169" font-size="10" fill="#6272a4" text-anchor="middle">Sun</text>
</svg>