<svg xmlns="http://www.w3.org/2000/svg" width="340" height="200" viewBox="0 0 340 200" font-family="'Segoe UI', Ubuntu, Sans-Serif">
  <rect x="0.5" y="0.5" width="339" height="199" rx="6" fill="#282a36" stroke="#282a36" stroke-opacity="1.00"/>
  <text x="20" y="30" font-size="15" font-weight="600" fill="#ff79c6">Commits by Hour (last year, UTC+7)</text>
  <line x1="35" y1="45" x2="35" y2="155" stroke="#6272a4"/>
  <line x1="31" y1="155" x2="35" y2="155" stroke="#6272a4"/>
  <text x="29" y="158" font-size="10" fill="#6272a4" text-anchor="end">0</text>
  <line x1="31" y1="140" x2="35" y2="140" stroke="#6272a4"/>
  <text x="29" y="143" font-size="10" fill="#6272a4" text-anchor="end">50</text>
  <line x1="31" y1="124" x2="35" y2="124" stroke="#6272a4"/>
  <text x="29" y="127" font-size="10" fill="#6272a4" text-anchor="end">100</text>
  <line x1="31" y1="108" x2="35" y2="108" stroke="#6272a4"/>
  <text x="29" y="111" font-size="10" fill="#6272a4" text-anchor="end">150</text>
  <line x1="31" y1="93" x2="35" y2="93" stroke="#6272a4"/>
  <text x="29" y="96" font-size="10" fill="#6272a4" text-anchor="end">200</text>
  <line x1="31" y1="77" x2="35" y2="77" stroke="#6272a4"/>
  <text x="29" y="80" font-size="10" fill="#6272a4" text-anchor="end">250</text>
  <line x1="31" y1="61" x2="35" y2="61" stroke="#6272a4"/>
  <text x="29" y="64" font-size="10" fill="#6272a4" text-anchor="end">300</text>
  <line x1="31" y1="45" x2="35" y2="45" stroke="#6272a4"/>
  <text x="29" y="48" font-size="10" fill="#6272a4" text-anchor="end">350</text>
  <line x1="35" y1="155" x2="325" y2="155" stroke="#6272a4"/>
  <line x1="40" y1="155" x2="40" y2="159" stroke="#6272a4"/>
  <text x="40" y="171" font-size="10" fill="#6272a4" text-anchor="middle">0</text>
  <line x1="113" y1="155" x2="113" y2="159" stroke="#6272a4"/>
  <text x="113" y="171" font-size="10" fill="#6272a4" text-anchor="middle">6</text>
  <line x1="186" y1="155" x2="186" y2="159" stroke="#6272a4"/>
  <text x="186" y="171" font-size="10" fill="#6272a4" text-anchor="middle">12</text>
  <line x1="258" y1="155" x2="258" y2="159" stroke="#6272a4"/>
  <text x="258" y="171" font-size="10" fill="#6272a4" text-anchor="middle">18</text>
  <line x1="319" y1="155" x2="319" y2="159" stroke="#6272a4"/>
  <text x="319" y="171" font-size="10" fill="#6272a4" text-anchor="middle">23</text>
  <rect x="35.00" y="108.49" width="11.12" height="46.51" rx="2" fill="#bd93f9"><title>00:00 — 148 commits</title></rect>
  <rect x="47.12" y="144.94" width="11.12" height="10.06" rx="2" fill="#bd93f9"><title>01:00 — 32 commits</title></rect>
  <rect x="59.25" y="144.00" width="11.12" height="11.00" rx="2" fill="#bd93f9"><title>02:00 — 35 commits</title></rect>
  <rect x="71.38" y="149.03" width="11.12" height="5.97" rx="2" fill="#bd93f9"><title>03:00 — 19 commits</title></rect>
  <rect x="83.50" y="155.00" width="11.12" height="0.00" rx="2" fill="#bd93f9"><title>04:00 — 0 commits</title></rect>
  <rect x="95.62" y="155.00" width="11.12" height="0.00" rx="2" fill="#bd93f9"><title>05:00 — 0 commits</title></rect>
  <rect x="107.75" y="153.74" width="11.12" height="1.26" rx="2" fill="#bd93f9"><title>06:00 — 4 commits</title></rect>
  <rect x="119.88" y="153.11" width="11.12" height="1.89" rx="2" fill="#bd93f9"><title>07:00 — 6 commits</title></rect>
  <rect x="132.00" y="137.40" width="11.12" height="17.60" rx="2" fill="#bd93f9"><title>08:00 — 56 commits</title></rect>
  <rect x="144.12" y="77.06" width="11.12" height="77.94" rx="2" fill="#bd93f9"><title>09:00 — 248 commits</title></rect>
  <rect x="156.25" y="67.63" width="11.12" height="87.37" rx="2" fill="#bd93f9"><title>10:00 — 278 commits</title></rect>
  <rect x="168.38" y="89.63" width="11.12" height="65.37" rx="2" fill="#bd93f9"><title>11:00 — 208 commits</title></rect>
  <rect x="180.50" y="122.63" width="11.12" height="32.37" rx="2" fill="#bd93f9"><title>12:00 — 103 commits</title></rect>
  <rect x="192.62" y="113.83" width="11.12" height="41.17" rx="2" fill="#bd93f9"><title>13:00 — 131 commits</title></rect>
  <rect x="204.75" y="116.66" width="11.12" height="38.34" rx="2" fill="#bd93f9"><title>14:00 — 122 commits</title></rect>
  <rect x="216.88" y="105.97" width="11.12" height="49.03" rx="2" fill="#bd93f9"><title>15:00 — 156 commits</title></rect>
  <rect x="229.00" y="103.14" width="11.12" height="51.86" rx="2" fill="#bd93f9"><title>16:00 — 165 commits</title></rect>
  <rect x="241.12" y="103.46" width="11.12" height="51.54" rx="2" fill="#bd93f9"><title>17:00 — 164 commits</title></rect>
  <rect x="253.25" y="119.17" width="11.12" height="35.83" rx="2" fill="#bd93f9"><title>18:00 — 114 commits</title></rect>
  <rect x="265.38" y="127.03" width="11.12" height="27.97" rx="2" fill="#bd93f9"><title>19:00 — 89 commits</title></rect>
  <rect x="277.50" y="75.80" width="11.12" height="79.20" rx="2" fill="#bd93f9"><title>20:00 — 252 commits</title></rect>
  <rect x="289.62" y="55.37" width="11.12" height="99.63" rx="2" fill="#bd93f9"><title>21:00 — 317 commits</title></rect>
  <rect x="301.75" y="67.63" width="11.12" height="87.37" rx="2" fill="#bd93f9"><title>22:00 — 278 commits</title></rect>
  <rect x="313.88" y="84.60" width="11.12" height="70.40" rx="2" fill="#bd93f9"><title>23:00 — 224 commits</title></rect>
  <text x="180" y="189" font-size="11" fill="#6272a4" text-anchor="middle">hour of day</text>
</svg>