<svg xmlns="http://www.w3.org/2000/svg" width="340" height="200" viewBox="0 0 340 200" font-family="'Segoe UI', Ubuntu, Sans-Serif">
  <rect x="0.5" y="0.5" width="339" height="199" rx="6" fill="#282a36" stroke="#282a36" stroke-opacity="1.00"/>
  <text x="20" y="30" font-size="15" font-weight="600" fill="#ff79c6">Repos Per Language</text>
  <rect x="20" y="47" width="10" height="10" fill="#f1e05a" stroke="#282a36" stroke-width="1"/>
  <text x="36" y="55" font-size="11" fill="#ffb86c">JavaScript 23.70%</text>
  <rect x="20" y="67" width="10" height="10" fill="#b07219" stroke="#282a36" stroke-width="1"/>
  <text x="36" y="75" font-size="11" fill="#ffb86c">Java 16.11%</text>
  <rect x="20" y="87" width="10" height="10" fill="#00ADD8" stroke="#282a36" stroke-width="1"/>
  <text x="36" y="95" font-size="11" fill="#ffb86c">Go 13.27%</text>
  <rect x="20" y="107" width="10" height="10" fill="#3572A5" stroke="#282a36" stroke-width="1"/>
  <text x="36" y="115" font-size="11" fill="#ffb86c">Python 10.43%</text>
  <rect x="20" y="127" width="10" height="10" fill="#e34c26" stroke="#282a36" stroke-width="1"/>
  <text x="36" y="135" font-size="11" fill="#ffb86c">HTML 7.58%</text>
  <rect x="20" y="147" width="10" height="10" fill="#f34b7d" stroke="#282a36" stroke-width="1"/>
  <text x="36" y="155" font-size="11" fill="#ffb86c">C++ 6.64%</text>
  <rect x="20" y="167" width="10" height="10" fill="#bd93f9" stroke="#282a36" stroke-width="1"/>
  <text x="36" y="175" font-size="11" fill="#ffb86c">Other 22.27%</text>
  <path d="M250.00,55.00 A55.00,55.00 0 0 1 304.82,105.50 L279.90,107.55 A30.00,30.00 0 0 0 250.00,80.00 Z" fill="#f1e05a" stroke="#282a36" stroke-width="1.5"/>
  <path d="M304.82,105.50 A55.00,55.00 0 0 1 282.86,154.11 L267.92,134.06 A30.00,30.00 0 0 0 279.90,107.55 Z" fill="#b07219" stroke="#282a36" stroke-width="1.5"/>
  <path d="M282.86,154.11 A55.00,55.00 0 0 1 239.42,163.97 L244.23,139.44 A30.00,30.00 0 0 0 267.92,134.06 Z" fill="#00ADD8" stroke="#282a36" stroke-width="1.5"/>
  <path d="M239.42,163.97 A55.00,55.00 0 0 1 208.73,146.35 L227.49,129.83 A30.00,30.00 0 0 0 244.23,139.44 Z" fill="#3572A5" stroke="#282a36" stroke-width="1.5"/>
  <path d="M208.73,146.35 A55.00,55.00 0 0 1 196.65,123.38 L220.90,117.30 A30.00,30.00 0 0 0 227.49,129.83 Z" fill="#e34c26" stroke="#282a36" stroke-width="1.5"/>
  <path d="M196.65,123.38 A55.00,55.00 0 0 1 195.80,100.63 L220.44,104.89 A30.00,30.00 0 0 0 220.90,117.30 Z" fill="#f34b7d" stroke="#282a36" stroke-width="1.5"/>
  <path d="M195.80,100.63 A55.00,55.00 0 0 1 250.00,55.00 L250.00,80.00 A30.00,30.00 0 0 0 220.44,104.89 Z" fill="#bd93f9" stroke="#282a36" stroke-width="1.5"/>
</svg>