<svg xmlns="http://www.w3.org/2000/svg" width="340" height="200" viewBox="0 0 340 200" font-family="'Segoe UI', Ubuntu, Sans-Serif">
  <rect x="0.5" y="0.5" width="339" height="199" rx="6" fill="#282a36" stroke="#282a36" stroke-opacity="1.00"/>
  <text x="20" y="30" font-size="15" font-weight="600" fill="#ff79c6">Repos Per Language</text>
  <rect x="20" y="47" width="10" height="10" fill="#f1e05a" stroke="#282a36" stroke-width="1"/>
  <text x="36" y="55" font-size="11" fill="#ffb86c">JavaScript 23.77%</text>
  <rect x="20" y="67" width="10" height="10" fill="#b07219" stroke="#282a36" stroke-width="1"/>
  <text x="36" y="75" font-size="11" fill="#ffb86c">Java 15.25%</text>
  <rect x="20" y="87" width="10" height="10" fill="#00ADD8" stroke="#282a36" stroke-width="1"/>
  <text x="36" y="95" font-size="11" fill="#ffb86c">Go 13.90%</text>
  <rect x="20" y="107" width="10" height="10" fill="#3572A5" stroke="#282a36" stroke-width="1"/>
  <text x="36" y="115" font-size="11" fill="#ffb86c">Python 9.42%</text>
  <rect x="20" y="127" width="10" height="10" fill="#e34c26" stroke="#282a36" stroke-width="1"/>
  <text x="36" y="135" font-size="11" fill="#ffb86c">HTML 8.07%</text>
  <rect x="20" y="147" width="10" height="10" fill="#f34b7d" stroke="#282a36" stroke-width="1"/>
  <text x="36" y="155" font-size="11" fill="#ffb86c">C++ 6.28%</text>
  <rect x="20" y="167" width="10" height="10" fill="#bd93f9" stroke="#282a36" stroke-width="1"/>
  <text x="36" y="175" font-size="11" fill="#ffb86c">Other 23.32%</text>
  <path d="M250.00,55.00 A55.00,55.00 0 0 1 304.83,105.74 L279.91,107.68 A30.00,30.00 0 0 0 250.00,80.00 Z" fill="#f1e05a" stroke="#282a36" stroke-width="1.5"/>
  <path d="M304.83,105.74 A55.00,55.00 0 0 1 285.02,152.41 L269.10,133.13 A30.00,30.00 0 0 0 279.91,107.68 Z" fill="#b07219" stroke="#282a36" stroke-width="1.5"/>
  <path d="M285.02,152.41 A55.00,55.00 0 0 1 239.98,164.08 L244.54,139.50 A30.00,30.00 0 0 0 269.10,133.13 Z" fill="#00ADD8" stroke="#282a36" stroke-width="1.5"/>
  <path d="M239.98,164.08 A55.00,55.00 0 0 1 211.52,149.30 L229.01,131.44 A30.00,30.00 0 0 0 244.54,139.50 Z" fill="#3572A5" stroke="#282a36" stroke-width="1.5"/>
  <path d="M211.52,149.30 A55.00,55.00 0 0 1 197.28,125.66 L221.24,118.54 A30.00,30.00 0 0 0 229.01,131.44 Z" fill="#e34c26" stroke="#282a36" stroke-width="1.5"/>
  <path d="M197.28,125.66 A55.00,55.00 0 0 1 195.31,104.20 L220.17,106.84 A30.00,30.00 0 0 0 221.24,118.54 Z" fill="#f34b7d" stroke="#282a36" stroke-width="1.5"/>
  <path d="M195.31,104.20 A55.00,55.00 0 0 1 250.00,55.00 L250.00,80.00 A30.00,30.00 0 0 0 220.17,106.84 Z" fill="#bd93f9" stroke="#282a36" stroke-width="1.5"/>
</svg>