<svg xmlns="http://www.w3.org/2000/svg" width="340" height="200" viewBox="0 0 340 200" font-family="'Segoe UI', Ubuntu, Sans-Serif">
  <rect x="0.5" y="0.5" width="339" height="199" rx="6" fill="#282a36" stroke="#282a36" stroke-opacity="1.00"/>
  <text x="20" y="30" font-size="15" font-weight="600" fill="#ff79c6">Repos Per Language</text>
  <rect x="20" y="47" width="10" height="10" fill="#f1e05a" stroke="#282a36" stroke-width="1"/>
  <text x="36" y="55" font-size="11" fill="#ffb86c">JavaScript 23.83%</text>
  <rect x="20" y="67" width="10" height="10" fill="#b07219" stroke="#282a36" stroke-width="1"/>
  <text x="36" y="75" font-size="11" fill="#ffb86c">Java 16.36%</text>
  <rect x="20" y="87" width="10" height="10" fill="#00ADD8" stroke="#282a36" stroke-width="1"/>
  <text x="36" y="95" font-size="11" fill="#ffb86c">Go 14.95%</text>
  <rect x="20" y="107" width="10" height="10" fill="#3572A5" stroke="#282a36" stroke-width="1"/>
  <text x="36" y="115" font-size="11" fill="#ffb86c">Python 9.35%</text>
  <rect x="20" y="127" width="10" height="10" fill="#e34c26" stroke="#282a36" stroke-width="1"/>
  <text x="36" y="135" font-size="11" fill="#ffb86c">HTML 7.94%</text>
  <rect x="20" y="147" width="10" height="10" fill="#f34b7d" stroke="#282a36" stroke-width="1"/>
  <text x="36" y="155" font-size="11" fill="#ffb86c">C++ 6.54%</text>
  <rect x="20" y="167" width="10" height="10" fill="#bd93f9" stroke="#282a36" stroke-width="1"/>
  <text x="36" y="175" font-size="11" fill="#ffb86c">Other 21.03%</text>
  <path d="M250.00,55.00 A55.00,55.00 0 0 1 304.85,105.97 L279.92,107.80 A30.00,30.00 0 0 0 250.00,80.00 Z" fill="#f1e05a" stroke="#282a36" stroke-width="1.5"/>
  <path d="M304.85,105.97 A55.00,55.00 0 0 1 281.80,154.87 L267.35,134.48 A30.00,30.00 0 0 0 279.92,107.80 Z" fill="#b07219" stroke="#282a36" stroke-width="1.5"/>
  <path d="M281.80,154.87 A55.00,55.00 0 0 1 232.54,162.16 L240.48,138.45 A30.00,30.00 0 0 0 267.35,134.48 Z" fill="#00ADD8" stroke="#282a36" stroke-width="1.5"/>
  <path d="M232.54,162.16 A55.00,55.00 0 0 1 206.57,143.75 L226.31,128.41 A30.00,30.00 0 0 0 240.48,138.45 Z" fill="#3572A5" stroke="#282a36" stroke-width="1.5"/>
  <path d="M206.57,143.75 A55.00,55.00 0 0 1 195.72,118.84 L220.39,114.82 A30.00,30.00 0 0 0 226.31,128.41 Z" fill="#e34c26" stroke="#282a36" stroke-width="1.5"/>
  <path d="M195.72,118.84 A55.00,55.00 0 0 1 196.70,96.42 L220.93,102.59 A30.00,30.00 0 0 0 220.39,114.82 Z" fill="#f34b7d" stroke="#282a36" stroke-width="1.5"/>
  <path d="M196.70,96.42 A55.00,55.00 0 0 1 250.00,55.00 L250.00,80.00 A30.00,30.00 0 0 0 220.93,102.59 Z" fill="#bd93f9" stroke="#282a36" stroke-width="1.5"/>
</svg>