<svg xmlns="http://www.w3.org/2000/svg" width="340" height="200" viewBox="0 0 340 200" font-family="'Segoe UI', Ubuntu, Sans-Serif">
  <rect x="0.5" y="0.5" width="339" height="199" rx="6" fill="#282a36" stroke="#282a36" stroke-opacity="1.00"/>
  <text x="20" y="30" font-size="15" font-weight="600" fill="#ff79c6">Repos Per Language</text>
  <rect x="20" y="47" width="10" height="10" fill="#f1e05a" stroke="#282a36" stroke-width="1"/>
  <text x="36" y="55" font-size="11" fill="#ffb86c">JavaScript 23.18%</text>
  <rect x="20" y="67" width="10" height="10" fill="#b07219" stroke="#282a36" stroke-width="1"/>
  <text x="36" y="75" font-size="11" fill="#ffb86c">Java 15.45%</text>
  <rect x="20" y="87" width="10" height="10" fill="#00ADD8" stroke="#282a36" stroke-width="1"/>
  <text x="36" y="95" font-size="11" fill="#ffb86c">Go 14.09%</text>
  <rect x="20" y="107" width="10" height="10" fill="#3572A5" stroke="#282a36" stroke-width="1"/>
  <text x="36" y="115" font-size="11" fill="#ffb86c">Python 9.09%</text>
  <rect x="20" y="127" width="10" height="10" fill="#e34c26" stroke="#282a36" stroke-width="1"/>
  <text x="36" y="135" font-size="11" fill="#ffb86c">HTML 8.18%</text>
  <rect x="20" y="147" width="10" height="10" fill="#f34b7d" stroke="#282a36" stroke-width="1"/>
  <text x="36" y="155" font-size="11" fill="#ffb86c">C++ 6.36%</text>
  <rect x="20" y="167" width="10" height="10" fill="#bd93f9" stroke="#282a36" stroke-width="1"/>
  <text x="36" y="175" font-size="11" fill="#ffb86c">Other 23.64%</text>
  <path d="M250.00,55.00 A55.00,55.00 0 0 1 304.64,103.73 L279.80,106.58 A30.00,30.00 0 0 0 250.00,80.00 Z" fill="#f1e05a" stroke="#282a36" stroke-width="1.5"/>
  <path d="M304.64,103.73 A55.00,55.00 0 0 1 286.02,151.57 L269.65,132.67 A30.00,30.00 0 0 0 279.80,106.58 Z" fill="#b07219" stroke="#282a36" stroke-width="1.5"/>
  <path d="M286.02,151.57 A55.00,55.00 0 0 1 240.62,164.19 L244.88,139.56 A30.00,30.00 0 0 0 269.65,132.67 Z" fill="#00ADD8" stroke="#282a36" stroke-width="1.5"/>
  <path d="M240.62,164.19 A55.00,55.00 0 0 1 212.81,150.52 L229.71,132.10 A30.00,30.00 0 0 0 244.88,139.56 Z" fill="#3572A5" stroke="#282a36" stroke-width="1.5"/>
  <path d="M212.81,150.52 A55.00,55.00 0 0 1 197.69,127.00 L221.47,119.27 A30.00,30.00 0 0 0 229.71,132.10 Z" fill="#e34c26" stroke="#282a36" stroke-width="1.5"/>
  <path d="M197.69,127.00 A55.00,55.00 0 0 1 195.20,105.29 L220.11,107.43 A30.00,30.00 0 0 0 221.47,119.27 Z" fill="#f34b7d" stroke="#282a36" stroke-width="1.5"/>
  <path d="M195.20,105.29 A55.00,55.00 0 0 1 250.00,55.00 L250.00,80.00 A30.00,30.00 0 0 0 220.11,107.43 Z" fill="#bd93f9" stroke="#282a36" stroke-width="1.5"/>
</svg>