<svg xmlns="http://www.w3.org/2000/svg" width="340" height="200" viewBox="0 0 340 200" font-family="'Segoe UI', Ubuntu, Sans-Serif">
  <rect x="0.5" y="0.5" width="339" height="199" rx="6" fill="#282a36" stroke="#282a36" stroke-opacity="1.00"/>
  <text x="20" y="30" font-size="15" font-weight="600" fill="#ff79c6">Repos Per Language</text>
  <rect x="20" y="47" width="10" height="10" fill="#f1e05a" stroke="#282a36" stroke-width="1"/>
  <text x="36" y="55" font-size="11" fill="#ffb86c">JavaScript 24.24%</text>
  <rect x="20" y="67" width="10" height="10" fill="#00ADD8" stroke="#282a36" stroke-width="1"/>
  <text x="36" y="75" font-size="11" fill="#ffb86c">Go 14.29%</text>
  <rect x="20" y="87" width="10" height="10" fill="#b07219" stroke="#282a36" stroke-width="1"/>
  <text x="36" y="95" font-size="11" fill="#ffb86c">Java 14.29%</text>
  <rect x="20" y="107" width="10" height="10" fill="#3572A5" stroke="#282a36" stroke-width="1"/>
  <text x="36" y="115" font-size="11" fill="#ffb86c">Python 9.96%</text>
  <rect x="20" y="127" width="10" height="10" fill="#e34c26" stroke="#282a36" stroke-width="1"/>
  <text x="36" y="135" font-size="11" fill="#ffb86c">HTML 7.79%</text>
  <rect x="20" y="147" width="10" height="10" fill="#3178c6" stroke="#282a36" stroke-width="1"/>
  <text x="36" y="155" font-size="11" fill="#ffb86c">TypeScript 6.49%</text>
  <rect x="20" y="167" width="10" height="10" fill="#bd93f9" stroke="#282a36" stroke-width="1"/>
  <text x="36" y="175" font-size="11" fill="#ffb86c">Other 22.94%</text>
  <path d="M250.00,55.00 A55.00,55.00 0 0 1 304.94,107.38 L279.97,108.57 A30.00,30.00 0 0 0 250.00,80.00 Z" fill="#f1e05a" stroke="#282a36" stroke-width="1.5"/>
  <path d="M304.94,107.38 A55.00,55.00 0 0 1 286.30,151.32 L269.80,132.54 A30.00,30.00 0 0 0 279.97,108.57 Z" fill="#00ADD8" stroke="#282a36" stroke-width="1.5"/>
  <path d="M286.30,151.32 A55.00,55.00 0 0 1 240.33,164.14 L244.72,139.53 A30.00,30.00 0 0 0 269.80,132.54 Z" fill="#b07219" stroke="#282a36" stroke-width="1.5"/>
  <path d="M240.33,164.14 A55.00,55.00 0 0 1 210.45,148.22 L228.43,130.85 A30.00,30.00 0 0 0 244.72,139.53 Z" fill="#3572A5" stroke="#282a36" stroke-width="1.5"/>
  <path d="M210.45,148.22 A55.00,55.00 0 0 1 197.12,125.14 L221.16,118.26 A30.00,30.00 0 0 0 228.43,130.85 Z" fill="#e34c26" stroke="#282a36" stroke-width="1.5"/>
  <path d="M197.12,125.14 A55.00,55.00 0 0 1 195.46,102.91 L220.25,106.13 A30.00,30.00 0 0 0 221.16,118.26 Z" fill="#3178c6" stroke="#282a36" stroke-width="1.5"/>
  <path d="M195.46,102.91 A55.00,55.00 0 0 1 250.00,55.00 L250.00,80.00 A30.00,30.00 0 0 0 220.25,106.13 Z" fill="#bd93f9" stroke="#282a36" stroke-width="1.5"/>
</svg>