<svg xmlns="http://www.w3.org/2000/svg" width="340" height="200" viewBox="0 0 340 200" font-family="'Segoe UI', Ubuntu, Sans-Serif">
  <rect x="0.5" y="0.5" width="339" height="199" rx="6" fill="#282a36" stroke="#282a36" stroke-opacity="1.00"/>
  <text x="20" y="30" font-size="15" font-weight="600" fill="#ff79c6">Repos Per Language</text>
  <rect x="20" y="47" width="10" height="10" fill="#f1e05a" stroke="#282a36" stroke-width="1"/>
  <text x="36" y="55" font-size="11" fill="#ffb86c">JavaScript 23.94%</text>
  <rect x="20" y="67" width="10" height="10" fill="#b07219" stroke="#282a36" stroke-width="1"/>
  <text x="36" y="75" font-size="11" fill="#ffb86c">Java 16.43%</text>
  <rect x="20" y="87" width="10" height="10" fill="#00ADD8" stroke="#282a36" stroke-width="1"/>
  <text x="36" y="95" font-size="11" fill="#ffb86c">Go 14.55%</text>
  <rect x="20" y="107" width="10" height="10" fill="#3572A5" stroke="#282a36" stroke-width="1"/>
  <text x="36" y="115" font-size="11" fill="#ffb86c">Python 9.39%</text>
  <rect x="20" y="127" width="10" height="10" fill="#e34c26" stroke="#282a36" stroke-width="1"/>
  <text x="36" y="135" font-size="11" fill="#ffb86c">HTML 7.98%</text>
  <rect x="20" y="147" width="10" height="10" fill="#f34b7d" stroke="#282a36" stroke-width="1"/>
  <text x="36" y="155" font-size="11" fill="#ffb86c">C++ 6.57%</text>
  <rect x="20" y="167" width="10" height="10" fill="#bd93f9" stroke="#282a36" stroke-width="1"/>
  <text x="36" y="175" font-size="11" fill="#ffb86c">Other 21.13%</text>
  <path d="M250.00,55.00 A55.00,55.00 0 0 1 304.88,106.35 L279.93,108.01 A30.00,30.00 0 0 0 250.00,80.00 Z" fill="#f1e05a" stroke="#282a36" stroke-width="1.5"/>
  <path d="M304.88,106.35 A55.00,55.00 0 0 1 281.27,155.25 L267.06,134.68 A30.00,30.00 0 0 0 279.93,108.01 Z" fill="#b07219" stroke="#282a36" stroke-width="1.5"/>
  <path d="M281.27,155.25 A55.00,55.00 0 0 1 233.24,162.38 L240.86,138.57 A30.00,30.00 0 0 0 267.06,134.68 Z" fill="#00ADD8" stroke="#282a36" stroke-width="1.5"/>
  <path d="M233.24,162.38 A55.00,55.00 0 0 1 206.93,144.20 L226.51,128.66 A30.00,30.00 0 0 0 240.86,138.57 Z" fill="#3572A5" stroke="#282a36" stroke-width="1.5"/>
  <path d="M206.93,144.20 A55.00,55.00 0 0 1 195.79,119.28 L220.43,115.06 A30.00,30.00 0 0 0 226.51,128.66 Z" fill="#e34c26" stroke="#282a36" stroke-width="1.5"/>
  <path d="M195.79,119.28 A55.00,55.00 0 0 1 196.62,96.75 L220.88,102.77 A30.00,30.00 0 0 0 220.43,115.06 Z" fill="#f34b7d" stroke="#282a36" stroke-width="1.5"/>
  <path d="M196.62,96.75 A55.00,55.00 0 0 1 250.00,55.00 L250.00,80.00 A30.00,30.00 0 0 0 220.88,102.77 Z" fill="#bd93f9" stroke="#282a36" stroke-width="1.5"/>
</svg>