<svg xmlns="http://www.w3.org/2000/svg" width="340" height="200" viewBox="0 0 340 200" font-family="'Segoe UI', Ubuntu, Sans-Serif">
  <rect x="0.5" y="0.5" width="339" height="199" rx="6" fill="#282a36" stroke="#282a36" stroke-opacity="1.00"/>
  <text x="20" y="30" font-size="15" font-weight="600" fill="#ff79c6">Repos Per Language</text>
  <rect x="20" y="47" width="10" height="10" fill="#f1e05a" stroke="#282a36" stroke-width="1"/>
  <text x="36" y="55" font-size="11" fill="#ffb86c">JavaScript 23.75%</text>
  <rect x="20" y="67" width="10" height="10" fill="#00ADD8" stroke="#282a36" stroke-width="1"/>
  <text x="36" y="75" font-size="11" fill="#ffb86c">Go 15.83%</text>
  <rect x="20" y="87" width="10" height="10" fill="#b07219" stroke="#282a36" stroke-width="1"/>
  <text x="36" y="95" font-size="11" fill="#ffb86c">Java 13.33%</text>
  <rect x="20" y="107" width="10" height="10" fill="#3572A5" stroke="#282a36" stroke-width="1"/>
  <text x="36" y="115" font-size="11" fill="#ffb86c">Python 9.58%</text>
  <rect x="20" y="127" width="10" height="10" fill="#e34c26" stroke="#282a36" stroke-width="1"/>
  <text x="36" y="135" font-size="11" fill="#ffb86c">HTML 7.50%</text>
  <rect x="20" y="147" width="10" height="10" fill="#f34b7d" stroke="#282a36" stroke-width="1"/>
  <text x="36" y="155" font-size="11" fill="#ffb86c">C++ 5.83%</text>
  <rect x="20" y="167" width="10" height="10" fill="#bd93f9" stroke="#282a36" stroke-width="1"/>
  <text x="36" y="175" font-size="11" fill="#ffb86c">Other 24.17%</text>
  <path d="M250.00,55.00 A55.00,55.00 0 0 1 304.83,105.68 L279.91,107.65 A30.00,30.00 0 0 0 250.00,80.00 Z" fill="#f1e05a" stroke="#282a36" stroke-width="1.5"/>
  <path d="M304.83,105.68 A55.00,55.00 0 0 1 283.48,153.63 L268.26,133.80 A30.00,30.00 0 0 0 279.91,107.65 Z" fill="#00ADD8" stroke="#282a36" stroke-width="1.5"/>
  <path d="M283.48,153.63 A55.00,55.00 0 0 1 239.98,164.08 L244.53,139.50 A30.00,30.00 0 0 0 268.26,133.80 Z" fill="#b07219" stroke="#282a36" stroke-width="1.5"/>
  <path d="M239.98,164.08 A55.00,55.00 0 0 1 211.11,148.89 L228.79,131.21 A30.00,30.00 0 0 0 244.53,139.50 Z" fill="#3572A5" stroke="#282a36" stroke-width="1.5"/>
  <path d="M211.11,148.89 A55.00,55.00 0 0 1 197.69,127.00 L221.47,119.27 A30.00,30.00 0 0 0 228.79,131.21 Z" fill="#e34c26" stroke="#282a36" stroke-width="1.5"/>
  <path d="M197.69,127.00 A55.00,55.00 0 0 1 195.08,107.12 L220.04,108.43 A30.00,30.00 0 0 0 221.47,119.27 Z" fill="#f34b7d" stroke="#282a36" stroke-width="1.5"/>
  <path d="M195.08,107.12 A55.00,55.00 0 0 1 250.00,55.00 L250.00,80.00 A30.00,30.00 0 0 0 220.04,108.43 Z" fill="#bd93f9" stroke="#282a36" stroke-width="1.5"/>
</svg>