<svg xmlns="http://www.w3.org/2000/svg" width="340" height="200" viewBox="0 0 340 200" font-family="'Segoe UI', Ubuntu, Sans-Serif">
  <rect x="0.5" y="0.5" width="339" height="199" rx="6" fill="#282a36" stroke="#282a36" stroke-opacity="1.00"/>
  <text x="20" y="30" font-size="15" font-weight="600" fill="#ff79c6">Repos Per Language</text>
  <rect x="20" y="47" width="10" height="10" fill="#f1e05a" stroke="#282a36" stroke-width="1"/>
  <text x="36" y="55" font-size="11" fill="#ffb86c">JavaScript 24.39%</text>
  <rect x="20" y="67" width="10" height="10" fill="#b07219" stroke="#282a36" stroke-width="1"/>
  <text x="36" y="75" font-size="11" fill="#ffb86c">Java 16.59%</text>
  <rect x="20" y="87" width="10" height="10" fill="#00ADD8" stroke="#282a36" stroke-width="1"/>
  <text x="36" y="95" font-size="11" fill="#ffb86c">Go 12.68%</text>
  <rect x="20" y="107" width="10" height="10" fill="#3572A5" stroke="#282a36" stroke-width="1"/>
  <text x="36" y="115" font-size="11" fill="#ffb86c">Python 10.73%</text>
  <rect x="20" y="127" width="10" height="10" fill="#e34c26" stroke="#282a36" stroke-width="1"/>
  <text x="36" y="135" font-size="11" fill="#ffb86c">HTML 7.32%</text>
  <rect x="20" y="147" width="10" height="10" fill="#f34b7d" stroke="#282a36" stroke-width="1"/>
  <text x="36" y="155" font-size="11" fill="#ffb86c">C++ 6.83%</text>
  <rect x="20" y="167" width="10" height="10" fill="#bd93f9" stroke="#282a36" stroke-width="1"/>
  <text x="36" y="175" font-size="11" fill="#ffb86c">Other 21.46%</text>
  <path d="M250.00,55.00 A55.00,55.00 0 0 1 304.96,107.89 L279.98,108.85 A30.00,30.00 0 0 0 250.00,80.00 Z" fill="#f1e05a" stroke="#282a36" stroke-width="1.5"/>
  <path d="M304.96,107.89 A55.00,55.00 0 0 1 279.54,156.39 L266.11,135.31 A30.00,30.00 0 0 0 279.98,108.85 Z" fill="#b07219" stroke="#282a36" stroke-width="1.5"/>
  <path d="M279.54,156.39 A55.00,55.00 0 0 1 237.47,163.55 L243.16,139.21 A30.00,30.00 0 0 0 266.11,135.31 Z" fill="#00ADD8" stroke="#282a36" stroke-width="1.5"/>
  <path d="M237.47,163.55 A55.00,55.00 0 0 1 206.77,144.01 L226.42,128.55 A30.00,30.00 0 0 0 243.16,139.21 Z" fill="#3572A5" stroke="#282a36" stroke-width="1.5"/>
  <path d="M206.77,144.01 A55.00,55.00 0 0 1 196.17,121.30 L220.64,116.16 A30.00,30.00 0 0 0 226.42,128.55 Z" fill="#e34c26" stroke="#282a36" stroke-width="1.5"/>
  <path d="M196.17,121.30 A55.00,55.00 0 0 1 196.35,97.88 L220.74,103.39 A30.00,30.00 0 0 0 220.64,116.16 Z" fill="#f34b7d" stroke="#282a36" stroke-width="1.5"/>
  <path d="M196.35,97.88 A55.00,55.00 0 0 1 250.00,55.00 L250.00,80.00 A30.00,30.00 0 0 0 220.74,103.39 Z" fill="#bd93f9" stroke="#282a36" stroke-width="1.5"/>
</svg>