<svg xmlns="http://www.w3.org/2000/svg" width="340" height="200" viewBox="0 0 340 200" font-family="'Segoe UI', Ubuntu, Sans-Serif">
  <rect x="0.5" y="0.5" width="339" height="199" rx="6" fill="#282a36" stroke="#282a36" stroke-opacity="1.00"/>
  <text x="20" y="30" font-size="15" font-weight="600" fill="#ff79c6">Repos Per Language</text>
  <rect x="20" y="47" width="10" height="10" fill="#f1e05a" stroke="#282a36" stroke-width="1"/>
  <text x="36" y="55" font-size="11" fill="#ffb86c">JavaScript 24.11%</text>
  <rect x="20" y="67" width="10" height="10" fill="#b07219" stroke="#282a36" stroke-width="1"/>
  <text x="36" y="75" font-size="11" fill="#ffb86c">Java 14.73%</text>
  <rect x="20" y="87" width="10" height="10" fill="#00ADD8" stroke="#282a36" stroke-width="1"/>
  <text x="36" y="95" font-size="11" fill="#ffb86c">Go 14.29%</text>
  <rect x="20" y="107" width="10" height="10" fill="#3572A5" stroke="#282a36" stroke-width="1"/>
  <text x="36" y="115" font-size="11" fill="#ffb86c">Python 9.38%</text>
  <rect x="20" y="127" width="10" height="10" fill="#e34c26" stroke="#282a36" stroke-width="1"/>
  <text x="36" y="135" font-size="11" fill="#ffb86c">HTML 8.04%</text>
  <rect x="20" y="147" width="10" height="10" fill="#f34b7d" stroke="#282a36" stroke-width="1"/>
  <text x="36" y="155" font-size="11" fill="#ffb86c">C++ 6.25%</text>
  <rect x="20" y="167" width="10" height="10" fill="#bd93f9" stroke="#282a36" stroke-width="1"/>
  <text x="36" y="175" font-size="11" fill="#ffb86c">Other 23.21%</text>
  <path d="M250.00,55.00 A55.00,55.00 0 0 1 304.91,106.92 L279.95,108.32 A30.00,30.00 0 0 0 250.00,80.00 Z" fill="#f1e05a" stroke="#282a36" stroke-width="1.5"/>
  <path d="M304.91,106.92 A55.00,55.00 0 0 1 285.48,152.02 L269.36,132.92 A30.00,30.00 0 0 0 279.95,108.32 Z" fill="#b07219" stroke="#282a36" stroke-width="1.5"/>
  <path d="M285.48,152.02 A55.00,55.00 0 0 1 239.27,163.94 L244.15,139.42 A30.00,30.00 0 0 0 269.36,132.92 Z" fill="#00ADD8" stroke="#282a36" stroke-width="1.5"/>
  <path d="M239.27,163.94 A55.00,55.00 0 0 1 211.11,148.89 L228.79,131.21 A30.00,30.00 0 0 0 244.15,139.42 Z" fill="#3572A5" stroke="#282a36" stroke-width="1.5"/>
  <path d="M211.11,148.89 A55.00,55.00 0 0 1 197.15,125.23 L221.17,118.31 A30.00,30.00 0 0 0 228.79,131.21 Z" fill="#e34c26" stroke="#282a36" stroke-width="1.5"/>
  <path d="M197.15,125.23 A55.00,55.00 0 0 1 195.35,103.84 L220.19,106.64 A30.00,30.00 0 0 0 221.17,118.31 Z" fill="#f34b7d" stroke="#282a36" stroke-width="1.5"/>
  <path d="M195.35,103.84 A55.00,55.00 0 0 1 250.00,55.00 L250.00,80.00 A30.00,30.00 0 0 0 220.19,106.64 Z" fill="#bd93f9" stroke="#282a36" stroke-width="1.5"/>
</svg>