<svg xmlns="http://www.w3.org/2000/svg" width="340" height="200" viewBox="0 0 340 200" font-family="'Segoe UI', Ubuntu, Sans-Serif">
  <rect x="0.5" y="0.5" width="339" height="199" rx="6" fill="#282a36" stroke="#282a36" stroke-opacity="1.00"/>
  <text x="20" y="30" font-size="15" font-weight="600" fill="#ff79c6">Repos Per Language</text>
  <rect x="20" y="47" width="10" height="10" fill="#f1e05a" stroke="#282a36" stroke-width="1"/>
  <text x="36" y="55" font-size="11" fill="#ffb86c">JavaScript 23.96%</text>
  <rect x="20" y="67" width="10" height="10" fill="#b07219" stroke="#282a36" stroke-width="1"/>
  <text x="36" y="75" font-size="11" fill="#ffb86c">Java 16.13%</text>
  <rect x="20" y="87" width="10" height="10" fill="#00ADD8" stroke="#282a36" stroke-width="1"/>
  <text x="36" y="95" font-size="11" fill="#ffb86c">Go 14.75%</text>
  <rect x="20" y="107" width="10" height="10" fill="#3572A5" stroke="#282a36" stroke-width="1"/>
  <text x="36" y="115" font-size="11" fill="#ffb86c">Python 9.22%</text>
  <rect x="20" y="127" width="10" height="10" fill="#e34c26" stroke="#282a36" stroke-width="1"/>
  <text x="36" y="135" font-size="11" fill="#ffb86c">HTML 8.29%</text>
  <rect x="20" y="147" width="10" height="10" fill="#f34b7d" stroke="#282a36" stroke-width="1"/>
  <text x="36" y="155" font-size="11" fill="#ffb86c">C++ 6.45%</text>
  <rect x="20" y="167" width="10" height="10" fill="#bd93f9" stroke="#282a36" stroke-width="1"/>
  <text x="36" y="175" font-size="11" fill="#ffb86c">Other 21.20%</text>
  <path d="M250.00,55.00 A55.00,55.00 0 0 1 304.88,106.42 L279.94,108.05 A30.00,30.00 0 0 0 250.00,80.00 Z" fill="#f1e05a" stroke="#282a36" stroke-width="1.5"/>
  <path d="M304.88,106.42 A55.00,55.00 0 0 1 282.07,154.68 L267.49,134.37 A30.00,30.00 0 0 0 279.94,108.05 Z" fill="#b07219" stroke="#282a36" stroke-width="1.5"/>
  <path d="M282.07,154.68 A55.00,55.00 0 0 1 233.54,162.48 L241.02,138.62 A30.00,30.00 0 0 0 267.49,134.37 Z" fill="#00ADD8" stroke="#282a36" stroke-width="1.5"/>
  <path d="M233.54,162.48 A55.00,55.00 0 0 1 207.50,144.91 L226.82,129.04 A30.00,30.00 0 0 0 241.02,138.62 Z" fill="#3572A5" stroke="#282a36" stroke-width="1.5"/>
  <path d="M207.50,144.91 A55.00,55.00 0 0 1 195.76,119.11 L220.41,114.97 A30.00,30.00 0 0 0 226.82,129.04 Z" fill="#e34c26" stroke="#282a36" stroke-width="1.5"/>
  <path d="M195.76,119.11 A55.00,55.00 0 0 1 196.56,96.99 L220.85,102.90 A30.00,30.00 0 0 0 220.41,114.97 Z" fill="#f34b7d" stroke="#282a36" stroke-width="1.5"/>
  <path d="M196.56,96.99 A55.00,55.00 0 0 1 250.00,55.00 L250.00,80.00 A30.00,30.00 0 0 0 220.85,102.90 Z" fill="#bd93f9" stroke="#282a36" stroke-width="1.5"/>
</svg>