<svg xmlns="http://www.w3.org/2000/svg" width="340" height="200" viewBox="0 0 340 200" font-family="'Segoe UI', Ubuntu, Sans-Serif">
  <rect x="0.5" y="0.5" width="339" height="199" rx="6" fill="#282a36" stroke="#282a36" stroke-opacity="1.00"/>
  <text x="20" y="30" font-size="15" font-weight="600" fill="#ff79c6">Repos Per Language</text>
  <rect x="20" y="47" width="10" height="10" fill="#f1e05a" stroke="#282a36" stroke-width="1"/>
  <text x="36" y="55" font-size="11" fill="#ffb86c">JavaScript 22.89%</text>
  <rect x="20" y="67" width="10" height="10" fill="#b07219" stroke="#282a36" stroke-width="1"/>
  <text x="36" y="75" font-size="11" fill="#ffb86c">Java 16.92%</text>
  <rect x="20" y="87" width="10" height="10" fill="#00ADD8" stroke="#282a36" stroke-width="1"/>
  <text x="36" y="95" font-size="11" fill="#ffb86c">Go 12.94%</text>
  <rect x="20" y="107" width="10" height="10" fill="#3572A5" stroke="#282a36" stroke-width="1"/>
  <text x="36" y="115" font-size="11" fill="#ffb86c">Python 10.95%</text>
  <rect x="20" y="127" width="10" height="10" fill="#e34c26" stroke="#282a36" stroke-width="1"/>
  <text x="36" y="135" font-size="11" fill="#ffb86c">HTML 7.46%</text>
  <rect x="20" y="147" width="10" height="10" fill="#f34b7d" stroke="#282a36" stroke-width="1"/>
  <text x="36" y="155" font-size="11" fill="#ffb86c">C++ 6.97%</text>
  <rect x="20" y="167" width="10" height="10" fill="#bd93f9" stroke="#282a36" stroke-width="1"/>
  <text x="36" y="175" font-size="11" fill="#ffb86c">Other 21.89%</text>
  <path d="M250.00,55.00 A55.00,55.00 0 0 1 304.52,102.71 L279.74,106.03 A30.00,30.00 0 0 0 250.00,80.00 Z" fill="#f1e05a" stroke="#282a36" stroke-width="1.5"/>
  <path d="M304.52,102.71 A55.00,55.00 0 0 1 282.88,154.09 L267.94,134.05 A30.00,30.00 0 0 0 279.74,106.03 Z" fill="#b07219" stroke="#282a36" stroke-width="1.5"/>
  <path d="M282.88,154.09 A55.00,55.00 0 0 1 240.59,164.19 L244.87,139.56 A30.00,30.00 0 0 0 267.94,134.05 Z" fill="#00ADD8" stroke="#282a36" stroke-width="1.5"/>
  <path d="M240.59,164.19 A55.00,55.00 0 0 1 208.33,145.90 L227.27,129.58 A30.00,30.00 0 0 0 244.87,139.56 Z" fill="#3572A5" stroke="#282a36" stroke-width="1.5"/>
  <path d="M208.33,145.90 A55.00,55.00 0 0 1 196.61,123.19 L220.88,117.20 A30.00,30.00 0 0 0 227.27,129.58 Z" fill="#e34c26" stroke="#282a36" stroke-width="1.5"/>
  <path d="M196.61,123.19 A55.00,55.00 0 0 1 196.05,99.32 L220.57,104.18 A30.00,30.00 0 0 0 220.88,117.20 Z" fill="#f34b7d" stroke="#282a36" stroke-width="1.5"/>
  <path d="M196.05,99.32 A55.00,55.00 0 0 1 250.00,55.00 L250.00,80.00 A30.00,30.00 0 0 0 220.57,104.18 Z" fill="#bd93f9" stroke="#282a36" stroke-width="1.5"/>
</svg>