<svg xmlns="http://www.w3.org/2000/svg" width="340" height="200" viewBox="0 0 340 200" font-family="'Segoe UI', Ubuntu, Sans-Serif">
  <rect x="0.5" y="0.5" width="339" height="199" rx="6" fill="#282a36" stroke="#282a36" stroke-opacity="1.00"/>
  <text x="20" y="30" font-size="15" font-weight="600" fill="#ff79c6">Repos Per Language</text>
  <rect x="20" y="47" width="10" height="10" fill="#f1e05a" stroke="#282a36" stroke-width="1"/>
  <text x="36" y="55" font-size="11" fill="#ffb86c">JavaScript 22.73%</text>
  <rect x="20" y="67" width="10" height="10" fill="#b07219" stroke="#282a36" stroke-width="1"/>
  <text x="36" y="75" font-size="11" fill="#ffb86c">Java 17.17%</text>
  <rect x="20" y="87" width="10" height="10" fill="#00ADD8" stroke="#282a36" stroke-width="1"/>
  <text x="36" y="95" font-size="11" fill="#ffb86c">Go 12.63%</text>
  <rect x="20" y="107" width="10" height="10" fill="#3572A5" stroke="#282a36" stroke-width="1"/>
  <text x="36" y="115" font-size="11" fill="#ffb86c">Python 10.61%</text>
  <rect x="20" y="127" width="10" height="10" fill="#e34c26" stroke="#282a36" stroke-width="1"/>
  <text x="36" y="135" font-size="11" fill="#ffb86c">HTML 7.58%</text>
  <rect x="20" y="147" width="10" height="10" fill="#f34b7d" stroke="#282a36" stroke-width="1"/>
  <text x="36" y="155" font-size="11" fill="#ffb86c">C++ 7.07%</text>
  <rect x="20" y="167" width="10" height="10" fill="#bd93f9" stroke="#282a36" stroke-width="1"/>
  <text x="36" y="175" font-size="11" fill="#ffb86c">Other 22.22%</text>
  <path d="M250.00,55.00 A55.00,55.00 0 0 1 304.44,102.17 L279.69,105.73 A30.00,30.00 0 0 0 250.00,80.00 Z" fill="#f1e05a" stroke="#282a36" stroke-width="1.5"/>
  <path d="M304.44,102.17 A55.00,55.00 0 0 1 282.61,154.29 L267.79,134.16 A30.00,30.00 0 0 0 279.69,105.73 Z" fill="#b07219" stroke="#282a36" stroke-width="1.5"/>
  <path d="M282.61,154.29 A55.00,55.00 0 0 1 241.31,164.31 L245.26,139.62 A30.00,30.00 0 0 0 267.79,134.16 Z" fill="#00ADD8" stroke="#282a36" stroke-width="1.5"/>
  <path d="M241.31,164.31 A55.00,55.00 0 0 1 209.60,147.32 L227.96,130.36 A30.00,30.00 0 0 0 245.26,139.62 Z" fill="#3572A5" stroke="#282a36" stroke-width="1.5"/>
  <path d="M209.60,147.32 A55.00,55.00 0 0 1 196.99,124.66 L221.08,117.99 A30.00,30.00 0 0 0 227.96,130.36 Z" fill="#e34c26" stroke="#282a36" stroke-width="1.5"/>
  <path d="M196.99,124.66 A55.00,55.00 0 0 1 195.84,100.45 L220.46,104.79 A30.00,30.00 0 0 0 221.08,117.99 Z" fill="#f34b7d" stroke="#282a36" stroke-width="1.5"/>
  <path d="M195.84,100.45 A55.00,55.00 0 0 1 250.00,55.00 L250.00,80.00 A30.00,30.00 0 0 0 220.46,104.79 Z" fill="#bd93f9" stroke="#282a36" stroke-width="1.5"/>
</svg>