<svg xmlns="http://www.w3.org/2000/svg" width="340" height="200" viewBox="0 0 340 200" font-family="'Segoe UI', Ubuntu, Sans-Serif">
  <rect x="0.5" y="0.5" width="339" height="199" rx="6" fill="#282a36" stroke="#282a36" stroke-opacity="1.00"/>
  <text x="20" y="30" font-size="15" font-weight="600" fill="#ff79c6">Repos Per Language</text>
  <rect x="20" y="47" width="10" height="10" fill="#f1e05a" stroke="#282a36" stroke-width="1"/>
  <text x="36" y="55" font-size="11" fill="#ffb86c">JavaScript 23.27%</text>
  <rect x="20" y="67" width="10" height="10" fill="#b07219" stroke="#282a36" stroke-width="1"/>
  <text x="36" y="75" font-size="11" fill="#ffb86c">Java 16.83%</text>
  <rect x="20" y="87" width="10" height="10" fill="#00ADD8" stroke="#282a36" stroke-width="1"/>
  <text x="36" y="95" font-size="11" fill="#ffb86c">Go 12.87%</text>
  <rect x="20" y="107" width="10" height="10" fill="#3572A5" stroke="#282a36" stroke-width="1"/>
  <text x="36" y="115" font-size="11" fill="#ffb86c">Python 10.89%</text>
  <rect x="20" y="127" width="10" height="10" fill="#e34c26" stroke="#282a36" stroke-width="1"/>
  <text x="36" y="135" font-size="11" fill="#ffb86c">HTML 7.43%</text>
  <rect x="20" y="147" width="10" height="10" fill="#f34b7d" stroke="#282a36" stroke-width="1"/>
  <text x="36" y="155" font-size="11" fill="#ffb86c">C++ 6.93%</text>
  <rect x="20" y="167" width="10" height="10" fill="#bd93f9" stroke="#282a36" stroke-width="1"/>
  <text x="36" y="175" font-size="11" fill="#ffb86c">Other 21.78%</text>
  <path d="M250.00,55.00 A55.00,55.00 0 0 1 304.67,104.02 L279.82,106.74 A30.00,30.00 0 0 0 250.00,80.00 Z" fill="#f1e05a" stroke="#282a36" stroke-width="1.5"/>
  <path d="M304.67,104.02 A55.00,55.00 0 0 1 282.05,154.70 L267.48,134.38 A30.00,30.00 0 0 0 279.82,106.74 Z" fill="#b07219" stroke="#282a36" stroke-width="1.5"/>
  <path d="M282.05,154.70 A55.00,55.00 0 0 1 239.79,164.04 L244.43,139.48 A30.00,30.00 0 0 0 267.48,134.38 Z" fill="#00ADD8" stroke="#282a36" stroke-width="1.5"/>
  <path d="M239.79,164.04 A55.00,55.00 0 0 1 207.93,145.43 L227.05,129.32 A30.00,30.00 0 0 0 244.43,139.48 Z" fill="#3572A5" stroke="#282a36" stroke-width="1.5"/>
  <path d="M207.93,145.43 A55.00,55.00 0 0 1 196.49,122.71 L220.81,116.94 A30.00,30.00 0 0 0 227.05,129.32 Z" fill="#e34c26" stroke="#282a36" stroke-width="1.5"/>
  <path d="M196.49,122.71 A55.00,55.00 0 0 1 196.12,98.96 L220.61,103.98 A30.00,30.00 0 0 0 220.81,116.94 Z" fill="#f34b7d" stroke="#282a36" stroke-width="1.5"/>
  <path d="M196.12,98.96 A55.00,55.00 0 0 1 250.00,55.00 L250.00,80.00 A30.00,30.00 0 0 0 220.61,103.98 Z" fill="#bd93f9" stroke="#282a36" stroke-width="1.5"/>
</svg>