<svg xmlns="http://www.w3.org/2000/svg" width="340" height="200" viewBox="0 0 340 200" font-family="'Segoe UI', Ubuntu, Sans-Serif">
  <rect x="0.5" y="0.5" width="339" height="199" rx="6" fill="#282a36" stroke="#282a36" stroke-opacity="1.00"/>
  <text x="20" y="30" font-size="15" font-weight="600" fill="#ff79c6">Repos Per Language</text>
  <rect x="20" y="47" width="10" height="10" fill="#f1e05a" stroke="#282a36" stroke-width="1"/>
  <text x="36" y="55" font-size="11" fill="#ffb86c">JavaScript 22.84%</text>
  <rect x="20" y="67" width="10" height="10" fill="#b07219" stroke="#282a36" stroke-width="1"/>
  <text x="36" y="75" font-size="11" fill="#ffb86c">Java 17.26%</text>
  <rect x="20" y="87" width="10" height="10" fill="#00ADD8" stroke="#282a36" stroke-width="1"/>
  <text x="36" y="95" font-size="11" fill="#ffb86c">Go 12.69%</text>
  <rect x="20" y="107" width="10" height="10" fill="#3572A5" stroke="#282a36" stroke-width="1"/>
  <text x="36" y="115" font-size="11" fill="#ffb86c">Python 10.15%</text>
  <rect x="20" y="127" width="10" height="10" fill="#e34c26" stroke="#282a36" stroke-width="1"/>
  <text x="36" y="135" font-size="11" fill="#ffb86c">HTML 7.61%</text>
  <rect x="20" y="147" width="10" height="10" fill="#f34b7d" stroke="#282a36" stroke-width="1"/>
  <text x="36" y="155" font-size="11" fill="#ffb86c">C++ 7.11%</text>
  <rect x="20" y="167" width="10" height="10" fill="#bd93f9" stroke="#282a36" stroke-width="1"/>
  <text x="36" y="175" font-size="11" fill="#ffb86c">Other 22.34%</text>
  <path d="M250.00,55.00 A55.00,55.00 0 0 1 304.50,102.57 L279.72,105.95 A30.00,30.00 0 0 0 250.00,80.00 Z" fill="#f1e05a" stroke="#282a36" stroke-width="1.5"/>
  <path d="M304.50,102.57 A55.00,55.00 0 0 1 282.04,154.70 L267.48,134.38 A30.00,30.00 0 0 0 279.72,105.95 Z" fill="#b07219" stroke="#282a36" stroke-width="1.5"/>
  <path d="M282.04,154.70 A55.00,55.00 0 0 1 240.40,164.16 L244.76,139.54 A30.00,30.00 0 0 0 267.48,134.38 Z" fill="#00ADD8" stroke="#282a36" stroke-width="1.5"/>
  <path d="M240.40,164.16 A55.00,55.00 0 0 1 210.04,147.79 L228.20,130.61 A30.00,30.00 0 0 0 244.76,139.54 Z" fill="#3572A5" stroke="#282a36" stroke-width="1.5"/>
  <path d="M210.04,147.79 A55.00,55.00 0 0 1 197.13,125.15 L221.16,118.26 A30.00,30.00 0 0 0 228.20,130.61 Z" fill="#e34c26" stroke="#282a36" stroke-width="1.5"/>
  <path d="M197.13,125.15 A55.00,55.00 0 0 1 195.77,100.83 L220.42,105.00 A30.00,30.00 0 0 0 221.16,118.26 Z" fill="#f34b7d" stroke="#282a36" stroke-width="1.5"/>
  <path d="M195.77,100.83 A55.00,55.00 0 0 1 250.00,55.00 L250.00,80.00 A30.00,30.00 0 0 0 220.42,105.00 Z" fill="#bd93f9" stroke="#282a36" stroke-width="1.5"/>
</svg>