<svg xmlns="http://www.w3.org/2000/svg" width="340" height="200" viewBox="0 0 340 200" font-family="'Segoe UI', Ubuntu, Sans-Serif">
  <rect x="0.5" y="0.5" width="339" height="199" rx="6" fill="#282a36" stroke="#282a36" stroke-opacity="1.00"/>
  <text x="20" y="30" font-size="15" font-weight="600" fill="#ff79c6">Repos Per Language</text>
  <rect x="20" y="47" width="10" height="10" fill="#f1e05a" stroke="#282a36" stroke-width="1"/>
  <text x="36" y="55" font-size="11" fill="#ffb86c">JavaScript 24.35%</text>
  <rect x="20" y="67" width="10" height="10" fill="#00ADD8" stroke="#282a36" stroke-width="1"/>
  <text x="36" y="75" font-size="11" fill="#ffb86c">Go 14.35%</text>
  <rect x="20" y="87" width="10" height="10" fill="#b07219" stroke="#282a36" stroke-width="1"/>
  <text x="36" y="95" font-size="11" fill="#ffb86c">Java 14.35%</text>
  <rect x="20" y="107" width="10" height="10" fill="#3572A5" stroke="#282a36" stroke-width="1"/>
  <text x="36" y="115" font-size="11" fill="#ffb86c">Python 9.57%</text>
  <rect x="20" y="127" width="10" height="10" fill="#e34c26" stroke="#282a36" stroke-width="1"/>
  <text x="36" y="135" font-size="11" fill="#ffb86c">HTML 7.83%</text>
  <rect x="20" y="147" width="10" height="10" fill="#3178c6" stroke="#282a36" stroke-width="1"/>
  <text x="36" y="155" font-size="11" fill="#ffb86c">TypeScript 6.52%</text>
  <rect x="20" y="167" width="10" height="10" fill="#bd93f9" stroke="#282a36" stroke-width="1"/>
  <text x="36" y="175" font-size="11" fill="#ffb86c">Other 23.04%</text>
  <path d="M250.00,55.00 A55.00,55.00 0 0 1 304.95,107.75 L279.97,108.77 A30.00,30.00 0 0 0 250.00,80.00 Z" fill="#f1e05a" stroke="#282a36" stroke-width="1.5"/>
  <path d="M304.95,107.75 A55.00,55.00 0 0 1 285.86,151.70 L269.56,132.75 A30.00,30.00 0 0 0 279.97,108.77 Z" fill="#00ADD8" stroke="#282a36" stroke-width="1.5"/>
  <path d="M285.86,151.70 A55.00,55.00 0 0 1 239.55,164.00 L244.30,139.45 A30.00,30.00 0 0 0 269.56,132.75 Z" fill="#b07219" stroke="#282a36" stroke-width="1.5"/>
  <path d="M239.55,164.00 A55.00,55.00 0 0 1 210.84,148.62 L228.64,131.07 A30.00,30.00 0 0 0 244.30,139.45 Z" fill="#3572A5" stroke="#282a36" stroke-width="1.5"/>
  <path d="M210.84,148.62 A55.00,55.00 0 0 1 197.25,125.56 L221.23,118.49 A30.00,30.00 0 0 0 228.64,131.07 Z" fill="#e34c26" stroke="#282a36" stroke-width="1.5"/>
  <path d="M197.25,125.56 A55.00,55.00 0 0 1 195.42,103.26 L220.23,106.32 A30.00,30.00 0 0 0 221.23,118.49 Z" fill="#3178c6" stroke="#282a36" stroke-width="1.5"/>
  <path d="M195.42,103.26 A55.00,55.00 0 0 1 250.00,55.00 L250.00,80.00 A30.00,30.00 0 0 0 220.23,106.32 Z" fill="#bd93f9" stroke="#282a36" stroke-width="1.5"/>
</svg>