<svg xmlns="http://www.w3.org/2000/svg" width="340" height="200" viewBox="0 0 340 200" font-family="'Segoe UI', Ubuntu, Sans-Serif">
  <rect x="0.5" y="0.5" width="339" height="199" rx="6" fill="#282a36" stroke="#282a36" stroke-opacity="1.00"/>
  <text x="20" y="30" font-size="15" font-weight="600" fill="#ff79c6">Repos Per Language</text>
  <rect x="20" y="47" width="10" height="10" fill="#f1e05a" stroke="#282a36" stroke-width="1"/>
  <text x="36" y="55" font-size="11" fill="#ffb86c">JavaScript 24.27%</text>
  <rect x="20" y="67" width="10" height="10" fill="#b07219" stroke="#282a36" stroke-width="1"/>
  <text x="36" y="75" font-size="11" fill="#ffb86c">Java 16.50%</text>
  <rect x="20" y="87" width="10" height="10" fill="#00ADD8" stroke="#282a36" stroke-width="1"/>
  <text x="36" y="95" font-size="11" fill="#ffb86c">Go 12.62%</text>
  <rect x="20" y="107" width="10" height="10" fill="#3572A5" stroke="#282a36" stroke-width="1"/>
  <text x="36" y="115" font-size="11" fill="#ffb86c">Python 10.68%</text>
  <rect x="20" y="127" width="10" height="10" fill="#e34c26" stroke="#282a36" stroke-width="1"/>
  <text x="36" y="135" font-size="11" fill="#ffb86c">HTML 7.28%</text>
  <rect x="20" y="147" width="10" height="10" fill="#f34b7d" stroke="#282a36" stroke-width="1"/>
  <text x="36" y="155" font-size="11" fill="#ffb86c">C++ 6.80%</text>
  <rect x="20" y="167" width="10" height="10" fill="#bd93f9" stroke="#282a36" stroke-width="1"/>
  <text x="36" y="175" font-size="11" fill="#ffb86c">Other 21.84%</text>
  <path d="M250.00,55.00 A55.00,55.00 0 0 1 304.94,107.48 L279.97,108.63 A30.00,30.00 0 0 0 250.00,80.00 Z" fill="#f1e05a" stroke="#282a36" stroke-width="1.5"/>
  <path d="M304.94,107.48 A55.00,55.00 0 0 1 280.12,156.02 L266.43,135.10 A30.00,30.00 0 0 0 279.97,108.63 Z" fill="#b07219" stroke="#282a36" stroke-width="1.5"/>
  <path d="M280.12,156.02 A55.00,55.00 0 0 1 238.35,163.75 L243.64,139.32 A30.00,30.00 0 0 0 266.43,135.10 Z" fill="#00ADD8" stroke="#282a36" stroke-width="1.5"/>
  <path d="M238.35,163.75 A55.00,55.00 0 0 1 207.45,144.85 L226.79,129.01 A30.00,30.00 0 0 0 243.64,139.32 Z" fill="#3572A5" stroke="#282a36" stroke-width="1.5"/>
  <path d="M207.45,144.85 A55.00,55.00 0 0 1 196.43,122.47 L220.78,116.80 A30.00,30.00 0 0 0 226.79,129.01 Z" fill="#e34c26" stroke="#282a36" stroke-width="1.5"/>
  <path d="M196.43,122.47 A55.00,55.00 0 0 1 196.08,99.17 L220.59,104.09 A30.00,30.00 0 0 0 220.78,116.80 Z" fill="#f34b7d" stroke="#282a36" stroke-width="1.5"/>
  <path d="M196.08,99.17 A55.00,55.00 0 0 1 250.00,55.00 L250.00,80.00 A30.00,30.00 0 0 0 220.59,104.09 Z" fill="#bd93f9" stroke="#282a36" stroke-width="1.5"/>
</svg>