<svg xmlns="http://www.w3.org/2000/svg" width="340" height="200" viewBox="0 0 340 200" font-family="'Segoe UI', Ubuntu, Sans-Serif">
  <rect x="0.5" y="0.5" width="339" height="199" rx="6" fill="#282a36" stroke="#282a36" stroke-opacity="1.00"/>
  <text x="20" y="30" font-size="15" font-weight="600" fill="#ff79c6">Repos Per Language</text>
  <rect x="20" y="47" width="10" height="10" fill="#f1e05a" stroke="#282a36" stroke-width="1"/>
  <text x="36" y="55" font-size="11" fill="#ffb86c">JavaScript 24.79%</text>
  <rect x="20" y="67" width="10" height="10" fill="#00ADD8" stroke="#282a36" stroke-width="1"/>
  <text x="36" y="75" font-size="11" fill="#ffb86c">Go 14.53%</text>
  <rect x="20" y="87" width="10" height="10" fill="#b07219" stroke="#282a36" stroke-width="1"/>
  <text x="36" y="95" font-size="11" fill="#ffb86c">Java 14.10%</text>
  <rect x="20" y="107" width="10" height="10" fill="#3572A5" stroke="#282a36" stroke-width="1"/>
  <text x="36" y="115" font-size="11" fill="#ffb86c">Python 9.83%</text>
  <rect x="20" y="127" width="10" height="10" fill="#e34c26" stroke="#282a36" stroke-width="1"/>
  <text x="36" y="135" font-size="11" fill="#ffb86c">HTML 7.69%</text>
  <rect x="20" y="147" width="10" height="10" fill="#3178c6" stroke="#282a36" stroke-width="1"/>
  <text x="36" y="155" font-size="11" fill="#ffb86c">TypeScript 6.41%</text>
  <rect x="20" y="167" width="10" height="10" fill="#bd93f9" stroke="#282a36" stroke-width="1"/>
  <text x="36" y="175" font-size="11" fill="#ffb86c">Other 22.65%</text>
  <path d="M250.00,55.00 A55.00,55.00 0 0 1 305.00,109.26 L280.00,109.60 A30.00,30.00 0 0 0 250.00,80.00 Z" fill="#f1e05a" stroke="#282a36" stroke-width="1.5"/>
  <path d="M305.00,109.26 A55.00,55.00 0 0 1 284.21,153.07 L268.66,133.49 A30.00,30.00 0 0 0 280.00,109.60 Z" fill="#00ADD8" stroke="#282a36" stroke-width="1.5"/>
  <path d="M284.21,153.07 A55.00,55.00 0 0 1 238.28,163.74 L243.61,139.31 A30.00,30.00 0 0 0 268.66,133.49 Z" fill="#b07219" stroke="#282a36" stroke-width="1.5"/>
  <path d="M238.28,163.74 A55.00,55.00 0 0 1 209.33,147.02 L227.81,130.19 A30.00,30.00 0 0 0 243.61,139.31 Z" fill="#3572A5" stroke="#282a36" stroke-width="1.5"/>
  <path d="M209.33,147.02 A55.00,55.00 0 0 1 196.78,123.88 L220.97,117.57 A30.00,30.00 0 0 0 227.81,130.19 Z" fill="#e34c26" stroke="#282a36" stroke-width="1.5"/>
  <path d="M196.78,123.88 A55.00,55.00 0 0 1 195.60,101.91 L220.33,105.59 A30.00,30.00 0 0 0 220.97,117.57 Z" fill="#3178c6" stroke="#282a36" stroke-width="1.5"/>
  <path d="M195.60,101.91 A55.00,55.00 0 0 1 250.00,55.00 L250.00,80.00 A30.00,30.00 0 0 0 220.33,105.59 Z" fill="#bd93f9" stroke="#282a36" stroke-width="1.5"/>
</svg>