<svg xmlns="http://www.w3.org/2000/svg" width="340" height="200" viewBox="0 0 340 200" font-family="'Segoe UI', Ubuntu, Sans-Serif">
  <rect x="0.5" y="0.5" width="339" height="199" rx="6" fill="#282a36" stroke="#282a36" stroke-opacity="1.00"/>
  <text x="20" y="30" font-size="15" font-weight="600" fill="#ff79c6">Repos Per Language</text>
  <rect x="20" y="47" width="10" height="10" fill="#f1e05a" stroke="#282a36" stroke-width="1"/>
  <text x="36" y="55" font-size="11" fill="#ffb86c">JavaScript 24.14%</text>
  <rect x="20" y="67" width="10" height="10" fill="#00ADD8" stroke="#282a36" stroke-width="1"/>
  <text x="36" y="75" font-size="11" fill="#ffb86c">Go 14.66%</text>
  <rect x="20" y="87" width="10" height="10" fill="#b07219" stroke="#282a36" stroke-width="1"/>
  <text x="36" y="95" font-size="11" fill="#ffb86c">Java 14.22%</text>
  <rect x="20" y="107" width="10" height="10" fill="#3572A5" stroke="#282a36" stroke-width="1"/>
  <text x="36" y="115" font-size="11" fill="#ffb86c">Python 9.91%</text>
  <rect x="20" y="127" width="10" height="10" fill="#e34c26" stroke="#282a36" stroke-width="1"/>
  <text x="36" y="135" font-size="11" fill="#ffb86c">HTML 7.76%</text>
  <rect x="20" y="147" width="10" height="10" fill="#3178c6" stroke="#282a36" stroke-width="1"/>
  <text x="36" y="155" font-size="11" fill="#ffb86c">TypeScript 6.47%</text>
  <rect x="20" y="167" width="10" height="10" fill="#bd93f9" stroke="#282a36" stroke-width="1"/>
  <text x="36" y="175" font-size="11" fill="#ffb86c">Other 22.84%</text>
  <path d="M250.00,55.00 A55.00,55.00 0 0 1 304.92,107.02 L279.96,108.38 A30.00,30.00 0 0 0 250.00,80.00 Z" fill="#f1e05a" stroke="#282a36" stroke-width="1.5"/>
  <path d="M304.92,107.02 A55.00,55.00 0 0 1 285.61,151.92 L269.42,132.86 A30.00,30.00 0 0 0 279.96,108.38 Z" fill="#00ADD8" stroke="#282a36" stroke-width="1.5"/>
  <path d="M285.61,151.92 A55.00,55.00 0 0 1 239.64,164.01 L244.35,139.46 A30.00,30.00 0 0 0 269.42,132.86 Z" fill="#b07219" stroke="#282a36" stroke-width="1.5"/>
  <path d="M239.64,164.01 A55.00,55.00 0 0 1 210.07,147.82 L228.22,130.63 A30.00,30.00 0 0 0 244.35,139.46 Z" fill="#3572A5" stroke="#282a36" stroke-width="1.5"/>
  <path d="M210.07,147.82 A55.00,55.00 0 0 1 197.00,124.71 L221.09,118.03 A30.00,30.00 0 0 0 228.22,130.63 Z" fill="#e34c26" stroke="#282a36" stroke-width="1.5"/>
  <path d="M197.00,124.71 A55.00,55.00 0 0 1 195.50,102.57 L220.27,105.95 A30.00,30.00 0 0 0 221.09,118.03 Z" fill="#3178c6" stroke="#282a36" stroke-width="1.5"/>
  <path d="M195.50,102.57 A55.00,55.00 0 0 1 250.00,55.00 L250.00,80.00 A30.00,30.00 0 0 0 220.27,105.95 Z" fill="#bd93f9" stroke="#282a36" stroke-width="1.5"/>
</svg>