<svg xmlns="http://www.w3.org/2000/svg" width="340" height="200" viewBox="0 0 340 200" font-family="'Segoe UI', Ubuntu, Sans-Serif">
  <rect x="0.5" y="0.5" width="339" height="199" rx="6" fill="#282a36" stroke="#282a36" stroke-opacity="1.00"/>
  <text x="20" y="30" font-size="15" font-weight="600" fill="#ff79c6">Repos Per Language</text>
  <rect x="20" y="47" width="10" height="10" fill="#f1e05a" stroke="#282a36" stroke-width="1"/>
  <text x="36" y="55" font-size="11" fill="#ffb86c">JavaScript 23.81%</text>
  <rect x="20" y="67" width="10" height="10" fill="#b07219" stroke="#282a36" stroke-width="1"/>
  <text x="36" y="75" font-size="11" fill="#ffb86c">Java 16.19%</text>
  <rect x="20" y="87" width="10" height="10" fill="#00ADD8" stroke="#282a36" stroke-width="1"/>
  <text x="36" y="95" font-size="11" fill="#ffb86c">Go 12.86%</text>
  <rect x="20" y="107" width="10" height="10" fill="#3572A5" stroke="#282a36" stroke-width="1"/>
  <text x="36" y="115" font-size="11" fill="#ffb86c">Python 10.48%</text>
  <rect x="20" y="127" width="10" height="10" fill="#e34c26" stroke="#282a36" stroke-width="1"/>
  <text x="36" y="135" font-size="11" fill="#ffb86c">HTML 7.62%</text>
  <rect x="20" y="147" width="10" height="10" fill="#f34b7d" stroke="#282a36" stroke-width="1"/>
  <text x="36" y="155" font-size="11" fill="#ffb86c">C++ 6.67%</text>
  <rect x="20" y="167" width="10" height="10" fill="#bd93f9" stroke="#282a36" stroke-width="1"/>
  <text x="36" y="175" font-size="11" fill="#ffb86c">Other 22.38%</text>
  <path d="M250.00,55.00 A55.00,55.00 0 0 1 304.85,105.89 L279.92,107.76 A30.00,30.00 0 0 0 250.00,80.00 Z" fill="#f1e05a" stroke="#282a36" stroke-width="1.5"/>
  <path d="M304.85,105.89 A55.00,55.00 0 0 1 282.33,154.50 L267.63,134.27 A30.00,30.00 0 0 0 279.92,107.76 Z" fill="#b07219" stroke="#282a36" stroke-width="1.5"/>
  <path d="M282.33,154.50 A55.00,55.00 0 0 1 240.18,164.12 L244.64,139.52 A30.00,30.00 0 0 0 267.63,134.27 Z" fill="#00ADD8" stroke="#282a36" stroke-width="1.5"/>
  <path d="M240.18,164.12 A55.00,55.00 0 0 1 209.13,146.80 L227.71,130.07 A30.00,30.00 0 0 0 244.64,139.52 Z" fill="#3572A5" stroke="#282a36" stroke-width="1.5"/>
  <path d="M209.13,146.80 A55.00,55.00 0 0 1 196.77,123.84 L220.96,117.55 A30.00,30.00 0 0 0 227.71,130.07 Z" fill="#e34c26" stroke="#282a36" stroke-width="1.5"/>
  <path d="M196.77,123.84 A55.00,55.00 0 0 1 195.74,100.99 L220.41,105.09 A30.00,30.00 0 0 0 220.96,117.55 Z" fill="#f34b7d" stroke="#282a36" stroke-width="1.5"/>
  <path d="M195.74,100.99 A55.00,55.00 0 0 1 250.00,55.00 L250.00,80.00 A30.00,30.00 0 0 0 220.41,105.09 Z" fill="#bd93f9" stroke="#282a36" stroke-width="1.5"/>
</svg>