<svg xmlns="http://www.w3.org/2000/svg" width="340" height="200" viewBox="0 0 340 200" font-family="'Segoe UI', Ubuntu, Sans-Serif">
  <rect x="0.5" y="0.5" width="339" height="199" rx="6" fill="#282a36" stroke="#282a36" stroke-opacity="1.00"/>
  <text x="20" y="30" font-size="15" font-weight="600" fill="#ff79c6">Repos Per Language</text>
  <rect x="20" y="47" width="10" height="10" fill="#f1e05a" stroke="#282a36" stroke-width="1"/>
  <text x="36" y="55" font-size="11" fill="#ffb86c">JavaScript 23.79%</text>
  <rect x="20" y="67" width="10" height="10" fill="#00ADD8" stroke="#282a36" stroke-width="1"/>
  <text x="36" y="75" font-size="11" fill="#ffb86c">Go 14.54%</text>
  <rect x="20" y="87" width="10" height="10" fill="#b07219" stroke="#282a36" stroke-width="1"/>
  <text x="36" y="95" font-size="11" fill="#ffb86c">Java 14.54%</text>
  <rect x="20" y="107" width="10" height="10" fill="#3572A5" stroke="#282a36" stroke-width="1"/>
  <text x="36" y="115" font-size="11" fill="#ffb86c">Python 9.25%</text>
  <rect x="20" y="127" width="10" height="10" fill="#e34c26" stroke="#282a36" stroke-width="1"/>
  <text x="36" y="135" font-size="11" fill="#ffb86c">HTML 7.93%</text>
  <rect x="20" y="147" width="10" height="10" fill="#3178c6" stroke="#282a36" stroke-width="1"/>
  <text x="36" y="155" font-size="11" fill="#ffb86c">TypeScript 6.61%</text>
  <rect x="20" y="167" width="10" height="10" fill="#bd93f9" stroke="#282a36" stroke-width="1"/>
  <text x="36" y="175" font-size="11" fill="#ffb86c">Other 23.35%</text>
  <path d="M250.00,55.00 A55.00,55.00 0 0 1 304.84,105.82 L279.91,107.72 A30.00,30.00 0 0 0 250.00,80.00 Z" fill="#f1e05a" stroke="#282a36" stroke-width="1.5"/>
  <path d="M304.84,105.82 A55.00,55.00 0 0 1 286.82,150.86 L270.08,132.29 A30.00,30.00 0 0 0 279.91,107.72 Z" fill="#00ADD8" stroke="#282a36" stroke-width="1.5"/>
  <path d="M286.82,150.86 A55.00,55.00 0 0 1 240.16,164.11 L244.63,139.52 A30.00,30.00 0 0 0 270.08,132.29 Z" fill="#b07219" stroke="#282a36" stroke-width="1.5"/>
  <path d="M240.16,164.11 A55.00,55.00 0 0 1 212.06,149.82 L229.31,131.72 A30.00,30.00 0 0 0 244.63,139.52 Z" fill="#3572A5" stroke="#282a36" stroke-width="1.5"/>
  <path d="M212.06,149.82 A55.00,55.00 0 0 1 197.65,126.85 L221.44,119.19 A30.00,30.00 0 0 0 229.31,131.72 Z" fill="#e34c26" stroke="#282a36" stroke-width="1.5"/>
  <path d="M197.65,126.85 A55.00,55.00 0 0 1 195.30,104.30 L220.16,106.89 A30.00,30.00 0 0 0 221.44,119.19 Z" fill="#3178c6" stroke="#282a36" stroke-width="1.5"/>
  <path d="M195.30,104.30 A55.00,55.00 0 0 1 250.00,55.00 L250.00,80.00 A30.00,30.00 0 0 0 220.16,106.89 Z" fill="#bd93f9" stroke="#282a36" stroke-width="1.5"/>
</svg>