<svg xmlns="http://www.w3.org/2000/svg" width="340" height="200" viewBox="0 0 340 200" font-family="'Segoe UI', Ubuntu, Sans-Serif">
  <rect x="0.5" y="0.5" width="339" height="199" rx="6" fill="#282a36" stroke="#282a36" stroke-opacity="1.00"/>
  <text x="20" y="30" font-size="15" font-weight="600" fill="#ff79c6">Repos Per Language</text>
  <rect x="20" y="47" width="10" height="10" fill="#f1e05a" stroke="#282a36" stroke-width="1"/>
  <text x="36" y="55" font-size="11" fill="#ffb86c">JavaScript 24.52%</text>
  <rect x="20" y="67" width="10" height="10" fill="#b07219" stroke="#282a36" stroke-width="1"/>
  <text x="36" y="75" font-size="11" fill="#ffb86c">Java 16.35%</text>
  <rect x="20" y="87" width="10" height="10" fill="#00ADD8" stroke="#282a36" stroke-width="1"/>
  <text x="36" y="95" font-size="11" fill="#ffb86c">Go 12.50%</text>
  <rect x="20" y="107" width="10" height="10" fill="#3572A5" stroke="#282a36" stroke-width="1"/>
  <text x="36" y="115" font-size="11" fill="#ffb86c">Python 10.58%</text>
  <rect x="20" y="127" width="10" height="10" fill="#e34c26" stroke="#282a36" stroke-width="1"/>
  <text x="36" y="135" font-size="11" fill="#ffb86c">HTML 7.21%</text>
  <rect x="20" y="147" width="10" height="10" fill="#f34b7d" stroke="#282a36" stroke-width="1"/>
  <text x="36" y="155" font-size="11" fill="#ffb86c">C++ 6.73%</text>
  <rect x="20" y="167" width="10" height="10" fill="#bd93f9" stroke="#282a36" stroke-width="1"/>
  <text x="36" y="175" font-size="11" fill="#ffb86c">Other 22.12%</text>
  <path d="M250.00,55.00 A55.00,55.00 0 0 1 304.97,108.34 L279.99,109.09 A30.00,30.00 0 0 0 250.00,80.00 Z" fill="#f1e05a" stroke="#282a36" stroke-width="1.5"/>
  <path d="M304.97,108.34 A55.00,55.00 0 0 1 279.86,156.19 L266.29,135.19 A30.00,30.00 0 0 0 279.99,109.09 Z" fill="#b07219" stroke="#282a36" stroke-width="1.5"/>
  <path d="M279.86,156.19 A55.00,55.00 0 0 1 238.46,163.77 L243.70,139.33 A30.00,30.00 0 0 0 266.29,135.19 Z" fill="#00ADD8" stroke="#282a36" stroke-width="1.5"/>
  <path d="M238.46,163.77 A55.00,55.00 0 0 1 207.75,145.21 L226.95,129.21 A30.00,30.00 0 0 0 243.70,139.33 Z" fill="#3572A5" stroke="#282a36" stroke-width="1.5"/>
  <path d="M207.75,145.21 A55.00,55.00 0 0 1 196.60,123.16 L220.87,117.18 A30.00,30.00 0 0 0 226.95,129.21 Z" fill="#e34c26" stroke="#282a36" stroke-width="1.5"/>
  <path d="M196.60,123.16 A55.00,55.00 0 0 1 195.90,100.09 L220.49,104.59 A30.00,30.00 0 0 0 220.87,117.18 Z" fill="#f34b7d" stroke="#282a36" stroke-width="1.5"/>
  <path d="M195.90,100.09 A55.00,55.00 0 0 1 250.00,55.00 L250.00,80.00 A30.00,30.00 0 0 0 220.49,104.59 Z" fill="#bd93f9" stroke="#282a36" stroke-width="1.5"/>
</svg>