<svg xmlns="http://www.w3.org/2000/svg" width="340" height="200" viewBox="0 0 340 200"><style>* {
          font-family: 'Segoe UI', Ubuntu, "Helvetica Neue", Sans-Serif
        }</style><rect x="1" y="1" rx="5" ry="5" height="99%" width="99.41176470588235%" stroke="#3f3f3f" stroke-width="1" fill="#3f3f3f" stroke-opacity="1"></rect><text x="30" y="40" style="font-size: 22px; fill: #f0dfaf;">Top Languages by Commit</text><g transform="translate(0,40)"><g transform="translate(40,0)"><rect y="18" width="14" height="14" fill="#f1e05a" stroke="#3f3f3f" style="stroke-width: 1px;"></rect><rect y="43.2" width="14" height="14" fill="#b07219" stroke="#3f3f3f" style="stroke-width: 1px;"></rect><rect y="68.4" width="14" height="14" fill="#00ADD8" stroke="#3f3f3f" style="stroke-width: 1px;"></rect><rect y="93.60000000000002" width="14" height="14" fill="#3572A5" stroke="#3f3f3f" style="stroke-width: 1px;"></rect><rect y="118.80000000000001" width="14" height="14" fill="#3178c6" stroke="#3f3f3f" style="stroke-width: 1px;"></rect><text x="16.8" y="30" style="fill: #dcdccc; font-size: 14px;">JavaScript</text><text x="16.8" y="55.2" style="fill: #dcdccc; font-size: 14px;">Java</text><text x="16.8" y="80.4" style="fill: #dcdccc; font-size: 14px;">Go</text><text x="16.8" y="105.60000000000002" style="fill: #dcdccc; font-size: 14px;">Python</text><text x="16.8" y="130.8" style="fill: #dcdccc; font-size: 14px;">TypeScript</text></g><g transform="translate( 230, 80 )"><g class="arc"><path d="M3.67394039744206e-15,-60A60,60,0,1,1,-45.02605339538266,39.65670833082531L-26.265197813973217,23.1330798596481A35,35,0,1,0,2.1431318985078682e-15,-35Z" style="fill: #f1e05a; stroke-width: 2px;" stroke="#3f3f3f"></path></g><g class="arc"><path d="M-45.02605339538266,39.65670833082531A60,60,0,0,1,-59.921678076430716,-3.0647180138803636L-34.95431221125125,-1.7877521747635454A35,35,0,0,0,-26.265197813973217,23.1330798596481Z" style="fill: #b07219; stroke-width: 2px;" stroke="#3f3f3f"></path></g><g class="arc"><path d="M-59.921678076430716,-3.0647180138803636A60,60,0,0,1,-46.237591663197165,-38.23722161961353L-26.971928470198346,-22.305045944774555A35,35,0,0,0,-34.95431221125125,-1.7877521747635454Z" style="fill: #00ADD8; stroke-width: 2px;" stroke="#3f3f3f"></path></g><g class="arc"><path d="M-46.237591663197165,-38.23722161961353A60,60,0,0,1,-23.606015398005116,-55.16118233893419L-13.770175648836318,-32.17735636437828A35,35,0,0,0,-26.971928470198346,-22.305045944774555Z" style="fill: #3572A5; stroke-width: 2px;" stroke="#3f3f3f"></path></g><g class="arc"><path d="M-23.606015398005116,-55.16118233893419A60,60,0,0,1,4.226888398968133e-14,-60L2.4656848993980778e-14,-35A35,35,0,0,0,-13.770175648836318,-32.17735636437828Z" style="fill: #3178c6; stroke-width: 2px;" stroke="#3f3f3f"></path></g></g></g></svg>