<svg xmlns="http://www.w3.org/2000/svg" width="340" height="200" viewBox="0 0 340 200" font-family="'Segoe UI', Ubuntu, Sans-Serif">
  <rect x="0.5" y="0.5" width="339" height="199" rx="6" fill="#282a36" stroke="#282a36" stroke-opacity="1.00"/>
  <text x="20" y="30" font-size="15" font-weight="600" fill="#ff79c6">Most Commit Language (all time)</text>
  <rect x="20" y="47" width="10" height="10" fill="#f1e05a" stroke="#282a36" stroke-width="1"/>
  <text x="36" y="55" font-size="11" fill="#ffb86c">JavaScript 31.52%</text>
  <rect x="20" y="67" width="10" height="10" fill="#b07219" stroke="#282a36" stroke-width="1"/>
  <text x="36" y="75" font-size="11" fill="#ffb86c">Java 18.67%</text>
  <rect x="20" y="87" width="10" height="10" fill="#e34c26" stroke="#282a36" stroke-width="1"/>
  <text x="36" y="95" font-size="11" fill="#ffb86c">HTML 18.65%</text>
  <rect x="20" y="107" width="10" height="10" fill="#00ADD8" stroke="#282a36" stroke-width="1"/>
  <text x="36" y="115" font-size="11" fill="#ffb86c">Go 7.69%</text>
  <rect x="20" y="127" width="10" height="10" fill="#f34b7d" stroke="#282a36" stroke-width="1"/>
  <text x="36" y="135" font-size="11" fill="#ffb86c">C++ 4.53%</text>
  <rect x="20" y="147" width="10" height="10" fill="#3572A5" stroke="#282a36" stroke-width="1"/>
  <text x="36" y="155" font-size="11" fill="#ffb86c">Python 4.29%</text>
  <rect x="20" y="167" width="10" height="10" fill="#bd93f9" stroke="#282a36" stroke-width="1"/>
  <text x="36" y="175" font-size="11" fill="#ffb86c">Other 14.65%</text>
  <path d="M250.00,55.00 A55.00,55.00 0 0 1 300.45,131.91 L277.52,121.95 A30.00,30.00 0 0 0 250.00,80.00 Z" fill="#f1e05a" stroke="#282a36" stroke-width="1.5"/>
  <path d="M300.45,131.91 A55.00,55.00 0 0 1 249.32,165.00 L249.63,140.00 A30.00,30.00 0 0 0 277.52,121.95 Z" fill="#b07219" stroke="#282a36" stroke-width="1.5"/>
  <path d="M249.32,165.00 A55.00,55.00 0 0 1 199.07,130.75 L222.22,121.32 A30.00,30.00 0 0 0 249.63,140.00 Z" fill="#e34c26" stroke="#282a36" stroke-width="1.5"/>
  <path d="M199.07,130.75 A55.00,55.00 0 0 1 195.26,104.71 L220.14,107.11 A30.00,30.00 0 0 0 222.22,121.32 Z" fill="#00ADD8" stroke="#282a36" stroke-width="1.5"/>
  <path d="M195.26,104.71 A55.00,55.00 0 0 1 198.94,89.56 L222.15,98.85 A30.00,30.00 0 0 0 220.14,107.11 Z" fill="#f34b7d" stroke="#282a36" stroke-width="1.5"/>
  <path d="M198.94,89.56 A55.00,55.00 0 0 1 206.22,76.71 L226.12,91.84 A30.00,30.00 0 0 0 222.15,98.85 Z" fill="#3572A5" stroke="#282a36" stroke-width="1.5"/>
  <path d="M206.22,76.71 A55.00,55.00 0 0 1 250.00,55.00 L250.00,80.00 A30.00,30.00 0 0 0 226.12,91.84 Z" fill="#bd93f9" stroke="#282a36" stroke-width="1.5"/>
</svg>