<svg xmlns="http://www.w3.org/2000/svg" width="340" height="200" viewBox="0 0 340 200" font-family="'Segoe UI', Ubuntu, Sans-Serif">
  <rect x="0.5" y="0.5" width="339" height="199" rx="6" fill="#282a36" stroke="#282a36" stroke-opacity="1.00"/>
  <text x="20" y="30" font-size="15" font-weight="600" fill="#ff79c6">Most Commit Language (last year)</text>
  <rect x="20" y="47" width="10" height="10" fill="#f1e05a" stroke="#282a36" stroke-width="1"/>
  <text x="36" y="55" font-size="11" fill="#ffb86c">JavaScript 44.95%</text>
  <rect x="20" y="67" width="10" height="10" fill="#00ADD8" stroke="#282a36" stroke-width="1"/>
  <text x="36" y="75" font-size="11" fill="#ffb86c">Go 12.76%</text>
  <rect x="20" y="87" width="10" height="10" fill="#b07219" stroke="#282a36" stroke-width="1"/>
  <text x="36" y="95" font-size="11" fill="#ffb86c">Java 10.79%</text>
  <rect x="20" y="107" width="10" height="10" fill="#e34c26" stroke="#282a36" stroke-width="1"/>
  <text x="36" y="115" font-size="11" fill="#ffb86c">HTML 9.77%</text>
  <rect x="20" y="127" width="10" height="10" fill="#bd93f9" stroke="#282a36" stroke-width="1"/>
  <text x="36" y="135" font-size="11" fill="#ffb86c">Other 21.73%</text>
  <path d="M250.00,55.00 A55.00,55.00 0 0 1 267.17,162.25 L259.37,138.50 A30.00,30.00 0 0 0 250.00,80.00 Z" fill="#f1e05a" stroke="#282a36" stroke-width="1.5"/>
  <path d="M267.17,162.25 A55.00,55.00 0 0 1 224.40,158.68 L236.04,136.55 A30.00,30.00 0 0 0 259.37,138.50 Z" fill="#00ADD8" stroke="#282a36" stroke-width="1.5"/>
  <path d="M224.40,158.68 A55.00,55.00 0 0 1 199.53,131.86 L222.47,121.92 A30.00,30.00 0 0 0 236.04,136.55 Z" fill="#b07219" stroke="#282a36" stroke-width="1.5"/>
  <path d="M199.53,131.86 A55.00,55.00 0 0 1 196.15,98.79 L220.63,103.89 A30.00,30.00 0 0 0 222.47,121.92 Z" fill="#e34c26" stroke="#282a36" stroke-width="1.5"/>
  <path d="M196.15,98.79 A55.00,55.00 0 0 1 250.00,55.00 L250.00,80.00 A30.00,30.00 0 0 0 220.63,103.89 Z" fill="#bd93f9" stroke="#282a36" stroke-width="1.5"/>
</svg>