<svg xmlns="http://www.w3.org/2000/svg" width="500" height="220" viewBox="0 0 500 220" font-family="'Segoe UI', Ubuntu, Sans-Serif">
  <rect x="0.5" y="0.5" width="499" height="219" rx="8" fill="#282a36" stroke="#282a36" stroke-opacity="1.00"/>
  <text x="25" y="35" font-size="18" font-weight="600" fill="#ff79c6">Most Commit Language (last year)</text>
  <rect x="30" y="60" width="12" height="12" fill="#f1e05a" stroke="#282a36" stroke-width="1"/>
  <text x="50" y="70" font-size="13" fill="#ffb86c">JavaScript 45.21%</text>
  <rect x="30" y="82" width="12" height="12" fill="#00ADD8" stroke="#282a36" stroke-width="1"/>
  <text x="50" y="92" font-size="13" fill="#ffb86c">Go 12.26%</text>
  <rect x="30" y="104" width="12" height="12" fill="#b07219" stroke="#282a36" stroke-width="1"/>
  <text x="50" y="114" font-size="13" fill="#ffb86c">Java 10.85%</text>
  <rect x="30" y="126" width="12" height="12" fill="#e34c26" stroke="#282a36" stroke-width="1"/>
  <text x="50" y="136" font-size="13" fill="#ffb86c">HTML 9.83%</text>
  <rect x="30" y="148" width="12" height="12" fill="#3178c6" stroke="#282a36" stroke-width="1"/>
  <text x="50" y="158" font-size="13" fill="#ffb86c">TypeScript 3.91%</text>
  <rect x="30" y="170" width="12" height="12" fill="#bd93f9" stroke="#282a36" stroke-width="1"/>
  <text x="50" y="180" font-size="13" fill="#ffb86c">Other 17.94%</text>
  <path d="M380.00,50.00 A70.00,70.00 0 0 1 400.74,186.86 L391.26,156.29 A38.00,38.00 0 0 0 380.00,82.00 Z" fill="#f1e05a" stroke="#282a36" stroke-width="1.5"/>
  <path d="M400.74,186.86 A70.00,70.00 0 0 1 348.33,182.43 L362.81,153.89 A38.00,38.00 0 0 0 391.26,156.29 Z" fill="#00ADD8" stroke="#282a36" stroke-width="1.5"/>
  <path d="M348.33,182.43 A70.00,70.00 0 0 1 316.07,148.50 L345.29,135.47 A38.00,38.00 0 0 0 362.81,153.89 Z" fill="#b07219" stroke="#282a36" stroke-width="1.5"/>
  <path d="M316.07,148.50 A70.00,70.00 0 0 1 311.37,106.22 L342.74,112.52 A38.00,38.00 0 0 0 345.29,135.47 Z" fill="#e34c26" stroke="#282a36" stroke-width="1.5"/>
  <path d="M311.37,106.22 A70.00,70.00 0 0 1 316.78,89.95 L345.68,103.69 A38.00,38.00 0 0 0 342.74,112.52 Z" fill="#3178c6" stroke="#282a36" stroke-width="1.5"/>
  <path d="M316.78,89.95 A70.00,70.00 0 0 1 380.00,50.00 L380.00,82.00 A38.00,38.00 0 0 0 345.68,103.69 Z" fill="#bd93f9" stroke="#282a36" stroke-width="1.5"/>
</svg>