<svg xmlns="http://www.w3.org/2000/svg" width="340" height="200" viewBox="0 0 340 200" font-family="'Segoe UI', Ubuntu, Sans-Serif">
  <rect x="0.5" y="0.5" width="339" height="199" rx="6" fill="#282a36" stroke="#282a36" stroke-opacity="1.00"/>
  <text x="20" y="30" font-size="15" font-weight="600" fill="#ff79c6">Most Commit Language (last year)</text>
  <rect x="20" y="47" width="10" height="10" fill="#f1e05a" stroke="#282a36" stroke-width="1"/>
  <text x="36" y="55" font-size="11" fill="#ffb86c">JavaScript 45.01%</text>
  <rect x="20" y="67" width="10" height="10" fill="#00ADD8" stroke="#282a36" stroke-width="1"/>
  <text x="36" y="75" font-size="11" fill="#ffb86c">Go 12.65%</text>
  <rect x="20" y="87" width="10" height="10" fill="#b07219" stroke="#282a36" stroke-width="1"/>
  <text x="36" y="95" font-size="11" fill="#ffb86c">Java 10.80%</text>
  <rect x="20" y="107" width="10" height="10" fill="#e34c26" stroke="#282a36" stroke-width="1"/>
  <text x="36" y="115" font-size="11" fill="#ffb86c">HTML 9.78%</text>
  <rect x="20" y="127" width="10" height="10" fill="#bd93f9" stroke="#282a36" stroke-width="1"/>
  <text x="36" y="135" font-size="11" fill="#ffb86c">Other 21.76%</text>
  <path d="M250.00,55.00 A55.00,55.00 0 0 1 266.98,162.31 L259.26,138.53 A30.00,30.00 0 0 0 250.00,80.00 Z" fill="#f1e05a" stroke="#282a36" stroke-width="1.5"/>
  <path d="M266.98,162.31 A55.00,55.00 0 0 1 224.56,158.76 L236.12,136.60 A30.00,30.00 0 0 0 259.26,138.53 Z" fill="#00ADD8" stroke="#282a36" stroke-width="1.5"/>
  <path d="M224.56,158.76 A55.00,55.00 0 0 1 199.58,131.98 L222.50,121.99 A30.00,30.00 0 0 0 236.12,136.60 Z" fill="#b07219" stroke="#282a36" stroke-width="1.5"/>
  <path d="M199.58,131.98 A55.00,55.00 0 0 1 196.14,98.88 L220.62,103.93 A30.00,30.00 0 0 0 222.50,121.99 Z" fill="#e34c26" stroke="#282a36" stroke-width="1.5"/>
  <path d="M196.14,98.88 A55.00,55.00 0 0 1 250.00,55.00 L250.00,80.00 A30.00,30.00 0 0 0 220.62,103.93 Z" fill="#bd93f9" stroke="#282a36" stroke-width="1.5"/>
</svg>