<svg xmlns="http://www.w3.org/2000/svg" width="340" height="200" viewBox="0 0 340 200" font-family="'Segoe UI', Ubuntu, Sans-Serif">
  <rect x="0.5" y="0.5" width="339" height="199" rx="6" fill="#282a36" stroke="#282a36" stroke-opacity="1.00"/>
  <text x="20" y="30" font-size="15" font-weight="600" fill="#ff79c6">Most Commit Language (last year)</text>
  <rect x="20" y="47" width="10" height="10" fill="#f1e05a" stroke="#282a36" stroke-width="1"/>
  <text x="36" y="55" font-size="11" fill="#ffb86c">JavaScript 44.37%</text>
  <rect x="20" y="67" width="10" height="10" fill="#00ADD8" stroke="#282a36" stroke-width="1"/>
  <text x="36" y="75" font-size="11" fill="#ffb86c">Go 13.95%</text>
  <rect x="20" y="87" width="10" height="10" fill="#b07219" stroke="#282a36" stroke-width="1"/>
  <text x="36" y="95" font-size="11" fill="#ffb86c">Java 10.61%</text>
  <rect x="20" y="107" width="10" height="10" fill="#e34c26" stroke="#282a36" stroke-width="1"/>
  <text x="36" y="115" font-size="11" fill="#ffb86c">HTML 9.62%</text>
  <rect x="20" y="127" width="10" height="10" fill="#3178c6" stroke="#282a36" stroke-width="1"/>
  <text x="36" y="135" font-size="11" fill="#ffb86c">TypeScript 3.82%</text>
  <rect x="20" y="147" width="10" height="10" fill="#384d54" stroke="#282a36" stroke-width="1"/>
  <text x="36" y="155" font-size="11" fill="#ffb86c">Dockerfile 3.54%</text>
  <rect x="20" y="167" width="10" height="10" fill="#bd93f9" stroke="#282a36" stroke-width="1"/>
  <text x="36" y="175" font-size="11" fill="#ffb86c">Other 14.09%</text>
  <path d="M250.00,55.00 A55.00,55.00 0 0 1 269.05,161.60 L260.39,138.14 A30.00,30.00 0 0 0 250.00,80.00 Z" fill="#f1e05a" stroke="#282a36" stroke-width="1.5"/>
  <path d="M269.05,161.60 A55.00,55.00 0 0 1 222.52,157.64 L235.01,135.99 A30.00,30.00 0 0 0 260.39,138.14 Z" fill="#00ADD8" stroke="#282a36" stroke-width="1.5"/>
  <path d="M222.52,157.64 A55.00,55.00 0 0 1 198.94,130.45 L222.15,121.16 A30.00,30.00 0 0 0 235.01,135.99 Z" fill="#b07219" stroke="#282a36" stroke-width="1.5"/>
  <path d="M198.94,130.45 A55.00,55.00 0 0 1 196.37,97.82 L220.74,103.36 A30.00,30.00 0 0 0 222.15,121.16 Z" fill="#e34c26" stroke="#282a36" stroke-width="1.5"/>
  <path d="M196.37,97.82 A55.00,55.00 0 0 1 200.80,85.42 L223.16,96.59 A30.00,30.00 0 0 0 220.74,103.36 Z" fill="#3178c6" stroke="#282a36" stroke-width="1.5"/>
  <path d="M200.80,85.42 A55.00,55.00 0 0 1 207.43,75.17 L226.78,91.00 A30.00,30.00 0 0 0 223.16,96.59 Z" fill="#384d54" stroke="#282a36" stroke-width="1.5"/>
  <path d="M207.43,75.17 A55.00,55.00 0 0 1 250.00,55.00 L250.00,80.00 A30.00,30.00 0 0 0 226.78,91.00 Z" fill="#bd93f9" stroke="#282a36" stroke-width="1.5"/>
</svg>