<svg xmlns="http://www.w3.org/2000/svg" width="500" height="220" viewBox="0 0 500 220" font-family="'Segoe UI', Ubuntu, Sans-Serif">
  <rect x="0.5" y="0.5" width="499" height="219" rx="8" fill="#282a36" stroke="#282a36" stroke-opacity="1.00"/>
  <text x="25" y="35" font-size="18" font-weight="600" fill="#ff79c6">Most Commit Language (last year)</text>
  <rect x="30" y="60" width="12" height="12" fill="#f1e05a" stroke="#282a36" stroke-width="1"/>
  <text x="50" y="70" font-size="13" fill="#ffb86c">JavaScript 48.50%</text>
  <rect x="30" y="82" width="12" height="12" fill="#e34c26" stroke="#282a36" stroke-width="1"/>
  <text x="50" y="92" font-size="13" fill="#ffb86c">HTML 11.08%</text>
  <rect x="30" y="104" width="12" height="12" fill="#00ADD8" stroke="#282a36" stroke-width="1"/>
  <text x="50" y="114" font-size="13" fill="#ffb86c">Go 9.87%</text>
  <rect x="30" y="126" width="12" height="12" fill="#b07219" stroke="#282a36" stroke-width="1"/>
  <text x="50" y="136" font-size="13" fill="#ffb86c">Java 7.86%</text>
  <rect x="30" y="148" width="12" height="12" fill="#384d54" stroke="#282a36" stroke-width="1"/>
  <text x="50" y="158" font-size="13" fill="#ffb86c">Dockerfile 3.89%</text>
  <rect x="30" y="170" width="12" height="12" fill="#bd93f9" stroke="#282a36" stroke-width="1"/>
  <text x="50" y="180" font-size="13" fill="#ffb86c">Other 18.80%</text>
  <path d="M380.00,50.00 A70.00,70.00 0 0 1 386.59,189.69 L383.58,157.83 A38.00,38.00 0 0 0 380.00,82.00 Z" fill="#f1e05a" stroke="#282a36" stroke-width="1.5"/>
  <path d="M386.59,189.69 A70.00,70.00 0 0 1 340.35,177.69 L358.48,151.32 A38.00,38.00 0 0 0 383.58,157.83 Z" fill="#e34c26" stroke="#282a36" stroke-width="1.5"/>
  <path d="M340.35,177.69 A70.00,70.00 0 0 1 314.21,143.92 L344.29,132.98 A38.00,38.00 0 0 0 358.48,151.32 Z" fill="#00ADD8" stroke="#282a36" stroke-width="1.5"/>
  <path d="M314.21,143.92 A70.00,70.00 0 0 1 310.73,109.89 L342.40,114.51 A38.00,38.00 0 0 0 344.29,132.98 Z" fill="#b07219" stroke="#282a36" stroke-width="1.5"/>
  <path d="M310.73,109.89 A70.00,70.00 0 0 1 315.24,93.43 L344.84,105.57 A38.00,38.00 0 0 0 342.40,114.51 Z" fill="#384d54" stroke="#282a36" stroke-width="1.5"/>
  <path d="M315.24,93.43 A70.00,70.00 0 0 1 380.00,50.00 L380.00,82.00 A38.00,38.00 0 0 0 344.84,105.57 Z" fill="#bd93f9" stroke="#282a36" stroke-width="1.5"/>
</svg>