<svg xmlns="http://www.w3.org/2000/svg" width="340" height="200" viewBox="0 0 340 200" font-family="'Segoe UI', Ubuntu, Sans-Serif">
  <rect x="0.5" y="0.5" width="339" height="199" rx="6" fill="#282a36" stroke="#282a36" stroke-opacity="1.00"/>
  <text x="20" y="30" font-size="15" font-weight="600" fill="#ff79c6">Most Commit Language (all time)</text>
  <rect x="20" y="47" width="10" height="10" fill="#f1e05a" stroke="#282a36" stroke-width="1"/>
  <text x="36" y="55" font-size="11" fill="#ffb86c">JavaScript 31.62%</text>
  <rect x="20" y="67" width="10" height="10" fill="#b07219" stroke="#282a36" stroke-width="1"/>
  <text x="36" y="75" font-size="11" fill="#ffb86c">Java 18.83%</text>
  <rect x="20" y="87" width="10" height="10" fill="#e34c26" stroke="#282a36" stroke-width="1"/>
  <text x="36" y="95" font-size="11" fill="#ffb86c">HTML 18.80%</text>
  <rect x="20" y="107" width="10" height="10" fill="#00ADD8" stroke="#282a36" stroke-width="1"/>
  <text x="36" y="115" font-size="11" fill="#ffb86c">Go 7.13%</text>
  <rect x="20" y="127" width="10" height="10" fill="#bd93f9" stroke="#282a36" stroke-width="1"/>
  <text x="36" y="135" font-size="11" fill="#ffb86c">Other 23.62%</text>
  <path d="M250.00,55.00 A55.00,55.00 0 0 1 300.31,132.22 L277.44,122.12 A30.00,30.00 0 0 0 250.00,80.00 Z" fill="#f1e05a" stroke="#282a36" stroke-width="1.5"/>
  <path d="M300.31,132.22 A55.00,55.00 0 0 1 248.44,164.98 L249.15,139.99 A30.00,30.00 0 0 0 277.44,122.12 Z" fill="#b07219" stroke="#282a36" stroke-width="1.5"/>
  <path d="M248.44,164.98 A55.00,55.00 0 0 1 198.55,129.44 L221.94,120.61 A30.00,30.00 0 0 0 249.15,139.99 Z" fill="#e34c26" stroke="#282a36" stroke-width="1.5"/>
  <path d="M198.55,129.44 A55.00,55.00 0 0 1 195.21,105.25 L220.11,107.41 A30.00,30.00 0 0 0 221.94,120.61 Z" fill="#00ADD8" stroke="#282a36" stroke-width="1.5"/>
  <path d="M195.21,105.25 A55.00,55.00 0 0 1 250.00,55.00 L250.00,80.00 A30.00,30.00 0 0 0 220.11,107.41 Z" fill="#bd93f9" stroke="#282a36" stroke-width="1.5"/>
</svg>