<svg xmlns="http://www.w3.org/2000/svg" width="340" height="200" viewBox="0 0 340 200" font-family="'Segoe UI', Ubuntu, Sans-Serif">
  <rect x="0.5" y="0.5" width="339" height="199" rx="6" fill="#282a36" stroke="#282a36" stroke-opacity="1.00"/>
  <text x="20" y="30" font-size="15" font-weight="600" fill="#ff79c6">Most Commit Language (all time)</text>
  <rect x="20" y="47" width="10" height="10" fill="#f1e05a" stroke="#282a36" stroke-width="1"/>
  <text x="36" y="55" font-size="11" fill="#ffb86c">JavaScript 31.48%</text>
  <rect x="20" y="67" width="10" height="10" fill="#b07219" stroke="#282a36" stroke-width="1"/>
  <text x="36" y="75" font-size="11" fill="#ffb86c">Java 18.65%</text>
  <rect x="20" y="87" width="10" height="10" fill="#e34c26" stroke="#282a36" stroke-width="1"/>
  <text x="36" y="95" font-size="11" fill="#ffb86c">HTML 18.62%</text>
  <rect x="20" y="107" width="10" height="10" fill="#00ADD8" stroke="#282a36" stroke-width="1"/>
  <text x="36" y="115" font-size="11" fill="#ffb86c">Go 7.82%</text>
  <rect x="20" y="127" width="10" height="10" fill="#f34b7d" stroke="#282a36" stroke-width="1"/>
  <text x="36" y="135" font-size="11" fill="#ffb86c">C++ 4.52%</text>
  <rect x="20" y="147" width="10" height="10" fill="#3572A5" stroke="#282a36" stroke-width="1"/>
  <text x="36" y="155" font-size="11" fill="#ffb86c">Python 4.28%</text>
  <rect x="20" y="167" width="10" height="10" fill="#bd93f9" stroke="#282a36" stroke-width="1"/>
  <text x="36" y="175" font-size="11" fill="#ffb86c">Other 14.64%</text>
  <path d="M250.00,55.00 A55.00,55.00 0 0 1 300.51,131.77 L277.55,121.87 A30.00,30.00 0 0 0 250.00,80.00 Z" fill="#f1e05a" stroke="#282a36" stroke-width="1.5"/>
  <path d="M300.51,131.77 A55.00,55.00 0 0 1 249.57,165.00 L249.76,140.00 A30.00,30.00 0 0 0 277.55,121.87 Z" fill="#b07219" stroke="#282a36" stroke-width="1.5"/>
  <path d="M249.57,165.00 A55.00,55.00 0 0 1 199.19,131.06 L222.29,121.49 A30.00,30.00 0 0 0 249.76,140.00 Z" fill="#e34c26" stroke="#282a36" stroke-width="1.5"/>
  <path d="M199.19,131.06 A55.00,55.00 0 0 1 195.27,104.60 L220.14,107.06 A30.00,30.00 0 0 0 222.29,121.49 Z" fill="#00ADD8" stroke="#282a36" stroke-width="1.5"/>
  <path d="M195.27,104.60 A55.00,55.00 0 0 1 198.97,89.48 L222.17,98.81 A30.00,30.00 0 0 0 220.14,107.06 Z" fill="#f34b7d" stroke="#282a36" stroke-width="1.5"/>
  <path d="M198.97,89.48 A55.00,55.00 0 0 1 206.26,76.66 L226.14,91.82 A30.00,30.00 0 0 0 222.17,98.81 Z" fill="#3572A5" stroke="#282a36" stroke-width="1.5"/>
  <path d="M206.26,76.66 A55.00,55.00 0 0 1 250.00,55.00 L250.00,80.00 A30.00,30.00 0 0 0 226.14,91.82 Z" fill="#bd93f9" stroke="#282a36" stroke-width="1.5"/>
</svg>