<svg xmlns="http://www.w3.org/2000/svg" width="500" height="220" viewBox="0 0 500 220" font-family="'Segoe UI', Ubuntu, Sans-Serif">
  <rect x="0.5" y="0.5" width="499" height="219" rx="8" fill="#282a36" stroke="#282a36" stroke-opacity="1.00"/>
  <text x="25" y="35" font-size="18" font-weight="600" fill="#ff79c6">Most Commit Language (all time)</text>
  <rect x="30" y="60" width="12" height="12" fill="#f1e05a" stroke="#282a36" stroke-width="1"/>
  <text x="50" y="70" font-size="13" fill="#ffb86c">JavaScript 31.72%</text>
  <rect x="30" y="82" width="12" height="12" fill="#b07219" stroke="#282a36" stroke-width="1"/>
  <text x="50" y="92" font-size="13" fill="#ffb86c">Java 18.89%</text>
  <rect x="30" y="104" width="12" height="12" fill="#e34c26" stroke="#282a36" stroke-width="1"/>
  <text x="50" y="114" font-size="13" fill="#ffb86c">HTML 18.86%</text>
  <rect x="30" y="126" width="12" height="12" fill="#00ADD8" stroke="#282a36" stroke-width="1"/>
  <text x="50" y="136" font-size="13" fill="#ffb86c">Go 6.84%</text>
  <rect x="30" y="148" width="12" height="12" fill="#f34b7d" stroke="#282a36" stroke-width="1"/>
  <text x="50" y="158" font-size="13" fill="#ffb86c">C++ 4.58%</text>
  <rect x="30" y="170" width="12" height="12" fill="#bd93f9" stroke="#282a36" stroke-width="1"/>
  <text x="50" y="180" font-size="13" fill="#ffb86c">Other 19.11%</text>
  <path d="M380.00,50.00 A70.00,70.00 0 0 1 443.85,148.68 L414.66,135.57 A38.00,38.00 0 0 0 380.00,82.00 Z" fill="#f1e05a" stroke="#282a36" stroke-width="1.5"/>
  <path d="M443.85,148.68 A70.00,70.00 0 0 1 377.31,189.95 L378.54,157.97 A38.00,38.00 0 0 0 414.66,135.57 Z" fill="#b07219" stroke="#282a36" stroke-width="1.5"/>
  <path d="M377.31,189.95 A70.00,70.00 0 0 1 314.18,143.84 L344.27,132.94 A38.00,38.00 0 0 0 378.54,157.97 Z" fill="#e34c26" stroke="#282a36" stroke-width="1.5"/>
  <path d="M314.18,143.84 A70.00,70.00 0 0 1 310.24,114.25 L342.13,116.88 A38.00,38.00 0 0 0 344.27,132.94 Z" fill="#00ADD8" stroke="#282a36" stroke-width="1.5"/>
  <path d="M310.24,114.25 A70.00,70.00 0 0 1 314.74,94.69 L344.57,106.26 A38.00,38.00 0 0 0 342.13,116.88 Z" fill="#f34b7d" stroke="#282a36" stroke-width="1.5"/>
  <path d="M314.74,94.69 A70.00,70.00 0 0 1 380.00,50.00 L380.00,82.00 A38.00,38.00 0 0 0 344.57,106.26 Z" fill="#bd93f9" stroke="#282a36" stroke-width="1.5"/>
</svg>