<svg xmlns="http://www.w3.org/2000/svg" width="340" height="200" viewBox="0 0 340 200" font-family="'Segoe UI', Ubuntu, Sans-Serif">
  <rect x="0.5" y="0.5" width="339" height="199" rx="6" fill="#282a36" stroke="#282a36" stroke-opacity="1.00"/>
  <text x="20" y="30" font-size="15" font-weight="600" fill="#ff79c6">Most Commit Language (last year)</text>
  <rect x="20" y="47" width="10" height="10" fill="#f1e05a" stroke="#282a36" stroke-width="1"/>
  <text x="36" y="55" font-size="11" fill="#ffb86c">JavaScript 44.32%</text>
  <rect x="20" y="67" width="10" height="10" fill="#00ADD8" stroke="#282a36" stroke-width="1"/>
  <text x="36" y="75" font-size="11" fill="#ffb86c">Go 14.06%</text>
  <rect x="20" y="87" width="10" height="10" fill="#b07219" stroke="#282a36" stroke-width="1"/>
  <text x="36" y="95" font-size="11" fill="#ffb86c">Java 10.60%</text>
  <rect x="20" y="107" width="10" height="10" fill="#e34c26" stroke="#282a36" stroke-width="1"/>
  <text x="36" y="115" font-size="11" fill="#ffb86c">HTML 9.61%</text>
  <rect x="20" y="127" width="10" height="10" fill="#3178c6" stroke="#282a36" stroke-width="1"/>
  <text x="36" y="135" font-size="11" fill="#ffb86c">TypeScript 3.81%</text>
  <rect x="20" y="147" width="10" height="10" fill="#384d54" stroke="#282a36" stroke-width="1"/>
  <text x="36" y="155" font-size="11" fill="#ffb86c">Dockerfile 3.54%</text>
  <rect x="20" y="167" width="10" height="10" fill="#bd93f9" stroke="#282a36" stroke-width="1"/>
  <text x="36" y="175" font-size="11" fill="#ffb86c">Other 14.07%</text>
  <path d="M250.00,55.00 A55.00,55.00 0 0 1 269.23,161.53 L260.49,138.11 A30.00,30.00 0 0 0 250.00,80.00 Z" fill="#f1e05a" stroke="#282a36" stroke-width="1.5"/>
  <path d="M269.23,161.53 A55.00,55.00 0 0 1 222.37,157.55 L234.93,135.94 A30.00,30.00 0 0 0 260.49,138.11 Z" fill="#00ADD8" stroke="#282a36" stroke-width="1.5"/>
  <path d="M222.37,157.55 A55.00,55.00 0 0 1 198.90,130.33 L222.13,121.09 A30.00,30.00 0 0 0 234.93,135.94 Z" fill="#b07219" stroke="#282a36" stroke-width="1.5"/>
  <path d="M198.90,130.33 A55.00,55.00 0 0 1 196.38,97.74 L220.76,103.31 A30.00,30.00 0 0 0 222.13,121.09 Z" fill="#e34c26" stroke="#282a36" stroke-width="1.5"/>
  <path d="M196.38,97.74 A55.00,55.00 0 0 1 200.83,85.36 L223.18,96.56 A30.00,30.00 0 0 0 220.76,103.31 Z" fill="#3178c6" stroke="#282a36" stroke-width="1.5"/>
  <path d="M200.83,85.36 A55.00,55.00 0 0 1 207.47,75.13 L226.80,90.98 A30.00,30.00 0 0 0 223.18,96.56 Z" fill="#384d54" stroke="#282a36" stroke-width="1.5"/>
  <path d="M207.47,75.13 A55.00,55.00 0 0 1 250.00,55.00 L250.00,80.00 A30.00,30.00 0 0 0 226.80,90.98 Z" fill="#bd93f9" stroke="#282a36" stroke-width="1.5"/>
</svg>