<svg xmlns="http://www.w3.org/2000/svg" width="340" height="200" viewBox="0 0 340 200" font-family="'Segoe UI', Ubuntu, Sans-Serif">
  <rect x="0.5" y="0.5" width="339" height="199" rx="6" fill="#282a36" stroke="#282a36" stroke-opacity="1.00"/>
  <text x="20" y="30" font-size="15" font-weight="600" fill="#ff79c6">Most Commit Language (last year)</text>
  <rect x="20" y="47" width="10" height="10" fill="#f1e05a" stroke="#282a36" stroke-width="1"/>
  <text x="36" y="55" font-size="11" fill="#ffb86c">JavaScript 44.34%</text>
  <rect x="20" y="67" width="10" height="10" fill="#00ADD8" stroke="#282a36" stroke-width="1"/>
  <text x="36" y="75" font-size="11" fill="#ffb86c">Go 14.01%</text>
  <rect x="20" y="87" width="10" height="10" fill="#b07219" stroke="#282a36" stroke-width="1"/>
  <text x="36" y="95" font-size="11" fill="#ffb86c">Java 10.60%</text>
  <rect x="20" y="107" width="10" height="10" fill="#e34c26" stroke="#282a36" stroke-width="1"/>
  <text x="36" y="115" font-size="11" fill="#ffb86c">HTML 9.61%</text>
  <rect x="20" y="127" width="10" height="10" fill="#3178c6" stroke="#282a36" stroke-width="1"/>
  <text x="36" y="135" font-size="11" fill="#ffb86c">TypeScript 3.82%</text>
  <rect x="20" y="147" width="10" height="10" fill="#384d54" stroke="#282a36" stroke-width="1"/>
  <text x="36" y="155" font-size="11" fill="#ffb86c">Dockerfile 3.54%</text>
  <rect x="20" y="167" width="10" height="10" fill="#bd93f9" stroke="#282a36" stroke-width="1"/>
  <text x="36" y="175" font-size="11" fill="#ffb86c">Other 14.08%</text>
  <path d="M250.00,55.00 A55.00,55.00 0 0 1 269.14,161.56 L260.44,138.13 A30.00,30.00 0 0 0 250.00,80.00 Z" fill="#f1e05a" stroke="#282a36" stroke-width="1.5"/>
  <path d="M269.14,161.56 A55.00,55.00 0 0 1 222.44,157.60 L234.97,135.96 A30.00,30.00 0 0 0 260.44,138.13 Z" fill="#00ADD8" stroke="#282a36" stroke-width="1.5"/>
  <path d="M222.44,157.60 A55.00,55.00 0 0 1 198.92,130.39 L222.14,121.12 A30.00,30.00 0 0 0 234.97,135.96 Z" fill="#b07219" stroke="#282a36" stroke-width="1.5"/>
  <path d="M198.92,130.39 A55.00,55.00 0 0 1 196.38,97.78 L220.75,103.33 A30.00,30.00 0 0 0 222.14,121.12 Z" fill="#e34c26" stroke="#282a36" stroke-width="1.5"/>
  <path d="M196.38,97.78 A55.00,55.00 0 0 1 200.81,85.39 L223.17,96.58 A30.00,30.00 0 0 0 220.75,103.33 Z" fill="#3178c6" stroke="#282a36" stroke-width="1.5"/>
  <path d="M200.81,85.39 A55.00,55.00 0 0 1 207.45,75.15 L226.79,90.99 A30.00,30.00 0 0 0 223.17,96.58 Z" fill="#384d54" stroke="#282a36" stroke-width="1.5"/>
  <path d="M207.45,75.15 A55.00,55.00 0 0 1 250.00,55.00 L250.00,80.00 A30.00,30.00 0 0 0 226.79,90.99 Z" fill="#bd93f9" stroke="#282a36" stroke-width="1.5"/>
</svg>