<svg xmlns="http://www.w3.org/2000/svg" width="340" height="200" viewBox="0 0 340 200" font-family="'Segoe UI', Ubuntu, Sans-Serif">
  <rect x="0.5" y="0.5" width="339" height="199" rx="6" fill="#282a36" stroke="#282a36" stroke-opacity="1.00"/>
  <text x="20" y="30" font-size="15" font-weight="600" fill="#ff79c6">Commits by Hour (last year, UTC+7.00)</text>
  <line x1="35" y1="45" x2="35" y2="155" stroke="#6272a4"/>
  <line x1="31" y1="155" x2="35" y2="155" stroke="#6272a4"/>
  <text x="29" y="158" font-size="10" fill="#6272a4" text-anchor="end">0</text>
  <line x1="31" y1="128" x2="35" y2="128" stroke="#6272a4"/>
  <text x="29" y="131" font-size="10" fill="#6272a4" text-anchor="end">50</text>
  <line x1="31" y1="100" x2="35" y2="100" stroke="#6272a4"/>
  <text x="29" y="103" font-size="10" fill="#6272a4" text-anchor="end">100</text>
  <line x1="31" y1="73" x2="35" y2="73" stroke="#6272a4"/>
  <text x="29" y="76" font-size="10" fill="#6272a4" text-anchor="end">150</text>
  <line x1="31" y1="45" x2="35" y2="45" stroke="#6272a4"/>
  <text x="29" y="48" font-size="10" fill="#6272a4" text-anchor="end">200</text>
  <line x1="35" y1="155" x2="325" y2="155" stroke="#6272a4"/>
  <line x1="40" y1="155" x2="40" y2="159" stroke="#6272a4"/>
  <text x="40" y="171" font-size="10" fill="#6272a4" text-anchor="middle">0</text>
  <line x1="113" y1="155" x2="113" y2="159" stroke="#6272a4"/>
  <text x="113" y="171" font-size="10" fill="#6272a4" text-anchor="middle">6</text>
  <line x1="186" y1="155" x2="186" y2="159" stroke="#6272a4"/>
  <text x="186" y="171" font-size="10" fill="#6272a4" text-anchor="middle">12</text>
  <line x1="258" y1="155" x2="258" y2="159" stroke="#6272a4"/>
  <text x="258" y="171" font-size="10" fill="#6272a4" text-anchor="middle">18</text>
  <line x1="319" y1="155" x2="319" y2="159" stroke="#6272a4"/>
  <text x="319" y="171" font-size="10" fill="#6272a4" text-anchor="middle">23</text>
  <rect x="35.00" y="106.05" width="11.12" height="48.95" rx="2" fill="#bd93f9"><title>00:00 — 89 commits</title></rect>
  <rect x="47.12" y="139.60" width="11.12" height="15.40" rx="2" fill="#bd93f9"><title>01:00 — 28 commits</title></rect>
  <rect x="59.25" y="152.80" width="11.12" height="2.20" rx="2" fill="#bd93f9"><title>02:00 — 4 commits</title></rect>
  <rect x="71.38" y="152.80" width="11.12" height="2.20" rx="2" fill="#bd93f9"><title>03:00 — 4 commits</title></rect>
  <rect x="83.50" y="155.00" width="11.12" height="0.00" rx="2" fill="#bd93f9"><title>04:00 — 0 commits</title></rect>
  <rect x="95.62" y="155.00" width="11.12" height="0.00" rx="2" fill="#bd93f9"><title>05:00 — 0 commits</title></rect>
  <rect x="107.75" y="153.35" width="11.12" height="1.65" rx="2" fill="#bd93f9"><title>06:00 — 3 commits</title></rect>
  <rect x="119.88" y="154.45" width="11.12" height="0.55" rx="2" fill="#bd93f9"><title>07:00 — 1 commits</title></rect>
  <rect x="132.00" y="137.95" width="11.12" height="17.05" rx="2" fill="#bd93f9"><title>08:00 — 31 commits</title></rect>
  <rect x="144.12" y="102.75" width="11.12" height="52.25" rx="2" fill="#bd93f9"><title>09:00 — 95 commits</title></rect>
  <rect x="156.25" y="88.45" width="11.12" height="66.55" rx="2" fill="#bd93f9"><title>10:00 — 121 commits</title></rect>
  <rect x="168.38" y="104.40" width="11.12" height="50.60" rx="2" fill="#bd93f9"><title>11:00 — 92 commits</title></rect>
  <rect x="180.50" y="125.30" width="11.12" height="29.70" rx="2" fill="#bd93f9"><title>12:00 — 54 commits</title></rect>
  <rect x="192.62" y="115.95" width="11.12" height="39.05" rx="2" fill="#bd93f9"><title>13:00 — 71 commits</title></rect>
  <rect x="204.75" y="122.00" width="11.12" height="33.00" rx="2" fill="#bd93f9"><title>14:00 — 60 commits</title></rect>
  <rect x="216.88" y="123.65" width="11.12" height="31.35" rx="2" fill="#bd93f9"><title>15:00 — 57 commits</title></rect>
  <rect x="229.00" y="120.90" width="11.12" height="34.10" rx="2" fill="#bd93f9"><title>16:00 — 62 commits</title></rect>
  <rect x="241.12" y="120.35" width="11.12" height="34.65" rx="2" fill="#bd93f9"><title>17:00 — 63 commits</title></rect>
  <rect x="253.25" y="121.45" width="11.12" height="33.55" rx="2" fill="#bd93f9"><title>18:00 — 61 commits</title></rect>
  <rect x="265.38" y="131.90" width="11.12" height="23.10" rx="2" fill="#bd93f9"><title>19:00 — 42 commits</title></rect>
  <rect x="277.50" y="80.75" width="11.12" height="74.25" rx="2" fill="#bd93f9"><title>20:00 — 135 commits</title></rect>
  <rect x="289.62" y="69.20" width="11.12" height="85.80" rx="2" fill="#bd93f9"><title>21:00 — 156 commits</title></rect>
  <rect x="301.75" y="42.80" width="11.12" height="112.20" rx="2" fill="#bd93f9"><title>22:00 — 204 commits</title></rect>
  <rect x="313.88" y="53.25" width="11.12" height="101.75" rx="2" fill="#bd93f9"><title>23:00 — 185 commits</title></rect>
  <text x="180" y="189" font-size="11" fill="#6272a4" text-anchor="middle">hour of day</text>
</svg>