<svg xmlns="http://www.w3.org/2000/svg" width="500" height="220" viewBox="0 0 500 220" font-family="'Segoe UI', Ubuntu, Sans-Serif">
  <rect x="0.5" y="0.5" width="499" height="219" rx="8" fill="#282a36" stroke="#282a36" stroke-opacity="1.00"/>
  <text x="25" y="35" font-size="18" font-weight="600" fill="#ff79c6">Commits by Hour (last year, UTC+7.00)</text>
  <line x1="50" y1="60" x2="50" y2="170" stroke="#6272a4"/>
  <line x1="46" y1="170" x2="50" y2="170" stroke="#6272a4"/>
  <text x="44" y="173" font-size="10" fill="#6272a4" text-anchor="end">0</text>
  <line x1="46" y1="143" x2="50" y2="143" stroke="#6272a4"/>
  <text x="44" y="146" font-size="10" fill="#6272a4" text-anchor="end">50</text>
  <line x1="46" y1="115" x2="50" y2="115" stroke="#6272a4"/>
  <text x="44" y="118" font-size="10" fill="#6272a4" text-anchor="end">100</text>
  <line x1="46" y1="88" x2="50" y2="88" stroke="#6272a4"/>
  <text x="44" y="91" font-size="10" fill="#6272a4" text-anchor="end">150</text>
  <line x1="46" y1="60" x2="50" y2="60" stroke="#6272a4"/>
  <text x="44" y="63" font-size="10" fill="#6272a4" text-anchor="end">200</text>
  <line x1="50" y1="170" x2="475" y2="170" stroke="#6272a4"/>
  <line x1="57" y1="170" x2="57" y2="174" stroke="#6272a4"/>
  <text x="57" y="186" font-size="10" fill="#6272a4" text-anchor="middle">0</text>
  <line x1="164" y1="170" x2="164" y2="174" stroke="#6272a4"/>
  <text x="164" y="186" font-size="10" fill="#6272a4" text-anchor="middle">6</text>
  <line x1="271" y1="170" x2="271" y2="174" stroke="#6272a4"/>
  <text x="271" y="186" font-size="10" fill="#6272a4" text-anchor="middle">12</text>
  <line x1="378" y1="170" x2="378" y2="174" stroke="#6272a4"/>
  <text x="378" y="186" font-size="10" fill="#6272a4" text-anchor="middle">18</text>
  <line x1="467" y1="170" x2="467" y2="174" stroke="#6272a4"/>
  <text x="467" y="186" font-size="10" fill="#6272a4" text-anchor="middle">23</text>
  <rect x="50.00" y="121.05" width="15.79" height="48.95" rx="2" fill="#bd93f9"><title>00:00 — 89 commits</title></rect>
  <rect x="67.79" y="154.60" width="15.79" height="15.40" rx="2" fill="#bd93f9"><title>01:00 — 28 commits</title></rect>
  <rect x="85.58" y="167.80" width="15.79" height="2.20" rx="2" fill="#bd93f9"><title>02:00 — 4 commits</title></rect>
  <rect x="103.38" y="167.80" width="15.79" height="2.20" rx="2" fill="#bd93f9"><title>03:00 — 4 commits</title></rect>
  <rect x="121.17" y="170.00" width="15.79" height="0.00" rx="2" fill="#bd93f9"><title>04:00 — 0 commits</title></rect>
  <rect x="138.96" y="170.00" width="15.79" height="0.00" rx="2" fill="#bd93f9"><title>05:00 — 0 commits</title></rect>
  <rect x="156.75" y="168.35" width="15.79" height="1.65" rx="2" fill="#bd93f9"><title>06:00 — 3 commits</title></rect>
  <rect x="174.54" y="169.45" width="15.79" height="0.55" rx="2" fill="#bd93f9"><title>07:00 — 1 commits</title></rect>
  <rect x="192.33" y="152.95" width="15.79" height="17.05" rx="2" fill="#bd93f9"><title>08:00 — 31 commits</title></rect>
  <rect x="210.12" y="117.75" width="15.79" height="52.25" rx="2" fill="#bd93f9"><title>09:00 — 95 commits</title></rect>
  <rect x="227.92" y="103.45" width="15.79" height="66.55" rx="2" fill="#bd93f9"><title>10:00 — 121 commits</title></rect>
  <rect x="245.71" y="119.40" width="15.79" height="50.60" rx="2" fill="#bd93f9"><title>11:00 — 92 commits</title></rect>
  <rect x="263.50" y="140.30" width="15.79" height="29.70" rx="2" fill="#bd93f9"><title>12:00 — 54 commits</title></rect>
  <rect x="281.29" y="130.95" width="15.79" height="39.05" rx="2" fill="#bd93f9"><title>13:00 — 71 commits</title></rect>
  <rect x="299.08" y="137.00" width="15.79" height="33.00" rx="2" fill="#bd93f9"><title>14:00 — 60 commits</title></rect>
  <rect x="316.88" y="138.65" width="15.79" height="31.35" rx="2" fill="#bd93f9"><title>15:00 — 57 commits</title></rect>
  <rect x="334.67" y="135.90" width="15.79" height="34.10" rx="2" fill="#bd93f9"><title>16:00 — 62 commits</title></rect>
  <rect x="352.46" y="135.35" width="15.79" height="34.65" rx="2" fill="#bd93f9"><title>17:00 — 63 commits</title></rect>
  <rect x="370.25" y="136.45" width="15.79" height="33.55" rx="2" fill="#bd93f9"><title>18:00 — 61 commits</title></rect>
  <rect x="388.04" y="146.90" width="15.79" height="23.10" rx="2" fill="#bd93f9"><title>19:00 — 42 commits</title></rect>
  <rect x="405.83" y="95.75" width="15.79" height="74.25" rx="2" fill="#bd93f9"><title>20:00 — 135 commits</title></rect>
  <rect x="423.62" y="84.20" width="15.79" height="85.80" rx="2" fill="#bd93f9"><title>21:00 — 156 commits</title></rect>
  <rect x="441.42" y="57.80" width="15.79" height="112.20" rx="2" fill="#bd93f9"><title>22:00 — 204 commits</title></rect>
  <rect x="459.21" y="74.85" width="15.79" height="95.15" rx="2" fill="#bd93f9"><title>23:00 — 173 commits</title></rect>
  <text x="262" y="204" font-size="11" fill="#6272a4" text-anchor="middle">hour of day</text>
</svg>