<svg xmlns="http://www.w3.org/2000/svg" width="340" height="200" viewBox="0 0 340 200" font-family="'Segoe UI', Ubuntu, Sans-Serif">
  <rect x="0.5" y="0.5" width="339" height="199" rx="6" fill="#282a36" stroke="#282a36" stroke-opacity="1.00"/>
  <text x="20" y="30" font-size="14" font-weight="600" fill="#ff79c6">Commits by Hour (all time, UTC+7.00)</text>
  <line x1="35" y1="45" x2="35" y2="155" stroke="#6272a4"/>
  <line x1="31" y1="155" x2="35" y2="155" stroke="#6272a4"/>
  <text x="29" y="158" font-size="10" fill="#6272a4" text-anchor="end">0</text>
  <line x1="31" y1="140" x2="35" y2="140" stroke="#6272a4"/>
  <text x="29" y="143" font-size="10" fill="#6272a4" text-anchor="end">50</text>
  <line x1="31" y1="124" x2="35" y2="124" stroke="#6272a4"/>
  <text x="29" y="127" font-size="10" fill="#6272a4" text-anchor="end">100</text>
  <line x1="31" y1="108" x2="35" y2="108" stroke="#6272a4"/>
  <text x="29" y="111" font-size="10" fill="#6272a4" text-anchor="end">150</text>
  <line x1="31" y1="93" x2="35" y2="93" stroke="#6272a4"/>
  <text x="29" y="96" font-size="10" fill="#6272a4" text-anchor="end">200</text>
  <line x1="31" y1="77" x2="35" y2="77" stroke="#6272a4"/>
  <text x="29" y="80" font-size="10" fill="#6272a4" text-anchor="end">250</text>
  <line x1="31" y1="61" x2="35" y2="61" stroke="#6272a4"/>
  <text x="29" y="64" font-size="10" fill="#6272a4" text-anchor="end">300</text>
  <line x1="31" y1="45" x2="35" y2="45" stroke="#6272a4"/>
  <text x="29" y="48" font-size="10" fill="#6272a4" text-anchor="end">350</text>
  <line x1="35" y1="155" x2="325" y2="155" stroke="#6272a4"/>
  <line x1="40" y1="155" x2="40" y2="159" stroke="#6272a4"/>
  <text x="40" y="171" font-size="10" fill="#6272a4" text-anchor="middle">0</text>
  <line x1="113" y1="155" x2="113" y2="159" stroke="#6272a4"/>
  <text x="113" y="171" font-size="10" fill="#6272a4" text-anchor="middle">6</text>
  <line x1="186" y1="155" x2="186" y2="159" stroke="#6272a4"/>
  <text x="186" y="171" font-size="10" fill="#6272a4" text-anchor="middle">12</text>
  <line x1="258" y1="155" x2="258" y2="159" stroke="#6272a4"/>
  <text x="258" y="171" font-size="10" fill="#6272a4" text-anchor="middle">18</text>
  <line x1="319" y1="155" x2="319" y2="159" stroke="#6272a4"/>
  <text x="319" y="171" font-size="10" fill="#6272a4" text-anchor="middle">23</text>
  <rect x="35.00" y="103.14" width="11.12" height="51.86" rx="2" fill="#bd93f9"><title>00:00 — 165 commits</title></rect>
  <rect x="47.12" y="136.14" width="11.12" height="18.86" rx="2" fill="#bd93f9"><title>01:00 — 60 commits</title></rect>
  <rect x="59.25" y="150.29" width="11.12" height="4.71" rx="2" fill="#bd93f9"><title>02:00 — 15 commits</title></rect>
  <rect x="71.38" y="151.54" width="11.12" height="3.46" rx="2" fill="#bd93f9"><title>03:00 — 11 commits</title></rect>
  <rect x="83.50" y="152.17" width="11.12" height="2.83" rx="2" fill="#bd93f9"><title>04:00 — 9 commits</title></rect>
  <rect x="95.62" y="152.80" width="11.12" height="2.20" rx="2" fill="#bd93f9"><title>05:00 — 7 commits</title></rect>
  <rect x="107.75" y="151.54" width="11.12" height="3.46" rx="2" fill="#bd93f9"><title>06:00 — 11 commits</title></rect>
  <rect x="119.88" y="150.29" width="11.12" height="4.71" rx="2" fill="#bd93f9"><title>07:00 — 15 commits</title></rect>
  <rect x="132.00" y="138.66" width="11.12" height="16.34" rx="2" fill="#bd93f9"><title>08:00 — 52 commits</title></rect>
  <rect x="144.12" y="113.83" width="11.12" height="41.17" rx="2" fill="#bd93f9"><title>09:00 — 131 commits</title></rect>
  <rect x="156.25" y="95.29" width="11.12" height="59.71" rx="2" fill="#bd93f9"><title>10:00 — 190 commits</title></rect>
  <rect x="168.38" y="95.29" width="11.12" height="59.71" rx="2" fill="#bd93f9"><title>11:00 — 190 commits</title></rect>
  <rect x="180.50" y="113.83" width="11.12" height="41.17" rx="2" fill="#bd93f9"><title>12:00 — 131 commits</title></rect>
  <rect x="192.62" y="112.26" width="11.12" height="42.74" rx="2" fill="#bd93f9"><title>13:00 — 136 commits</title></rect>
  <rect x="204.75" y="110.06" width="11.12" height="44.94" rx="2" fill="#bd93f9"><title>14:00 — 143 commits</title></rect>
  <rect x="216.88" y="122.63" width="11.12" height="32.37" rx="2" fill="#bd93f9"><title>15:00 — 103 commits</title></rect>
  <rect x="229.00" y="122.31" width="11.12" height="32.69" rx="2" fill="#bd93f9"><title>16:00 — 104 commits</title></rect>
  <rect x="241.12" y="120.74" width="11.12" height="34.26" rx="2" fill="#bd93f9"><title>17:00 — 109 commits</title></rect>
  <rect x="253.25" y="114.46" width="11.12" height="40.54" rx="2" fill="#bd93f9"><title>18:00 — 129 commits</title></rect>
  <rect x="265.38" y="122.00" width="11.12" height="33.00" rx="2" fill="#bd93f9"><title>19:00 — 105 commits</title></rect>
  <rect x="277.50" y="72.66" width="11.12" height="82.34" rx="2" fill="#bd93f9"><title>20:00 — 262 commits</title></rect>
  <rect x="289.62" y="47.83" width="11.12" height="107.17" rx="2" fill="#bd93f9"><title>21:00 — 341 commits</title></rect>
  <rect x="301.75" y="54.74" width="11.12" height="100.26" rx="2" fill="#bd93f9"><title>22:00 — 319 commits</title></rect>
  <rect x="313.88" y="61.34" width="11.12" height="93.66" rx="2" fill="#bd93f9"><title>23:00 — 298 commits</title></rect>
  <text x="180" y="189" font-size="11" fill="#6272a4" text-anchor="middle">hour of day</text>
</svg>