<svg xmlns="http://www.w3.org/2000/svg" width="500" height="220" viewBox="0 0 500 220" font-family="'Segoe UI', Ubuntu, Sans-Serif">
  <rect x="0.5" y="0.5" width="499" height="219" rx="8" fill="#282a36" stroke="#282a36" stroke-opacity="1.00"/>
  <text x="25" y="35" font-size="18" font-weight="600" fill="#ff79c6">Commits by Hour (all time, UTC+7.00)</text>
  <line x1="50" y1="60" x2="50" y2="170" stroke="#6272a4"/>
  <line x1="46" y1="170" x2="50" y2="170" stroke="#6272a4"/>
  <text x="44" y="173" font-size="10" fill="#6272a4" text-anchor="end">0</text>
  <line x1="46" y1="152" x2="50" y2="152" stroke="#6272a4"/>
  <text x="44" y="155" font-size="10" fill="#6272a4" text-anchor="end">50</text>
  <line x1="46" y1="134" x2="50" y2="134" stroke="#6272a4"/>
  <text x="44" y="137" font-size="10" fill="#6272a4" text-anchor="end">100</text>
  <line x1="46" y1="115" x2="50" y2="115" stroke="#6272a4"/>
  <text x="44" y="118" font-size="10" fill="#6272a4" text-anchor="end">150</text>
  <line x1="46" y1="97" x2="50" y2="97" stroke="#6272a4"/>
  <text x="44" y="100" font-size="10" fill="#6272a4" text-anchor="end">200</text>
  <line x1="46" y1="79" x2="50" y2="79" stroke="#6272a4"/>
  <text x="44" y="82" font-size="10" fill="#6272a4" text-anchor="end">250</text>
  <line x1="46" y1="60" x2="50" y2="60" stroke="#6272a4"/>
  <text x="44" y="63" font-size="10" fill="#6272a4" text-anchor="end">300</text>
  <line x1="50" y1="170" x2="475" y2="170" stroke="#6272a4"/>
  <line x1="57" y1="170" x2="57" y2="174" stroke="#6272a4"/>
  <text x="57" y="186" font-size="10" fill="#6272a4" text-anchor="middle">0</text>
  <line x1="164" y1="170" x2="164" y2="174" stroke="#6272a4"/>
  <text x="164" y="186" font-size="10" fill="#6272a4" text-anchor="middle">6</text>
  <line x1="271" y1="170" x2="271" y2="174" stroke="#6272a4"/>
  <text x="271" y="186" font-size="10" fill="#6272a4" text-anchor="middle">12</text>
  <line x1="378" y1="170" x2="378" y2="174" stroke="#6272a4"/>
  <text x="378" y="186" font-size="10" fill="#6272a4" text-anchor="middle">18</text>
  <line x1="467" y1="170" x2="467" y2="174" stroke="#6272a4"/>
  <text x="467" y="186" font-size="10" fill="#6272a4" text-anchor="middle">23</text>
  <rect x="50.00" y="110.23" width="15.79" height="59.77" rx="2" fill="#bd93f9"><title>00:00 — 163 commits</title></rect>
  <rect x="67.79" y="148.00" width="15.79" height="22.00" rx="2" fill="#bd93f9"><title>01:00 — 60 commits</title></rect>
  <rect x="85.58" y="164.50" width="15.79" height="5.50" rx="2" fill="#bd93f9"><title>02:00 — 15 commits</title></rect>
  <rect x="103.38" y="165.97" width="15.79" height="4.03" rx="2" fill="#bd93f9"><title>03:00 — 11 commits</title></rect>
  <rect x="121.17" y="166.70" width="15.79" height="3.30" rx="2" fill="#bd93f9"><title>04:00 — 9 commits</title></rect>
  <rect x="138.96" y="167.43" width="15.79" height="2.57" rx="2" fill="#bd93f9"><title>05:00 — 7 commits</title></rect>
  <rect x="156.75" y="165.97" width="15.79" height="4.03" rx="2" fill="#bd93f9"><title>06:00 — 11 commits</title></rect>
  <rect x="174.54" y="164.50" width="15.79" height="5.50" rx="2" fill="#bd93f9"><title>07:00 — 15 commits</title></rect>
  <rect x="192.33" y="152.77" width="15.79" height="17.23" rx="2" fill="#bd93f9"><title>08:00 — 47 commits</title></rect>
  <rect x="210.12" y="126.00" width="15.79" height="44.00" rx="2" fill="#bd93f9"><title>09:00 — 120 commits</title></rect>
  <rect x="227.92" y="104.00" width="15.79" height="66.00" rx="2" fill="#bd93f9"><title>10:00 — 180 commits</title></rect>
  <rect x="245.71" y="102.17" width="15.79" height="67.83" rx="2" fill="#bd93f9"><title>11:00 — 185 commits</title></rect>
  <rect x="263.50" y="121.97" width="15.79" height="48.03" rx="2" fill="#bd93f9"><title>12:00 — 131 commits</title></rect>
  <rect x="281.29" y="120.13" width="15.79" height="49.87" rx="2" fill="#bd93f9"><title>13:00 — 136 commits</title></rect>
  <rect x="299.08" y="117.57" width="15.79" height="52.43" rx="2" fill="#bd93f9"><title>14:00 — 143 commits</title></rect>
  <rect x="316.88" y="132.23" width="15.79" height="37.77" rx="2" fill="#bd93f9"><title>15:00 — 103 commits</title></rect>
  <rect x="334.67" y="131.87" width="15.79" height="38.13" rx="2" fill="#bd93f9"><title>16:00 — 104 commits</title></rect>
  <rect x="352.46" y="130.03" width="15.79" height="39.97" rx="2" fill="#bd93f9"><title>17:00 — 109 commits</title></rect>
  <rect x="370.25" y="122.70" width="15.79" height="47.30" rx="2" fill="#bd93f9"><title>18:00 — 129 commits</title></rect>
  <rect x="388.04" y="131.50" width="15.79" height="38.50" rx="2" fill="#bd93f9"><title>19:00 — 105 commits</title></rect>
  <rect x="405.83" y="73.93" width="15.79" height="96.07" rx="2" fill="#bd93f9"><title>20:00 — 262 commits</title></rect>
  <rect x="423.62" y="44.97" width="15.79" height="125.03" rx="2" fill="#bd93f9"><title>21:00 — 341 commits</title></rect>
  <rect x="441.42" y="53.03" width="15.79" height="116.97" rx="2" fill="#bd93f9"><title>22:00 — 319 commits</title></rect>
  <rect x="459.21" y="65.13" width="15.79" height="104.87" rx="2" fill="#bd93f9"><title>23:00 — 286 commits</title></rect>
  <text x="262" y="204" font-size="11" fill="#6272a4" text-anchor="middle">hour of day</text>
</svg>