<svg xmlns="http://www.w3.org/2000/svg" width="340" height="200" viewBox="0 0 340 200" font-family="'Segoe UI', Ubuntu, Sans-Serif">
  <rect x="0.5" y="0.5" width="339" height="199" rx="6" fill="#282a36" stroke="#282a36" stroke-opacity="1.00"/>
  <text x="20" y="30" font-size="15" font-weight="600" fill="#ff79c6">Commits by Hour (all time, UTC+7.00)</text>
  <line x1="35" y1="45" x2="35" y2="155" stroke="#6272a4"/>
  <line x1="31" y1="155" x2="35" y2="155" stroke="#6272a4"/>
  <text x="29" y="158" font-size="10" fill="#6272a4" text-anchor="end">0</text>
  <line x1="31" y1="137" x2="35" y2="137" stroke="#6272a4"/>
  <text x="29" y="140" font-size="10" fill="#6272a4" text-anchor="end">50</text>
  <line x1="31" y1="119" x2="35" y2="119" stroke="#6272a4"/>
  <text x="29" y="122" font-size="10" fill="#6272a4" text-anchor="end">100</text>
  <line x1="31" y1="100" x2="35" y2="100" stroke="#6272a4"/>
  <text x="29" y="103" font-size="10" fill="#6272a4" text-anchor="end">150</text>
  <line x1="31" y1="82" x2="35" y2="82" stroke="#6272a4"/>
  <text x="29" y="85" font-size="10" fill="#6272a4" text-anchor="end">200</text>
  <line x1="31" y1="64" x2="35" y2="64" stroke="#6272a4"/>
  <text x="29" y="67" font-size="10" fill="#6272a4" text-anchor="end">250</text>
  <line x1="31" y1="45" x2="35" y2="45" stroke="#6272a4"/>
  <text x="29" y="48" font-size="10" fill="#6272a4" text-anchor="end">300</text>
  <line x1="35" y1="155" x2="325" y2="155" stroke="#6272a4"/>
  <line x1="40" y1="155" x2="40" y2="159" stroke="#6272a4"/>
  <text x="40" y="171" font-size="10" fill="#6272a4" text-anchor="middle">0</text>
  <line x1="113" y1="155" x2="113" y2="159" stroke="#6272a4"/>
  <text x="113" y="171" font-size="10" fill="#6272a4" text-anchor="middle">6</text>
  <line x1="186" y1="155" x2="186" y2="159" stroke="#6272a4"/>
  <text x="186" y="171" font-size="10" fill="#6272a4" text-anchor="middle">12</text>
  <line x1="258" y1="155" x2="258" y2="159" stroke="#6272a4"/>
  <text x="258" y="171" font-size="10" fill="#6272a4" text-anchor="middle">18</text>
  <line x1="319" y1="155" x2="319" y2="159" stroke="#6272a4"/>
  <text x="319" y="171" font-size="10" fill="#6272a4" text-anchor="middle">23</text>
  <rect x="35.00" y="94.50" width="11.12" height="60.50" rx="2" fill="#bd93f9"><title>00:00 — 165 commits</title></rect>
  <rect x="47.12" y="133.00" width="11.12" height="22.00" rx="2" fill="#bd93f9"><title>01:00 — 60 commits</title></rect>
  <rect x="59.25" y="149.50" width="11.12" height="5.50" rx="2" fill="#bd93f9"><title>02:00 — 15 commits</title></rect>
  <rect x="71.38" y="150.97" width="11.12" height="4.03" rx="2" fill="#bd93f9"><title>03:00 — 11 commits</title></rect>
  <rect x="83.50" y="151.70" width="11.12" height="3.30" rx="2" fill="#bd93f9"><title>04:00 — 9 commits</title></rect>
  <rect x="95.62" y="152.43" width="11.12" height="2.57" rx="2" fill="#bd93f9"><title>05:00 — 7 commits</title></rect>
  <rect x="107.75" y="150.97" width="11.12" height="4.03" rx="2" fill="#bd93f9"><title>06:00 — 11 commits</title></rect>
  <rect x="119.88" y="149.50" width="11.12" height="5.50" rx="2" fill="#bd93f9"><title>07:00 — 15 commits</title></rect>
  <rect x="132.00" y="137.77" width="11.12" height="17.23" rx="2" fill="#bd93f9"><title>08:00 — 47 commits</title></rect>
  <rect x="144.12" y="111.00" width="11.12" height="44.00" rx="2" fill="#bd93f9"><title>09:00 — 120 commits</title></rect>
  <rect x="156.25" y="89.00" width="11.12" height="66.00" rx="2" fill="#bd93f9"><title>10:00 — 180 commits</title></rect>
  <rect x="168.38" y="87.17" width="11.12" height="67.83" rx="2" fill="#bd93f9"><title>11:00 — 185 commits</title></rect>
  <rect x="180.50" y="106.97" width="11.12" height="48.03" rx="2" fill="#bd93f9"><title>12:00 — 131 commits</title></rect>
  <rect x="192.62" y="105.13" width="11.12" height="49.87" rx="2" fill="#bd93f9"><title>13:00 — 136 commits</title></rect>
  <rect x="204.75" y="102.57" width="11.12" height="52.43" rx="2" fill="#bd93f9"><title>14:00 — 143 commits</title></rect>
  <rect x="216.88" y="117.23" width="11.12" height="37.77" rx="2" fill="#bd93f9"><title>15:00 — 103 commits</title></rect>
  <rect x="229.00" y="116.87" width="11.12" height="38.13" rx="2" fill="#bd93f9"><title>16:00 — 104 commits</title></rect>
  <rect x="241.12" y="115.03" width="11.12" height="39.97" rx="2" fill="#bd93f9"><title>17:00 — 109 commits</title></rect>
  <rect x="253.25" y="107.70" width="11.12" height="47.30" rx="2" fill="#bd93f9"><title>18:00 — 129 commits</title></rect>
  <rect x="265.38" y="116.50" width="11.12" height="38.50" rx="2" fill="#bd93f9"><title>19:00 — 105 commits</title></rect>
  <rect x="277.50" y="58.93" width="11.12" height="96.07" rx="2" fill="#bd93f9"><title>20:00 — 262 commits</title></rect>
  <rect x="289.62" y="29.97" width="11.12" height="125.03" rx="2" fill="#bd93f9"><title>21:00 — 341 commits</title></rect>
  <rect x="301.75" y="38.03" width="11.12" height="116.97" rx="2" fill="#bd93f9"><title>22:00 — 319 commits</title></rect>
  <rect x="313.88" y="45.73" width="11.12" height="109.27" rx="2" fill="#bd93f9"><title>23:00 — 298 commits</title></rect>
  <text x="180" y="189" font-size="11" fill="#6272a4" text-anchor="middle">hour of day</text>
</svg>