<svg xmlns="http://www.w3.org/2000/svg" width="500" height="220" viewBox="0 0 500 220" font-family="'Segoe UI', Ubuntu, Sans-Serif">
  <rect x="0.5" y="0.5" width="499" height="219" rx="8" fill="#282a36" stroke="#282a36" stroke-opacity="1.00"/>
  <text x="25" y="35" font-size="18" font-weight="600" fill="#ff79c6">Commits by Hour (all time, UTC+7.00)</text>
  <line x1="50" y1="60" x2="50" y2="170" stroke="#6272a4"/>
  <line x1="46" y1="170" x2="50" y2="170" stroke="#6272a4"/>
  <text x="44" y="173" font-size="10" fill="#6272a4" text-anchor="end">0</text>
  <line x1="46" y1="152" x2="50" y2="152" stroke="#6272a4"/>
  <text x="44" y="155" font-size="10" fill="#6272a4" text-anchor="end">50</text>
  <line x1="46" y1="134" x2="50" y2="134" stroke="#6272a4"/>
  <text x="44" y="137" font-size="10" fill="#6272a4" text-anchor="end">100</text>
  <line x1="46" y1="115" x2="50" y2="115" stroke="#6272a4"/>
  <text x="44" y="118" font-size="10" fill="#6272a4" text-anchor="end">150</text>
  <line x1="46" y1="97" x2="50" y2="97" stroke="#6272a4"/>
  <text x="44" y="100" font-size="10" fill="#6272a4" text-anchor="end">200</text>
  <line x1="46" y1="79" x2="50" y2="79" stroke="#6272a4"/>
  <text x="44" y="82" font-size="10" fill="#6272a4" text-anchor="end">250</text>
  <line x1="46" y1="60" x2="50" y2="60" stroke="#6272a4"/>
  <text x="44" y="63" font-size="10" fill="#6272a4" text-anchor="end">300</text>
  <line x1="50" y1="170" x2="475" y2="170" stroke="#6272a4"/>
  <line x1="57" y1="170" x2="57" y2="174" stroke="#6272a4"/>
  <text x="57" y="186" font-size="10" fill="#6272a4" text-anchor="middle">0</text>
  <line x1="164" y1="170" x2="164" y2="174" stroke="#6272a4"/>
  <text x="164" y="186" font-size="10" fill="#6272a4" text-anchor="middle">6</text>
  <line x1="271" y1="170" x2="271" y2="174" stroke="#6272a4"/>
  <text x="271" y="186" font-size="10" fill="#6272a4" text-anchor="middle">12</text>
  <line x1="378" y1="170" x2="378" y2="174" stroke="#6272a4"/>
  <text x="378" y="186" font-size="10" fill="#6272a4" text-anchor="middle">18</text>
  <line x1="467" y1="170" x2="467" y2="174" stroke="#6272a4"/>
  <text x="467" y="186" font-size="10" fill="#6272a4" text-anchor="middle">23</text>
  <rect x="50.00" y="117.20" width="15.79" height="52.80" rx="2" fill="#bd93f9"><title>00:00 — 144 commits</title></rect>
  <rect x="67.79" y="149.47" width="15.79" height="20.53" rx="2" fill="#bd93f9"><title>01:00 — 56 commits</title></rect>
  <rect x="85.58" y="165.60" width="15.79" height="4.40" rx="2" fill="#bd93f9"><title>02:00 — 12 commits</title></rect>
  <rect x="103.38" y="165.97" width="15.79" height="4.03" rx="2" fill="#bd93f9"><title>03:00 — 11 commits</title></rect>
  <rect x="121.17" y="166.70" width="15.79" height="3.30" rx="2" fill="#bd93f9"><title>04:00 — 9 commits</title></rect>
  <rect x="138.96" y="167.43" width="15.79" height="2.57" rx="2" fill="#bd93f9"><title>05:00 — 7 commits</title></rect>
  <rect x="156.75" y="167.43" width="15.79" height="2.57" rx="2" fill="#bd93f9"><title>06:00 — 7 commits</title></rect>
  <rect x="174.54" y="167.43" width="15.79" height="2.57" rx="2" fill="#bd93f9"><title>07:00 — 7 commits</title></rect>
  <rect x="192.33" y="154.97" width="15.79" height="15.03" rx="2" fill="#bd93f9"><title>08:00 — 41 commits</title></rect>
  <rect x="210.12" y="136.27" width="15.79" height="33.73" rx="2" fill="#bd93f9"><title>09:00 — 92 commits</title></rect>
  <rect x="227.92" y="117.93" width="15.79" height="52.07" rx="2" fill="#bd93f9"><title>10:00 — 142 commits</title></rect>
  <rect x="245.71" y="109.87" width="15.79" height="60.13" rx="2" fill="#bd93f9"><title>11:00 — 164 commits</title></rect>
  <rect x="263.50" y="124.17" width="15.79" height="45.83" rx="2" fill="#bd93f9"><title>12:00 — 125 commits</title></rect>
  <rect x="281.29" y="126.37" width="15.79" height="43.63" rx="2" fill="#bd93f9"><title>13:00 — 119 commits</title></rect>
  <rect x="299.08" y="124.53" width="15.79" height="45.47" rx="2" fill="#bd93f9"><title>14:00 — 124 commits</title></rect>
  <rect x="316.88" y="142.13" width="15.79" height="27.87" rx="2" fill="#bd93f9"><title>15:00 — 76 commits</title></rect>
  <rect x="334.67" y="137.37" width="15.79" height="32.63" rx="2" fill="#bd93f9"><title>16:00 — 89 commits</title></rect>
  <rect x="352.46" y="134.80" width="15.79" height="35.20" rx="2" fill="#bd93f9"><title>17:00 — 96 commits</title></rect>
  <rect x="370.25" y="132.60" width="15.79" height="37.40" rx="2" fill="#bd93f9"><title>18:00 — 102 commits</title></rect>
  <rect x="388.04" y="138.10" width="15.79" height="31.90" rx="2" fill="#bd93f9"><title>19:00 — 87 commits</title></rect>
  <rect x="405.83" y="86.40" width="15.79" height="83.60" rx="2" fill="#bd93f9"><title>20:00 — 228 commits</title></rect>
  <rect x="423.62" y="54.87" width="15.79" height="115.13" rx="2" fill="#bd93f9"><title>21:00 — 314 commits</title></rect>
  <rect x="441.42" y="70.27" width="15.79" height="99.73" rx="2" fill="#bd93f9"><title>22:00 — 272 commits</title></rect>
  <rect x="459.21" y="81.27" width="15.79" height="88.73" rx="2" fill="#bd93f9"><title>23:00 — 242 commits</title></rect>
  <text x="262" y="204" font-size="11" fill="#6272a4" text-anchor="middle">hour of day</text>
</svg>