<svg xmlns="http://www.w3.org/2000/svg" width="340" height="200" viewBox="0 0 340 200" font-family="'Segoe UI', Ubuntu, Sans-Serif">
  <rect x="0.5" y="0.5" width="339" height="199" rx="6" fill="#282a36" stroke="#282a36" stroke-opacity="1.00"/>
  <text x="20" y="30" font-size="14" font-weight="600" fill="#ff79c6">Commits by Hour (last year, UTC+7.00)</text>
  <line x1="35" y1="45" x2="35" y2="155" stroke="#6272a4"/>
  <line x1="31" y1="155" x2="35" y2="155" stroke="#6272a4"/>
  <text x="29" y="158" font-size="10" fill="#6272a4" text-anchor="end">0</text>
  <line x1="31" y1="133" x2="35" y2="133" stroke="#6272a4"/>
  <text x="29" y="136" font-size="10" fill="#6272a4" text-anchor="end">50</text>
  <line x1="31" y1="111" x2="35" y2="111" stroke="#6272a4"/>
  <text x="29" y="114" font-size="10" fill="#6272a4" text-anchor="end">100</text>
  <line x1="31" y1="89" x2="35" y2="89" stroke="#6272a4"/>
  <text x="29" y="92" font-size="10" fill="#6272a4" text-anchor="end">150</text>
  <line x1="31" y1="67" x2="35" y2="67" stroke="#6272a4"/>
  <text x="29" y="70" font-size="10" fill="#6272a4" text-anchor="end">200</text>
  <line x1="31" y1="45" x2="35" y2="45" stroke="#6272a4"/>
  <text x="29" y="48" font-size="10" fill="#6272a4" text-anchor="end">250</text>
  <line x1="35" y1="155" x2="325" y2="155" stroke="#6272a4"/>
  <line x1="40" y1="155" x2="40" y2="159" stroke="#6272a4"/>
  <text x="40" y="171" font-size="10" fill="#6272a4" text-anchor="middle">0</text>
  <line x1="113" y1="155" x2="113" y2="159" stroke="#6272a4"/>
  <text x="113" y="171" font-size="10" fill="#6272a4" text-anchor="middle">6</text>
  <line x1="186" y1="155" x2="186" y2="159" stroke="#6272a4"/>
  <text x="186" y="171" font-size="10" fill="#6272a4" text-anchor="middle">12</text>
  <line x1="258" y1="155" x2="258" y2="159" stroke="#6272a4"/>
  <text x="258" y="171" font-size="10" fill="#6272a4" text-anchor="middle">18</text>
  <line x1="319" y1="155" x2="319" y2="159" stroke="#6272a4"/>
  <text x="319" y="171" font-size="10" fill="#6272a4" text-anchor="middle">23</text>
  <rect x="35.00" y="114.96" width="11.12" height="40.04" rx="2" fill="#bd93f9"><title>00:00 — 91 commits</title></rect>
  <rect x="47.12" y="142.68" width="11.12" height="12.32" rx="2" fill="#bd93f9"><title>01:00 — 28 commits</title></rect>
  <rect x="59.25" y="153.24" width="11.12" height="1.76" rx="2" fill="#bd93f9"><title>02:00 — 4 commits</title></rect>
  <rect x="71.38" y="153.24" width="11.12" height="1.76" rx="2" fill="#bd93f9"><title>03:00 — 4 commits</title></rect>
  <rect x="83.50" y="155.00" width="11.12" height="0.00" rx="2" fill="#bd93f9"><title>04:00 — 0 commits</title></rect>
  <rect x="95.62" y="155.00" width="11.12" height="0.00" rx="2" fill="#bd93f9"><title>05:00 — 0 commits</title></rect>
  <rect x="107.75" y="153.68" width="11.12" height="1.32" rx="2" fill="#bd93f9"><title>06:00 — 3 commits</title></rect>
  <rect x="119.88" y="154.56" width="11.12" height="0.44" rx="2" fill="#bd93f9"><title>07:00 — 1 commits</title></rect>
  <rect x="132.00" y="139.16" width="11.12" height="15.84" rx="2" fill="#bd93f9"><title>08:00 — 36 commits</title></rect>
  <rect x="144.12" y="108.36" width="11.12" height="46.64" rx="2" fill="#bd93f9"><title>09:00 — 106 commits</title></rect>
  <rect x="156.25" y="97.36" width="11.12" height="57.64" rx="2" fill="#bd93f9"><title>10:00 — 131 commits</title></rect>
  <rect x="168.38" y="114.52" width="11.12" height="40.48" rx="2" fill="#bd93f9"><title>11:00 — 92 commits</title></rect>
  <rect x="180.50" y="131.24" width="11.12" height="23.76" rx="2" fill="#bd93f9"><title>12:00 — 54 commits</title></rect>
  <rect x="192.62" y="123.76" width="11.12" height="31.24" rx="2" fill="#bd93f9"><title>13:00 — 71 commits</title></rect>
  <rect x="204.75" y="128.60" width="11.12" height="26.40" rx="2" fill="#bd93f9"><title>14:00 — 60 commits</title></rect>
  <rect x="216.88" y="129.92" width="11.12" height="25.08" rx="2" fill="#bd93f9"><title>15:00 — 57 commits</title></rect>
  <rect x="229.00" y="127.72" width="11.12" height="27.28" rx="2" fill="#bd93f9"><title>16:00 — 62 commits</title></rect>
  <rect x="241.12" y="127.28" width="11.12" height="27.72" rx="2" fill="#bd93f9"><title>17:00 — 63 commits</title></rect>
  <rect x="253.25" y="128.16" width="11.12" height="26.84" rx="2" fill="#bd93f9"><title>18:00 — 61 commits</title></rect>
  <rect x="265.38" y="136.52" width="11.12" height="18.48" rx="2" fill="#bd93f9"><title>19:00 — 42 commits</title></rect>
  <rect x="277.50" y="95.60" width="11.12" height="59.40" rx="2" fill="#bd93f9"><title>20:00 — 135 commits</title></rect>
  <rect x="289.62" y="86.36" width="11.12" height="68.64" rx="2" fill="#bd93f9"><title>21:00 — 156 commits</title></rect>
  <rect x="301.75" y="65.24" width="11.12" height="89.76" rx="2" fill="#bd93f9"><title>22:00 — 204 commits</title></rect>
  <rect x="313.88" y="73.60" width="11.12" height="81.40" rx="2" fill="#bd93f9"><title>23:00 — 185 commits</title></rect>
  <text x="180" y="189" font-size="11" fill="#6272a4" text-anchor="middle">hour of day</text>
</svg>