<svg xmlns="http://www.w3.org/2000/svg" width="340" height="200" viewBox="0 0 340 200" font-family="'Segoe UI', Ubuntu, Sans-Serif">
  <rect x="0.5" y="0.5" width="339" height="199" rx="6" fill="#282a36" stroke="#282a36" stroke-opacity="1.00"/>
  <text x="20" y="30" font-size="13" font-weight="600" fill="#ff79c6">Commits by Weekday (all time, UTC+7.00)</text>
  <line x1="35" y1="45" x2="35" y2="155" stroke="#6272a4"/>
  <line x1="31" y1="155" x2="35" y2="155" stroke="#6272a4"/>
  <text x="29" y="158" font-size="10" fill="#6272a4" text-anchor="end">0</text>
  <line x1="31" y1="140" x2="35" y2="140" stroke="#6272a4"/>
  <text x="29" y="143" font-size="10" fill="#6272a4" text-anchor="end">100</text>
  <line x1="31" y1="124" x2="35" y2="124" stroke="#6272a4"/>
  <text x="29" y="127" font-size="10" fill="#6272a4" text-anchor="end">200</text>
  <line x1="31" y1="108" x2="35" y2="108" stroke="#6272a4"/>
  <text x="29" y="111" font-size="10" fill="#6272a4" text-anchor="end">300</text>
  <line x1="31" y1="93" x2="35" y2="93" stroke="#6272a4"/>
  <text x="29" y="96" font-size="10" fill="#6272a4" text-anchor="end">400</text>
  <line x1="31" y1="77" x2="35" y2="77" stroke="#6272a4"/>
  <text x="29" y="80" font-size="10" fill="#6272a4" text-anchor="end">500</text>
  <line x1="31" y1="61" x2="35" y2="61" stroke="#6272a4"/>
  <text x="29" y="64" font-size="10" fill="#6272a4" text-anchor="end">600</text>
  <line x1="31" y1="45" x2="35" y2="45" stroke="#6272a4"/>
  <text x="29" y="48" font-size="10" fill="#6272a4" text-anchor="end">700</text>
  <line x1="35" y1="155" x2="325" y2="155" stroke="#6272a4"/>
  <rect x="35.00" y="62.91" width="36.29" height="92.09" rx="2" fill="#7963a1"><title>Sun — 586 commits</title></rect>
  <text x="53.14" y="169" font-size="10" fill="#6272a4" text-anchor="middle">Sun</text>
  <rect x="77.29" y="99.21" width="36.29" height="55.79" rx="2" fill="#7963a1"><title>Mon — 355 commits</title></rect>
  <text x="95.43" y="169" font-size="10" fill="#6272a4" text-anchor="middle">Mon</text>
  <rect x="119.57" y="89.47" width="36.29" height="65.53" rx="2" fill="#7963a1"><title>Tue — 417 commits</title></rect>
  <text x="137.71" y="169" font-size="10" fill="#6272a4" text-anchor="middle">Tue</text>
  <rect x="161.86" y="100.94" width="36.29" height="54.06" rx="2" fill="#7963a1"><title>Wed — 344 commits</title></rect>
  <text x="180.00" y="169" font-size="10" fill="#6272a4" text-anchor="middle">Wed</text>
  <rect x="204.14" y="94.34" width="36.29" height="60.66" rx="2" fill="#7963a1"><title>Thu — 386 commits</title></rect>
  <text x="222.29" y="169" font-size="10" fill="#6272a4" text-anchor="middle">Thu</text>
  <rect x="246.43" y="105.03" width="36.29" height="49.97" rx="2" fill="#7963a1"><title>Fri — 318 commits</title></rect>
  <text x="264.57" y="169" font-size="10" fill="#6272a4" text-anchor="middle">Fri</text>
  <rect x="288.71" y="56.79" width="36.29" height="98.21" rx="2" fill="#bd93f9"><title>Sat — 625 commits</title></rect>
  <text x="306.86" y="169" font-size="10" fill="#6272a4" text-anchor="middle">Sat</text>
</svg>