<svg xmlns="http://www.w3.org/2000/svg" width="500" height="220" viewBox="0 0 500 220" font-family="'Segoe UI', Ubuntu, Sans-Serif">
  <rect x="0.5" y="0.5" width="499" height="219" rx="8" fill="#282a36" stroke="#282a36" stroke-opacity="1.00"/>
  <text x="25" y="35" font-size="18" font-weight="600" fill="#ff79c6">Repos Per Language</text>
  <rect x="30" y="60" width="12" height="12" fill="#f1e05a" stroke="#282a36" stroke-width="1"/>
  <text x="50" y="70" font-size="13" fill="#ffb86c">JavaScript 20.83%</text>
  <rect x="30" y="82" width="12" height="12" fill="#b07219" stroke="#282a36" stroke-width="1"/>
  <text x="50" y="92" font-size="13" fill="#ffb86c">Java 16.67%</text>
  <rect x="30" y="104" width="12" height="12" fill="#00ADD8" stroke="#282a36" stroke-width="1"/>
  <text x="50" y="114" font-size="13" fill="#ffb86c">Go 11.90%</text>
  <rect x="30" y="126" width="12" height="12" fill="#3572A5" stroke="#282a36" stroke-width="1"/>
  <text x="50" y="136" font-size="13" fill="#ffb86c">Python 10.71%</text>
  <rect x="30" y="148" width="12" height="12" fill="#e34c26" stroke="#282a36" stroke-width="1"/>
  <text x="50" y="158" font-size="13" fill="#ffb86c">HTML 8.93%</text>
  <rect x="30" y="170" width="12" height="12" fill="#bd93f9" stroke="#282a36" stroke-width="1"/>
  <text x="50" y="180" font-size="13" fill="#ffb86c">Other 30.95%</text>
  <path d="M380.00,50.00 A70.00,70.00 0 0 1 447.61,101.88 L416.71,110.16 A38.00,38.00 0 0 0 380.00,82.00 Z" fill="#f1e05a" stroke="#282a36" stroke-width="1.5"/>
  <path d="M447.61,101.88 A70.00,70.00 0 0 1 429.50,169.50 L406.87,146.87 A38.00,38.00 0 0 0 416.71,110.16 Z" fill="#b07219" stroke="#282a36" stroke-width="1.5"/>
  <path d="M429.50,169.50 A70.00,70.00 0 0 1 382.62,189.95 L381.42,157.97 A38.00,38.00 0 0 0 406.87,146.87 Z" fill="#00ADD8" stroke="#282a36" stroke-width="1.5"/>
  <path d="M382.62,189.95 A70.00,70.00 0 0 1 338.43,176.32 L357.43,150.57 A38.00,38.00 0 0 0 381.42,157.97 Z" fill="#3572A5" stroke="#282a36" stroke-width="1.5"/>
  <path d="M338.43,176.32 A70.00,70.00 0 0 1 314.84,145.57 L344.63,133.88 A38.00,38.00 0 0 0 357.43,150.57 Z" fill="#e34c26" stroke="#282a36" stroke-width="1.5"/>
  <path d="M314.84,145.57 A70.00,70.00 0 0 1 380.00,50.00 L380.00,82.00 A38.00,38.00 0 0 0 344.63,133.88 Z" fill="#bd93f9" stroke="#282a36" stroke-width="1.5"/>
</svg>