<svg xmlns="http://www.w3.org/2000/svg" width="340" height="200" viewBox="0 0 340 200" font-family="'Segoe UI', Ubuntu, Sans-Serif">
  <rect x="0.5" y="0.5" width="339" height="199" rx="6" fill="#282a36" stroke="#282a36" stroke-opacity="1.00"/>
  <text x="20" y="30" font-size="15" font-weight="600" fill="#ff79c6">Repos Per Language</text>
  <rect x="20" y="47" width="10" height="10" fill="#f1e05a" stroke="#282a36" stroke-width="1"/>
  <text x="36" y="55" font-size="11" fill="#ffb86c">JavaScript 22.45%</text>
  <rect x="20" y="67" width="10" height="10" fill="#b07219" stroke="#282a36" stroke-width="1"/>
  <text x="36" y="75" font-size="11" fill="#ffb86c">Java 17.35%</text>
  <rect x="20" y="87" width="10" height="10" fill="#00ADD8" stroke="#282a36" stroke-width="1"/>
  <text x="36" y="95" font-size="11" fill="#ffb86c">Go 12.76%</text>
  <rect x="20" y="107" width="10" height="10" fill="#3572A5" stroke="#282a36" stroke-width="1"/>
  <text x="36" y="115" font-size="11" fill="#ffb86c">Python 10.20%</text>
  <rect x="20" y="127" width="10" height="10" fill="#bd93f9" stroke="#282a36" stroke-width="1"/>
  <text x="36" y="135" font-size="11" fill="#ffb86c">Other 37.24%</text>
  <path d="M250.00,55.00 A55.00,55.00 0 0 1 304.29,101.22 L279.62,105.21 A30.00,30.00 0 0 0 250.00,80.00 Z" fill="#f1e05a" stroke="#282a36" stroke-width="1.5"/>
  <path d="M304.29,101.22 A55.00,55.00 0 0 1 282.90,154.08 L267.94,134.04 A30.00,30.00 0 0 0 279.62,105.21 Z" fill="#b07219" stroke="#282a36" stroke-width="1.5"/>
  <path d="M282.90,154.08 A55.00,55.00 0 0 1 241.22,164.29 L245.21,139.62 A30.00,30.00 0 0 0 267.94,134.04 Z" fill="#00ADD8" stroke="#282a36" stroke-width="1.5"/>
  <path d="M241.22,164.29 A55.00,55.00 0 0 1 210.49,148.26 L228.45,130.87 A30.00,30.00 0 0 0 245.21,139.62 Z" fill="#3572A5" stroke="#282a36" stroke-width="1.5"/>
  <path d="M210.49,148.26 A55.00,55.00 0 0 1 250.00,55.00 L250.00,80.00 A30.00,30.00 0 0 0 228.45,130.87 Z" fill="#bd93f9" stroke="#282a36" stroke-width="1.5"/>
</svg>