<svg xmlns="http://www.w3.org/2000/svg" width="340" height="200" viewBox="0 0 340 200" font-family="'Segoe UI', Ubuntu, Sans-Serif">
  <rect x="0.5" y="0.5" width="339" height="199" rx="6" fill="#282a36" stroke="#282a36" stroke-opacity="1.00"/>
  <text x="20" y="30" font-size="15" font-weight="600" fill="#ff79c6">Top Starred Repos</text>
  <circle cx="24" cy="56" r="4" fill="#178600"/>
  <text x="34" y="60" font-size="12" fill="#ffb86c">time-mocker</text>
  <rect x="150" y="52" width="120" height="10" rx="3" fill="#bd93f9" fill-opacity="0.15"/>
  <rect x="150" y="52" width="120.00" height="10" rx="3" fill="#bd93f9"/>
  <text x="334" y="60" font-size="12" font-weight="600" fill="#bd93f9" text-anchor="end">1 ★</text>
  <circle cx="24" cy="78" r="4" fill="#00ADD8"/>
  <text x="34" y="82" font-size="12" fill="#ffb86c">adventofcode</text>
  <rect x="150" y="74" width="120" height="10" rx="3" fill="#bd93f9" fill-opacity="0.15"/>
  <rect x="150" y="74" width="120.00" height="10" rx="3" fill="#bd93f9"/>
  <text x="334" y="82" font-size="12" font-weight="600" fill="#bd93f9" text-anchor="end">1 ★</text>
  <circle cx="24" cy="100" r="4" fill="#3572A5"/>
  <text x="34" y="104" font-size="12" fill="#ffb86c">export-telegram-…</text>
  <rect x="150" y="96" width="120" height="10" rx="3" fill="#bd93f9" fill-opacity="0.15"/>
  <rect x="150" y="96" width="120.00" height="10" rx="3" fill="#bd93f9"/>
  <text x="334" y="104" font-size="12" font-weight="600" fill="#bd93f9" text-anchor="end">1 ★</text>
  <circle cx="24" cy="122" r="4" fill="#b07219"/>
  <text x="34" y="126" font-size="12" fill="#ffb86c">lottery-generator</text>
  <rect x="150" y="118" width="120" height="10" rx="3" fill="#bd93f9" fill-opacity="0.15"/>
  <rect x="150" y="118" width="120.00" height="10" rx="3" fill="#bd93f9"/>
  <text x="334" y="126" font-size="12" font-weight="600" fill="#bd93f9" text-anchor="end">1 ★</text>
</svg>